<?xml version="1.0" encoding="utf-8"?>
<!DOCTYPE svg PUBLIC "-//W3C//DTD SVG 1.1//EN" "http://www.w3.org/Graphics/SVG/1.1/DTD/svg11.dtd">
<svg version="1.1" 
    xmlns="http://www.w3.org/2000/svg" xmlns:xlink="http://www.w3.org/1999/xlink"
    x="0px" y="0px" 
    width="24px" height="24px"
    viewBox="0 0 24 24"
    xml:space="preserve">
    <style>
        .f { fill: #000; }
        .background--light .f { fill: #000; }
        .background--dark  .f { fill: #FFF; }
    </style>
    <path class="f" d="M19.1,12.9c-0.6-0.6-1.5-0.6-2.1,0l-3.4,3.4V4c0-0.8-0.7-1.5-1.5-1.5S10.5,3.2,10.5,4v12.4l-3.4-3.4c-0.6-0.6-1.5-0.6-2.1,0s-0.6,1.5,0,2.1l6,6c0.1,0.1,0.3,0.3,0.5,0.3c0,0,0,0,0,0c0.2,0.1,0.4,0.1,0.5,0.1s0.4,0,0.5-0.1c0,0,0,0,0,0c0.2-0.1,0.4-0.2,0.5-0.3l6-6C19.6,14.5,19.6,13.5,19.1,12.9z"/>
</svg>
