<?xml version="1.0" standalone="no"?>
<!DOCTYPE svg PUBLIC "-//W3C//DTD SVG 1.1//EN" "http://www.w3.org/Graphics/SVG/1.1/DTD/svg11.dtd" >
<svg xmlns="http://www.w3.org/2000/svg">
<metadata>
Created by FontPrep 20130207 at Thu May 29 21:50:57 2014
 By Rezki Bangsawan
Copyright (c) 2014 by Rene' Bieder. All rights reserved.
</metadata>
<defs>
<font id="91d9471548d051660712c60c90cff7da" horiz-adv-x='1024' >
  <font-face 
    font-family="Campton-BoldDEMO"
    font-weight="700"
    font-stretch="normal"
    units-per-em="2048"
    panose-1="0 0 8 0 0 0 0 0 0 0"
    ascent="1638"
    descent="-410"
    x-height="993"
    cap-height="1393"
    bbox="-72 -483 2687.01 1882"
    underline-thickness="102"
    underline-position="-102"
    unicode-range="U+0020-FB02"
  />
<missing-glyph 
d="M348 143h977l-977 977v-977zM1434 1249h-985l985 -985v985zM1577 1393v-1393h-1372v1393h1372z" />
    <glyph glyph-name="fi" unicode="fi" horiz-adv-x="1503" 
d="M1384 993v-993h-331v709h-471v-709h-332v709h-244v284h244v78q0 231 132 369t339 137q144 -1 221 -19q78 -18 191 -45l-54 -278q-209 41 -303 41t-144 -55t-50 -156v-72h802z" />
    <glyph glyph-name="fl" unicode="fl" horiz-adv-x="1490" 
d="M1376 1454v-1454h-332v1454h332zM250 993v119q0 213 122 339t314 126q125 0 264 -37l-45 -276q-85 18 -157 18t-119 -44t-47 -118v-127h303v-284h-303v-709h-332v709h-244v284h244z" />
    <glyph glyph-name=".notdef" 
d="M348 143h977l-977 977v-977zM1434 1249h-985l985 -985v985zM1577 1393v-1393h-1372v1393h1372z" />
    <glyph glyph-name=".null" horiz-adv-x="0" 
 />
    <glyph glyph-name="nonmarkingreturn" horiz-adv-x="681" 
 />
    <glyph glyph-name="space" unicode=" " horiz-adv-x="526" 
 />
    <glyph glyph-name="exclam" unicode="!" horiz-adv-x="604" 
d="M301 -23q-74 -1 -126 49t-52 124t52 122t126 50q74 0 127 -50t53 -122q0 -74 -53 -124t-127 -49zM446 455h-290l-29 938h348z" />
    <glyph glyph-name="quotedbl" unicode="&#x22;" 
d="M528 647h29q25 1 40 17t15 38t-15 39q-15 16 -40 17h-29v-111zM1220 760q-24 0 -38 -16t-14 -41q0 -23 14 -39t38 -16t38 16t16 38q0 22 -15 40t-39 18zM924 606h-47v195h36l68 -105l70 105h34v-195h-47v99l-45 -68h-24l-45 68v-99zM838 801v-41h-99v-37h86v-41h-86v-35
h99v-41h-146v195h146zM479 801h78q45 0 75 -28t30 -70q0 -41 -30 -69t-75 -28h-78v195zM1222 803q44 0 74 -29t29 -71q1 -41 -29 -71t-74 -30t-74 30t-30 72t30 70q30 29 74 29zM348 143h983l-360 351h233l230 -224v979h-983l364 -354h-233l-234 227v-979zM1577 1393v-1393
h-1372v1393h1372z" />
    <glyph glyph-name="numbersign" unicode="#" 
d="M528 647h29q25 1 40 17t15 38t-15 39q-15 16 -40 17h-29v-111zM1220 760q-24 0 -38 -16t-14 -41q0 -23 14 -39t38 -16t38 16t16 38q0 22 -15 40t-39 18zM924 606h-47v195h36l68 -105l70 105h34v-195h-47v99l-45 -68h-24l-45 68v-99zM838 801v-41h-99v-37h86v-41h-86v-35
h99v-41h-146v195h146zM479 801h78q45 0 75 -28t30 -70q0 -41 -30 -69t-75 -28h-78v195zM1222 803q44 0 74 -29t29 -71q1 -41 -29 -71t-74 -30t-74 30t-30 72t30 70q30 29 74 29zM348 143h983l-360 351h233l230 -224v979h-983l364 -354h-233l-234 227v-979zM1577 1393v-1393
h-1372v1393h1372z" />
    <glyph glyph-name="dollar" unicode="$" horiz-adv-x="1384" 
d="M1288 420q0 -174 -118 -291t-320 -147v-207h-268v205q-207 28 -343 150t-157 333h346q16 -93 93 -145t187 -52q208 0 210 123q0 90 -148 119l-229 51q-207 45 -305 144t-98 273t120 295q121 120 324 146v219h268v-227q174 -35 296 -141t140 -307h-348q-31 176 -225 176
q-91 0 -145 -37q-54 -38 -54 -98t39 -89t121 -47l194 -45q208 -45 314 -136t106 -265z" />
    <glyph glyph-name="percent" unicode="%" horiz-adv-x="2234" 
d="M1679 184q79 0 137 56t58 140q0 85 -57 139t-137 54t-137 -54q-56 -54 -56 -139q0 -84 56 -140t136 -56zM1679 791q180 0 300 -115t120 -295t-120 -296t-300 -116t-300 116t-119 296q0 180 119 295q120 115 300 115zM554 819q81 0 137 54q57 55 57 141t-56 140t-138 54
q-81 0 -137 -54q-57 -54 -57 -140t56 -140t138 -55zM752 0h-224l930 1393h223zM553 1423q180 -1 300 -115t120 -294t-120 -296t-300 -116t-300 116t-120 296t120 294t300 115z" />
    <glyph glyph-name="ampersand" unicode="&#x26;" horiz-adv-x="1511" 
d="M365 420q1 -72 65 -122t154 -50t176 43l-297 280q-98 -57 -98 -151zM576 -31q-238 0 -383 121t-146 318q0 240 236 366q-84 121 -84 244q0 172 129 289t336 117q208 0 330 -118t139 -321h-314q-6 74 -45 115t-97 41t-96 -36t-38 -86q1 -50 27 -93t59 -78t114 -113
l230 -223l147 240h340l-264 -437l-8 -12l311 -303h-428l-90 84q-167 -115 -405 -115z" />
    <glyph glyph-name="quotesingle" unicode="'" 
d="M528 647h29q25 1 40 17t15 38t-15 39q-15 16 -40 17h-29v-111zM1220 760q-24 0 -38 -16t-14 -41q0 -23 14 -39t38 -16t38 16t16 38q0 22 -15 40t-39 18zM924 606h-47v195h36l68 -105l70 105h34v-195h-47v99l-45 -68h-24l-45 68v-99zM838 801v-41h-99v-37h86v-41h-86v-35
h99v-41h-146v195h146zM479 801h78q45 0 75 -28t30 -70q0 -41 -30 -69t-75 -28h-78v195zM1222 803q44 0 74 -29t29 -71q1 -41 -29 -71t-74 -30t-74 30t-30 72t30 70q30 29 74 29zM348 143h983l-360 351h233l230 -224v979h-983l364 -354h-233l-234 227v-979zM1577 1393v-1393
h-1372v1393h1372z" />
    <glyph glyph-name="parenleft" unicode="(" horiz-adv-x="796" 
d="M440 596q0 -204 77 -356q77 -154 239 -326l-228 -227q-438 403 -438 912t438 912l228 -227q-162 -172 -239 -328t-77 -360z" />
    <glyph glyph-name="parenright" unicode=")" horiz-adv-x="790" 
d="M41 1284l227 227q438 -403 438 -912t-438 -912l-227 227q162 172 239 326q76 154 76 358t-76 358q-76 156 -239 328z" />
    <glyph glyph-name="asterisk" unicode="*" 
d="M528 647h29q25 1 40 17t15 38t-15 39q-15 16 -40 17h-29v-111zM1220 760q-24 0 -38 -16t-14 -41q0 -23 14 -39t38 -16t38 16t16 38q0 22 -15 40t-39 18zM924 606h-47v195h36l68 -105l70 105h34v-195h-47v99l-45 -68h-24l-45 68v-99zM838 801v-41h-99v-37h86v-41h-86v-35
h99v-41h-146v195h146zM479 801h78q45 0 75 -28t30 -70q0 -41 -30 -69t-75 -28h-78v195zM1222 803q44 0 74 -29t29 -71q1 -41 -29 -71t-74 -30t-74 30t-30 72t30 70q30 29 74 29zM348 143h983l-360 351h233l230 -224v979h-983l364 -354h-233l-234 227v-979zM1577 1393v-1393
h-1372v1393h1372z" />
    <glyph glyph-name="plus" unicode="+" 
d="M528 647h29q25 1 40 17t15 38t-15 39q-15 16 -40 17h-29v-111zM1220 760q-24 0 -38 -16t-14 -41q0 -23 14 -39t38 -16t38 16t16 38q0 22 -15 40t-39 18zM924 606h-47v195h36l68 -105l70 105h34v-195h-47v99l-45 -68h-24l-45 68v-99zM838 801v-41h-99v-37h86v-41h-86v-35
h99v-41h-146v195h146zM479 801h78q45 0 75 -28t30 -70q0 -41 -30 -69t-75 -28h-78v195zM1222 803q44 0 74 -29t29 -71q1 -41 -29 -71t-74 -30t-74 30t-30 72t30 70q30 29 74 29zM348 143h983l-360 351h233l230 -224v979h-983l364 -354h-233l-234 227v-979zM1577 1393v-1393
h-1372v1393h1372z" />
    <glyph glyph-name="comma" unicode="," horiz-adv-x="479" 
d="M241 319q77 0 130 -50t53 -121t-62 -175l-122 -204h-185l107 227q-106 45 -107 149q1 72 55 123t131 51z" />
    <glyph glyph-name="hyphen" unicode="-" horiz-adv-x="1134" 
d="M938 371h-739v315h739v-315z" />
    <glyph glyph-name="period" unicode="." horiz-adv-x="481" 
d="M242 -37q-78 0 -132 52t-55 128q1 76 55 127q54 52 132 52t132 -52t54 -127q0 -76 -54 -128t-132 -52z" />
    <glyph glyph-name="slash" unicode="/" 
d="M528 647h29q25 1 40 17t15 38t-15 39q-15 16 -40 17h-29v-111zM1220 760q-24 0 -38 -16t-14 -41q0 -23 14 -39t38 -16t38 16t16 38q0 22 -15 40t-39 18zM924 606h-47v195h36l68 -105l70 105h34v-195h-47v99l-45 -68h-24l-45 68v-99zM838 801v-41h-99v-37h86v-41h-86v-35
h99v-41h-146v195h146zM479 801h78q45 0 75 -28t30 -70q0 -41 -30 -69t-75 -28h-78v195zM1222 803q44 0 74 -29t29 -71q1 -41 -29 -71t-74 -30t-74 30t-30 72t30 70q30 29 74 29zM348 143h983l-360 351h233l230 -224v979h-983l364 -354h-233l-234 227v-979zM1577 1393v-1393
h-1372v1393h1372z" />
    <glyph glyph-name="zero" unicode="0" horiz-adv-x="1470" 
d="M1051 696q0 188 -83 308t-234 118q-152 0 -234 -118t-82 -308q0 -188 82 -307t234 -119q151 0 234 119t83 307zM737 1423q297 -1 471 -203t174 -524t-174 -524t-471 -203q-297 0 -472 203q-175 202 -175 524t175 524t472 203z" />
    <glyph glyph-name="one" unicode="1" horiz-adv-x="1087" 
d="M1077 281v-281h-1005v281h348v747l-328 -92v299l455 158h205v-1112h325z" />
    <glyph glyph-name="two" unicode="2" horiz-adv-x="1171" 
d="M1085 281v-281h-991v164l424 514q37 41 72 84q34 42 57 69q70 82 70 145q0 62 -38 103t-113 41t-119 -44t-52 -124h-329q4 213 134 342t363 129t371 -124t139 -304q0 -96 -60 -193t-227 -296l-188 -225h487z" />
    <glyph glyph-name="three" unicode="3" horiz-adv-x="1183" 
d="M389 408q37 -160 209 -160q92 0 145 44t53 114t-58 113q-58 44 -148 44h-121v254h121q82 0 133 45t51 116t-46 114t-124 43t-128 -44t-58 -118h-322q12 201 146 319t353 119q218 0 352 -117q134 -118 134 -306t-139 -288q176 -98 176 -294t-145 -316t-382 -121
q-237 0 -368 117t-155 322h321z" />
    <glyph glyph-name="four" unicode="4" horiz-adv-x="1343" 
d="M1276 246h-176v-246h-326v246h-708v215l378 932h332l-327 -858h325v383h326v-383h176v-289z" />
    <glyph glyph-name="five" unicode="5" horiz-adv-x="1251" 
d="M662 905q229 -1 363 -127t134 -333t-148 -341t-386 -135h-2q-231 0 -378 119q-146 119 -169 320h325q45 -160 222 -160q98 0 159 55q62 55 62 140t-64 137t-174 51h-434v762h922v-295h-602l-3 -193h173z" />
    <glyph glyph-name="six" unicode="6" horiz-adv-x="1277" 
d="M639 246q102 0 170 68t68 159q0 90 -68 158q-68 67 -168 67t-166 -47l-8 -14q-68 -96 -68 -176q0 -79 69 -147t171 -68zM1202 475q0 -211 -158 -358t-406 -147t-404 146q-157 148 -156 363q0 150 119 338l362 576h389l-264 -416q230 -15 374 -153t144 -349z" />
    <glyph glyph-name="seven" unicode="7" horiz-adv-x="1073" 
d="M1036 1393v-195l-534 -1198h-377l489 1083h-594v310h1016z" />
    <glyph glyph-name="eight" unicode="8" horiz-adv-x="1275" 
d="M637 240q90 0 150 54t61 132q0 78 -60 129t-151 51q-89 0 -149 -51t-60 -130t60 -132t149 -53zM637 1174q-84 0 -137 -50q-54 -50 -54 -123q0 -75 54 -123t137 -48q84 0 138 50t54 122t-54 122t-138 50zM1202 403q0 -199 -150 -317t-413 -117q-264 0 -414 118t-149 316
q0 225 223 336q-166 101 -166 281t141 292q142 112 364 112t363 -112t141 -292t-163 -281q223 -111 223 -336z" />
    <glyph glyph-name="nine" unicode="9" horiz-adv-x="1277" 
d="M879 932q0 80 -69 148t-171 67q-102 0 -170 -69q-68 -68 -68 -158t68 -158t168 -68t166 47l8 15q68 96 68 176zM639 1423q249 0 405 -147t156 -363q0 -150 -119 -338l-362 -575h-389l264 416q-229 14 -374 152q-144 138 -144 349t157 359q158 147 406 147z" />
    <glyph glyph-name="colon" unicode=":" horiz-adv-x="481" 
d="M242 -37q-78 0 -132 52t-55 128q1 76 55 127q54 52 132 52t132 -52t54 -127q0 -76 -54 -128t-132 -52zM242 659q-78 1 -132 53t-55 128q1 76 55 127t132 51t132 -51t54 -127t-54 -128t-132 -53z" />
    <glyph glyph-name="semicolon" unicode=";" horiz-adv-x="481" 
d="M243 319q77 0 130 -50t53 -121t-61 -175l-123 -204h-185l107 227q-106 45 -107 149q1 72 55 123t131 51zM242 659q-78 1 -132 53t-55 128q1 76 55 127t132 51t132 -51t54 -127t-54 -128t-132 -53z" />
    <glyph glyph-name="less" unicode="&#x3c;" 
d="M528 647h29q25 1 40 17t15 38t-15 39q-15 16 -40 17h-29v-111zM1220 760q-24 0 -38 -16t-14 -41q0 -23 14 -39t38 -16t38 16t16 38q0 22 -15 40t-39 18zM924 606h-47v195h36l68 -105l70 105h34v-195h-47v99l-45 -68h-24l-45 68v-99zM838 801v-41h-99v-37h86v-41h-86v-35
h99v-41h-146v195h146zM479 801h78q45 0 75 -28t30 -70q0 -41 -30 -69t-75 -28h-78v195zM1222 803q44 0 74 -29t29 -71q1 -41 -29 -71t-74 -30t-74 30t-30 72t30 70q30 29 74 29zM348 143h983l-360 351h233l230 -224v979h-983l364 -354h-233l-234 227v-979zM1577 1393v-1393
h-1372v1393h1372z" />
    <glyph glyph-name="equal" unicode="=" 
d="M528 647h29q25 1 40 17t15 38t-15 39q-15 16 -40 17h-29v-111zM1220 760q-24 0 -38 -16t-14 -41q0 -23 14 -39t38 -16t38 16t16 38q0 22 -15 40t-39 18zM924 606h-47v195h36l68 -105l70 105h34v-195h-47v99l-45 -68h-24l-45 68v-99zM838 801v-41h-99v-37h86v-41h-86v-35
h99v-41h-146v195h146zM479 801h78q45 0 75 -28t30 -70q0 -41 -30 -69t-75 -28h-78v195zM1222 803q44 0 74 -29t29 -71q1 -41 -29 -71t-74 -30t-74 30t-30 72t30 70q30 29 74 29zM348 143h983l-360 351h233l230 -224v979h-983l364 -354h-233l-234 227v-979zM1577 1393v-1393
h-1372v1393h1372z" />
    <glyph glyph-name="greater" unicode="&#x3e;" 
d="M528 647h29q25 1 40 17t15 38t-15 39q-15 16 -40 17h-29v-111zM1220 760q-24 0 -38 -16t-14 -41q0 -23 14 -39t38 -16t38 16t16 38q0 22 -15 40t-39 18zM924 606h-47v195h36l68 -105l70 105h34v-195h-47v99l-45 -68h-24l-45 68v-99zM838 801v-41h-99v-37h86v-41h-86v-35
h99v-41h-146v195h146zM479 801h78q45 0 75 -28t30 -70q0 -41 -30 -69t-75 -28h-78v195zM1222 803q44 0 74 -29t29 -71q1 -41 -29 -71t-74 -30t-74 30t-30 72t30 70q30 29 74 29zM348 143h983l-360 351h233l230 -224v979h-983l364 -354h-233l-234 227v-979zM1577 1393v-1393
h-1372v1393h1372z" />
    <glyph glyph-name="question" unicode="?" horiz-adv-x="1103" 
d="M492 -23q-74 -1 -126 49t-53 124q1 74 53 122t126 50q74 0 126 -50t54 -122q0 -74 -53 -124t-127 -49zM522 782q88 0 146 48q57 48 57 128t-49 128t-130 48t-131 -43q-50 -44 -59 -118h-321q12 203 141 321q128 118 352 117q224 0 364 -125t140 -325q0 -161 -105 -265
t-290 -129l-10 -118h-252l-21 333h168z" />
    <glyph glyph-name="at" unicode="@" horiz-adv-x="2027" 
d="M1004 297q106 0 180 94q-6 55 -6 111v100q-74 90 -162 90t-146 -54t-59 -144q0 -90 57 -144q58 -53 136 -53zM1460 905v-495q0 -143 96 -144q146 0 146 270t-188 454t-482 184t-498 -197t-204 -481t202 -482q202 -197 488 -196q248 0 438 149l119 -178
q-238 -178 -555 -178q-381 0 -647 255t-266 630q1 246 123 450t334 318q212 115 464 114q381 0 634 -240t253 -603q0 -217 -91 -347t-292 -131q-201 0 -289 133q-123 -129 -298 -129t-295 124q-120 125 -120 309t119 308t293 124q131 0 234 -70v49h282z" />
    <glyph glyph-name="A" unicode="A" horiz-adv-x="1562" 
d="M961 535l-181 462l-180 -462h361zM1075 240h-590l-92 -240h-368l591 1401h330l590 -1401h-367z" />
    <glyph glyph-name="B" unicode="B" horiz-adv-x="1421" 
d="M469 287h338q102 0 154 40q51 40 51 105q0 129 -199 129h-344v-274zM469 1110v-285h289q96 0 148 40t52 110q0 135 -200 135h-289zM1352 387q0 -175 -134 -281t-366 -106h-729v1393h688q225 1 352 -99t127 -272q0 -100 -52 -187t-142 -118q124 -27 190 -119t66 -211z" />
    <glyph glyph-name="C" unicode="C" horiz-adv-x="1615" 
d="M440 696q0 -174 108 -288t260 -113q154 0 245 75q90 75 118 208h355q-33 -272 -223 -440q-191 -168 -491 -167q-300 0 -511 206t-211 519t211 519t511 206t490 -167t224 -439h-355q-29 133 -118 208q-90 75 -244 75q-153 0 -261 -114t-108 -288z" />
    <glyph glyph-name="D" unicode="D" horiz-adv-x="1509" 
d="M469 311h215q170 0 285 112q115 111 115 275t-115 274t-285 109h-215v-770zM123 1393h561q328 0 540 -194t212 -501q0 -306 -212 -502t-540 -196h-561v1393z" />
    <glyph glyph-name="E" unicode="E" horiz-adv-x="1249" 
d="M469 1092v-254h616v-295h-616v-242h707v-301h-1053v1393h1053v-301h-707z" />
    <glyph glyph-name="F" unicode="F" horiz-adv-x="1193" 
d="M469 1087v-294h598v-301h-598v-492h-346v1393h1038v-306h-692z" />
    <glyph glyph-name="G" unicode="G" horiz-adv-x="1656" 
d="M1544 782v-782h-258l-14 168q-160 -197 -441 -197q-325 0 -533 204q-208 203 -208 517t212 522t534 207q262 0 456 -140t238 -384h-363q-78 207 -325 207q-178 0 -290 -115t-112 -291t112 -290t294 -115q244 0 352 213l-399 4v272h745z" />
    <glyph glyph-name="H" unicode="H" horiz-adv-x="1503" 
d="M1382 1393v-1393h-346v522h-567v-522h-346v1393h346v-559h567v559h346z" />
    <glyph glyph-name="I" unicode="I" horiz-adv-x="591" 
d="M469 1393v-1393h-346v1393h346z" />
    <glyph glyph-name="J" unicode="J" horiz-adv-x="1275" 
d="M1171 1393v-836q1 -283 -151 -435t-411 -153q-259 1 -411 139t-161 386h344q5 -98 67 -154t159 -55q97 0 156 71q58 72 58 201v836h350z" />
    <glyph glyph-name="K" unicode="K" horiz-adv-x="1490" 
d="M469 0h-346v1393h346v-633l555 633h410l-531 -611l576 -782h-422l-389 512l-199 -229v-283z" />
    <glyph glyph-name="L" unicode="L" horiz-adv-x="1198" 
d="M1157 305v-305h-1034v1393h346v-1088h688z" />
    <glyph glyph-name="M" unicode="M" horiz-adv-x="1748" 
d="M1626 1393v-1393h-346v698l-309 -477v-2h-193v2l-311 481l2 -702h-346v1393h256l495 -744l494 744h258z" />
    <glyph glyph-name="N" unicode="N" horiz-adv-x="1525" 
d="M1405 1393v-1393h-268l-668 764v-764h-346v1393h264l672 -785v785h346z" />
    <glyph glyph-name="O" unicode="O" horiz-adv-x="1654" 
d="M827 293q166 0 277 118q110 117 110 285t-110 286q-111 118 -277 118q-167 0 -277 -118t-110 -286t110 -286t277 -117zM828 1421q314 0 526 -210t213 -515q0 -305 -212 -515q-213 -210 -527 -210t-526 210t-212 515t212 515t526 210z" />
    <glyph glyph-name="P" unicode="P" horiz-adv-x="1312" 
d="M469 657h207q116 -1 184 61t68 160t-69 154q-69 55 -183 55h-207v-430zM123 1393h561q272 1 431 -137t159 -378t-166 -381q-166 -142 -453 -143h-186v-354h-346v1393z" />
    <glyph glyph-name="Q" unicode="Q" horiz-adv-x="1654" 
d="M440 696q0 -168 111 -286t277 -117q166 0 276 118q110 117 110 285t-110 286q-111 118 -277 118q-167 0 -277 -118t-110 -286zM828 1421q314 0 526 -210q212 -211 213 -525q0 -314 -236 -528l219 -258l-245 -224l-275 322q-92 -27 -203 -27q-313 0 -525 210t-212 515
t212 515t526 210z" />
    <glyph glyph-name="R" unicode="R" horiz-adv-x="1435" 
d="M469 715h256q102 0 171 52t69 135t-69 134t-171 51h-256v-372zM469 403v-403h-346v1393h610q260 0 418 -132t158 -358q0 -143 -70 -256t-197 -176l359 -471h-418l-299 403h-215z" />
    <glyph glyph-name="S" unicode="S" horiz-adv-x="1384" 
d="M713 1137q-91 0 -145 -37q-54 -38 -54 -98t39 -89t121 -47l194 -45q208 -45 314 -136t106 -261q0 -209 -158 -331t-416 -122t-433 124q-176 124 -199 368h346q16 -93 93 -145t187 -52q208 0 210 123q0 90 -148 119l-229 51q-207 45 -305 144t-99 266q1 207 153 331
t377 123q225 0 391 -89q91 -48 153 -144t75 -229h-348q-31 176 -225 176z" />
    <glyph glyph-name="T" unicode="T" horiz-adv-x="1327" 
d="M1280 1083h-442v-1083h-346v1083h-445v310h1233v-310z" />
    <glyph glyph-name="U" unicode="U" horiz-adv-x="1501" 
d="M1399 1393v-744q0 -322 -174 -501t-475 -179t-475 179q-173 179 -173 501v744h349v-750q1 -160 81 -255t218 -95t219 95q82 95 82 255v750h348z" />
    <glyph glyph-name="V" unicode="V" horiz-adv-x="1597" 
d="M1577 1393l-604 -1401h-348l-605 1401h381l398 -944l397 944h381z" />
    <glyph glyph-name="W" unicode="W" horiz-adv-x="2211" 
d="M963 1393h286l295 -865l260 865h367l-451 -1401h-334l-280 850l-281 -850h-333l-451 1401h367l260 -867l295 863v4z" />
    <glyph glyph-name="X" unicode="X" horiz-adv-x="1425" 
d="M1014 0l-299 428l-301 -428h-398l465 686l-458 707h415l275 -430l274 430h416l-459 -707l467 -686h-397z" />
    <glyph glyph-name="Y" unicode="Y" horiz-adv-x="1472" 
d="M911 0h-348v420l-551 973h383l340 -607l342 607h383l-549 -973v-420z" />
    <glyph glyph-name="Z" unicode="Z" horiz-adv-x="1347" 
d="M1276 305v-305h-1206v164l690 923h-656v306h1160v-164l-662 -924h674z" />
    <glyph glyph-name="bracketleft" unicode="[" horiz-adv-x="784" 
d="M432 10h299v-311h-631v1796h631v-309h-299v-1176z" />
    <glyph glyph-name="backslash" unicode="\" 
d="M528 647h29q25 1 40 17t15 38t-15 39q-15 16 -40 17h-29v-111zM1220 760q-24 0 -38 -16t-14 -41q0 -23 14 -39t38 -16t38 16t16 38q0 22 -15 40t-39 18zM924 606h-47v195h36l68 -105l70 105h34v-195h-47v99l-45 -68h-24l-45 68v-99zM838 801v-41h-99v-37h86v-41h-86v-35
h99v-41h-146v195h146zM479 801h78q45 0 75 -28t30 -70q0 -41 -30 -69t-75 -28h-78v195zM1222 803q44 0 74 -29t29 -71q1 -41 -29 -71t-74 -30t-74 30t-30 72t30 70q30 29 74 29zM348 143h983l-360 351h233l230 -224v979h-983l364 -354h-233l-234 227v-979zM1577 1393v-1393
h-1372v1393h1372z" />
    <glyph glyph-name="bracketright" unicode="]" horiz-adv-x="784" 
d="M53 1186v309h631v-1796h-631v311h299v1176h-299z" />
    <glyph glyph-name="asciicircum" unicode="^" 
d="M528 647h29q25 1 40 17t15 38t-15 39q-15 16 -40 17h-29v-111zM1220 760q-24 0 -38 -16t-14 -41q0 -23 14 -39t38 -16t38 16t16 38q0 22 -15 40t-39 18zM924 606h-47v195h36l68 -105l70 105h34v-195h-47v99l-45 -68h-24l-45 68v-99zM838 801v-41h-99v-37h86v-41h-86v-35
h99v-41h-146v195h146zM479 801h78q45 0 75 -28t30 -70q0 -41 -30 -69t-75 -28h-78v195zM1222 803q44 0 74 -29t29 -71q1 -41 -29 -71t-74 -30t-74 30t-30 72t30 70q30 29 74 29zM348 143h983l-360 351h233l230 -224v979h-983l364 -354h-233l-234 227v-979zM1577 1393v-1393
h-1372v1393h1372z" />
    <glyph glyph-name="underscore" unicode="_" 
d="M528 647h29q25 1 40 17t15 38t-15 39q-15 16 -40 17h-29v-111zM1220 760q-24 0 -38 -16t-14 -41q0 -23 14 -39t38 -16t38 16t16 38q0 22 -15 40t-39 18zM924 606h-47v195h36l68 -105l70 105h34v-195h-47v99l-45 -68h-24l-45 68v-99zM838 801v-41h-99v-37h86v-41h-86v-35
h99v-41h-146v195h146zM479 801h78q45 0 75 -28t30 -70q0 -41 -30 -69t-75 -28h-78v195zM1222 803q44 0 74 -29t29 -71q1 -41 -29 -71t-74 -30t-74 30t-30 72t30 70q30 29 74 29zM348 143h983l-360 351h233l230 -224v979h-983l364 -354h-233l-234 227v-979zM1577 1393v-1393
h-1372v1393h1372z" />
    <glyph glyph-name="grave" unicode="`" 
d="M528 647h29q25 1 40 17t15 38t-15 39q-15 16 -40 17h-29v-111zM1220 760q-24 0 -38 -16t-14 -41q0 -23 14 -39t38 -16t38 16t16 38q0 22 -15 40t-39 18zM924 606h-47v195h36l68 -105l70 105h34v-195h-47v99l-45 -68h-24l-45 68v-99zM838 801v-41h-99v-37h86v-41h-86v-35
h99v-41h-146v195h146zM479 801h78q45 0 75 -28t30 -70q0 -41 -30 -69t-75 -28h-78v195zM1222 803q44 0 74 -29t29 -71q1 -41 -29 -71t-74 -30t-74 30t-30 72t30 70q30 29 74 29zM348 143h983l-360 351h233l230 -224v979h-983l364 -354h-233l-234 227v-979zM1577 1393v-1393
h-1372v1393h1372z" />
    <glyph glyph-name="a" unicode="a" horiz-adv-x="1277" 
d="M640 252q114 0 194 92v307q-80 94 -194 94q-114 1 -180 -71q-67 -72 -67 -176t67 -175q66 -71 180 -71zM1165 993v-993h-331v55q-119 -76 -273 -75q-203 0 -348 150t-145 368t145 368t348 150q154 0 273 -76v53h331z" />
    <glyph glyph-name="b" unicode="b" horiz-adv-x="1277" 
d="M638 248q114 0 180 72q67 72 67 174q0 104 -67 176q-66 72 -180 72t-194 -95v-307q80 -92 194 -92zM717 1012q203 0 348 -148t145 -369q0 -220 -145 -370t-348 -150q-154 0 -273 76v-51h-331v1454h331v-518q119 76 273 76z" />
    <glyph glyph-name="c" unicode="c" horiz-adv-x="1187" 
d="M383 498q-1 -104 61 -172t152 -68t143 41t66 109h313q-16 -190 -158 -310t-364 -121q-222 1 -376 147t-152 372q0 226 153 373q154 147 375 147t363 -120t159 -310h-313q-11 68 -65 108t-144 41q-90 0 -152 -66q-61 -67 -61 -171z" />
    <glyph glyph-name="d" unicode="d" horiz-adv-x="1277" 
d="M640 741q-114 1 -180 -71q-67 -72 -67 -175t67 -175q66 -72 180 -72t194 92v307q-80 94 -194 94zM1165 1454v-1454h-331v51q-119 -76 -273 -76q-203 0 -348 150t-145 370t145 368t348 149q154 0 273 -76v518h331z" />
    <glyph glyph-name="e" unicode="e" horiz-adv-x="1173" 
d="M596 760q-168 0 -209 -166h406q-29 166 -197 166zM1104 518q0 -76 -6 -112l2 -7h-709q47 -160 223 -159q106 0 152 71h328q-35 -153 -167 -243t-317 -91q-242 -1 -392 145t-150 374t146 374t374 146t372 -138t144 -360z" />
    <glyph glyph-name="f" unicode="f" horiz-adv-x="931" 
d="M582 993h350v-284h-350v-709h-332v709h-244v284h244v119q0 213 122 339t314 126q125 0 264 -37l-45 -276q-85 18 -157 18t-119 -44t-47 -118v-127z" />
    <glyph glyph-name="g" unicode="g" horiz-adv-x="1286" 
d="M401 529q0 -95 68 -163q69 -68 179 -67q110 0 192 92v275q-82 92 -194 92t-179 -67q-66 -67 -66 -162zM1171 993v-977q0 -229 -147 -360q-148 -131 -380 -131t-381 119q-148 119 -161 311h328q27 -150 209 -150q88 -1 144 53t57 152v94q-119 -70 -271 -69
q-203 0 -348 141t-145 353q0 211 144 355t349 144q150 0 271 -74v39h331z" />
    <glyph glyph-name="h" unicode="h" horiz-adv-x="1241" 
d="M719 1024q190 0 307 -123t117 -334v-567h-334v514q0 102 -48 156t-138 53q-90 0 -179 -100v-623h-331v1454h331v-528q123 98 275 98z" />
    <glyph glyph-name="i" unicode="i" horiz-adv-x="571" 
d="M453 993v-993h-332v993h332zM284 1149q-81 0 -138 53q-56 53 -56 133t56 134q56 55 138 55t138 -54q57 -54 57 -135q0 -80 -57 -133t-138 -53z" />
    <glyph glyph-name="j" unicode="j" horiz-adv-x="565" 
d="M446 993v-913q0 -246 -104 -366t-385 -126l-29 277q106 10 146 47q39 37 39 125v956h333zM280 1149q-81 0 -139 53q-57 53 -57 133t57 134q57 55 139 55t137 -54q56 -54 56 -135q0 -80 -56 -133t-137 -53z" />
    <glyph glyph-name="k" unicode="k" horiz-adv-x="1224" 
d="M444 0h-331v1454h331v-833l347 372h395l-377 -405l410 -588h-398l-237 344l-140 -149v-195z" />
    <glyph glyph-name="l" unicode="l" horiz-adv-x="559" 
d="M444 1454v-1454h-331v1454h331z" />
    <glyph glyph-name="m" unicode="m" horiz-adv-x="1867" 
d="M1340 1024q192 0 308 -124t115 -333v-567h-333v514q0 209 -179 209q-84 0 -151 -82q4 -49 4 -74v-567h-332v514q0 104 -47 156t-130 53q-83 0 -151 -88v-635h-331v993h331v-59q106 90 248 90q190 0 305 -133q151 133 343 133z" />
    <glyph glyph-name="n" unicode="n" horiz-adv-x="1241" 
d="M719 1024q190 0 307 -123t117 -334v-567h-334v514q0 102 -48 156t-138 53q-90 0 -179 -100v-623h-331v993h331v-67q123 98 275 98z" />
    <glyph glyph-name="o" unicode="o" horiz-adv-x="1214" 
d="M383 494q1 -100 63 -169t161 -69t162 69q62 69 62 169t-62 168q-61 68 -161 68t-163 -68q-62 -68 -62 -168zM606 1016q236 0 388 -146t151 -373q0 -226 -153 -377t-386 -151t-386 151q-152 151 -152 377q0 227 151 373t387 146z" />
    <glyph glyph-name="p" unicode="p" horiz-adv-x="1277" 
d="M638 252q114 0 180 71q67 71 67 175t-67 176q-66 72 -180 72t-194 -95v-307q80 -92 194 -92zM717 1016q203 0 348 -150t145 -368t-145 -369q-145 -150 -348 -149q-154 0 -273 75v-516h-331v1454h331v-53q119 76 273 76z" />
    <glyph glyph-name="q" unicode="q" horiz-adv-x="1277" 
d="M638 252q112 0 191 90v311q-82 92 -193 92q-111 1 -178 -71t-67 -176t67 -175q68 -71 180 -71zM1161 993v-1454h-332v514q-121 -74 -270 -73q-203 0 -348 150t-145 368t145 368t348 150q150 0 270 -74v51h332z" />
    <glyph glyph-name="r" unicode="r" horiz-adv-x="839" 
d="M786 1010v-316q-223 -8 -342 -127v-567h-331v993h331v-106q143 123 342 123z" />
    <glyph glyph-name="s" unicode="s" horiz-adv-x="1067" 
d="M530 215q141 0 142 70q0 55 -97 69l-200 35q-291 49 -291 313q0 142 121 230t321 88q117 0 213 -30t171 -110t81 -204h-295q-4 55 -50 83q-46 27 -112 27t-99 -20q-32 -20 -32 -51q0 -59 103 -78l186 -31q309 -57 309 -301q0 -164 -130 -250q-131 -86 -337 -86
q-206 1 -340 93t-149 280l295 -2q20 -125 190 -125z" />
    <glyph glyph-name="t" unicode="t" horiz-adv-x="962" 
d="M608 -31q-180 0 -290 122t-109 323v295h-195v284h195v338h332v-338h338v-284h-338v-285q0 -150 155 -150q49 0 176 25l37 -281q-156 -49 -301 -49z" />
    <glyph glyph-name="u" unicode="u" horiz-adv-x="1241" 
d="M1128 993v-993h-331v66q-125 -96 -273 -97q-190 0 -307 123t-117 334v567h332v-516q0 -102 49 -155q49 -54 138 -54t178 99v626h331z" />
    <glyph glyph-name="v" unicode="v" horiz-adv-x="1216" 
d="M1196 993l-430 -993h-315l-431 993h351l237 -573l238 573h350z" />
    <glyph glyph-name="w" unicode="w" horiz-adv-x="1658" 
d="M1630 993l-340 -993h-303l-158 512l-159 -512h-301l-342 993h348l155 -532l168 532h263l167 -528l156 528h346z" />
    <glyph glyph-name="x" unicode="x" horiz-adv-x="1163" 
d="M797 496l348 -496h-365l-198 285l-201 -285h-365l349 496l-349 497h379l185 -262l186 262h379z" />
    <glyph glyph-name="y" unicode="y" horiz-adv-x="1312" 
d="M1278 993l-612 -1452h-349l189 447l-471 1005h352l285 -612l258 612h348z" />
    <glyph glyph-name="z" unicode="z" horiz-adv-x="1048" 
d="M989 274v-274h-928v162l467 555h-458v276h919v-176l-452 -543h452z" />
    <glyph glyph-name="braceleft" unicode="{" horiz-adv-x="753" 
d="M551 1102v-240q0 -113 -31 -172t-127 -90q96 -31 127 -87t31 -169v-240q0 -48 41 -78t108 -30v-309q-219 -1 -350 107t-131 290v270q0 78 -33 96t-131 19v262q98 1 131 19t33 96v276q0 182 131 290t350 108v-310q-68 0 -108 -30t-41 -78z" />
    <glyph glyph-name="bar" unicode="|" 
d="M528 647h29q25 1 40 17t15 38t-15 39q-15 16 -40 17h-29v-111zM1220 760q-24 0 -38 -16t-14 -41q0 -23 14 -39t38 -16t38 16t16 38q0 22 -15 40t-39 18zM924 606h-47v195h36l68 -105l70 105h34v-195h-47v99l-45 -68h-24l-45 68v-99zM838 801v-41h-99v-37h86v-41h-86v-35
h99v-41h-146v195h146zM479 801h78q45 0 75 -28t30 -70q0 -41 -30 -69t-75 -28h-78v195zM1222 803q44 0 74 -29t29 -71q1 -41 -29 -71t-74 -30t-74 30t-30 72t30 70q30 29 74 29zM348 143h983l-360 351h233l230 -224v979h-983l364 -354h-233l-234 227v-979zM1577 1393v-1393
h-1372v1393h1372z" />
    <glyph glyph-name="braceright" unicode="}" horiz-adv-x="774" 
d="M223 862v240q0 47 -41 78t-108 30v310q219 0 350 -108t131 -290v-276q0 -78 33 -96t131 -19v-262q-98 0 -131 -18t-33 -97v-270q0 -182 -131 -290t-350 -107v309q68 0 108 31t41 77v240q0 113 31 169t127 87q-96 31 -127 90t-31 172z" />
    <glyph glyph-name="asciitilde" unicode="~" 
d="M528 647h29q25 1 40 17t15 38t-15 39q-15 16 -40 17h-29v-111zM1220 760q-24 0 -38 -16t-14 -41q0 -23 14 -39t38 -16t38 16t16 38q0 22 -15 40t-39 18zM924 606h-47v195h36l68 -105l70 105h34v-195h-47v99l-45 -68h-24l-45 68v-99zM838 801v-41h-99v-37h86v-41h-86v-35
h99v-41h-146v195h146zM479 801h78q45 0 75 -28t30 -70q0 -41 -30 -69t-75 -28h-78v195zM1222 803q44 0 74 -29t29 -71q1 -41 -29 -71t-74 -30t-74 30t-30 72t30 70q30 29 74 29zM348 143h983l-360 351h233l230 -224v979h-983l364 -354h-233l-234 227v-979zM1577 1393v-1393
h-1372v1393h1372z" />
    <glyph glyph-name="exclamdown" unicode="&#xa1;" 
d="M528 647h29q25 1 40 17t15 38t-15 39q-15 16 -40 17h-29v-111zM1220 760q-24 0 -38 -16t-14 -41q0 -23 14 -39t38 -16t38 16t16 38q0 22 -15 40t-39 18zM924 606h-47v195h36l68 -105l70 105h34v-195h-47v99l-45 -68h-24l-45 68v-99zM838 801v-41h-99v-37h86v-41h-86v-35
h99v-41h-146v195h146zM479 801h78q45 0 75 -28t30 -70q0 -41 -30 -69t-75 -28h-78v195zM1222 803q44 0 74 -29t29 -71q1 -41 -29 -71t-74 -30t-74 30t-30 72t30 70q30 29 74 29zM348 143h983l-360 351h233l230 -224v979h-983l364 -354h-233l-234 227v-979zM1577 1393v-1393
h-1372v1393h1372z" />
    <glyph glyph-name="cent" unicode="&#xa2;" 
d="M528 647h29q25 1 40 17t15 38t-15 39q-15 16 -40 17h-29v-111zM1220 760q-24 0 -38 -16t-14 -41q0 -23 14 -39t38 -16t38 16t16 38q0 22 -15 40t-39 18zM924 606h-47v195h36l68 -105l70 105h34v-195h-47v99l-45 -68h-24l-45 68v-99zM838 801v-41h-99v-37h86v-41h-86v-35
h99v-41h-146v195h146zM479 801h78q45 0 75 -28t30 -70q0 -41 -30 -69t-75 -28h-78v195zM1222 803q44 0 74 -29t29 -71q1 -41 -29 -71t-74 -30t-74 30t-30 72t30 70q30 29 74 29zM348 143h983l-360 351h233l230 -224v979h-983l364 -354h-233l-234 227v-979zM1577 1393v-1393
h-1372v1393h1372z" />
    <glyph glyph-name="sterling" unicode="&#xa3;" horiz-adv-x="1263" 
d="M502 285h684v-285h-1129v285h115v266h-115v258h115v113q0 225 143 360t371 135t368 -119t160 -323h-331q-15 74 -65 115q-50 40 -131 40t-133 -56t-52 -152v-113h372v-258h-372v-266z" />
    <glyph glyph-name="yen" unicode="&#xa5;" 
d="M528 647h29q25 1 40 17t15 38t-15 39q-15 16 -40 17h-29v-111zM1220 760q-24 0 -38 -16t-14 -41q0 -23 14 -39t38 -16t38 16t16 38q0 22 -15 40t-39 18zM924 606h-47v195h36l68 -105l70 105h34v-195h-47v99l-45 -68h-24l-45 68v-99zM838 801v-41h-99v-37h86v-41h-86v-35
h99v-41h-146v195h146zM479 801h78q45 0 75 -28t30 -70q0 -41 -30 -69t-75 -28h-78v195zM1222 803q44 0 74 -29t29 -71q1 -41 -29 -71t-74 -30t-74 30t-30 72t30 70q30 29 74 29zM348 143h983l-360 351h233l230 -224v979h-983l364 -354h-233l-234 227v-979zM1577 1393v-1393
h-1372v1393h1372z" />
    <glyph glyph-name="brokenbar" unicode="&#xa6;" 
d="M528 647h29q25 1 40 17t15 38t-15 39q-15 16 -40 17h-29v-111zM1220 760q-24 0 -38 -16t-14 -41q0 -23 14 -39t38 -16t38 16t16 38q0 22 -15 40t-39 18zM924 606h-47v195h36l68 -105l70 105h34v-195h-47v99l-45 -68h-24l-45 68v-99zM838 801v-41h-99v-37h86v-41h-86v-35
h99v-41h-146v195h146zM479 801h78q45 0 75 -28t30 -70q0 -41 -30 -69t-75 -28h-78v195zM1222 803q44 0 74 -29t29 -71q1 -41 -29 -71t-74 -30t-74 30t-30 72t30 70q30 29 74 29zM348 143h983l-360 351h233l230 -224v979h-983l364 -354h-233l-234 227v-979zM1577 1393v-1393
h-1372v1393h1372z" />
    <glyph glyph-name="section" unicode="&#xa7;" 
d="M528 647h29q25 1 40 17t15 38t-15 39q-15 16 -40 17h-29v-111zM1220 760q-24 0 -38 -16t-14 -41q0 -23 14 -39t38 -16t38 16t16 38q0 22 -15 40t-39 18zM924 606h-47v195h36l68 -105l70 105h34v-195h-47v99l-45 -68h-24l-45 68v-99zM838 801v-41h-99v-37h86v-41h-86v-35
h99v-41h-146v195h146zM479 801h78q45 0 75 -28t30 -70q0 -41 -30 -69t-75 -28h-78v195zM1222 803q44 0 74 -29t29 -71q1 -41 -29 -71t-74 -30t-74 30t-30 72t30 70q30 29 74 29zM348 143h983l-360 351h233l230 -224v979h-983l364 -354h-233l-234 227v-979zM1577 1393v-1393
h-1372v1393h1372z" />
    <glyph glyph-name="dieresis" unicode="&#xa8;" horiz-adv-x="1228" 
d="M850 1487q78 0 132 -52t54 -128t-54 -128q-54 -53 -132 -53t-133 52t-55 129q0 76 55 128t133 52zM381 1487q78 0 132 -52t54 -128t-54 -128q-54 -53 -132 -53t-133 52t-55 129q0 76 55 128t133 52z" />
    <glyph glyph-name="copyright" unicode="&#xa9;" 
d="M528 647h29q25 1 40 17t15 38t-15 39q-15 16 -40 17h-29v-111zM1220 760q-24 0 -38 -16t-14 -41q0 -23 14 -39t38 -16t38 16t16 38q0 22 -15 40t-39 18zM924 606h-47v195h36l68 -105l70 105h34v-195h-47v99l-45 -68h-24l-45 68v-99zM838 801v-41h-99v-37h86v-41h-86v-35
h99v-41h-146v195h146zM479 801h78q45 0 75 -28t30 -70q0 -41 -30 -69t-75 -28h-78v195zM1222 803q44 0 74 -29t29 -71q1 -41 -29 -71t-74 -30t-74 30t-30 72t30 70q30 29 74 29zM348 143h983l-360 351h233l230 -224v979h-983l364 -354h-233l-234 227v-979zM1577 1393v-1393
h-1372v1393h1372z" />
    <glyph glyph-name="ordfeminine" unicode="&#xaa;" 
d="M528 647h29q25 1 40 17t15 38t-15 39q-15 16 -40 17h-29v-111zM1220 760q-24 0 -38 -16t-14 -41q0 -23 14 -39t38 -16t38 16t16 38q0 22 -15 40t-39 18zM924 606h-47v195h36l68 -105l70 105h34v-195h-47v99l-45 -68h-24l-45 68v-99zM838 801v-41h-99v-37h86v-41h-86v-35
h99v-41h-146v195h146zM479 801h78q45 0 75 -28t30 -70q0 -41 -30 -69t-75 -28h-78v195zM1222 803q44 0 74 -29t29 -71q1 -41 -29 -71t-74 -30t-74 30t-30 72t30 70q30 29 74 29zM348 143h983l-360 351h233l230 -224v979h-983l364 -354h-233l-234 227v-979zM1577 1393v-1393
h-1372v1393h1372z" />
    <glyph glyph-name="guillemotleft" unicode="&#xab;" horiz-adv-x="995" 
d="M950 846l-194 -330l194 -330h-295l-194 330l194 330h295zM535 846l-195 -330l195 -330h-295l-195 330l195 330h295z" />
    <glyph glyph-name="registered" unicode="&#xae;" 
d="M528 647h29q25 1 40 17t15 38t-15 39q-15 16 -40 17h-29v-111zM1220 760q-24 0 -38 -16t-14 -41q0 -23 14 -39t38 -16t38 16t16 38q0 22 -15 40t-39 18zM924 606h-47v195h36l68 -105l70 105h34v-195h-47v99l-45 -68h-24l-45 68v-99zM838 801v-41h-99v-37h86v-41h-86v-35
h99v-41h-146v195h146zM479 801h78q45 0 75 -28t30 -70q0 -41 -30 -69t-75 -28h-78v195zM1222 803q44 0 74 -29t29 -71q1 -41 -29 -71t-74 -30t-74 30t-30 72t30 70q30 29 74 29zM348 143h983l-360 351h233l230 -224v979h-983l364 -354h-233l-234 227v-979zM1577 1393v-1393
h-1372v1393h1372z" />
    <glyph glyph-name="macron" unicode="&#xaf;" 
d="M528 647h29q25 1 40 17t15 38t-15 39q-15 16 -40 17h-29v-111zM1220 760q-24 0 -38 -16t-14 -41q0 -23 14 -39t38 -16t38 16t16 38q0 22 -15 40t-39 18zM924 606h-47v195h36l68 -105l70 105h34v-195h-47v99l-45 -68h-24l-45 68v-99zM838 801v-41h-99v-37h86v-41h-86v-35
h99v-41h-146v195h146zM479 801h78q45 0 75 -28t30 -70q0 -41 -30 -69t-75 -28h-78v195zM1222 803q44 0 74 -29t29 -71q1 -41 -29 -71t-74 -30t-74 30t-30 72t30 70q30 29 74 29zM348 143h983l-360 351h233l230 -224v979h-983l364 -354h-233l-234 227v-979zM1577 1393v-1393
h-1372v1393h1372z" />
    <glyph glyph-name="degree" unicode="&#xb0;" 
d="M528 647h29q25 1 40 17t15 38t-15 39q-15 16 -40 17h-29v-111zM1220 760q-24 0 -38 -16t-14 -41q0 -23 14 -39t38 -16t38 16t16 38q0 22 -15 40t-39 18zM924 606h-47v195h36l68 -105l70 105h34v-195h-47v99l-45 -68h-24l-45 68v-99zM838 801v-41h-99v-37h86v-41h-86v-35
h99v-41h-146v195h146zM479 801h78q45 0 75 -28t30 -70q0 -41 -30 -69t-75 -28h-78v195zM1222 803q44 0 74 -29t29 -71q1 -41 -29 -71t-74 -30t-74 30t-30 72t30 70q30 29 74 29zM348 143h983l-360 351h233l230 -224v979h-983l364 -354h-233l-234 227v-979zM1577 1393v-1393
h-1372v1393h1372z" />
    <glyph glyph-name="plusminus" unicode="&#xb1;" 
d="M528 647h29q25 1 40 17t15 38t-15 39q-15 16 -40 17h-29v-111zM1220 760q-24 0 -38 -16t-14 -41q0 -23 14 -39t38 -16t38 16t16 38q0 22 -15 40t-39 18zM924 606h-47v195h36l68 -105l70 105h34v-195h-47v99l-45 -68h-24l-45 68v-99zM838 801v-41h-99v-37h86v-41h-86v-35
h99v-41h-146v195h146zM479 801h78q45 0 75 -28t30 -70q0 -41 -30 -69t-75 -28h-78v195zM1222 803q44 0 74 -29t29 -71q1 -41 -29 -71t-74 -30t-74 30t-30 72t30 70q30 29 74 29zM348 143h983l-360 351h233l230 -224v979h-983l364 -354h-233l-234 227v-979zM1577 1393v-1393
h-1372v1393h1372z" />
    <glyph glyph-name="twosuperior" unicode="&#xb2;" 
d="M528 647h29q25 1 40 17t15 38t-15 39q-15 16 -40 17h-29v-111zM1220 760q-24 0 -38 -16t-14 -41q0 -23 14 -39t38 -16t38 16t16 38q0 22 -15 40t-39 18zM924 606h-47v195h36l68 -105l70 105h34v-195h-47v99l-45 -68h-24l-45 68v-99zM838 801v-41h-99v-37h86v-41h-86v-35
h99v-41h-146v195h146zM479 801h78q45 0 75 -28t30 -70q0 -41 -30 -69t-75 -28h-78v195zM1222 803q44 0 74 -29t29 -71q1 -41 -29 -71t-74 -30t-74 30t-30 72t30 70q30 29 74 29zM348 143h983l-360 351h233l230 -224v979h-983l364 -354h-233l-234 227v-979zM1577 1393v-1393
h-1372v1393h1372z" />
    <glyph glyph-name="threesuperior" unicode="&#xb3;" 
d="M528 647h29q25 1 40 17t15 38t-15 39q-15 16 -40 17h-29v-111zM1220 760q-24 0 -38 -16t-14 -41q0 -23 14 -39t38 -16t38 16t16 38q0 22 -15 40t-39 18zM924 606h-47v195h36l68 -105l70 105h34v-195h-47v99l-45 -68h-24l-45 68v-99zM838 801v-41h-99v-37h86v-41h-86v-35
h99v-41h-146v195h146zM479 801h78q45 0 75 -28t30 -70q0 -41 -30 -69t-75 -28h-78v195zM1222 803q44 0 74 -29t29 -71q1 -41 -29 -71t-74 -30t-74 30t-30 72t30 70q30 29 74 29zM348 143h983l-360 351h233l230 -224v979h-983l364 -354h-233l-234 227v-979zM1577 1393v-1393
h-1372v1393h1372z" />
    <glyph glyph-name="acute" unicode="&#xb4;" 
d="M528 647h29q25 1 40 17t15 38t-15 39q-15 16 -40 17h-29v-111zM1220 760q-24 0 -38 -16t-14 -41q0 -23 14 -39t38 -16t38 16t16 38q0 22 -15 40t-39 18zM924 606h-47v195h36l68 -105l70 105h34v-195h-47v99l-45 -68h-24l-45 68v-99zM838 801v-41h-99v-37h86v-41h-86v-35
h99v-41h-146v195h146zM479 801h78q45 0 75 -28t30 -70q0 -41 -30 -69t-75 -28h-78v195zM1222 803q44 0 74 -29t29 -71q1 -41 -29 -71t-74 -30t-74 30t-30 72t30 70q30 29 74 29zM348 143h983l-360 351h233l230 -224v979h-983l364 -354h-233l-234 227v-979zM1577 1393v-1393
h-1372v1393h1372z" />
    <glyph glyph-name="paragraph" unicode="&#xb6;" 
d="M528 647h29q25 1 40 17t15 38t-15 39q-15 16 -40 17h-29v-111zM1220 760q-24 0 -38 -16t-14 -41q0 -23 14 -39t38 -16t38 16t16 38q0 22 -15 40t-39 18zM924 606h-47v195h36l68 -105l70 105h34v-195h-47v99l-45 -68h-24l-45 68v-99zM838 801v-41h-99v-37h86v-41h-86v-35
h99v-41h-146v195h146zM479 801h78q45 0 75 -28t30 -70q0 -41 -30 -69t-75 -28h-78v195zM1222 803q44 0 74 -29t29 -71q1 -41 -29 -71t-74 -30t-74 30t-30 72t30 70q30 29 74 29zM348 143h983l-360 351h233l230 -224v979h-983l364 -354h-233l-234 227v-979zM1577 1393v-1393
h-1372v1393h1372z" />
    <glyph glyph-name="periodcentered" unicode="&#xb7;" 
d="M528 647h29q25 1 40 17t15 38t-15 39q-15 16 -40 17h-29v-111zM1220 760q-24 0 -38 -16t-14 -41q0 -23 14 -39t38 -16t38 16t16 38q0 22 -15 40t-39 18zM924 606h-47v195h36l68 -105l70 105h34v-195h-47v99l-45 -68h-24l-45 68v-99zM838 801v-41h-99v-37h86v-41h-86v-35
h99v-41h-146v195h146zM479 801h78q45 0 75 -28t30 -70q0 -41 -30 -69t-75 -28h-78v195zM1222 803q44 0 74 -29t29 -71q1 -41 -29 -71t-74 -30t-74 30t-30 72t30 70q30 29 74 29zM348 143h983l-360 351h233l230 -224v979h-983l364 -354h-233l-234 227v-979zM1577 1393v-1393
h-1372v1393h1372z" />
    <glyph glyph-name="cedilla" unicode="&#xb8;" 
d="M528 647h29q25 1 40 17t15 38t-15 39q-15 16 -40 17h-29v-111zM1220 760q-24 0 -38 -16t-14 -41q0 -23 14 -39t38 -16t38 16t16 38q0 22 -15 40t-39 18zM924 606h-47v195h36l68 -105l70 105h34v-195h-47v99l-45 -68h-24l-45 68v-99zM838 801v-41h-99v-37h86v-41h-86v-35
h99v-41h-146v195h146zM479 801h78q45 0 75 -28t30 -70q0 -41 -30 -69t-75 -28h-78v195zM1222 803q44 0 74 -29t29 -71q1 -41 -29 -71t-74 -30t-74 30t-30 72t30 70q30 29 74 29zM348 143h983l-360 351h233l230 -224v979h-983l364 -354h-233l-234 227v-979zM1577 1393v-1393
h-1372v1393h1372z" />
    <glyph glyph-name="onesuperior" unicode="&#xb9;" 
d="M528 647h29q25 1 40 17t15 38t-15 39q-15 16 -40 17h-29v-111zM1220 760q-24 0 -38 -16t-14 -41q0 -23 14 -39t38 -16t38 16t16 38q0 22 -15 40t-39 18zM924 606h-47v195h36l68 -105l70 105h34v-195h-47v99l-45 -68h-24l-45 68v-99zM838 801v-41h-99v-37h86v-41h-86v-35
h99v-41h-146v195h146zM479 801h78q45 0 75 -28t30 -70q0 -41 -30 -69t-75 -28h-78v195zM1222 803q44 0 74 -29t29 -71q1 -41 -29 -71t-74 -30t-74 30t-30 72t30 70q30 29 74 29zM348 143h983l-360 351h233l230 -224v979h-983l364 -354h-233l-234 227v-979zM1577 1393v-1393
h-1372v1393h1372z" />
    <glyph glyph-name="ordmasculine" unicode="&#xba;" 
d="M528 647h29q25 1 40 17t15 38t-15 39q-15 16 -40 17h-29v-111zM1220 760q-24 0 -38 -16t-14 -41q0 -23 14 -39t38 -16t38 16t16 38q0 22 -15 40t-39 18zM924 606h-47v195h36l68 -105l70 105h34v-195h-47v99l-45 -68h-24l-45 68v-99zM838 801v-41h-99v-37h86v-41h-86v-35
h99v-41h-146v195h146zM479 801h78q45 0 75 -28t30 -70q0 -41 -30 -69t-75 -28h-78v195zM1222 803q44 0 74 -29t29 -71q1 -41 -29 -71t-74 -30t-74 30t-30 72t30 70q30 29 74 29zM348 143h983l-360 351h233l230 -224v979h-983l364 -354h-233l-234 227v-979zM1577 1393v-1393
h-1372v1393h1372z" />
    <glyph glyph-name="guillemotright" unicode="&#xbb;" horiz-adv-x="995" 
d="M950 516l-194 -330h-295l194 330l-194 330h295zM535 516l-195 -330h-295l195 330l-195 330h295z" />
    <glyph glyph-name="onequarter" unicode="&#xbc;" 
d="M528 647h29q25 1 40 17t15 38t-15 39q-15 16 -40 17h-29v-111zM1220 760q-24 0 -38 -16t-14 -41q0 -23 14 -39t38 -16t38 16t16 38q0 22 -15 40t-39 18zM924 606h-47v195h36l68 -105l70 105h34v-195h-47v99l-45 -68h-24l-45 68v-99zM838 801v-41h-99v-37h86v-41h-86v-35
h99v-41h-146v195h146zM479 801h78q45 0 75 -28t30 -70q0 -41 -30 -69t-75 -28h-78v195zM1222 803q44 0 74 -29t29 -71q1 -41 -29 -71t-74 -30t-74 30t-30 72t30 70q30 29 74 29zM348 143h983l-360 351h233l230 -224v979h-983l364 -354h-233l-234 227v-979zM1577 1393v-1393
h-1372v1393h1372z" />
    <glyph glyph-name="onehalf" unicode="&#xbd;" 
d="M528 647h29q25 1 40 17t15 38t-15 39q-15 16 -40 17h-29v-111zM1220 760q-24 0 -38 -16t-14 -41q0 -23 14 -39t38 -16t38 16t16 38q0 22 -15 40t-39 18zM924 606h-47v195h36l68 -105l70 105h34v-195h-47v99l-45 -68h-24l-45 68v-99zM838 801v-41h-99v-37h86v-41h-86v-35
h99v-41h-146v195h146zM479 801h78q45 0 75 -28t30 -70q0 -41 -30 -69t-75 -28h-78v195zM1222 803q44 0 74 -29t29 -71q1 -41 -29 -71t-74 -30t-74 30t-30 72t30 70q30 29 74 29zM348 143h983l-360 351h233l230 -224v979h-983l364 -354h-233l-234 227v-979zM1577 1393v-1393
h-1372v1393h1372z" />
    <glyph glyph-name="threequarters" unicode="&#xbe;" 
d="M528 647h29q25 1 40 17t15 38t-15 39q-15 16 -40 17h-29v-111zM1220 760q-24 0 -38 -16t-14 -41q0 -23 14 -39t38 -16t38 16t16 38q0 22 -15 40t-39 18zM924 606h-47v195h36l68 -105l70 105h34v-195h-47v99l-45 -68h-24l-45 68v-99zM838 801v-41h-99v-37h86v-41h-86v-35
h99v-41h-146v195h146zM479 801h78q45 0 75 -28t30 -70q0 -41 -30 -69t-75 -28h-78v195zM1222 803q44 0 74 -29t29 -71q1 -41 -29 -71t-74 -30t-74 30t-30 72t30 70q30 29 74 29zM348 143h983l-360 351h233l230 -224v979h-983l364 -354h-233l-234 227v-979zM1577 1393v-1393
h-1372v1393h1372z" />
    <glyph glyph-name="questiondown" unicode="&#xbf;" 
d="M528 647h29q25 1 40 17t15 38t-15 39q-15 16 -40 17h-29v-111zM1220 760q-24 0 -38 -16t-14 -41q0 -23 14 -39t38 -16t38 16t16 38q0 22 -15 40t-39 18zM924 606h-47v195h36l68 -105l70 105h34v-195h-47v99l-45 -68h-24l-45 68v-99zM838 801v-41h-99v-37h86v-41h-86v-35
h99v-41h-146v195h146zM479 801h78q45 0 75 -28t30 -70q0 -41 -30 -69t-75 -28h-78v195zM1222 803q44 0 74 -29t29 -71q1 -41 -29 -71t-74 -30t-74 30t-30 72t30 70q30 29 74 29zM348 143h983l-360 351h233l230 -224v979h-983l364 -354h-233l-234 227v-979zM1577 1393v-1393
h-1372v1393h1372z" />
    <glyph glyph-name="Agrave" unicode="&#xc0;" 
d="M528 647h29q25 1 40 17t15 38t-15 39q-15 16 -40 17h-29v-111zM1220 760q-24 0 -38 -16t-14 -41q0 -23 14 -39t38 -16t38 16t16 38q0 22 -15 40t-39 18zM924 606h-47v195h36l68 -105l70 105h34v-195h-47v99l-45 -68h-24l-45 68v-99zM838 801v-41h-99v-37h86v-41h-86v-35
h99v-41h-146v195h146zM479 801h78q45 0 75 -28t30 -70q0 -41 -30 -69t-75 -28h-78v195zM1222 803q44 0 74 -29t29 -71q1 -41 -29 -71t-74 -30t-74 30t-30 72t30 70q30 29 74 29zM348 143h983l-360 351h233l230 -224v979h-983l364 -354h-233l-234 227v-979zM1577 1393v-1393
h-1372v1393h1372z" />
    <glyph glyph-name="Aacute" unicode="&#xc1;" 
d="M528 647h29q25 1 40 17t15 38t-15 39q-15 16 -40 17h-29v-111zM1220 760q-24 0 -38 -16t-14 -41q0 -23 14 -39t38 -16t38 16t16 38q0 22 -15 40t-39 18zM924 606h-47v195h36l68 -105l70 105h34v-195h-47v99l-45 -68h-24l-45 68v-99zM838 801v-41h-99v-37h86v-41h-86v-35
h99v-41h-146v195h146zM479 801h78q45 0 75 -28t30 -70q0 -41 -30 -69t-75 -28h-78v195zM1222 803q44 0 74 -29t29 -71q1 -41 -29 -71t-74 -30t-74 30t-30 72t30 70q30 29 74 29zM348 143h983l-360 351h233l230 -224v979h-983l364 -354h-233l-234 227v-979zM1577 1393v-1393
h-1372v1393h1372z" />
    <glyph glyph-name="Acircumflex" unicode="&#xc2;" 
d="M528 647h29q25 1 40 17t15 38t-15 39q-15 16 -40 17h-29v-111zM1220 760q-24 0 -38 -16t-14 -41q0 -23 14 -39t38 -16t38 16t16 38q0 22 -15 40t-39 18zM924 606h-47v195h36l68 -105l70 105h34v-195h-47v99l-45 -68h-24l-45 68v-99zM838 801v-41h-99v-37h86v-41h-86v-35
h99v-41h-146v195h146zM479 801h78q45 0 75 -28t30 -70q0 -41 -30 -69t-75 -28h-78v195zM1222 803q44 0 74 -29t29 -71q1 -41 -29 -71t-74 -30t-74 30t-30 72t30 70q30 29 74 29zM348 143h983l-360 351h233l230 -224v979h-983l364 -354h-233l-234 227v-979zM1577 1393v-1393
h-1372v1393h1372z" />
    <glyph glyph-name="Atilde" unicode="&#xc3;" 
d="M528 647h29q25 1 40 17t15 38t-15 39q-15 16 -40 17h-29v-111zM1220 760q-24 0 -38 -16t-14 -41q0 -23 14 -39t38 -16t38 16t16 38q0 22 -15 40t-39 18zM924 606h-47v195h36l68 -105l70 105h34v-195h-47v99l-45 -68h-24l-45 68v-99zM838 801v-41h-99v-37h86v-41h-86v-35
h99v-41h-146v195h146zM479 801h78q45 0 75 -28t30 -70q0 -41 -30 -69t-75 -28h-78v195zM1222 803q44 0 74 -29t29 -71q1 -41 -29 -71t-74 -30t-74 30t-30 72t30 70q30 29 74 29zM348 143h983l-360 351h233l230 -224v979h-983l364 -354h-233l-234 227v-979zM1577 1393v-1393
h-1372v1393h1372z" />
    <glyph glyph-name="Adieresis" unicode="&#xc4;" horiz-adv-x="1562" 
d="M961 535l-181 462l-180 -462h361zM1075 240h-590l-92 -240h-368l591 1401h330l590 -1401h-367zM1014 1522q-78 0 -133 52t-56 128t55 128t134 52t132 -52t54 -128t-54 -128t-132 -52zM545 1522q-78 0 -133 52t-56 128q0 76 56 128t133 52q78 0 132 -52t54 -128t-54 -128
t-132 -52z" />
    <glyph glyph-name="Aring" unicode="&#xc5;" 
d="M528 647h29q25 1 40 17t15 38t-15 39q-15 16 -40 17h-29v-111zM1220 760q-24 0 -38 -16t-14 -41q0 -23 14 -39t38 -16t38 16t16 38q0 22 -15 40t-39 18zM924 606h-47v195h36l68 -105l70 105h34v-195h-47v99l-45 -68h-24l-45 68v-99zM838 801v-41h-99v-37h86v-41h-86v-35
h99v-41h-146v195h146zM479 801h78q45 0 75 -28t30 -70q0 -41 -30 -69t-75 -28h-78v195zM1222 803q44 0 74 -29t29 -71q1 -41 -29 -71t-74 -30t-74 30t-30 72t30 70q30 29 74 29zM348 143h983l-360 351h233l230 -224v979h-983l364 -354h-233l-234 227v-979zM1577 1393v-1393
h-1372v1393h1372z" />
    <glyph glyph-name="AE" unicode="&#xc6;" horiz-adv-x="2285" 
d="M1157 535v456l-330 -456h330zM1503 1092v-254h617v-295h-617v-242h707v-301h-1053v240h-543l-172 -240h-417l1034 1393h1151v-301h-707z" />
    <glyph glyph-name="Ccedilla" unicode="&#xc7;" 
d="M528 647h29q25 1 40 17t15 38t-15 39q-15 16 -40 17h-29v-111zM1220 760q-24 0 -38 -16t-14 -41q0 -23 14 -39t38 -16t38 16t16 38q0 22 -15 40t-39 18zM924 606h-47v195h36l68 -105l70 105h34v-195h-47v99l-45 -68h-24l-45 68v-99zM838 801v-41h-99v-37h86v-41h-86v-35
h99v-41h-146v195h146zM479 801h78q45 0 75 -28t30 -70q0 -41 -30 -69t-75 -28h-78v195zM1222 803q44 0 74 -29t29 -71q1 -41 -29 -71t-74 -30t-74 30t-30 72t30 70q30 29 74 29zM348 143h983l-360 351h233l230 -224v979h-983l364 -354h-233l-234 227v-979zM1577 1393v-1393
h-1372v1393h1372z" />
    <glyph glyph-name="Egrave" unicode="&#xc8;" 
d="M528 647h29q25 1 40 17t15 38t-15 39q-15 16 -40 17h-29v-111zM1220 760q-24 0 -38 -16t-14 -41q0 -23 14 -39t38 -16t38 16t16 38q0 22 -15 40t-39 18zM924 606h-47v195h36l68 -105l70 105h34v-195h-47v99l-45 -68h-24l-45 68v-99zM838 801v-41h-99v-37h86v-41h-86v-35
h99v-41h-146v195h146zM479 801h78q45 0 75 -28t30 -70q0 -41 -30 -69t-75 -28h-78v195zM1222 803q44 0 74 -29t29 -71q1 -41 -29 -71t-74 -30t-74 30t-30 72t30 70q30 29 74 29zM348 143h983l-360 351h233l230 -224v979h-983l364 -354h-233l-234 227v-979zM1577 1393v-1393
h-1372v1393h1372z" />
    <glyph glyph-name="Eacute" unicode="&#xc9;" 
d="M528 647h29q25 1 40 17t15 38t-15 39q-15 16 -40 17h-29v-111zM1220 760q-24 0 -38 -16t-14 -41q0 -23 14 -39t38 -16t38 16t16 38q0 22 -15 40t-39 18zM924 606h-47v195h36l68 -105l70 105h34v-195h-47v99l-45 -68h-24l-45 68v-99zM838 801v-41h-99v-37h86v-41h-86v-35
h99v-41h-146v195h146zM479 801h78q45 0 75 -28t30 -70q0 -41 -30 -69t-75 -28h-78v195zM1222 803q44 0 74 -29t29 -71q1 -41 -29 -71t-74 -30t-74 30t-30 72t30 70q30 29 74 29zM348 143h983l-360 351h233l230 -224v979h-983l364 -354h-233l-234 227v-979zM1577 1393v-1393
h-1372v1393h1372z" />
    <glyph glyph-name="Ecircumflex" unicode="&#xca;" 
d="M528 647h29q25 1 40 17t15 38t-15 39q-15 16 -40 17h-29v-111zM1220 760q-24 0 -38 -16t-14 -41q0 -23 14 -39t38 -16t38 16t16 38q0 22 -15 40t-39 18zM924 606h-47v195h36l68 -105l70 105h34v-195h-47v99l-45 -68h-24l-45 68v-99zM838 801v-41h-99v-37h86v-41h-86v-35
h99v-41h-146v195h146zM479 801h78q45 0 75 -28t30 -70q0 -41 -30 -69t-75 -28h-78v195zM1222 803q44 0 74 -29t29 -71q1 -41 -29 -71t-74 -30t-74 30t-30 72t30 70q30 29 74 29zM348 143h983l-360 351h233l230 -224v979h-983l364 -354h-233l-234 227v-979zM1577 1393v-1393
h-1372v1393h1372z" />
    <glyph glyph-name="Edieresis" unicode="&#xcb;" 
d="M528 647h29q25 1 40 17t15 38t-15 39q-15 16 -40 17h-29v-111zM1220 760q-24 0 -38 -16t-14 -41q0 -23 14 -39t38 -16t38 16t16 38q0 22 -15 40t-39 18zM924 606h-47v195h36l68 -105l70 105h34v-195h-47v99l-45 -68h-24l-45 68v-99zM838 801v-41h-99v-37h86v-41h-86v-35
h99v-41h-146v195h146zM479 801h78q45 0 75 -28t30 -70q0 -41 -30 -69t-75 -28h-78v195zM1222 803q44 0 74 -29t29 -71q1 -41 -29 -71t-74 -30t-74 30t-30 72t30 70q30 29 74 29zM348 143h983l-360 351h233l230 -224v979h-983l364 -354h-233l-234 227v-979zM1577 1393v-1393
h-1372v1393h1372z" />
    <glyph glyph-name="Igrave" unicode="&#xcc;" 
d="M528 647h29q25 1 40 17t15 38t-15 39q-15 16 -40 17h-29v-111zM1220 760q-24 0 -38 -16t-14 -41q0 -23 14 -39t38 -16t38 16t16 38q0 22 -15 40t-39 18zM924 606h-47v195h36l68 -105l70 105h34v-195h-47v99l-45 -68h-24l-45 68v-99zM838 801v-41h-99v-37h86v-41h-86v-35
h99v-41h-146v195h146zM479 801h78q45 0 75 -28t30 -70q0 -41 -30 -69t-75 -28h-78v195zM1222 803q44 0 74 -29t29 -71q1 -41 -29 -71t-74 -30t-74 30t-30 72t30 70q30 29 74 29zM348 143h983l-360 351h233l230 -224v979h-983l364 -354h-233l-234 227v-979zM1577 1393v-1393
h-1372v1393h1372z" />
    <glyph glyph-name="Iacute" unicode="&#xcd;" 
d="M528 647h29q25 1 40 17t15 38t-15 39q-15 16 -40 17h-29v-111zM1220 760q-24 0 -38 -16t-14 -41q0 -23 14 -39t38 -16t38 16t16 38q0 22 -15 40t-39 18zM924 606h-47v195h36l68 -105l70 105h34v-195h-47v99l-45 -68h-24l-45 68v-99zM838 801v-41h-99v-37h86v-41h-86v-35
h99v-41h-146v195h146zM479 801h78q45 0 75 -28t30 -70q0 -41 -30 -69t-75 -28h-78v195zM1222 803q44 0 74 -29t29 -71q1 -41 -29 -71t-74 -30t-74 30t-30 72t30 70q30 29 74 29zM348 143h983l-360 351h233l230 -224v979h-983l364 -354h-233l-234 227v-979zM1577 1393v-1393
h-1372v1393h1372z" />
    <glyph glyph-name="Icircumflex" unicode="&#xce;" 
d="M528 647h29q25 1 40 17t15 38t-15 39q-15 16 -40 17h-29v-111zM1220 760q-24 0 -38 -16t-14 -41q0 -23 14 -39t38 -16t38 16t16 38q0 22 -15 40t-39 18zM924 606h-47v195h36l68 -105l70 105h34v-195h-47v99l-45 -68h-24l-45 68v-99zM838 801v-41h-99v-37h86v-41h-86v-35
h99v-41h-146v195h146zM479 801h78q45 0 75 -28t30 -70q0 -41 -30 -69t-75 -28h-78v195zM1222 803q44 0 74 -29t29 -71q1 -41 -29 -71t-74 -30t-74 30t-30 72t30 70q30 29 74 29zM348 143h983l-360 351h233l230 -224v979h-983l364 -354h-233l-234 227v-979zM1577 1393v-1393
h-1372v1393h1372z" />
    <glyph glyph-name="Idieresis" unicode="&#xcf;" 
d="M528 647h29q25 1 40 17t15 38t-15 39q-15 16 -40 17h-29v-111zM1220 760q-24 0 -38 -16t-14 -41q0 -23 14 -39t38 -16t38 16t16 38q0 22 -15 40t-39 18zM924 606h-47v195h36l68 -105l70 105h34v-195h-47v99l-45 -68h-24l-45 68v-99zM838 801v-41h-99v-37h86v-41h-86v-35
h99v-41h-146v195h146zM479 801h78q45 0 75 -28t30 -70q0 -41 -30 -69t-75 -28h-78v195zM1222 803q44 0 74 -29t29 -71q1 -41 -29 -71t-74 -30t-74 30t-30 72t30 70q30 29 74 29zM348 143h983l-360 351h233l230 -224v979h-983l364 -354h-233l-234 227v-979zM1577 1393v-1393
h-1372v1393h1372z" />
    <glyph glyph-name="Eth" unicode="&#xd0;" 
d="M528 647h29q25 1 40 17t15 38t-15 39q-15 16 -40 17h-29v-111zM1220 760q-24 0 -38 -16t-14 -41q0 -23 14 -39t38 -16t38 16t16 38q0 22 -15 40t-39 18zM924 606h-47v195h36l68 -105l70 105h34v-195h-47v99l-45 -68h-24l-45 68v-99zM838 801v-41h-99v-37h86v-41h-86v-35
h99v-41h-146v195h146zM479 801h78q45 0 75 -28t30 -70q0 -41 -30 -69t-75 -28h-78v195zM1222 803q44 0 74 -29t29 -71q1 -41 -29 -71t-74 -30t-74 30t-30 72t30 70q30 29 74 29zM348 143h983l-360 351h233l230 -224v979h-983l364 -354h-233l-234 227v-979zM1577 1393v-1393
h-1372v1393h1372z" />
    <glyph glyph-name="Ntilde" unicode="&#xd1;" 
d="M528 647h29q25 1 40 17t15 38t-15 39q-15 16 -40 17h-29v-111zM1220 760q-24 0 -38 -16t-14 -41q0 -23 14 -39t38 -16t38 16t16 38q0 22 -15 40t-39 18zM924 606h-47v195h36l68 -105l70 105h34v-195h-47v99l-45 -68h-24l-45 68v-99zM838 801v-41h-99v-37h86v-41h-86v-35
h99v-41h-146v195h146zM479 801h78q45 0 75 -28t30 -70q0 -41 -30 -69t-75 -28h-78v195zM1222 803q44 0 74 -29t29 -71q1 -41 -29 -71t-74 -30t-74 30t-30 72t30 70q30 29 74 29zM348 143h983l-360 351h233l230 -224v979h-983l364 -354h-233l-234 227v-979zM1577 1393v-1393
h-1372v1393h1372z" />
    <glyph glyph-name="Ograve" unicode="&#xd2;" 
d="M528 647h29q25 1 40 17t15 38t-15 39q-15 16 -40 17h-29v-111zM1220 760q-24 0 -38 -16t-14 -41q0 -23 14 -39t38 -16t38 16t16 38q0 22 -15 40t-39 18zM924 606h-47v195h36l68 -105l70 105h34v-195h-47v99l-45 -68h-24l-45 68v-99zM838 801v-41h-99v-37h86v-41h-86v-35
h99v-41h-146v195h146zM479 801h78q45 0 75 -28t30 -70q0 -41 -30 -69t-75 -28h-78v195zM1222 803q44 0 74 -29t29 -71q1 -41 -29 -71t-74 -30t-74 30t-30 72t30 70q30 29 74 29zM348 143h983l-360 351h233l230 -224v979h-983l364 -354h-233l-234 227v-979zM1577 1393v-1393
h-1372v1393h1372z" />
    <glyph glyph-name="Oacute" unicode="&#xd3;" 
d="M528 647h29q25 1 40 17t15 38t-15 39q-15 16 -40 17h-29v-111zM1220 760q-24 0 -38 -16t-14 -41q0 -23 14 -39t38 -16t38 16t16 38q0 22 -15 40t-39 18zM924 606h-47v195h36l68 -105l70 105h34v-195h-47v99l-45 -68h-24l-45 68v-99zM838 801v-41h-99v-37h86v-41h-86v-35
h99v-41h-146v195h146zM479 801h78q45 0 75 -28t30 -70q0 -41 -30 -69t-75 -28h-78v195zM1222 803q44 0 74 -29t29 -71q1 -41 -29 -71t-74 -30t-74 30t-30 72t30 70q30 29 74 29zM348 143h983l-360 351h233l230 -224v979h-983l364 -354h-233l-234 227v-979zM1577 1393v-1393
h-1372v1393h1372z" />
    <glyph glyph-name="Ocircumflex" unicode="&#xd4;" 
d="M528 647h29q25 1 40 17t15 38t-15 39q-15 16 -40 17h-29v-111zM1220 760q-24 0 -38 -16t-14 -41q0 -23 14 -39t38 -16t38 16t16 38q0 22 -15 40t-39 18zM924 606h-47v195h36l68 -105l70 105h34v-195h-47v99l-45 -68h-24l-45 68v-99zM838 801v-41h-99v-37h86v-41h-86v-35
h99v-41h-146v195h146zM479 801h78q45 0 75 -28t30 -70q0 -41 -30 -69t-75 -28h-78v195zM1222 803q44 0 74 -29t29 -71q1 -41 -29 -71t-74 -30t-74 30t-30 72t30 70q30 29 74 29zM348 143h983l-360 351h233l230 -224v979h-983l364 -354h-233l-234 227v-979zM1577 1393v-1393
h-1372v1393h1372z" />
    <glyph glyph-name="Otilde" unicode="&#xd5;" 
d="M528 647h29q25 1 40 17t15 38t-15 39q-15 16 -40 17h-29v-111zM1220 760q-24 0 -38 -16t-14 -41q0 -23 14 -39t38 -16t38 16t16 38q0 22 -15 40t-39 18zM924 606h-47v195h36l68 -105l70 105h34v-195h-47v99l-45 -68h-24l-45 68v-99zM838 801v-41h-99v-37h86v-41h-86v-35
h99v-41h-146v195h146zM479 801h78q45 0 75 -28t30 -70q0 -41 -30 -69t-75 -28h-78v195zM1222 803q44 0 74 -29t29 -71q1 -41 -29 -71t-74 -30t-74 30t-30 72t30 70q30 29 74 29zM348 143h983l-360 351h233l230 -224v979h-983l364 -354h-233l-234 227v-979zM1577 1393v-1393
h-1372v1393h1372z" />
    <glyph glyph-name="Odieresis" unicode="&#xd6;" horiz-adv-x="1654" 
d="M827 293q166 0 277 118q110 117 110 285t-110 286q-111 118 -277 118q-167 0 -277 -118t-110 -286t110 -286t277 -117zM828 1421q314 0 526 -210t213 -515q0 -305 -212 -515q-213 -210 -527 -210t-526 210t-212 515t212 515t526 210zM1061 1882q78 0 132 -52t54 -128
t-54 -128t-132 -52t-133 52t-56 128q0 76 56 128t133 52zM592 1882q78 0 132 -52t54 -128t-54 -128t-132 -52t-133 52t-56 128t55 128t134 52z" />
    <glyph glyph-name="multiply" unicode="&#xd7;" 
d="M528 647h29q25 1 40 17t15 38t-15 39q-15 16 -40 17h-29v-111zM1220 760q-24 0 -38 -16t-14 -41q0 -23 14 -39t38 -16t38 16t16 38q0 22 -15 40t-39 18zM924 606h-47v195h36l68 -105l70 105h34v-195h-47v99l-45 -68h-24l-45 68v-99zM838 801v-41h-99v-37h86v-41h-86v-35
h99v-41h-146v195h146zM479 801h78q45 0 75 -28t30 -70q0 -41 -30 -69t-75 -28h-78v195zM1222 803q44 0 74 -29t29 -71q1 -41 -29 -71t-74 -30t-74 30t-30 72t30 70q30 29 74 29zM348 143h983l-360 351h233l230 -224v979h-983l364 -354h-233l-234 227v-979zM1577 1393v-1393
h-1372v1393h1372z" />
    <glyph glyph-name="Oslash" unicode="&#xd8;" horiz-adv-x="1654" 
d="M827 293q166 0 277 118t110 285q0 125 -65 230l-496 -592q78 -41 174 -41zM440 696q0 -119 62 -219l491 586q-74 37 -166 37q-167 0 -277 -118t-110 -286zM1567 689q0 -298 -212 -508t-528 -210q-211 0 -391 105l-98 -117l-160 133l98 117q-186 203 -186 497t212 505
q212 210 525 210q209 0 383 -100l88 106l160 -133l-86 -102q195 -205 195 -503z" />
    <glyph glyph-name="Ugrave" unicode="&#xd9;" 
d="M528 647h29q25 1 40 17t15 38t-15 39q-15 16 -40 17h-29v-111zM1220 760q-24 0 -38 -16t-14 -41q0 -23 14 -39t38 -16t38 16t16 38q0 22 -15 40t-39 18zM924 606h-47v195h36l68 -105l70 105h34v-195h-47v99l-45 -68h-24l-45 68v-99zM838 801v-41h-99v-37h86v-41h-86v-35
h99v-41h-146v195h146zM479 801h78q45 0 75 -28t30 -70q0 -41 -30 -69t-75 -28h-78v195zM1222 803q44 0 74 -29t29 -71q1 -41 -29 -71t-74 -30t-74 30t-30 72t30 70q30 29 74 29zM348 143h983l-360 351h233l230 -224v979h-983l364 -354h-233l-234 227v-979zM1577 1393v-1393
h-1372v1393h1372z" />
    <glyph glyph-name="Uacute" unicode="&#xda;" 
d="M528 647h29q25 1 40 17t15 38t-15 39q-15 16 -40 17h-29v-111zM1220 760q-24 0 -38 -16t-14 -41q0 -23 14 -39t38 -16t38 16t16 38q0 22 -15 40t-39 18zM924 606h-47v195h36l68 -105l70 105h34v-195h-47v99l-45 -68h-24l-45 68v-99zM838 801v-41h-99v-37h86v-41h-86v-35
h99v-41h-146v195h146zM479 801h78q45 0 75 -28t30 -70q0 -41 -30 -69t-75 -28h-78v195zM1222 803q44 0 74 -29t29 -71q1 -41 -29 -71t-74 -30t-74 30t-30 72t30 70q30 29 74 29zM348 143h983l-360 351h233l230 -224v979h-983l364 -354h-233l-234 227v-979zM1577 1393v-1393
h-1372v1393h1372z" />
    <glyph glyph-name="Ucircumflex" unicode="&#xdb;" 
d="M528 647h29q25 1 40 17t15 38t-15 39q-15 16 -40 17h-29v-111zM1220 760q-24 0 -38 -16t-14 -41q0 -23 14 -39t38 -16t38 16t16 38q0 22 -15 40t-39 18zM924 606h-47v195h36l68 -105l70 105h34v-195h-47v99l-45 -68h-24l-45 68v-99zM838 801v-41h-99v-37h86v-41h-86v-35
h99v-41h-146v195h146zM479 801h78q45 0 75 -28t30 -70q0 -41 -30 -69t-75 -28h-78v195zM1222 803q44 0 74 -29t29 -71q1 -41 -29 -71t-74 -30t-74 30t-30 72t30 70q30 29 74 29zM348 143h983l-360 351h233l230 -224v979h-983l364 -354h-233l-234 227v-979zM1577 1393v-1393
h-1372v1393h1372z" />
    <glyph glyph-name="Udieresis" unicode="&#xdc;" horiz-adv-x="1501" 
d="M1399 1393v-744q0 -322 -174 -501t-475 -179t-475 179q-173 179 -173 501v744h349v-750q1 -160 81 -255t218 -95t219 95q82 95 82 255v750h348zM985 1882q78 0 132 -52t54 -128t-54 -128t-132 -52t-133 52t-55 128t55 128t133 52zM516 1882q78 0 132 -52t54 -128
t-54 -128t-132 -52t-133 52t-55 128t55 128t133 52z" />
    <glyph glyph-name="Yacute" unicode="&#xdd;" 
d="M528 647h29q25 1 40 17t15 38t-15 39q-15 16 -40 17h-29v-111zM1220 760q-24 0 -38 -16t-14 -41q0 -23 14 -39t38 -16t38 16t16 38q0 22 -15 40t-39 18zM924 606h-47v195h36l68 -105l70 105h34v-195h-47v99l-45 -68h-24l-45 68v-99zM838 801v-41h-99v-37h86v-41h-86v-35
h99v-41h-146v195h146zM479 801h78q45 0 75 -28t30 -70q0 -41 -30 -69t-75 -28h-78v195zM1222 803q44 0 74 -29t29 -71q1 -41 -29 -71t-74 -30t-74 30t-30 72t30 70q30 29 74 29zM348 143h983l-360 351h233l230 -224v979h-983l364 -354h-233l-234 227v-979zM1577 1393v-1393
h-1372v1393h1372z" />
    <glyph glyph-name="Thorn" unicode="&#xde;" horiz-adv-x="1312" 
d="M469 481h207q116 -1 184 61t68 160t-69 154q-69 55 -183 55h-207v-430zM469 1217h215q272 1 431 -137t159 -378t-166 -381q-166 -142 -453 -143h-186v-178h-346v1393h346v-176z" />
    <glyph glyph-name="germandbls" unicode="&#xdf;" horiz-adv-x="1402" 
d="M1358 57q0 -215 -146 -351t-393 -136q-182 0 -344 51v285q170 -49 296 -49t185 55q60 55 60 136t-53 128t-144 47h-215v146l244 329h-404v-698h-331v1092q0 215 134 344t355 129v-314q-72 0 -115 -43t-43 -116v-99h830v-188l-256 -332q156 -37 248 -147t92 -269z" />
    <glyph glyph-name="agrave" unicode="&#xe0;" 
d="M528 647h29q25 1 40 17t15 38t-15 39q-15 16 -40 17h-29v-111zM1220 760q-24 0 -38 -16t-14 -41q0 -23 14 -39t38 -16t38 16t16 38q0 22 -15 40t-39 18zM924 606h-47v195h36l68 -105l70 105h34v-195h-47v99l-45 -68h-24l-45 68v-99zM838 801v-41h-99v-37h86v-41h-86v-35
h99v-41h-146v195h146zM479 801h78q45 0 75 -28t30 -70q0 -41 -30 -69t-75 -28h-78v195zM1222 803q44 0 74 -29t29 -71q1 -41 -29 -71t-74 -30t-74 30t-30 72t30 70q30 29 74 29zM348 143h983l-360 351h233l230 -224v979h-983l364 -354h-233l-234 227v-979zM1577 1393v-1393
h-1372v1393h1372z" />
    <glyph glyph-name="aacute" unicode="&#xe1;" 
d="M528 647h29q25 1 40 17t15 38t-15 39q-15 16 -40 17h-29v-111zM1220 760q-24 0 -38 -16t-14 -41q0 -23 14 -39t38 -16t38 16t16 38q0 22 -15 40t-39 18zM924 606h-47v195h36l68 -105l70 105h34v-195h-47v99l-45 -68h-24l-45 68v-99zM838 801v-41h-99v-37h86v-41h-86v-35
h99v-41h-146v195h146zM479 801h78q45 0 75 -28t30 -70q0 -41 -30 -69t-75 -28h-78v195zM1222 803q44 0 74 -29t29 -71q1 -41 -29 -71t-74 -30t-74 30t-30 72t30 70q30 29 74 29zM348 143h983l-360 351h233l230 -224v979h-983l364 -354h-233l-234 227v-979zM1577 1393v-1393
h-1372v1393h1372z" />
    <glyph glyph-name="acircumflex" unicode="&#xe2;" 
d="M528 647h29q25 1 40 17t15 38t-15 39q-15 16 -40 17h-29v-111zM1220 760q-24 0 -38 -16t-14 -41q0 -23 14 -39t38 -16t38 16t16 38q0 22 -15 40t-39 18zM924 606h-47v195h36l68 -105l70 105h34v-195h-47v99l-45 -68h-24l-45 68v-99zM838 801v-41h-99v-37h86v-41h-86v-35
h99v-41h-146v195h146zM479 801h78q45 0 75 -28t30 -70q0 -41 -30 -69t-75 -28h-78v195zM1222 803q44 0 74 -29t29 -71q1 -41 -29 -71t-74 -30t-74 30t-30 72t30 70q30 29 74 29zM348 143h983l-360 351h233l230 -224v979h-983l364 -354h-233l-234 227v-979zM1577 1393v-1393
h-1372v1393h1372z" />
    <glyph glyph-name="atilde" unicode="&#xe3;" 
d="M528 647h29q25 1 40 17t15 38t-15 39q-15 16 -40 17h-29v-111zM1220 760q-24 0 -38 -16t-14 -41q0 -23 14 -39t38 -16t38 16t16 38q0 22 -15 40t-39 18zM924 606h-47v195h36l68 -105l70 105h34v-195h-47v99l-45 -68h-24l-45 68v-99zM838 801v-41h-99v-37h86v-41h-86v-35
h99v-41h-146v195h146zM479 801h78q45 0 75 -28t30 -70q0 -41 -30 -69t-75 -28h-78v195zM1222 803q44 0 74 -29t29 -71q1 -41 -29 -71t-74 -30t-74 30t-30 72t30 70q30 29 74 29zM348 143h983l-360 351h233l230 -224v979h-983l364 -354h-233l-234 227v-979zM1577 1393v-1393
h-1372v1393h1372z" />
    <glyph glyph-name="adieresis" unicode="&#xe4;" horiz-adv-x="1277" 
d="M640 252q114 0 194 92v307q-80 94 -194 94q-114 1 -180 -71q-67 -72 -67 -176t67 -175q66 -71 180 -71zM1165 993v-993h-331v55q-119 -76 -273 -75q-203 0 -348 150t-145 368t145 368t348 150q154 0 273 -76v53h331zM899 1126q-78 0 -133 52t-55 129q0 76 55 128t133 52
t132 -52t54 -128q0 -77 -54 -129t-132 -52zM430 1126q-78 0 -133 52t-55 129q0 76 55 128t133 52t132 -52t54 -128q0 -77 -54 -129t-132 -52z" />
    <glyph glyph-name="aring" unicode="&#xe5;" 
d="M528 647h29q25 1 40 17t15 38t-15 39q-15 16 -40 17h-29v-111zM1220 760q-24 0 -38 -16t-14 -41q0 -23 14 -39t38 -16t38 16t16 38q0 22 -15 40t-39 18zM924 606h-47v195h36l68 -105l70 105h34v-195h-47v99l-45 -68h-24l-45 68v-99zM838 801v-41h-99v-37h86v-41h-86v-35
h99v-41h-146v195h146zM479 801h78q45 0 75 -28t30 -70q0 -41 -30 -69t-75 -28h-78v195zM1222 803q44 0 74 -29t29 -71q1 -41 -29 -71t-74 -30t-74 30t-30 72t30 70q30 29 74 29zM348 143h983l-360 351h233l230 -224v979h-983l364 -354h-233l-234 227v-979zM1577 1393v-1393
h-1372v1393h1372z" />
    <glyph glyph-name="ae" unicode="&#xe6;" horiz-adv-x="1828" 
d="M518 233q113 0 236 80q-16 43 -23 86h-266q-43 0 -70 -18t-27 -53t38 -65t112 -30zM1251 760q-168 0 -209 -166h406q-29 166 -197 166zM1759 518q0 -76 -6 -112l2 -7h-708q47 -160 223 -159q106 0 151 71h328q-35 -153 -167 -243t-316 -91q-252 0 -404 156
q-180 -151 -378 -151t-313 85q-114 85 -114 229q-1 144 105 221t293 77h274q0 170 -158 170q-63 0 -105 -31t-50 -84h-316q8 183 144 279t340 96q205 0 327 -117q141 109 350 109t354 -138q144 -139 144 -360z" />
    <glyph glyph-name="ccedilla" unicode="&#xe7;" 
d="M528 647h29q25 1 40 17t15 38t-15 39q-15 16 -40 17h-29v-111zM1220 760q-24 0 -38 -16t-14 -41q0 -23 14 -39t38 -16t38 16t16 38q0 22 -15 40t-39 18zM924 606h-47v195h36l68 -105l70 105h34v-195h-47v99l-45 -68h-24l-45 68v-99zM838 801v-41h-99v-37h86v-41h-86v-35
h99v-41h-146v195h146zM479 801h78q45 0 75 -28t30 -70q0 -41 -30 -69t-75 -28h-78v195zM1222 803q44 0 74 -29t29 -71q1 -41 -29 -71t-74 -30t-74 30t-30 72t30 70q30 29 74 29zM348 143h983l-360 351h233l230 -224v979h-983l364 -354h-233l-234 227v-979zM1577 1393v-1393
h-1372v1393h1372z" />
    <glyph glyph-name="egrave" unicode="&#xe8;" 
d="M528 647h29q25 1 40 17t15 38t-15 39q-15 16 -40 17h-29v-111zM1220 760q-24 0 -38 -16t-14 -41q0 -23 14 -39t38 -16t38 16t16 38q0 22 -15 40t-39 18zM924 606h-47v195h36l68 -105l70 105h34v-195h-47v99l-45 -68h-24l-45 68v-99zM838 801v-41h-99v-37h86v-41h-86v-35
h99v-41h-146v195h146zM479 801h78q45 0 75 -28t30 -70q0 -41 -30 -69t-75 -28h-78v195zM1222 803q44 0 74 -29t29 -71q1 -41 -29 -71t-74 -30t-74 30t-30 72t30 70q30 29 74 29zM348 143h983l-360 351h233l230 -224v979h-983l364 -354h-233l-234 227v-979zM1577 1393v-1393
h-1372v1393h1372z" />
    <glyph glyph-name="eacute" unicode="&#xe9;" 
d="M528 647h29q25 1 40 17t15 38t-15 39q-15 16 -40 17h-29v-111zM1220 760q-24 0 -38 -16t-14 -41q0 -23 14 -39t38 -16t38 16t16 38q0 22 -15 40t-39 18zM924 606h-47v195h36l68 -105l70 105h34v-195h-47v99l-45 -68h-24l-45 68v-99zM838 801v-41h-99v-37h86v-41h-86v-35
h99v-41h-146v195h146zM479 801h78q45 0 75 -28t30 -70q0 -41 -30 -69t-75 -28h-78v195zM1222 803q44 0 74 -29t29 -71q1 -41 -29 -71t-74 -30t-74 30t-30 72t30 70q30 29 74 29zM348 143h983l-360 351h233l230 -224v979h-983l364 -354h-233l-234 227v-979zM1577 1393v-1393
h-1372v1393h1372z" />
    <glyph glyph-name="ecircumflex" unicode="&#xea;" 
d="M528 647h29q25 1 40 17t15 38t-15 39q-15 16 -40 17h-29v-111zM1220 760q-24 0 -38 -16t-14 -41q0 -23 14 -39t38 -16t38 16t16 38q0 22 -15 40t-39 18zM924 606h-47v195h36l68 -105l70 105h34v-195h-47v99l-45 -68h-24l-45 68v-99zM838 801v-41h-99v-37h86v-41h-86v-35
h99v-41h-146v195h146zM479 801h78q45 0 75 -28t30 -70q0 -41 -30 -69t-75 -28h-78v195zM1222 803q44 0 74 -29t29 -71q1 -41 -29 -71t-74 -30t-74 30t-30 72t30 70q30 29 74 29zM348 143h983l-360 351h233l230 -224v979h-983l364 -354h-233l-234 227v-979zM1577 1393v-1393
h-1372v1393h1372z" />
    <glyph glyph-name="edieresis" unicode="&#xeb;" 
d="M528 647h29q25 1 40 17t15 38t-15 39q-15 16 -40 17h-29v-111zM1220 760q-24 0 -38 -16t-14 -41q0 -23 14 -39t38 -16t38 16t16 38q0 22 -15 40t-39 18zM924 606h-47v195h36l68 -105l70 105h34v-195h-47v99l-45 -68h-24l-45 68v-99zM838 801v-41h-99v-37h86v-41h-86v-35
h99v-41h-146v195h146zM479 801h78q45 0 75 -28t30 -70q0 -41 -30 -69t-75 -28h-78v195zM1222 803q44 0 74 -29t29 -71q1 -41 -29 -71t-74 -30t-74 30t-30 72t30 70q30 29 74 29zM348 143h983l-360 351h233l230 -224v979h-983l364 -354h-233l-234 227v-979zM1577 1393v-1393
h-1372v1393h1372z" />
    <glyph glyph-name="igrave" unicode="&#xec;" 
d="M528 647h29q25 1 40 17t15 38t-15 39q-15 16 -40 17h-29v-111zM1220 760q-24 0 -38 -16t-14 -41q0 -23 14 -39t38 -16t38 16t16 38q0 22 -15 40t-39 18zM924 606h-47v195h36l68 -105l70 105h34v-195h-47v99l-45 -68h-24l-45 68v-99zM838 801v-41h-99v-37h86v-41h-86v-35
h99v-41h-146v195h146zM479 801h78q45 0 75 -28t30 -70q0 -41 -30 -69t-75 -28h-78v195zM1222 803q44 0 74 -29t29 -71q1 -41 -29 -71t-74 -30t-74 30t-30 72t30 70q30 29 74 29zM348 143h983l-360 351h233l230 -224v979h-983l364 -354h-233l-234 227v-979zM1577 1393v-1393
h-1372v1393h1372z" />
    <glyph glyph-name="iacute" unicode="&#xed;" 
d="M528 647h29q25 1 40 17t15 38t-15 39q-15 16 -40 17h-29v-111zM1220 760q-24 0 -38 -16t-14 -41q0 -23 14 -39t38 -16t38 16t16 38q0 22 -15 40t-39 18zM924 606h-47v195h36l68 -105l70 105h34v-195h-47v99l-45 -68h-24l-45 68v-99zM838 801v-41h-99v-37h86v-41h-86v-35
h99v-41h-146v195h146zM479 801h78q45 0 75 -28t30 -70q0 -41 -30 -69t-75 -28h-78v195zM1222 803q44 0 74 -29t29 -71q1 -41 -29 -71t-74 -30t-74 30t-30 72t30 70q30 29 74 29zM348 143h983l-360 351h233l230 -224v979h-983l364 -354h-233l-234 227v-979zM1577 1393v-1393
h-1372v1393h1372z" />
    <glyph glyph-name="icircumflex" unicode="&#xee;" 
d="M528 647h29q25 1 40 17t15 38t-15 39q-15 16 -40 17h-29v-111zM1220 760q-24 0 -38 -16t-14 -41q0 -23 14 -39t38 -16t38 16t16 38q0 22 -15 40t-39 18zM924 606h-47v195h36l68 -105l70 105h34v-195h-47v99l-45 -68h-24l-45 68v-99zM838 801v-41h-99v-37h86v-41h-86v-35
h99v-41h-146v195h146zM479 801h78q45 0 75 -28t30 -70q0 -41 -30 -69t-75 -28h-78v195zM1222 803q44 0 74 -29t29 -71q1 -41 -29 -71t-74 -30t-74 30t-30 72t30 70q30 29 74 29zM348 143h983l-360 351h233l230 -224v979h-983l364 -354h-233l-234 227v-979zM1577 1393v-1393
h-1372v1393h1372z" />
    <glyph glyph-name="idieresis" unicode="&#xef;" 
d="M528 647h29q25 1 40 17t15 38t-15 39q-15 16 -40 17h-29v-111zM1220 760q-24 0 -38 -16t-14 -41q0 -23 14 -39t38 -16t38 16t16 38q0 22 -15 40t-39 18zM924 606h-47v195h36l68 -105l70 105h34v-195h-47v99l-45 -68h-24l-45 68v-99zM838 801v-41h-99v-37h86v-41h-86v-35
h99v-41h-146v195h146zM479 801h78q45 0 75 -28t30 -70q0 -41 -30 -69t-75 -28h-78v195zM1222 803q44 0 74 -29t29 -71q1 -41 -29 -71t-74 -30t-74 30t-30 72t30 70q30 29 74 29zM348 143h983l-360 351h233l230 -224v979h-983l364 -354h-233l-234 227v-979zM1577 1393v-1393
h-1372v1393h1372z" />
    <glyph glyph-name="eth" unicode="&#xf0;" horiz-adv-x="1214" 
d="M383 494q1 -100 63 -169t161 -69t162 69q62 69 62 169t-62 168q-61 68 -161 68t-163 -68q-62 -68 -62 -168zM1145 498q0 -227 -153 -378t-386 -151t-386 151q-152 151 -152 377t151 372q152 146 387 147q49 0 84 -8q-43 61 -117 125l-303 -109l-69 180l176 64
q-68 43 -176 94l286 125q96 -45 191 -109l211 76l69 -182l-110 -41q297 -311 297 -733z" />
    <glyph glyph-name="ntilde" unicode="&#xf1;" 
d="M528 647h29q25 1 40 17t15 38t-15 39q-15 16 -40 17h-29v-111zM1220 760q-24 0 -38 -16t-14 -41q0 -23 14 -39t38 -16t38 16t16 38q0 22 -15 40t-39 18zM924 606h-47v195h36l68 -105l70 105h34v-195h-47v99l-45 -68h-24l-45 68v-99zM838 801v-41h-99v-37h86v-41h-86v-35
h99v-41h-146v195h146zM479 801h78q45 0 75 -28t30 -70q0 -41 -30 -69t-75 -28h-78v195zM1222 803q44 0 74 -29t29 -71q1 -41 -29 -71t-74 -30t-74 30t-30 72t30 70q30 29 74 29zM348 143h983l-360 351h233l230 -224v979h-983l364 -354h-233l-234 227v-979zM1577 1393v-1393
h-1372v1393h1372z" />
    <glyph glyph-name="ograve" unicode="&#xf2;" 
d="M528 647h29q25 1 40 17t15 38t-15 39q-15 16 -40 17h-29v-111zM1220 760q-24 0 -38 -16t-14 -41q0 -23 14 -39t38 -16t38 16t16 38q0 22 -15 40t-39 18zM924 606h-47v195h36l68 -105l70 105h34v-195h-47v99l-45 -68h-24l-45 68v-99zM838 801v-41h-99v-37h86v-41h-86v-35
h99v-41h-146v195h146zM479 801h78q45 0 75 -28t30 -70q0 -41 -30 -69t-75 -28h-78v195zM1222 803q44 0 74 -29t29 -71q1 -41 -29 -71t-74 -30t-74 30t-30 72t30 70q30 29 74 29zM348 143h983l-360 351h233l230 -224v979h-983l364 -354h-233l-234 227v-979zM1577 1393v-1393
h-1372v1393h1372z" />
    <glyph glyph-name="oacute" unicode="&#xf3;" 
d="M528 647h29q25 1 40 17t15 38t-15 39q-15 16 -40 17h-29v-111zM1220 760q-24 0 -38 -16t-14 -41q0 -23 14 -39t38 -16t38 16t16 38q0 22 -15 40t-39 18zM924 606h-47v195h36l68 -105l70 105h34v-195h-47v99l-45 -68h-24l-45 68v-99zM838 801v-41h-99v-37h86v-41h-86v-35
h99v-41h-146v195h146zM479 801h78q45 0 75 -28t30 -70q0 -41 -30 -69t-75 -28h-78v195zM1222 803q44 0 74 -29t29 -71q1 -41 -29 -71t-74 -30t-74 30t-30 72t30 70q30 29 74 29zM348 143h983l-360 351h233l230 -224v979h-983l364 -354h-233l-234 227v-979zM1577 1393v-1393
h-1372v1393h1372z" />
    <glyph glyph-name="ocircumflex" unicode="&#xf4;" 
d="M528 647h29q25 1 40 17t15 38t-15 39q-15 16 -40 17h-29v-111zM1220 760q-24 0 -38 -16t-14 -41q0 -23 14 -39t38 -16t38 16t16 38q0 22 -15 40t-39 18zM924 606h-47v195h36l68 -105l70 105h34v-195h-47v99l-45 -68h-24l-45 68v-99zM838 801v-41h-99v-37h86v-41h-86v-35
h99v-41h-146v195h146zM479 801h78q45 0 75 -28t30 -70q0 -41 -30 -69t-75 -28h-78v195zM1222 803q44 0 74 -29t29 -71q1 -41 -29 -71t-74 -30t-74 30t-30 72t30 70q30 29 74 29zM348 143h983l-360 351h233l230 -224v979h-983l364 -354h-233l-234 227v-979zM1577 1393v-1393
h-1372v1393h1372z" />
    <glyph glyph-name="otilde" unicode="&#xf5;" 
d="M528 647h29q25 1 40 17t15 38t-15 39q-15 16 -40 17h-29v-111zM1220 760q-24 0 -38 -16t-14 -41q0 -23 14 -39t38 -16t38 16t16 38q0 22 -15 40t-39 18zM924 606h-47v195h36l68 -105l70 105h34v-195h-47v99l-45 -68h-24l-45 68v-99zM838 801v-41h-99v-37h86v-41h-86v-35
h99v-41h-146v195h146zM479 801h78q45 0 75 -28t30 -70q0 -41 -30 -69t-75 -28h-78v195zM1222 803q44 0 74 -29t29 -71q1 -41 -29 -71t-74 -30t-74 30t-30 72t30 70q30 29 74 29zM348 143h983l-360 351h233l230 -224v979h-983l364 -354h-233l-234 227v-979zM1577 1393v-1393
h-1372v1393h1372z" />
    <glyph glyph-name="odieresis" unicode="&#xf6;" horiz-adv-x="1214" 
d="M383 494q1 -100 63 -169t161 -69t162 69q62 69 62 169t-62 168q-61 68 -161 68t-163 -68q-62 -68 -62 -168zM606 1016q236 0 388 -146t151 -373q0 -226 -153 -377t-386 -151t-386 151q-152 151 -152 377q0 227 151 373t387 146zM844 1487q78 0 132 -52t54 -128t-54 -128
q-54 -53 -132 -53t-133 52t-56 129q-1 76 55 128t134 52zM375 1487q78 0 132 -52t54 -128t-54 -128q-54 -53 -132 -53t-133 52t-56 129q0 76 56 128t133 52z" />
    <glyph glyph-name="divide" unicode="&#xf7;" 
d="M528 647h29q25 1 40 17t15 38t-15 39q-15 16 -40 17h-29v-111zM1220 760q-24 0 -38 -16t-14 -41q0 -23 14 -39t38 -16t38 16t16 38q0 22 -15 40t-39 18zM924 606h-47v195h36l68 -105l70 105h34v-195h-47v99l-45 -68h-24l-45 68v-99zM838 801v-41h-99v-37h86v-41h-86v-35
h99v-41h-146v195h146zM479 801h78q45 0 75 -28t30 -70q0 -41 -30 -69t-75 -28h-78v195zM1222 803q44 0 74 -29t29 -71q1 -41 -29 -71t-74 -30t-74 30t-30 72t30 70q30 29 74 29zM348 143h983l-360 351h233l230 -224v979h-983l364 -354h-233l-234 227v-979zM1577 1393v-1393
h-1372v1393h1372z" />
    <glyph glyph-name="oslash" unicode="&#xf8;" horiz-adv-x="1214" 
d="M608 256q98 0 161 69q62 69 62 171q0 61 -24 112l-283 -336q39 -16 84 -16zM383 496q0 -57 23 -109l278 330q-37 12 -76 12q-100 0 -163 -67q-62 -68 -62 -166zM1145 489q0 -218 -153 -369t-386 -151q-156 0 -278 70l-62 -74l-127 105l60 71q-131 147 -131 365t151 363
q152 146 387 147q154 0 275 -66l57 70l127 -105l-53 -65q133 -143 133 -361z" />
    <glyph glyph-name="ugrave" unicode="&#xf9;" 
d="M528 647h29q25 1 40 17t15 38t-15 39q-15 16 -40 17h-29v-111zM1220 760q-24 0 -38 -16t-14 -41q0 -23 14 -39t38 -16t38 16t16 38q0 22 -15 40t-39 18zM924 606h-47v195h36l68 -105l70 105h34v-195h-47v99l-45 -68h-24l-45 68v-99zM838 801v-41h-99v-37h86v-41h-86v-35
h99v-41h-146v195h146zM479 801h78q45 0 75 -28t30 -70q0 -41 -30 -69t-75 -28h-78v195zM1222 803q44 0 74 -29t29 -71q1 -41 -29 -71t-74 -30t-74 30t-30 72t30 70q30 29 74 29zM348 143h983l-360 351h233l230 -224v979h-983l364 -354h-233l-234 227v-979zM1577 1393v-1393
h-1372v1393h1372z" />
    <glyph glyph-name="uacute" unicode="&#xfa;" 
d="M528 647h29q25 1 40 17t15 38t-15 39q-15 16 -40 17h-29v-111zM1220 760q-24 0 -38 -16t-14 -41q0 -23 14 -39t38 -16t38 16t16 38q0 22 -15 40t-39 18zM924 606h-47v195h36l68 -105l70 105h34v-195h-47v99l-45 -68h-24l-45 68v-99zM838 801v-41h-99v-37h86v-41h-86v-35
h99v-41h-146v195h146zM479 801h78q45 0 75 -28t30 -70q0 -41 -30 -69t-75 -28h-78v195zM1222 803q44 0 74 -29t29 -71q1 -41 -29 -71t-74 -30t-74 30t-30 72t30 70q30 29 74 29zM348 143h983l-360 351h233l230 -224v979h-983l364 -354h-233l-234 227v-979zM1577 1393v-1393
h-1372v1393h1372z" />
    <glyph glyph-name="ucircumflex" unicode="&#xfb;" 
d="M528 647h29q25 1 40 17t15 38t-15 39q-15 16 -40 17h-29v-111zM1220 760q-24 0 -38 -16t-14 -41q0 -23 14 -39t38 -16t38 16t16 38q0 22 -15 40t-39 18zM924 606h-47v195h36l68 -105l70 105h34v-195h-47v99l-45 -68h-24l-45 68v-99zM838 801v-41h-99v-37h86v-41h-86v-35
h99v-41h-146v195h146zM479 801h78q45 0 75 -28t30 -70q0 -41 -30 -69t-75 -28h-78v195zM1222 803q44 0 74 -29t29 -71q1 -41 -29 -71t-74 -30t-74 30t-30 72t30 70q30 29 74 29zM348 143h983l-360 351h233l230 -224v979h-983l364 -354h-233l-234 227v-979zM1577 1393v-1393
h-1372v1393h1372z" />
    <glyph glyph-name="udieresis" unicode="&#xfc;" horiz-adv-x="1241" 
d="M1128 993v-993h-331v66q-125 -96 -273 -97q-190 0 -307 123t-117 334v567h332v-516q0 -102 49 -155q49 -54 138 -54t178 99v626h331zM858 1126q-78 0 -133 52t-55 129q0 76 55 128t133 52t132 -52t54 -128q0 -77 -54 -129t-132 -52zM389 1126q-78 0 -133 52t-55 129
q0 76 55 128t133 52t132 -52t54 -128q0 -77 -54 -129t-132 -52z" />
    <glyph glyph-name="yacute" unicode="&#xfd;" 
d="M528 647h29q25 1 40 17t15 38t-15 39q-15 16 -40 17h-29v-111zM1220 760q-24 0 -38 -16t-14 -41q0 -23 14 -39t38 -16t38 16t16 38q0 22 -15 40t-39 18zM924 606h-47v195h36l68 -105l70 105h34v-195h-47v99l-45 -68h-24l-45 68v-99zM838 801v-41h-99v-37h86v-41h-86v-35
h99v-41h-146v195h146zM479 801h78q45 0 75 -28t30 -70q0 -41 -30 -69t-75 -28h-78v195zM1222 803q44 0 74 -29t29 -71q1 -41 -29 -71t-74 -30t-74 30t-30 72t30 70q30 29 74 29zM348 143h983l-360 351h233l230 -224v979h-983l364 -354h-233l-234 227v-979zM1577 1393v-1393
h-1372v1393h1372z" />
    <glyph glyph-name="thorn" unicode="&#xfe;" horiz-adv-x="1265" 
d="M638 252q114 0 180 71q67 71 67 175t-67 176q-66 72 -180 72t-194 -95v-307q80 -92 194 -92zM717 1016q203 0 348 -150t145 -368t-145 -369q-145 -150 -348 -149q-154 0 -273 75v-516h-331v1854h331v-453q119 76 273 76z" />
    <glyph glyph-name="ydieresis" unicode="&#xff;" 
d="M528 647h29q25 1 40 17t15 38t-15 39q-15 16 -40 17h-29v-111zM1220 760q-24 0 -38 -16t-14 -41q0 -23 14 -39t38 -16t38 16t16 38q0 22 -15 40t-39 18zM924 606h-47v195h36l68 -105l70 105h34v-195h-47v99l-45 -68h-24l-45 68v-99zM838 801v-41h-99v-37h86v-41h-86v-35
h99v-41h-146v195h146zM479 801h78q45 0 75 -28t30 -70q0 -41 -30 -69t-75 -28h-78v195zM1222 803q44 0 74 -29t29 -71q1 -41 -29 -71t-74 -30t-74 30t-30 72t30 70q30 29 74 29zM348 143h983l-360 351h233l230 -224v979h-983l364 -354h-233l-234 227v-979zM1577 1393v-1393
h-1372v1393h1372z" />
    <glyph glyph-name="Amacron" unicode="&#x100;" 
d="M528 647h29q25 1 40 17t15 38t-15 39q-15 16 -40 17h-29v-111zM1220 760q-24 0 -38 -16t-14 -41q0 -23 14 -39t38 -16t38 16t16 38q0 22 -15 40t-39 18zM924 606h-47v195h36l68 -105l70 105h34v-195h-47v99l-45 -68h-24l-45 68v-99zM838 801v-41h-99v-37h86v-41h-86v-35
h99v-41h-146v195h146zM479 801h78q45 0 75 -28t30 -70q0 -41 -30 -69t-75 -28h-78v195zM1222 803q44 0 74 -29t29 -71q1 -41 -29 -71t-74 -30t-74 30t-30 72t30 70q30 29 74 29zM348 143h983l-360 351h233l230 -224v979h-983l364 -354h-233l-234 227v-979zM1577 1393v-1393
h-1372v1393h1372z" />
    <glyph glyph-name="amacron" unicode="&#x101;" 
d="M528 647h29q25 1 40 17t15 38t-15 39q-15 16 -40 17h-29v-111zM1220 760q-24 0 -38 -16t-14 -41q0 -23 14 -39t38 -16t38 16t16 38q0 22 -15 40t-39 18zM924 606h-47v195h36l68 -105l70 105h34v-195h-47v99l-45 -68h-24l-45 68v-99zM838 801v-41h-99v-37h86v-41h-86v-35
h99v-41h-146v195h146zM479 801h78q45 0 75 -28t30 -70q0 -41 -30 -69t-75 -28h-78v195zM1222 803q44 0 74 -29t29 -71q1 -41 -29 -71t-74 -30t-74 30t-30 72t30 70q30 29 74 29zM348 143h983l-360 351h233l230 -224v979h-983l364 -354h-233l-234 227v-979zM1577 1393v-1393
h-1372v1393h1372z" />
    <glyph glyph-name="Abreve" unicode="&#x102;" 
d="M528 647h29q25 1 40 17t15 38t-15 39q-15 16 -40 17h-29v-111zM1220 760q-24 0 -38 -16t-14 -41q0 -23 14 -39t38 -16t38 16t16 38q0 22 -15 40t-39 18zM924 606h-47v195h36l68 -105l70 105h34v-195h-47v99l-45 -68h-24l-45 68v-99zM838 801v-41h-99v-37h86v-41h-86v-35
h99v-41h-146v195h146zM479 801h78q45 0 75 -28t30 -70q0 -41 -30 -69t-75 -28h-78v195zM1222 803q44 0 74 -29t29 -71q1 -41 -29 -71t-74 -30t-74 30t-30 72t30 70q30 29 74 29zM348 143h983l-360 351h233l230 -224v979h-983l364 -354h-233l-234 227v-979zM1577 1393v-1393
h-1372v1393h1372z" />
    <glyph glyph-name="abreve" unicode="&#x103;" 
d="M528 647h29q25 1 40 17t15 38t-15 39q-15 16 -40 17h-29v-111zM1220 760q-24 0 -38 -16t-14 -41q0 -23 14 -39t38 -16t38 16t16 38q0 22 -15 40t-39 18zM924 606h-47v195h36l68 -105l70 105h34v-195h-47v99l-45 -68h-24l-45 68v-99zM838 801v-41h-99v-37h86v-41h-86v-35
h99v-41h-146v195h146zM479 801h78q45 0 75 -28t30 -70q0 -41 -30 -69t-75 -28h-78v195zM1222 803q44 0 74 -29t29 -71q1 -41 -29 -71t-74 -30t-74 30t-30 72t30 70q30 29 74 29zM348 143h983l-360 351h233l230 -224v979h-983l364 -354h-233l-234 227v-979zM1577 1393v-1393
h-1372v1393h1372z" />
    <glyph glyph-name="Aogonek" unicode="&#x104;" 
d="M528 647h29q25 1 40 17t15 38t-15 39q-15 16 -40 17h-29v-111zM1220 760q-24 0 -38 -16t-14 -41q0 -23 14 -39t38 -16t38 16t16 38q0 22 -15 40t-39 18zM924 606h-47v195h36l68 -105l70 105h34v-195h-47v99l-45 -68h-24l-45 68v-99zM838 801v-41h-99v-37h86v-41h-86v-35
h99v-41h-146v195h146zM479 801h78q45 0 75 -28t30 -70q0 -41 -30 -69t-75 -28h-78v195zM1222 803q44 0 74 -29t29 -71q1 -41 -29 -71t-74 -30t-74 30t-30 72t30 70q30 29 74 29zM348 143h983l-360 351h233l230 -224v979h-983l364 -354h-233l-234 227v-979zM1577 1393v-1393
h-1372v1393h1372z" />
    <glyph glyph-name="aogonek" unicode="&#x105;" 
d="M528 647h29q25 1 40 17t15 38t-15 39q-15 16 -40 17h-29v-111zM1220 760q-24 0 -38 -16t-14 -41q0 -23 14 -39t38 -16t38 16t16 38q0 22 -15 40t-39 18zM924 606h-47v195h36l68 -105l70 105h34v-195h-47v99l-45 -68h-24l-45 68v-99zM838 801v-41h-99v-37h86v-41h-86v-35
h99v-41h-146v195h146zM479 801h78q45 0 75 -28t30 -70q0 -41 -30 -69t-75 -28h-78v195zM1222 803q44 0 74 -29t29 -71q1 -41 -29 -71t-74 -30t-74 30t-30 72t30 70q30 29 74 29zM348 143h983l-360 351h233l230 -224v979h-983l364 -354h-233l-234 227v-979zM1577 1393v-1393
h-1372v1393h1372z" />
    <glyph glyph-name="Cacute" unicode="&#x106;" 
d="M528 647h29q25 1 40 17t15 38t-15 39q-15 16 -40 17h-29v-111zM1220 760q-24 0 -38 -16t-14 -41q0 -23 14 -39t38 -16t38 16t16 38q0 22 -15 40t-39 18zM924 606h-47v195h36l68 -105l70 105h34v-195h-47v99l-45 -68h-24l-45 68v-99zM838 801v-41h-99v-37h86v-41h-86v-35
h99v-41h-146v195h146zM479 801h78q45 0 75 -28t30 -70q0 -41 -30 -69t-75 -28h-78v195zM1222 803q44 0 74 -29t29 -71q1 -41 -29 -71t-74 -30t-74 30t-30 72t30 70q30 29 74 29zM348 143h983l-360 351h233l230 -224v979h-983l364 -354h-233l-234 227v-979zM1577 1393v-1393
h-1372v1393h1372z" />
    <glyph glyph-name="cacute" unicode="&#x107;" 
d="M528 647h29q25 1 40 17t15 38t-15 39q-15 16 -40 17h-29v-111zM1220 760q-24 0 -38 -16t-14 -41q0 -23 14 -39t38 -16t38 16t16 38q0 22 -15 40t-39 18zM924 606h-47v195h36l68 -105l70 105h34v-195h-47v99l-45 -68h-24l-45 68v-99zM838 801v-41h-99v-37h86v-41h-86v-35
h99v-41h-146v195h146zM479 801h78q45 0 75 -28t30 -70q0 -41 -30 -69t-75 -28h-78v195zM1222 803q44 0 74 -29t29 -71q1 -41 -29 -71t-74 -30t-74 30t-30 72t30 70q30 29 74 29zM348 143h983l-360 351h233l230 -224v979h-983l364 -354h-233l-234 227v-979zM1577 1393v-1393
h-1372v1393h1372z" />
    <glyph glyph-name="Cdotaccent" unicode="&#x10a;" 
d="M528 647h29q25 1 40 17t15 38t-15 39q-15 16 -40 17h-29v-111zM1220 760q-24 0 -38 -16t-14 -41q0 -23 14 -39t38 -16t38 16t16 38q0 22 -15 40t-39 18zM924 606h-47v195h36l68 -105l70 105h34v-195h-47v99l-45 -68h-24l-45 68v-99zM838 801v-41h-99v-37h86v-41h-86v-35
h99v-41h-146v195h146zM479 801h78q45 0 75 -28t30 -70q0 -41 -30 -69t-75 -28h-78v195zM1222 803q44 0 74 -29t29 -71q1 -41 -29 -71t-74 -30t-74 30t-30 72t30 70q30 29 74 29zM348 143h983l-360 351h233l230 -224v979h-983l364 -354h-233l-234 227v-979zM1577 1393v-1393
h-1372v1393h1372z" />
    <glyph glyph-name="cdotaccent" unicode="&#x10b;" 
d="M528 647h29q25 1 40 17t15 38t-15 39q-15 16 -40 17h-29v-111zM1220 760q-24 0 -38 -16t-14 -41q0 -23 14 -39t38 -16t38 16t16 38q0 22 -15 40t-39 18zM924 606h-47v195h36l68 -105l70 105h34v-195h-47v99l-45 -68h-24l-45 68v-99zM838 801v-41h-99v-37h86v-41h-86v-35
h99v-41h-146v195h146zM479 801h78q45 0 75 -28t30 -70q0 -41 -30 -69t-75 -28h-78v195zM1222 803q44 0 74 -29t29 -71q1 -41 -29 -71t-74 -30t-74 30t-30 72t30 70q30 29 74 29zM348 143h983l-360 351h233l230 -224v979h-983l364 -354h-233l-234 227v-979zM1577 1393v-1393
h-1372v1393h1372z" />
    <glyph glyph-name="Ccaron" unicode="&#x10c;" 
d="M528 647h29q25 1 40 17t15 38t-15 39q-15 16 -40 17h-29v-111zM1220 760q-24 0 -38 -16t-14 -41q0 -23 14 -39t38 -16t38 16t16 38q0 22 -15 40t-39 18zM924 606h-47v195h36l68 -105l70 105h34v-195h-47v99l-45 -68h-24l-45 68v-99zM838 801v-41h-99v-37h86v-41h-86v-35
h99v-41h-146v195h146zM479 801h78q45 0 75 -28t30 -70q0 -41 -30 -69t-75 -28h-78v195zM1222 803q44 0 74 -29t29 -71q1 -41 -29 -71t-74 -30t-74 30t-30 72t30 70q30 29 74 29zM348 143h983l-360 351h233l230 -224v979h-983l364 -354h-233l-234 227v-979zM1577 1393v-1393
h-1372v1393h1372z" />
    <glyph glyph-name="ccaron" unicode="&#x10d;" 
d="M528 647h29q25 1 40 17t15 38t-15 39q-15 16 -40 17h-29v-111zM1220 760q-24 0 -38 -16t-14 -41q0 -23 14 -39t38 -16t38 16t16 38q0 22 -15 40t-39 18zM924 606h-47v195h36l68 -105l70 105h34v-195h-47v99l-45 -68h-24l-45 68v-99zM838 801v-41h-99v-37h86v-41h-86v-35
h99v-41h-146v195h146zM479 801h78q45 0 75 -28t30 -70q0 -41 -30 -69t-75 -28h-78v195zM1222 803q44 0 74 -29t29 -71q1 -41 -29 -71t-74 -30t-74 30t-30 72t30 70q30 29 74 29zM348 143h983l-360 351h233l230 -224v979h-983l364 -354h-233l-234 227v-979zM1577 1393v-1393
h-1372v1393h1372z" />
    <glyph glyph-name="Dcaron" unicode="&#x10e;" 
d="M528 647h29q25 1 40 17t15 38t-15 39q-15 16 -40 17h-29v-111zM1220 760q-24 0 -38 -16t-14 -41q0 -23 14 -39t38 -16t38 16t16 38q0 22 -15 40t-39 18zM924 606h-47v195h36l68 -105l70 105h34v-195h-47v99l-45 -68h-24l-45 68v-99zM838 801v-41h-99v-37h86v-41h-86v-35
h99v-41h-146v195h146zM479 801h78q45 0 75 -28t30 -70q0 -41 -30 -69t-75 -28h-78v195zM1222 803q44 0 74 -29t29 -71q1 -41 -29 -71t-74 -30t-74 30t-30 72t30 70q30 29 74 29zM348 143h983l-360 351h233l230 -224v979h-983l364 -354h-233l-234 227v-979zM1577 1393v-1393
h-1372v1393h1372z" />
    <glyph glyph-name="dcaron" unicode="&#x10f;" 
d="M528 647h29q25 1 40 17t15 38t-15 39q-15 16 -40 17h-29v-111zM1220 760q-24 0 -38 -16t-14 -41q0 -23 14 -39t38 -16t38 16t16 38q0 22 -15 40t-39 18zM924 606h-47v195h36l68 -105l70 105h34v-195h-47v99l-45 -68h-24l-45 68v-99zM838 801v-41h-99v-37h86v-41h-86v-35
h99v-41h-146v195h146zM479 801h78q45 0 75 -28t30 -70q0 -41 -30 -69t-75 -28h-78v195zM1222 803q44 0 74 -29t29 -71q1 -41 -29 -71t-74 -30t-74 30t-30 72t30 70q30 29 74 29zM348 143h983l-360 351h233l230 -224v979h-983l364 -354h-233l-234 227v-979zM1577 1393v-1393
h-1372v1393h1372z" />
    <glyph glyph-name="Dcroat" unicode="&#x110;" 
d="M528 647h29q25 1 40 17t15 38t-15 39q-15 16 -40 17h-29v-111zM1220 760q-24 0 -38 -16t-14 -41q0 -23 14 -39t38 -16t38 16t16 38q0 22 -15 40t-39 18zM924 606h-47v195h36l68 -105l70 105h34v-195h-47v99l-45 -68h-24l-45 68v-99zM838 801v-41h-99v-37h86v-41h-86v-35
h99v-41h-146v195h146zM479 801h78q45 0 75 -28t30 -70q0 -41 -30 -69t-75 -28h-78v195zM1222 803q44 0 74 -29t29 -71q1 -41 -29 -71t-74 -30t-74 30t-30 72t30 70q30 29 74 29zM348 143h983l-360 351h233l230 -224v979h-983l364 -354h-233l-234 227v-979zM1577 1393v-1393
h-1372v1393h1372z" />
    <glyph glyph-name="dcroat" unicode="&#x111;" 
d="M528 647h29q25 1 40 17t15 38t-15 39q-15 16 -40 17h-29v-111zM1220 760q-24 0 -38 -16t-14 -41q0 -23 14 -39t38 -16t38 16t16 38q0 22 -15 40t-39 18zM924 606h-47v195h36l68 -105l70 105h34v-195h-47v99l-45 -68h-24l-45 68v-99zM838 801v-41h-99v-37h86v-41h-86v-35
h99v-41h-146v195h146zM479 801h78q45 0 75 -28t30 -70q0 -41 -30 -69t-75 -28h-78v195zM1222 803q44 0 74 -29t29 -71q1 -41 -29 -71t-74 -30t-74 30t-30 72t30 70q30 29 74 29zM348 143h983l-360 351h233l230 -224v979h-983l364 -354h-233l-234 227v-979zM1577 1393v-1393
h-1372v1393h1372z" />
    <glyph glyph-name="Emacron" unicode="&#x112;" 
d="M528 647h29q25 1 40 17t15 38t-15 39q-15 16 -40 17h-29v-111zM1220 760q-24 0 -38 -16t-14 -41q0 -23 14 -39t38 -16t38 16t16 38q0 22 -15 40t-39 18zM924 606h-47v195h36l68 -105l70 105h34v-195h-47v99l-45 -68h-24l-45 68v-99zM838 801v-41h-99v-37h86v-41h-86v-35
h99v-41h-146v195h146zM479 801h78q45 0 75 -28t30 -70q0 -41 -30 -69t-75 -28h-78v195zM1222 803q44 0 74 -29t29 -71q1 -41 -29 -71t-74 -30t-74 30t-30 72t30 70q30 29 74 29zM348 143h983l-360 351h233l230 -224v979h-983l364 -354h-233l-234 227v-979zM1577 1393v-1393
h-1372v1393h1372z" />
    <glyph glyph-name="emacron" unicode="&#x113;" 
d="M528 647h29q25 1 40 17t15 38t-15 39q-15 16 -40 17h-29v-111zM1220 760q-24 0 -38 -16t-14 -41q0 -23 14 -39t38 -16t38 16t16 38q0 22 -15 40t-39 18zM924 606h-47v195h36l68 -105l70 105h34v-195h-47v99l-45 -68h-24l-45 68v-99zM838 801v-41h-99v-37h86v-41h-86v-35
h99v-41h-146v195h146zM479 801h78q45 0 75 -28t30 -70q0 -41 -30 -69t-75 -28h-78v195zM1222 803q44 0 74 -29t29 -71q1 -41 -29 -71t-74 -30t-74 30t-30 72t30 70q30 29 74 29zM348 143h983l-360 351h233l230 -224v979h-983l364 -354h-233l-234 227v-979zM1577 1393v-1393
h-1372v1393h1372z" />
    <glyph glyph-name="Edotaccent" unicode="&#x116;" 
d="M528 647h29q25 1 40 17t15 38t-15 39q-15 16 -40 17h-29v-111zM1220 760q-24 0 -38 -16t-14 -41q0 -23 14 -39t38 -16t38 16t16 38q0 22 -15 40t-39 18zM924 606h-47v195h36l68 -105l70 105h34v-195h-47v99l-45 -68h-24l-45 68v-99zM838 801v-41h-99v-37h86v-41h-86v-35
h99v-41h-146v195h146zM479 801h78q45 0 75 -28t30 -70q0 -41 -30 -69t-75 -28h-78v195zM1222 803q44 0 74 -29t29 -71q1 -41 -29 -71t-74 -30t-74 30t-30 72t30 70q30 29 74 29zM348 143h983l-360 351h233l230 -224v979h-983l364 -354h-233l-234 227v-979zM1577 1393v-1393
h-1372v1393h1372z" />
    <glyph glyph-name="edotaccent" unicode="&#x117;" 
d="M528 647h29q25 1 40 17t15 38t-15 39q-15 16 -40 17h-29v-111zM1220 760q-24 0 -38 -16t-14 -41q0 -23 14 -39t38 -16t38 16t16 38q0 22 -15 40t-39 18zM924 606h-47v195h36l68 -105l70 105h34v-195h-47v99l-45 -68h-24l-45 68v-99zM838 801v-41h-99v-37h86v-41h-86v-35
h99v-41h-146v195h146zM479 801h78q45 0 75 -28t30 -70q0 -41 -30 -69t-75 -28h-78v195zM1222 803q44 0 74 -29t29 -71q1 -41 -29 -71t-74 -30t-74 30t-30 72t30 70q30 29 74 29zM348 143h983l-360 351h233l230 -224v979h-983l364 -354h-233l-234 227v-979zM1577 1393v-1393
h-1372v1393h1372z" />
    <glyph glyph-name="Eogonek" unicode="&#x118;" 
d="M528 647h29q25 1 40 17t15 38t-15 39q-15 16 -40 17h-29v-111zM1220 760q-24 0 -38 -16t-14 -41q0 -23 14 -39t38 -16t38 16t16 38q0 22 -15 40t-39 18zM924 606h-47v195h36l68 -105l70 105h34v-195h-47v99l-45 -68h-24l-45 68v-99zM838 801v-41h-99v-37h86v-41h-86v-35
h99v-41h-146v195h146zM479 801h78q45 0 75 -28t30 -70q0 -41 -30 -69t-75 -28h-78v195zM1222 803q44 0 74 -29t29 -71q1 -41 -29 -71t-74 -30t-74 30t-30 72t30 70q30 29 74 29zM348 143h983l-360 351h233l230 -224v979h-983l364 -354h-233l-234 227v-979zM1577 1393v-1393
h-1372v1393h1372z" />
    <glyph glyph-name="eogonek" unicode="&#x119;" 
d="M528 647h29q25 1 40 17t15 38t-15 39q-15 16 -40 17h-29v-111zM1220 760q-24 0 -38 -16t-14 -41q0 -23 14 -39t38 -16t38 16t16 38q0 22 -15 40t-39 18zM924 606h-47v195h36l68 -105l70 105h34v-195h-47v99l-45 -68h-24l-45 68v-99zM838 801v-41h-99v-37h86v-41h-86v-35
h99v-41h-146v195h146zM479 801h78q45 0 75 -28t30 -70q0 -41 -30 -69t-75 -28h-78v195zM1222 803q44 0 74 -29t29 -71q1 -41 -29 -71t-74 -30t-74 30t-30 72t30 70q30 29 74 29zM348 143h983l-360 351h233l230 -224v979h-983l364 -354h-233l-234 227v-979zM1577 1393v-1393
h-1372v1393h1372z" />
    <glyph glyph-name="Ecaron" unicode="&#x11a;" 
d="M528 647h29q25 1 40 17t15 38t-15 39q-15 16 -40 17h-29v-111zM1220 760q-24 0 -38 -16t-14 -41q0 -23 14 -39t38 -16t38 16t16 38q0 22 -15 40t-39 18zM924 606h-47v195h36l68 -105l70 105h34v-195h-47v99l-45 -68h-24l-45 68v-99zM838 801v-41h-99v-37h86v-41h-86v-35
h99v-41h-146v195h146zM479 801h78q45 0 75 -28t30 -70q0 -41 -30 -69t-75 -28h-78v195zM1222 803q44 0 74 -29t29 -71q1 -41 -29 -71t-74 -30t-74 30t-30 72t30 70q30 29 74 29zM348 143h983l-360 351h233l230 -224v979h-983l364 -354h-233l-234 227v-979zM1577 1393v-1393
h-1372v1393h1372z" />
    <glyph glyph-name="ecaron" unicode="&#x11b;" 
d="M528 647h29q25 1 40 17t15 38t-15 39q-15 16 -40 17h-29v-111zM1220 760q-24 0 -38 -16t-14 -41q0 -23 14 -39t38 -16t38 16t16 38q0 22 -15 40t-39 18zM924 606h-47v195h36l68 -105l70 105h34v-195h-47v99l-45 -68h-24l-45 68v-99zM838 801v-41h-99v-37h86v-41h-86v-35
h99v-41h-146v195h146zM479 801h78q45 0 75 -28t30 -70q0 -41 -30 -69t-75 -28h-78v195zM1222 803q44 0 74 -29t29 -71q1 -41 -29 -71t-74 -30t-74 30t-30 72t30 70q30 29 74 29zM348 143h983l-360 351h233l230 -224v979h-983l364 -354h-233l-234 227v-979zM1577 1393v-1393
h-1372v1393h1372z" />
    <glyph glyph-name="Gbreve" unicode="&#x11e;" 
d="M528 647h29q25 1 40 17t15 38t-15 39q-15 16 -40 17h-29v-111zM1220 760q-24 0 -38 -16t-14 -41q0 -23 14 -39t38 -16t38 16t16 38q0 22 -15 40t-39 18zM924 606h-47v195h36l68 -105l70 105h34v-195h-47v99l-45 -68h-24l-45 68v-99zM838 801v-41h-99v-37h86v-41h-86v-35
h99v-41h-146v195h146zM479 801h78q45 0 75 -28t30 -70q0 -41 -30 -69t-75 -28h-78v195zM1222 803q44 0 74 -29t29 -71q1 -41 -29 -71t-74 -30t-74 30t-30 72t30 70q30 29 74 29zM348 143h983l-360 351h233l230 -224v979h-983l364 -354h-233l-234 227v-979zM1577 1393v-1393
h-1372v1393h1372z" />
    <glyph glyph-name="gbreve" unicode="&#x11f;" 
d="M528 647h29q25 1 40 17t15 38t-15 39q-15 16 -40 17h-29v-111zM1220 760q-24 0 -38 -16t-14 -41q0 -23 14 -39t38 -16t38 16t16 38q0 22 -15 40t-39 18zM924 606h-47v195h36l68 -105l70 105h34v-195h-47v99l-45 -68h-24l-45 68v-99zM838 801v-41h-99v-37h86v-41h-86v-35
h99v-41h-146v195h146zM479 801h78q45 0 75 -28t30 -70q0 -41 -30 -69t-75 -28h-78v195zM1222 803q44 0 74 -29t29 -71q1 -41 -29 -71t-74 -30t-74 30t-30 72t30 70q30 29 74 29zM348 143h983l-360 351h233l230 -224v979h-983l364 -354h-233l-234 227v-979zM1577 1393v-1393
h-1372v1393h1372z" />
    <glyph glyph-name="Gdotaccent" unicode="&#x120;" 
d="M528 647h29q25 1 40 17t15 38t-15 39q-15 16 -40 17h-29v-111zM1220 760q-24 0 -38 -16t-14 -41q0 -23 14 -39t38 -16t38 16t16 38q0 22 -15 40t-39 18zM924 606h-47v195h36l68 -105l70 105h34v-195h-47v99l-45 -68h-24l-45 68v-99zM838 801v-41h-99v-37h86v-41h-86v-35
h99v-41h-146v195h146zM479 801h78q45 0 75 -28t30 -70q0 -41 -30 -69t-75 -28h-78v195zM1222 803q44 0 74 -29t29 -71q1 -41 -29 -71t-74 -30t-74 30t-30 72t30 70q30 29 74 29zM348 143h983l-360 351h233l230 -224v979h-983l364 -354h-233l-234 227v-979zM1577 1393v-1393
h-1372v1393h1372z" />
    <glyph glyph-name="gdotaccent" unicode="&#x121;" 
d="M528 647h29q25 1 40 17t15 38t-15 39q-15 16 -40 17h-29v-111zM1220 760q-24 0 -38 -16t-14 -41q0 -23 14 -39t38 -16t38 16t16 38q0 22 -15 40t-39 18zM924 606h-47v195h36l68 -105l70 105h34v-195h-47v99l-45 -68h-24l-45 68v-99zM838 801v-41h-99v-37h86v-41h-86v-35
h99v-41h-146v195h146zM479 801h78q45 0 75 -28t30 -70q0 -41 -30 -69t-75 -28h-78v195zM1222 803q44 0 74 -29t29 -71q1 -41 -29 -71t-74 -30t-74 30t-30 72t30 70q30 29 74 29zM348 143h983l-360 351h233l230 -224v979h-983l364 -354h-233l-234 227v-979zM1577 1393v-1393
h-1372v1393h1372z" />
    <glyph glyph-name="Gcommaaccent" unicode="&#x122;" 
d="M528 647h29q25 1 40 17t15 38t-15 39q-15 16 -40 17h-29v-111zM1220 760q-24 0 -38 -16t-14 -41q0 -23 14 -39t38 -16t38 16t16 38q0 22 -15 40t-39 18zM924 606h-47v195h36l68 -105l70 105h34v-195h-47v99l-45 -68h-24l-45 68v-99zM838 801v-41h-99v-37h86v-41h-86v-35
h99v-41h-146v195h146zM479 801h78q45 0 75 -28t30 -70q0 -41 -30 -69t-75 -28h-78v195zM1222 803q44 0 74 -29t29 -71q1 -41 -29 -71t-74 -30t-74 30t-30 72t30 70q30 29 74 29zM348 143h983l-360 351h233l230 -224v979h-983l364 -354h-233l-234 227v-979zM1577 1393v-1393
h-1372v1393h1372z" />
    <glyph glyph-name="gcommaaccent" unicode="&#x123;" 
d="M528 647h29q25 1 40 17t15 38t-15 39q-15 16 -40 17h-29v-111zM1220 760q-24 0 -38 -16t-14 -41q0 -23 14 -39t38 -16t38 16t16 38q0 22 -15 40t-39 18zM924 606h-47v195h36l68 -105l70 105h34v-195h-47v99l-45 -68h-24l-45 68v-99zM838 801v-41h-99v-37h86v-41h-86v-35
h99v-41h-146v195h146zM479 801h78q45 0 75 -28t30 -70q0 -41 -30 -69t-75 -28h-78v195zM1222 803q44 0 74 -29t29 -71q1 -41 -29 -71t-74 -30t-74 30t-30 72t30 70q30 29 74 29zM348 143h983l-360 351h233l230 -224v979h-983l364 -354h-233l-234 227v-979zM1577 1393v-1393
h-1372v1393h1372z" />
    <glyph glyph-name="Hbar" unicode="&#x126;" 
d="M528 647h29q25 1 40 17t15 38t-15 39q-15 16 -40 17h-29v-111zM1220 760q-24 0 -38 -16t-14 -41q0 -23 14 -39t38 -16t38 16t16 38q0 22 -15 40t-39 18zM924 606h-47v195h36l68 -105l70 105h34v-195h-47v99l-45 -68h-24l-45 68v-99zM838 801v-41h-99v-37h86v-41h-86v-35
h99v-41h-146v195h146zM479 801h78q45 0 75 -28t30 -70q0 -41 -30 -69t-75 -28h-78v195zM1222 803q44 0 74 -29t29 -71q1 -41 -29 -71t-74 -30t-74 30t-30 72t30 70q30 29 74 29zM348 143h983l-360 351h233l230 -224v979h-983l364 -354h-233l-234 227v-979zM1577 1393v-1393
h-1372v1393h1372z" />
    <glyph glyph-name="hbar" unicode="&#x127;" 
d="M528 647h29q25 1 40 17t15 38t-15 39q-15 16 -40 17h-29v-111zM1220 760q-24 0 -38 -16t-14 -41q0 -23 14 -39t38 -16t38 16t16 38q0 22 -15 40t-39 18zM924 606h-47v195h36l68 -105l70 105h34v-195h-47v99l-45 -68h-24l-45 68v-99zM838 801v-41h-99v-37h86v-41h-86v-35
h99v-41h-146v195h146zM479 801h78q45 0 75 -28t30 -70q0 -41 -30 -69t-75 -28h-78v195zM1222 803q44 0 74 -29t29 -71q1 -41 -29 -71t-74 -30t-74 30t-30 72t30 70q30 29 74 29zM348 143h983l-360 351h233l230 -224v979h-983l364 -354h-233l-234 227v-979zM1577 1393v-1393
h-1372v1393h1372z" />
    <glyph glyph-name="Imacron" unicode="&#x12a;" 
d="M528 647h29q25 1 40 17t15 38t-15 39q-15 16 -40 17h-29v-111zM1220 760q-24 0 -38 -16t-14 -41q0 -23 14 -39t38 -16t38 16t16 38q0 22 -15 40t-39 18zM924 606h-47v195h36l68 -105l70 105h34v-195h-47v99l-45 -68h-24l-45 68v-99zM838 801v-41h-99v-37h86v-41h-86v-35
h99v-41h-146v195h146zM479 801h78q45 0 75 -28t30 -70q0 -41 -30 -69t-75 -28h-78v195zM1222 803q44 0 74 -29t29 -71q1 -41 -29 -71t-74 -30t-74 30t-30 72t30 70q30 29 74 29zM348 143h983l-360 351h233l230 -224v979h-983l364 -354h-233l-234 227v-979zM1577 1393v-1393
h-1372v1393h1372z" />
    <glyph glyph-name="imacron" unicode="&#x12b;" 
d="M528 647h29q25 1 40 17t15 38t-15 39q-15 16 -40 17h-29v-111zM1220 760q-24 0 -38 -16t-14 -41q0 -23 14 -39t38 -16t38 16t16 38q0 22 -15 40t-39 18zM924 606h-47v195h36l68 -105l70 105h34v-195h-47v99l-45 -68h-24l-45 68v-99zM838 801v-41h-99v-37h86v-41h-86v-35
h99v-41h-146v195h146zM479 801h78q45 0 75 -28t30 -70q0 -41 -30 -69t-75 -28h-78v195zM1222 803q44 0 74 -29t29 -71q1 -41 -29 -71t-74 -30t-74 30t-30 72t30 70q30 29 74 29zM348 143h983l-360 351h233l230 -224v979h-983l364 -354h-233l-234 227v-979zM1577 1393v-1393
h-1372v1393h1372z" />
    <glyph glyph-name="Iogonek" unicode="&#x12e;" 
d="M528 647h29q25 1 40 17t15 38t-15 39q-15 16 -40 17h-29v-111zM1220 760q-24 0 -38 -16t-14 -41q0 -23 14 -39t38 -16t38 16t16 38q0 22 -15 40t-39 18zM924 606h-47v195h36l68 -105l70 105h34v-195h-47v99l-45 -68h-24l-45 68v-99zM838 801v-41h-99v-37h86v-41h-86v-35
h99v-41h-146v195h146zM479 801h78q45 0 75 -28t30 -70q0 -41 -30 -69t-75 -28h-78v195zM1222 803q44 0 74 -29t29 -71q1 -41 -29 -71t-74 -30t-74 30t-30 72t30 70q30 29 74 29zM348 143h983l-360 351h233l230 -224v979h-983l364 -354h-233l-234 227v-979zM1577 1393v-1393
h-1372v1393h1372z" />
    <glyph glyph-name="iogonek" unicode="&#x12f;" 
d="M528 647h29q25 1 40 17t15 38t-15 39q-15 16 -40 17h-29v-111zM1220 760q-24 0 -38 -16t-14 -41q0 -23 14 -39t38 -16t38 16t16 38q0 22 -15 40t-39 18zM924 606h-47v195h36l68 -105l70 105h34v-195h-47v99l-45 -68h-24l-45 68v-99zM838 801v-41h-99v-37h86v-41h-86v-35
h99v-41h-146v195h146zM479 801h78q45 0 75 -28t30 -70q0 -41 -30 -69t-75 -28h-78v195zM1222 803q44 0 74 -29t29 -71q1 -41 -29 -71t-74 -30t-74 30t-30 72t30 70q30 29 74 29zM348 143h983l-360 351h233l230 -224v979h-983l364 -354h-233l-234 227v-979zM1577 1393v-1393
h-1372v1393h1372z" />
    <glyph glyph-name="Idotaccent" unicode="&#x130;" 
d="M528 647h29q25 1 40 17t15 38t-15 39q-15 16 -40 17h-29v-111zM1220 760q-24 0 -38 -16t-14 -41q0 -23 14 -39t38 -16t38 16t16 38q0 22 -15 40t-39 18zM924 606h-47v195h36l68 -105l70 105h34v-195h-47v99l-45 -68h-24l-45 68v-99zM838 801v-41h-99v-37h86v-41h-86v-35
h99v-41h-146v195h146zM479 801h78q45 0 75 -28t30 -70q0 -41 -30 -69t-75 -28h-78v195zM1222 803q44 0 74 -29t29 -71q1 -41 -29 -71t-74 -30t-74 30t-30 72t30 70q30 29 74 29zM348 143h983l-360 351h233l230 -224v979h-983l364 -354h-233l-234 227v-979zM1577 1393v-1393
h-1372v1393h1372z" />
    <glyph glyph-name="dotlessi" unicode="&#x131;" 
d="M528 647h29q25 1 40 17t15 38t-15 39q-15 16 -40 17h-29v-111zM1220 760q-24 0 -38 -16t-14 -41q0 -23 14 -39t38 -16t38 16t16 38q0 22 -15 40t-39 18zM924 606h-47v195h36l68 -105l70 105h34v-195h-47v99l-45 -68h-24l-45 68v-99zM838 801v-41h-99v-37h86v-41h-86v-35
h99v-41h-146v195h146zM479 801h78q45 0 75 -28t30 -70q0 -41 -30 -69t-75 -28h-78v195zM1222 803q44 0 74 -29t29 -71q1 -41 -29 -71t-74 -30t-74 30t-30 72t30 70q30 29 74 29zM348 143h983l-360 351h233l230 -224v979h-983l364 -354h-233l-234 227v-979zM1577 1393v-1393
h-1372v1393h1372z" />
    <glyph glyph-name="IJ" unicode="&#x132;" 
d="M528 647h29q25 1 40 17t15 38t-15 39q-15 16 -40 17h-29v-111zM1220 760q-24 0 -38 -16t-14 -41q0 -23 14 -39t38 -16t38 16t16 38q0 22 -15 40t-39 18zM924 606h-47v195h36l68 -105l70 105h34v-195h-47v99l-45 -68h-24l-45 68v-99zM838 801v-41h-99v-37h86v-41h-86v-35
h99v-41h-146v195h146zM479 801h78q45 0 75 -28t30 -70q0 -41 -30 -69t-75 -28h-78v195zM1222 803q44 0 74 -29t29 -71q1 -41 -29 -71t-74 -30t-74 30t-30 72t30 70q30 29 74 29zM348 143h983l-360 351h233l230 -224v979h-983l364 -354h-233l-234 227v-979zM1577 1393v-1393
h-1372v1393h1372z" />
    <glyph glyph-name="ij" unicode="&#x133;" 
d="M528 647h29q25 1 40 17t15 38t-15 39q-15 16 -40 17h-29v-111zM1220 760q-24 0 -38 -16t-14 -41q0 -23 14 -39t38 -16t38 16t16 38q0 22 -15 40t-39 18zM924 606h-47v195h36l68 -105l70 105h34v-195h-47v99l-45 -68h-24l-45 68v-99zM838 801v-41h-99v-37h86v-41h-86v-35
h99v-41h-146v195h146zM479 801h78q45 0 75 -28t30 -70q0 -41 -30 -69t-75 -28h-78v195zM1222 803q44 0 74 -29t29 -71q1 -41 -29 -71t-74 -30t-74 30t-30 72t30 70q30 29 74 29zM348 143h983l-360 351h233l230 -224v979h-983l364 -354h-233l-234 227v-979zM1577 1393v-1393
h-1372v1393h1372z" />
    <glyph glyph-name="Kcommaaccent" unicode="&#x136;" 
d="M528 647h29q25 1 40 17t15 38t-15 39q-15 16 -40 17h-29v-111zM1220 760q-24 0 -38 -16t-14 -41q0 -23 14 -39t38 -16t38 16t16 38q0 22 -15 40t-39 18zM924 606h-47v195h36l68 -105l70 105h34v-195h-47v99l-45 -68h-24l-45 68v-99zM838 801v-41h-99v-37h86v-41h-86v-35
h99v-41h-146v195h146zM479 801h78q45 0 75 -28t30 -70q0 -41 -30 -69t-75 -28h-78v195zM1222 803q44 0 74 -29t29 -71q1 -41 -29 -71t-74 -30t-74 30t-30 72t30 70q30 29 74 29zM348 143h983l-360 351h233l230 -224v979h-983l364 -354h-233l-234 227v-979zM1577 1393v-1393
h-1372v1393h1372z" />
    <glyph glyph-name="kcommaaccent" unicode="&#x137;" 
d="M528 647h29q25 1 40 17t15 38t-15 39q-15 16 -40 17h-29v-111zM1220 760q-24 0 -38 -16t-14 -41q0 -23 14 -39t38 -16t38 16t16 38q0 22 -15 40t-39 18zM924 606h-47v195h36l68 -105l70 105h34v-195h-47v99l-45 -68h-24l-45 68v-99zM838 801v-41h-99v-37h86v-41h-86v-35
h99v-41h-146v195h146zM479 801h78q45 0 75 -28t30 -70q0 -41 -30 -69t-75 -28h-78v195zM1222 803q44 0 74 -29t29 -71q1 -41 -29 -71t-74 -30t-74 30t-30 72t30 70q30 29 74 29zM348 143h983l-360 351h233l230 -224v979h-983l364 -354h-233l-234 227v-979zM1577 1393v-1393
h-1372v1393h1372z" />
    <glyph glyph-name="Lacute" unicode="&#x139;" 
d="M528 647h29q25 1 40 17t15 38t-15 39q-15 16 -40 17h-29v-111zM1220 760q-24 0 -38 -16t-14 -41q0 -23 14 -39t38 -16t38 16t16 38q0 22 -15 40t-39 18zM924 606h-47v195h36l68 -105l70 105h34v-195h-47v99l-45 -68h-24l-45 68v-99zM838 801v-41h-99v-37h86v-41h-86v-35
h99v-41h-146v195h146zM479 801h78q45 0 75 -28t30 -70q0 -41 -30 -69t-75 -28h-78v195zM1222 803q44 0 74 -29t29 -71q1 -41 -29 -71t-74 -30t-74 30t-30 72t30 70q30 29 74 29zM348 143h983l-360 351h233l230 -224v979h-983l364 -354h-233l-234 227v-979zM1577 1393v-1393
h-1372v1393h1372z" />
    <glyph glyph-name="lacute" unicode="&#x13a;" 
d="M528 647h29q25 1 40 17t15 38t-15 39q-15 16 -40 17h-29v-111zM1220 760q-24 0 -38 -16t-14 -41q0 -23 14 -39t38 -16t38 16t16 38q0 22 -15 40t-39 18zM924 606h-47v195h36l68 -105l70 105h34v-195h-47v99l-45 -68h-24l-45 68v-99zM838 801v-41h-99v-37h86v-41h-86v-35
h99v-41h-146v195h146zM479 801h78q45 0 75 -28t30 -70q0 -41 -30 -69t-75 -28h-78v195zM1222 803q44 0 74 -29t29 -71q1 -41 -29 -71t-74 -30t-74 30t-30 72t30 70q30 29 74 29zM348 143h983l-360 351h233l230 -224v979h-983l364 -354h-233l-234 227v-979zM1577 1393v-1393
h-1372v1393h1372z" />
    <glyph glyph-name="Lcommaaccent" unicode="&#x13b;" 
d="M528 647h29q25 1 40 17t15 38t-15 39q-15 16 -40 17h-29v-111zM1220 760q-24 0 -38 -16t-14 -41q0 -23 14 -39t38 -16t38 16t16 38q0 22 -15 40t-39 18zM924 606h-47v195h36l68 -105l70 105h34v-195h-47v99l-45 -68h-24l-45 68v-99zM838 801v-41h-99v-37h86v-41h-86v-35
h99v-41h-146v195h146zM479 801h78q45 0 75 -28t30 -70q0 -41 -30 -69t-75 -28h-78v195zM1222 803q44 0 74 -29t29 -71q1 -41 -29 -71t-74 -30t-74 30t-30 72t30 70q30 29 74 29zM348 143h983l-360 351h233l230 -224v979h-983l364 -354h-233l-234 227v-979zM1577 1393v-1393
h-1372v1393h1372z" />
    <glyph glyph-name="lcommaaccent" unicode="&#x13c;" 
d="M528 647h29q25 1 40 17t15 38t-15 39q-15 16 -40 17h-29v-111zM1220 760q-24 0 -38 -16t-14 -41q0 -23 14 -39t38 -16t38 16t16 38q0 22 -15 40t-39 18zM924 606h-47v195h36l68 -105l70 105h34v-195h-47v99l-45 -68h-24l-45 68v-99zM838 801v-41h-99v-37h86v-41h-86v-35
h99v-41h-146v195h146zM479 801h78q45 0 75 -28t30 -70q0 -41 -30 -69t-75 -28h-78v195zM1222 803q44 0 74 -29t29 -71q1 -41 -29 -71t-74 -30t-74 30t-30 72t30 70q30 29 74 29zM348 143h983l-360 351h233l230 -224v979h-983l364 -354h-233l-234 227v-979zM1577 1393v-1393
h-1372v1393h1372z" />
    <glyph glyph-name="Lcaron" unicode="&#x13d;" 
d="M528 647h29q25 1 40 17t15 38t-15 39q-15 16 -40 17h-29v-111zM1220 760q-24 0 -38 -16t-14 -41q0 -23 14 -39t38 -16t38 16t16 38q0 22 -15 40t-39 18zM924 606h-47v195h36l68 -105l70 105h34v-195h-47v99l-45 -68h-24l-45 68v-99zM838 801v-41h-99v-37h86v-41h-86v-35
h99v-41h-146v195h146zM479 801h78q45 0 75 -28t30 -70q0 -41 -30 -69t-75 -28h-78v195zM1222 803q44 0 74 -29t29 -71q1 -41 -29 -71t-74 -30t-74 30t-30 72t30 70q30 29 74 29zM348 143h983l-360 351h233l230 -224v979h-983l364 -354h-233l-234 227v-979zM1577 1393v-1393
h-1372v1393h1372z" />
    <glyph glyph-name="lcaron" unicode="&#x13e;" 
d="M528 647h29q25 1 40 17t15 38t-15 39q-15 16 -40 17h-29v-111zM1220 760q-24 0 -38 -16t-14 -41q0 -23 14 -39t38 -16t38 16t16 38q0 22 -15 40t-39 18zM924 606h-47v195h36l68 -105l70 105h34v-195h-47v99l-45 -68h-24l-45 68v-99zM838 801v-41h-99v-37h86v-41h-86v-35
h99v-41h-146v195h146zM479 801h78q45 0 75 -28t30 -70q0 -41 -30 -69t-75 -28h-78v195zM1222 803q44 0 74 -29t29 -71q1 -41 -29 -71t-74 -30t-74 30t-30 72t30 70q30 29 74 29zM348 143h983l-360 351h233l230 -224v979h-983l364 -354h-233l-234 227v-979zM1577 1393v-1393
h-1372v1393h1372z" />
    <glyph glyph-name="Ldot" unicode="&#x13f;" 
d="M528 647h29q25 1 40 17t15 38t-15 39q-15 16 -40 17h-29v-111zM1220 760q-24 0 -38 -16t-14 -41q0 -23 14 -39t38 -16t38 16t16 38q0 22 -15 40t-39 18zM924 606h-47v195h36l68 -105l70 105h34v-195h-47v99l-45 -68h-24l-45 68v-99zM838 801v-41h-99v-37h86v-41h-86v-35
h99v-41h-146v195h146zM479 801h78q45 0 75 -28t30 -70q0 -41 -30 -69t-75 -28h-78v195zM1222 803q44 0 74 -29t29 -71q1 -41 -29 -71t-74 -30t-74 30t-30 72t30 70q30 29 74 29zM348 143h983l-360 351h233l230 -224v979h-983l364 -354h-233l-234 227v-979zM1577 1393v-1393
h-1372v1393h1372z" />
    <glyph glyph-name="ldot" unicode="&#x140;" 
d="M528 647h29q25 1 40 17t15 38t-15 39q-15 16 -40 17h-29v-111zM1220 760q-24 0 -38 -16t-14 -41q0 -23 14 -39t38 -16t38 16t16 38q0 22 -15 40t-39 18zM924 606h-47v195h36l68 -105l70 105h34v-195h-47v99l-45 -68h-24l-45 68v-99zM838 801v-41h-99v-37h86v-41h-86v-35
h99v-41h-146v195h146zM479 801h78q45 0 75 -28t30 -70q0 -41 -30 -69t-75 -28h-78v195zM1222 803q44 0 74 -29t29 -71q1 -41 -29 -71t-74 -30t-74 30t-30 72t30 70q30 29 74 29zM348 143h983l-360 351h233l230 -224v979h-983l364 -354h-233l-234 227v-979zM1577 1393v-1393
h-1372v1393h1372z" />
    <glyph glyph-name="Lslash" unicode="&#x141;" 
d="M528 647h29q25 1 40 17t15 38t-15 39q-15 16 -40 17h-29v-111zM1220 760q-24 0 -38 -16t-14 -41q0 -23 14 -39t38 -16t38 16t16 38q0 22 -15 40t-39 18zM924 606h-47v195h36l68 -105l70 105h34v-195h-47v99l-45 -68h-24l-45 68v-99zM838 801v-41h-99v-37h86v-41h-86v-35
h99v-41h-146v195h146zM479 801h78q45 0 75 -28t30 -70q0 -41 -30 -69t-75 -28h-78v195zM1222 803q44 0 74 -29t29 -71q1 -41 -29 -71t-74 -30t-74 30t-30 72t30 70q30 29 74 29zM348 143h983l-360 351h233l230 -224v979h-983l364 -354h-233l-234 227v-979zM1577 1393v-1393
h-1372v1393h1372z" />
    <glyph glyph-name="lslash" unicode="&#x142;" 
d="M528 647h29q25 1 40 17t15 38t-15 39q-15 16 -40 17h-29v-111zM1220 760q-24 0 -38 -16t-14 -41q0 -23 14 -39t38 -16t38 16t16 38q0 22 -15 40t-39 18zM924 606h-47v195h36l68 -105l70 105h34v-195h-47v99l-45 -68h-24l-45 68v-99zM838 801v-41h-99v-37h86v-41h-86v-35
h99v-41h-146v195h146zM479 801h78q45 0 75 -28t30 -70q0 -41 -30 -69t-75 -28h-78v195zM1222 803q44 0 74 -29t29 -71q1 -41 -29 -71t-74 -30t-74 30t-30 72t30 70q30 29 74 29zM348 143h983l-360 351h233l230 -224v979h-983l364 -354h-233l-234 227v-979zM1577 1393v-1393
h-1372v1393h1372z" />
    <glyph glyph-name="Nacute" unicode="&#x143;" 
d="M528 647h29q25 1 40 17t15 38t-15 39q-15 16 -40 17h-29v-111zM1220 760q-24 0 -38 -16t-14 -41q0 -23 14 -39t38 -16t38 16t16 38q0 22 -15 40t-39 18zM924 606h-47v195h36l68 -105l70 105h34v-195h-47v99l-45 -68h-24l-45 68v-99zM838 801v-41h-99v-37h86v-41h-86v-35
h99v-41h-146v195h146zM479 801h78q45 0 75 -28t30 -70q0 -41 -30 -69t-75 -28h-78v195zM1222 803q44 0 74 -29t29 -71q1 -41 -29 -71t-74 -30t-74 30t-30 72t30 70q30 29 74 29zM348 143h983l-360 351h233l230 -224v979h-983l364 -354h-233l-234 227v-979zM1577 1393v-1393
h-1372v1393h1372z" />
    <glyph glyph-name="nacute" unicode="&#x144;" 
d="M528 647h29q25 1 40 17t15 38t-15 39q-15 16 -40 17h-29v-111zM1220 760q-24 0 -38 -16t-14 -41q0 -23 14 -39t38 -16t38 16t16 38q0 22 -15 40t-39 18zM924 606h-47v195h36l68 -105l70 105h34v-195h-47v99l-45 -68h-24l-45 68v-99zM838 801v-41h-99v-37h86v-41h-86v-35
h99v-41h-146v195h146zM479 801h78q45 0 75 -28t30 -70q0 -41 -30 -69t-75 -28h-78v195zM1222 803q44 0 74 -29t29 -71q1 -41 -29 -71t-74 -30t-74 30t-30 72t30 70q30 29 74 29zM348 143h983l-360 351h233l230 -224v979h-983l364 -354h-233l-234 227v-979zM1577 1393v-1393
h-1372v1393h1372z" />
    <glyph glyph-name="Ncommaaccent" unicode="&#x145;" 
d="M528 647h29q25 1 40 17t15 38t-15 39q-15 16 -40 17h-29v-111zM1220 760q-24 0 -38 -16t-14 -41q0 -23 14 -39t38 -16t38 16t16 38q0 22 -15 40t-39 18zM924 606h-47v195h36l68 -105l70 105h34v-195h-47v99l-45 -68h-24l-45 68v-99zM838 801v-41h-99v-37h86v-41h-86v-35
h99v-41h-146v195h146zM479 801h78q45 0 75 -28t30 -70q0 -41 -30 -69t-75 -28h-78v195zM1222 803q44 0 74 -29t29 -71q1 -41 -29 -71t-74 -30t-74 30t-30 72t30 70q30 29 74 29zM348 143h983l-360 351h233l230 -224v979h-983l364 -354h-233l-234 227v-979zM1577 1393v-1393
h-1372v1393h1372z" />
    <glyph glyph-name="ncommaaccent" unicode="&#x146;" 
d="M528 647h29q25 1 40 17t15 38t-15 39q-15 16 -40 17h-29v-111zM1220 760q-24 0 -38 -16t-14 -41q0 -23 14 -39t38 -16t38 16t16 38q0 22 -15 40t-39 18zM924 606h-47v195h36l68 -105l70 105h34v-195h-47v99l-45 -68h-24l-45 68v-99zM838 801v-41h-99v-37h86v-41h-86v-35
h99v-41h-146v195h146zM479 801h78q45 0 75 -28t30 -70q0 -41 -30 -69t-75 -28h-78v195zM1222 803q44 0 74 -29t29 -71q1 -41 -29 -71t-74 -30t-74 30t-30 72t30 70q30 29 74 29zM348 143h983l-360 351h233l230 -224v979h-983l364 -354h-233l-234 227v-979zM1577 1393v-1393
h-1372v1393h1372z" />
    <glyph glyph-name="Ncaron" unicode="&#x147;" 
d="M528 647h29q25 1 40 17t15 38t-15 39q-15 16 -40 17h-29v-111zM1220 760q-24 0 -38 -16t-14 -41q0 -23 14 -39t38 -16t38 16t16 38q0 22 -15 40t-39 18zM924 606h-47v195h36l68 -105l70 105h34v-195h-47v99l-45 -68h-24l-45 68v-99zM838 801v-41h-99v-37h86v-41h-86v-35
h99v-41h-146v195h146zM479 801h78q45 0 75 -28t30 -70q0 -41 -30 -69t-75 -28h-78v195zM1222 803q44 0 74 -29t29 -71q1 -41 -29 -71t-74 -30t-74 30t-30 72t30 70q30 29 74 29zM348 143h983l-360 351h233l230 -224v979h-983l364 -354h-233l-234 227v-979zM1577 1393v-1393
h-1372v1393h1372z" />
    <glyph glyph-name="ncaron" unicode="&#x148;" 
d="M528 647h29q25 1 40 17t15 38t-15 39q-15 16 -40 17h-29v-111zM1220 760q-24 0 -38 -16t-14 -41q0 -23 14 -39t38 -16t38 16t16 38q0 22 -15 40t-39 18zM924 606h-47v195h36l68 -105l70 105h34v-195h-47v99l-45 -68h-24l-45 68v-99zM838 801v-41h-99v-37h86v-41h-86v-35
h99v-41h-146v195h146zM479 801h78q45 0 75 -28t30 -70q0 -41 -30 -69t-75 -28h-78v195zM1222 803q44 0 74 -29t29 -71q1 -41 -29 -71t-74 -30t-74 30t-30 72t30 70q30 29 74 29zM348 143h983l-360 351h233l230 -224v979h-983l364 -354h-233l-234 227v-979zM1577 1393v-1393
h-1372v1393h1372z" />
    <glyph glyph-name="Omacron" unicode="&#x14c;" 
d="M528 647h29q25 1 40 17t15 38t-15 39q-15 16 -40 17h-29v-111zM1220 760q-24 0 -38 -16t-14 -41q0 -23 14 -39t38 -16t38 16t16 38q0 22 -15 40t-39 18zM924 606h-47v195h36l68 -105l70 105h34v-195h-47v99l-45 -68h-24l-45 68v-99zM838 801v-41h-99v-37h86v-41h-86v-35
h99v-41h-146v195h146zM479 801h78q45 0 75 -28t30 -70q0 -41 -30 -69t-75 -28h-78v195zM1222 803q44 0 74 -29t29 -71q1 -41 -29 -71t-74 -30t-74 30t-30 72t30 70q30 29 74 29zM348 143h983l-360 351h233l230 -224v979h-983l364 -354h-233l-234 227v-979zM1577 1393v-1393
h-1372v1393h1372z" />
    <glyph glyph-name="omacron" unicode="&#x14d;" 
d="M528 647h29q25 1 40 17t15 38t-15 39q-15 16 -40 17h-29v-111zM1220 760q-24 0 -38 -16t-14 -41q0 -23 14 -39t38 -16t38 16t16 38q0 22 -15 40t-39 18zM924 606h-47v195h36l68 -105l70 105h34v-195h-47v99l-45 -68h-24l-45 68v-99zM838 801v-41h-99v-37h86v-41h-86v-35
h99v-41h-146v195h146zM479 801h78q45 0 75 -28t30 -70q0 -41 -30 -69t-75 -28h-78v195zM1222 803q44 0 74 -29t29 -71q1 -41 -29 -71t-74 -30t-74 30t-30 72t30 70q30 29 74 29zM348 143h983l-360 351h233l230 -224v979h-983l364 -354h-233l-234 227v-979zM1577 1393v-1393
h-1372v1393h1372z" />
    <glyph glyph-name="Ohungarumlaut" unicode="&#x150;" 
d="M528 647h29q25 1 40 17t15 38t-15 39q-15 16 -40 17h-29v-111zM1220 760q-24 0 -38 -16t-14 -41q0 -23 14 -39t38 -16t38 16t16 38q0 22 -15 40t-39 18zM924 606h-47v195h36l68 -105l70 105h34v-195h-47v99l-45 -68h-24l-45 68v-99zM838 801v-41h-99v-37h86v-41h-86v-35
h99v-41h-146v195h146zM479 801h78q45 0 75 -28t30 -70q0 -41 -30 -69t-75 -28h-78v195zM1222 803q44 0 74 -29t29 -71q1 -41 -29 -71t-74 -30t-74 30t-30 72t30 70q30 29 74 29zM348 143h983l-360 351h233l230 -224v979h-983l364 -354h-233l-234 227v-979zM1577 1393v-1393
h-1372v1393h1372z" />
    <glyph glyph-name="ohungarumlaut" unicode="&#x151;" 
d="M528 647h29q25 1 40 17t15 38t-15 39q-15 16 -40 17h-29v-111zM1220 760q-24 0 -38 -16t-14 -41q0 -23 14 -39t38 -16t38 16t16 38q0 22 -15 40t-39 18zM924 606h-47v195h36l68 -105l70 105h34v-195h-47v99l-45 -68h-24l-45 68v-99zM838 801v-41h-99v-37h86v-41h-86v-35
h99v-41h-146v195h146zM479 801h78q45 0 75 -28t30 -70q0 -41 -30 -69t-75 -28h-78v195zM1222 803q44 0 74 -29t29 -71q1 -41 -29 -71t-74 -30t-74 30t-30 72t30 70q30 29 74 29zM348 143h983l-360 351h233l230 -224v979h-983l364 -354h-233l-234 227v-979zM1577 1393v-1393
h-1372v1393h1372z" />
    <glyph glyph-name="OE" unicode="&#x152;" horiz-adv-x="2019" 
d="M891 324v745h-76q-188 0 -302 -103q-114 -104 -114 -270t114 -269t302 -103h76zM1237 1092v-254h616v-295h-616v-242h707v-301h-1129q-336 0 -551 196t-215 500t215 501q215 196 551 196h1129v-301h-707z" />
    <glyph glyph-name="oe" unicode="&#x153;" horiz-adv-x="1937" 
d="M383 494q1 -100 63 -169t161 -69t162 69q62 69 62 169t-62 168q-61 68 -161 68t-163 -68q-62 -68 -62 -168zM1360 760q-168 0 -209 -166h405q-28 166 -196 166zM1868 518q0 -76 -6 -112l2 -7h-709q47 -160 223 -159q106 0 152 71h328q-35 -153 -167 -243t-317 -91
q-236 0 -385 140q-154 -147 -385 -147t-384 150q-152 151 -152 377t151 372q152 147 383 147t383 -139q145 139 369 139t370 -138q144 -138 144 -360z" />
    <glyph glyph-name="Racute" unicode="&#x154;" 
d="M528 647h29q25 1 40 17t15 38t-15 39q-15 16 -40 17h-29v-111zM1220 760q-24 0 -38 -16t-14 -41q0 -23 14 -39t38 -16t38 16t16 38q0 22 -15 40t-39 18zM924 606h-47v195h36l68 -105l70 105h34v-195h-47v99l-45 -68h-24l-45 68v-99zM838 801v-41h-99v-37h86v-41h-86v-35
h99v-41h-146v195h146zM479 801h78q45 0 75 -28t30 -70q0 -41 -30 -69t-75 -28h-78v195zM1222 803q44 0 74 -29t29 -71q1 -41 -29 -71t-74 -30t-74 30t-30 72t30 70q30 29 74 29zM348 143h983l-360 351h233l230 -224v979h-983l364 -354h-233l-234 227v-979zM1577 1393v-1393
h-1372v1393h1372z" />
    <glyph glyph-name="racute" unicode="&#x155;" 
d="M528 647h29q25 1 40 17t15 38t-15 39q-15 16 -40 17h-29v-111zM1220 760q-24 0 -38 -16t-14 -41q0 -23 14 -39t38 -16t38 16t16 38q0 22 -15 40t-39 18zM924 606h-47v195h36l68 -105l70 105h34v-195h-47v99l-45 -68h-24l-45 68v-99zM838 801v-41h-99v-37h86v-41h-86v-35
h99v-41h-146v195h146zM479 801h78q45 0 75 -28t30 -70q0 -41 -30 -69t-75 -28h-78v195zM1222 803q44 0 74 -29t29 -71q1 -41 -29 -71t-74 -30t-74 30t-30 72t30 70q30 29 74 29zM348 143h983l-360 351h233l230 -224v979h-983l364 -354h-233l-234 227v-979zM1577 1393v-1393
h-1372v1393h1372z" />
    <glyph glyph-name="Rcommaaccent" unicode="&#x156;" 
d="M528 647h29q25 1 40 17t15 38t-15 39q-15 16 -40 17h-29v-111zM1220 760q-24 0 -38 -16t-14 -41q0 -23 14 -39t38 -16t38 16t16 38q0 22 -15 40t-39 18zM924 606h-47v195h36l68 -105l70 105h34v-195h-47v99l-45 -68h-24l-45 68v-99zM838 801v-41h-99v-37h86v-41h-86v-35
h99v-41h-146v195h146zM479 801h78q45 0 75 -28t30 -70q0 -41 -30 -69t-75 -28h-78v195zM1222 803q44 0 74 -29t29 -71q1 -41 -29 -71t-74 -30t-74 30t-30 72t30 70q30 29 74 29zM348 143h983l-360 351h233l230 -224v979h-983l364 -354h-233l-234 227v-979zM1577 1393v-1393
h-1372v1393h1372z" />
    <glyph glyph-name="rcommaaccent" unicode="&#x157;" 
d="M528 647h29q25 1 40 17t15 38t-15 39q-15 16 -40 17h-29v-111zM1220 760q-24 0 -38 -16t-14 -41q0 -23 14 -39t38 -16t38 16t16 38q0 22 -15 40t-39 18zM924 606h-47v195h36l68 -105l70 105h34v-195h-47v99l-45 -68h-24l-45 68v-99zM838 801v-41h-99v-37h86v-41h-86v-35
h99v-41h-146v195h146zM479 801h78q45 0 75 -28t30 -70q0 -41 -30 -69t-75 -28h-78v195zM1222 803q44 0 74 -29t29 -71q1 -41 -29 -71t-74 -30t-74 30t-30 72t30 70q30 29 74 29zM348 143h983l-360 351h233l230 -224v979h-983l364 -354h-233l-234 227v-979zM1577 1393v-1393
h-1372v1393h1372z" />
    <glyph glyph-name="Rcaron" unicode="&#x158;" 
d="M528 647h29q25 1 40 17t15 38t-15 39q-15 16 -40 17h-29v-111zM1220 760q-24 0 -38 -16t-14 -41q0 -23 14 -39t38 -16t38 16t16 38q0 22 -15 40t-39 18zM924 606h-47v195h36l68 -105l70 105h34v-195h-47v99l-45 -68h-24l-45 68v-99zM838 801v-41h-99v-37h86v-41h-86v-35
h99v-41h-146v195h146zM479 801h78q45 0 75 -28t30 -70q0 -41 -30 -69t-75 -28h-78v195zM1222 803q44 0 74 -29t29 -71q1 -41 -29 -71t-74 -30t-74 30t-30 72t30 70q30 29 74 29zM348 143h983l-360 351h233l230 -224v979h-983l364 -354h-233l-234 227v-979zM1577 1393v-1393
h-1372v1393h1372z" />
    <glyph glyph-name="rcaron" unicode="&#x159;" 
d="M528 647h29q25 1 40 17t15 38t-15 39q-15 16 -40 17h-29v-111zM1220 760q-24 0 -38 -16t-14 -41q0 -23 14 -39t38 -16t38 16t16 38q0 22 -15 40t-39 18zM924 606h-47v195h36l68 -105l70 105h34v-195h-47v99l-45 -68h-24l-45 68v-99zM838 801v-41h-99v-37h86v-41h-86v-35
h99v-41h-146v195h146zM479 801h78q45 0 75 -28t30 -70q0 -41 -30 -69t-75 -28h-78v195zM1222 803q44 0 74 -29t29 -71q1 -41 -29 -71t-74 -30t-74 30t-30 72t30 70q30 29 74 29zM348 143h983l-360 351h233l230 -224v979h-983l364 -354h-233l-234 227v-979zM1577 1393v-1393
h-1372v1393h1372z" />
    <glyph glyph-name="Sacute" unicode="&#x15a;" 
d="M528 647h29q25 1 40 17t15 38t-15 39q-15 16 -40 17h-29v-111zM1220 760q-24 0 -38 -16t-14 -41q0 -23 14 -39t38 -16t38 16t16 38q0 22 -15 40t-39 18zM924 606h-47v195h36l68 -105l70 105h34v-195h-47v99l-45 -68h-24l-45 68v-99zM838 801v-41h-99v-37h86v-41h-86v-35
h99v-41h-146v195h146zM479 801h78q45 0 75 -28t30 -70q0 -41 -30 -69t-75 -28h-78v195zM1222 803q44 0 74 -29t29 -71q1 -41 -29 -71t-74 -30t-74 30t-30 72t30 70q30 29 74 29zM348 143h983l-360 351h233l230 -224v979h-983l364 -354h-233l-234 227v-979zM1577 1393v-1393
h-1372v1393h1372z" />
    <glyph glyph-name="sacute" unicode="&#x15b;" 
d="M528 647h29q25 1 40 17t15 38t-15 39q-15 16 -40 17h-29v-111zM1220 760q-24 0 -38 -16t-14 -41q0 -23 14 -39t38 -16t38 16t16 38q0 22 -15 40t-39 18zM924 606h-47v195h36l68 -105l70 105h34v-195h-47v99l-45 -68h-24l-45 68v-99zM838 801v-41h-99v-37h86v-41h-86v-35
h99v-41h-146v195h146zM479 801h78q45 0 75 -28t30 -70q0 -41 -30 -69t-75 -28h-78v195zM1222 803q44 0 74 -29t29 -71q1 -41 -29 -71t-74 -30t-74 30t-30 72t30 70q30 29 74 29zM348 143h983l-360 351h233l230 -224v979h-983l364 -354h-233l-234 227v-979zM1577 1393v-1393
h-1372v1393h1372z" />
    <glyph glyph-name="Scedilla" unicode="&#x15e;" 
d="M528 647h29q25 1 40 17t15 38t-15 39q-15 16 -40 17h-29v-111zM1220 760q-24 0 -38 -16t-14 -41q0 -23 14 -39t38 -16t38 16t16 38q0 22 -15 40t-39 18zM924 606h-47v195h36l68 -105l70 105h34v-195h-47v99l-45 -68h-24l-45 68v-99zM838 801v-41h-99v-37h86v-41h-86v-35
h99v-41h-146v195h146zM479 801h78q45 0 75 -28t30 -70q0 -41 -30 -69t-75 -28h-78v195zM1222 803q44 0 74 -29t29 -71q1 -41 -29 -71t-74 -30t-74 30t-30 72t30 70q30 29 74 29zM348 143h983l-360 351h233l230 -224v979h-983l364 -354h-233l-234 227v-979zM1577 1393v-1393
h-1372v1393h1372z" />
    <glyph glyph-name="scedilla" unicode="&#x15f;" 
d="M528 647h29q25 1 40 17t15 38t-15 39q-15 16 -40 17h-29v-111zM1220 760q-24 0 -38 -16t-14 -41q0 -23 14 -39t38 -16t38 16t16 38q0 22 -15 40t-39 18zM924 606h-47v195h36l68 -105l70 105h34v-195h-47v99l-45 -68h-24l-45 68v-99zM838 801v-41h-99v-37h86v-41h-86v-35
h99v-41h-146v195h146zM479 801h78q45 0 75 -28t30 -70q0 -41 -30 -69t-75 -28h-78v195zM1222 803q44 0 74 -29t29 -71q1 -41 -29 -71t-74 -30t-74 30t-30 72t30 70q30 29 74 29zM348 143h983l-360 351h233l230 -224v979h-983l364 -354h-233l-234 227v-979zM1577 1393v-1393
h-1372v1393h1372z" />
    <glyph glyph-name="Scaron" unicode="&#x160;" 
d="M528 647h29q25 1 40 17t15 38t-15 39q-15 16 -40 17h-29v-111zM1220 760q-24 0 -38 -16t-14 -41q0 -23 14 -39t38 -16t38 16t16 38q0 22 -15 40t-39 18zM924 606h-47v195h36l68 -105l70 105h34v-195h-47v99l-45 -68h-24l-45 68v-99zM838 801v-41h-99v-37h86v-41h-86v-35
h99v-41h-146v195h146zM479 801h78q45 0 75 -28t30 -70q0 -41 -30 -69t-75 -28h-78v195zM1222 803q44 0 74 -29t29 -71q1 -41 -29 -71t-74 -30t-74 30t-30 72t30 70q30 29 74 29zM348 143h983l-360 351h233l230 -224v979h-983l364 -354h-233l-234 227v-979zM1577 1393v-1393
h-1372v1393h1372z" />
    <glyph glyph-name="scaron" unicode="&#x161;" 
d="M528 647h29q25 1 40 17t15 38t-15 39q-15 16 -40 17h-29v-111zM1220 760q-24 0 -38 -16t-14 -41q0 -23 14 -39t38 -16t38 16t16 38q0 22 -15 40t-39 18zM924 606h-47v195h36l68 -105l70 105h34v-195h-47v99l-45 -68h-24l-45 68v-99zM838 801v-41h-99v-37h86v-41h-86v-35
h99v-41h-146v195h146zM479 801h78q45 0 75 -28t30 -70q0 -41 -30 -69t-75 -28h-78v195zM1222 803q44 0 74 -29t29 -71q1 -41 -29 -71t-74 -30t-74 30t-30 72t30 70q30 29 74 29zM348 143h983l-360 351h233l230 -224v979h-983l364 -354h-233l-234 227v-979zM1577 1393v-1393
h-1372v1393h1372z" />
    <glyph glyph-name="Tcedilla" unicode="&#x162;" 
d="M528 647h29q25 1 40 17t15 38t-15 39q-15 16 -40 17h-29v-111zM1220 760q-24 0 -38 -16t-14 -41q0 -23 14 -39t38 -16t38 16t16 38q0 22 -15 40t-39 18zM924 606h-47v195h36l68 -105l70 105h34v-195h-47v99l-45 -68h-24l-45 68v-99zM838 801v-41h-99v-37h86v-41h-86v-35
h99v-41h-146v195h146zM479 801h78q45 0 75 -28t30 -70q0 -41 -30 -69t-75 -28h-78v195zM1222 803q44 0 74 -29t29 -71q1 -41 -29 -71t-74 -30t-74 30t-30 72t30 70q30 29 74 29zM348 143h983l-360 351h233l230 -224v979h-983l364 -354h-233l-234 227v-979zM1577 1393v-1393
h-1372v1393h1372z" />
    <glyph glyph-name="tcedilla" unicode="&#x163;" 
d="M528 647h29q25 1 40 17t15 38t-15 39q-15 16 -40 17h-29v-111zM1220 760q-24 0 -38 -16t-14 -41q0 -23 14 -39t38 -16t38 16t16 38q0 22 -15 40t-39 18zM924 606h-47v195h36l68 -105l70 105h34v-195h-47v99l-45 -68h-24l-45 68v-99zM838 801v-41h-99v-37h86v-41h-86v-35
h99v-41h-146v195h146zM479 801h78q45 0 75 -28t30 -70q0 -41 -30 -69t-75 -28h-78v195zM1222 803q44 0 74 -29t29 -71q1 -41 -29 -71t-74 -30t-74 30t-30 72t30 70q30 29 74 29zM348 143h983l-360 351h233l230 -224v979h-983l364 -354h-233l-234 227v-979zM1577 1393v-1393
h-1372v1393h1372z" />
    <glyph glyph-name="Tcaron" unicode="&#x164;" 
d="M528 647h29q25 1 40 17t15 38t-15 39q-15 16 -40 17h-29v-111zM1220 760q-24 0 -38 -16t-14 -41q0 -23 14 -39t38 -16t38 16t16 38q0 22 -15 40t-39 18zM924 606h-47v195h36l68 -105l70 105h34v-195h-47v99l-45 -68h-24l-45 68v-99zM838 801v-41h-99v-37h86v-41h-86v-35
h99v-41h-146v195h146zM479 801h78q45 0 75 -28t30 -70q0 -41 -30 -69t-75 -28h-78v195zM1222 803q44 0 74 -29t29 -71q1 -41 -29 -71t-74 -30t-74 30t-30 72t30 70q30 29 74 29zM348 143h983l-360 351h233l230 -224v979h-983l364 -354h-233l-234 227v-979zM1577 1393v-1393
h-1372v1393h1372z" />
    <glyph glyph-name="tcaron" unicode="&#x165;" 
d="M528 647h29q25 1 40 17t15 38t-15 39q-15 16 -40 17h-29v-111zM1220 760q-24 0 -38 -16t-14 -41q0 -23 14 -39t38 -16t38 16t16 38q0 22 -15 40t-39 18zM924 606h-47v195h36l68 -105l70 105h34v-195h-47v99l-45 -68h-24l-45 68v-99zM838 801v-41h-99v-37h86v-41h-86v-35
h99v-41h-146v195h146zM479 801h78q45 0 75 -28t30 -70q0 -41 -30 -69t-75 -28h-78v195zM1222 803q44 0 74 -29t29 -71q1 -41 -29 -71t-74 -30t-74 30t-30 72t30 70q30 29 74 29zM348 143h983l-360 351h233l230 -224v979h-983l364 -354h-233l-234 227v-979zM1577 1393v-1393
h-1372v1393h1372z" />
    <glyph glyph-name="Umacron" unicode="&#x16a;" 
d="M528 647h29q25 1 40 17t15 38t-15 39q-15 16 -40 17h-29v-111zM1220 760q-24 0 -38 -16t-14 -41q0 -23 14 -39t38 -16t38 16t16 38q0 22 -15 40t-39 18zM924 606h-47v195h36l68 -105l70 105h34v-195h-47v99l-45 -68h-24l-45 68v-99zM838 801v-41h-99v-37h86v-41h-86v-35
h99v-41h-146v195h146zM479 801h78q45 0 75 -28t30 -70q0 -41 -30 -69t-75 -28h-78v195zM1222 803q44 0 74 -29t29 -71q1 -41 -29 -71t-74 -30t-74 30t-30 72t30 70q30 29 74 29zM348 143h983l-360 351h233l230 -224v979h-983l364 -354h-233l-234 227v-979zM1577 1393v-1393
h-1372v1393h1372z" />
    <glyph glyph-name="umacron" unicode="&#x16b;" 
d="M528 647h29q25 1 40 17t15 38t-15 39q-15 16 -40 17h-29v-111zM1220 760q-24 0 -38 -16t-14 -41q0 -23 14 -39t38 -16t38 16t16 38q0 22 -15 40t-39 18zM924 606h-47v195h36l68 -105l70 105h34v-195h-47v99l-45 -68h-24l-45 68v-99zM838 801v-41h-99v-37h86v-41h-86v-35
h99v-41h-146v195h146zM479 801h78q45 0 75 -28t30 -70q0 -41 -30 -69t-75 -28h-78v195zM1222 803q44 0 74 -29t29 -71q1 -41 -29 -71t-74 -30t-74 30t-30 72t30 70q30 29 74 29zM348 143h983l-360 351h233l230 -224v979h-983l364 -354h-233l-234 227v-979zM1577 1393v-1393
h-1372v1393h1372z" />
    <glyph glyph-name="Uring" unicode="&#x16e;" 
d="M528 647h29q25 1 40 17t15 38t-15 39q-15 16 -40 17h-29v-111zM1220 760q-24 0 -38 -16t-14 -41q0 -23 14 -39t38 -16t38 16t16 38q0 22 -15 40t-39 18zM924 606h-47v195h36l68 -105l70 105h34v-195h-47v99l-45 -68h-24l-45 68v-99zM838 801v-41h-99v-37h86v-41h-86v-35
h99v-41h-146v195h146zM479 801h78q45 0 75 -28t30 -70q0 -41 -30 -69t-75 -28h-78v195zM1222 803q44 0 74 -29t29 -71q1 -41 -29 -71t-74 -30t-74 30t-30 72t30 70q30 29 74 29zM348 143h983l-360 351h233l230 -224v979h-983l364 -354h-233l-234 227v-979zM1577 1393v-1393
h-1372v1393h1372z" />
    <glyph glyph-name="uring" unicode="&#x16f;" 
d="M528 647h29q25 1 40 17t15 38t-15 39q-15 16 -40 17h-29v-111zM1220 760q-24 0 -38 -16t-14 -41q0 -23 14 -39t38 -16t38 16t16 38q0 22 -15 40t-39 18zM924 606h-47v195h36l68 -105l70 105h34v-195h-47v99l-45 -68h-24l-45 68v-99zM838 801v-41h-99v-37h86v-41h-86v-35
h99v-41h-146v195h146zM479 801h78q45 0 75 -28t30 -70q0 -41 -30 -69t-75 -28h-78v195zM1222 803q44 0 74 -29t29 -71q1 -41 -29 -71t-74 -30t-74 30t-30 72t30 70q30 29 74 29zM348 143h983l-360 351h233l230 -224v979h-983l364 -354h-233l-234 227v-979zM1577 1393v-1393
h-1372v1393h1372z" />
    <glyph glyph-name="Uhungarumlaut" unicode="&#x170;" 
d="M528 647h29q25 1 40 17t15 38t-15 39q-15 16 -40 17h-29v-111zM1220 760q-24 0 -38 -16t-14 -41q0 -23 14 -39t38 -16t38 16t16 38q0 22 -15 40t-39 18zM924 606h-47v195h36l68 -105l70 105h34v-195h-47v99l-45 -68h-24l-45 68v-99zM838 801v-41h-99v-37h86v-41h-86v-35
h99v-41h-146v195h146zM479 801h78q45 0 75 -28t30 -70q0 -41 -30 -69t-75 -28h-78v195zM1222 803q44 0 74 -29t29 -71q1 -41 -29 -71t-74 -30t-74 30t-30 72t30 70q30 29 74 29zM348 143h983l-360 351h233l230 -224v979h-983l364 -354h-233l-234 227v-979zM1577 1393v-1393
h-1372v1393h1372z" />
    <glyph glyph-name="uhungarumlaut" unicode="&#x171;" 
d="M528 647h29q25 1 40 17t15 38t-15 39q-15 16 -40 17h-29v-111zM1220 760q-24 0 -38 -16t-14 -41q0 -23 14 -39t38 -16t38 16t16 38q0 22 -15 40t-39 18zM924 606h-47v195h36l68 -105l70 105h34v-195h-47v99l-45 -68h-24l-45 68v-99zM838 801v-41h-99v-37h86v-41h-86v-35
h99v-41h-146v195h146zM479 801h78q45 0 75 -28t30 -70q0 -41 -30 -69t-75 -28h-78v195zM1222 803q44 0 74 -29t29 -71q1 -41 -29 -71t-74 -30t-74 30t-30 72t30 70q30 29 74 29zM348 143h983l-360 351h233l230 -224v979h-983l364 -354h-233l-234 227v-979zM1577 1393v-1393
h-1372v1393h1372z" />
    <glyph glyph-name="Uogonek" unicode="&#x172;" 
d="M528 647h29q25 1 40 17t15 38t-15 39q-15 16 -40 17h-29v-111zM1220 760q-24 0 -38 -16t-14 -41q0 -23 14 -39t38 -16t38 16t16 38q0 22 -15 40t-39 18zM924 606h-47v195h36l68 -105l70 105h34v-195h-47v99l-45 -68h-24l-45 68v-99zM838 801v-41h-99v-37h86v-41h-86v-35
h99v-41h-146v195h146zM479 801h78q45 0 75 -28t30 -70q0 -41 -30 -69t-75 -28h-78v195zM1222 803q44 0 74 -29t29 -71q1 -41 -29 -71t-74 -30t-74 30t-30 72t30 70q30 29 74 29zM348 143h983l-360 351h233l230 -224v979h-983l364 -354h-233l-234 227v-979zM1577 1393v-1393
h-1372v1393h1372z" />
    <glyph glyph-name="uogonek" unicode="&#x173;" 
d="M528 647h29q25 1 40 17t15 38t-15 39q-15 16 -40 17h-29v-111zM1220 760q-24 0 -38 -16t-14 -41q0 -23 14 -39t38 -16t38 16t16 38q0 22 -15 40t-39 18zM924 606h-47v195h36l68 -105l70 105h34v-195h-47v99l-45 -68h-24l-45 68v-99zM838 801v-41h-99v-37h86v-41h-86v-35
h99v-41h-146v195h146zM479 801h78q45 0 75 -28t30 -70q0 -41 -30 -69t-75 -28h-78v195zM1222 803q44 0 74 -29t29 -71q1 -41 -29 -71t-74 -30t-74 30t-30 72t30 70q30 29 74 29zM348 143h983l-360 351h233l230 -224v979h-983l364 -354h-233l-234 227v-979zM1577 1393v-1393
h-1372v1393h1372z" />
    <glyph glyph-name="Wcircumflex" unicode="&#x174;" 
d="M528 647h29q25 1 40 17t15 38t-15 39q-15 16 -40 17h-29v-111zM1220 760q-24 0 -38 -16t-14 -41q0 -23 14 -39t38 -16t38 16t16 38q0 22 -15 40t-39 18zM924 606h-47v195h36l68 -105l70 105h34v-195h-47v99l-45 -68h-24l-45 68v-99zM838 801v-41h-99v-37h86v-41h-86v-35
h99v-41h-146v195h146zM479 801h78q45 0 75 -28t30 -70q0 -41 -30 -69t-75 -28h-78v195zM1222 803q44 0 74 -29t29 -71q1 -41 -29 -71t-74 -30t-74 30t-30 72t30 70q30 29 74 29zM348 143h983l-360 351h233l230 -224v979h-983l364 -354h-233l-234 227v-979zM1577 1393v-1393
h-1372v1393h1372z" />
    <glyph glyph-name="wcircumflex" unicode="&#x175;" 
d="M528 647h29q25 1 40 17t15 38t-15 39q-15 16 -40 17h-29v-111zM1220 760q-24 0 -38 -16t-14 -41q0 -23 14 -39t38 -16t38 16t16 38q0 22 -15 40t-39 18zM924 606h-47v195h36l68 -105l70 105h34v-195h-47v99l-45 -68h-24l-45 68v-99zM838 801v-41h-99v-37h86v-41h-86v-35
h99v-41h-146v195h146zM479 801h78q45 0 75 -28t30 -70q0 -41 -30 -69t-75 -28h-78v195zM1222 803q44 0 74 -29t29 -71q1 -41 -29 -71t-74 -30t-74 30t-30 72t30 70q30 29 74 29zM348 143h983l-360 351h233l230 -224v979h-983l364 -354h-233l-234 227v-979zM1577 1393v-1393
h-1372v1393h1372z" />
    <glyph glyph-name="Ycircumflex" unicode="&#x176;" 
d="M528 647h29q25 1 40 17t15 38t-15 39q-15 16 -40 17h-29v-111zM1220 760q-24 0 -38 -16t-14 -41q0 -23 14 -39t38 -16t38 16t16 38q0 22 -15 40t-39 18zM924 606h-47v195h36l68 -105l70 105h34v-195h-47v99l-45 -68h-24l-45 68v-99zM838 801v-41h-99v-37h86v-41h-86v-35
h99v-41h-146v195h146zM479 801h78q45 0 75 -28t30 -70q0 -41 -30 -69t-75 -28h-78v195zM1222 803q44 0 74 -29t29 -71q1 -41 -29 -71t-74 -30t-74 30t-30 72t30 70q30 29 74 29zM348 143h983l-360 351h233l230 -224v979h-983l364 -354h-233l-234 227v-979zM1577 1393v-1393
h-1372v1393h1372z" />
    <glyph glyph-name="ycircumflex" unicode="&#x177;" 
d="M528 647h29q25 1 40 17t15 38t-15 39q-15 16 -40 17h-29v-111zM1220 760q-24 0 -38 -16t-14 -41q0 -23 14 -39t38 -16t38 16t16 38q0 22 -15 40t-39 18zM924 606h-47v195h36l68 -105l70 105h34v-195h-47v99l-45 -68h-24l-45 68v-99zM838 801v-41h-99v-37h86v-41h-86v-35
h99v-41h-146v195h146zM479 801h78q45 0 75 -28t30 -70q0 -41 -30 -69t-75 -28h-78v195zM1222 803q44 0 74 -29t29 -71q1 -41 -29 -71t-74 -30t-74 30t-30 72t30 70q30 29 74 29zM348 143h983l-360 351h233l230 -224v979h-983l364 -354h-233l-234 227v-979zM1577 1393v-1393
h-1372v1393h1372z" />
    <glyph glyph-name="Ydieresis" unicode="&#x178;" 
d="M528 647h29q25 1 40 17t15 38t-15 39q-15 16 -40 17h-29v-111zM1220 760q-24 0 -38 -16t-14 -41q0 -23 14 -39t38 -16t38 16t16 38q0 22 -15 40t-39 18zM924 606h-47v195h36l68 -105l70 105h34v-195h-47v99l-45 -68h-24l-45 68v-99zM838 801v-41h-99v-37h86v-41h-86v-35
h99v-41h-146v195h146zM479 801h78q45 0 75 -28t30 -70q0 -41 -30 -69t-75 -28h-78v195zM1222 803q44 0 74 -29t29 -71q1 -41 -29 -71t-74 -30t-74 30t-30 72t30 70q30 29 74 29zM348 143h983l-360 351h233l230 -224v979h-983l364 -354h-233l-234 227v-979zM1577 1393v-1393
h-1372v1393h1372z" />
    <glyph glyph-name="Zacute" unicode="&#x179;" 
d="M528 647h29q25 1 40 17t15 38t-15 39q-15 16 -40 17h-29v-111zM1220 760q-24 0 -38 -16t-14 -41q0 -23 14 -39t38 -16t38 16t16 38q0 22 -15 40t-39 18zM924 606h-47v195h36l68 -105l70 105h34v-195h-47v99l-45 -68h-24l-45 68v-99zM838 801v-41h-99v-37h86v-41h-86v-35
h99v-41h-146v195h146zM479 801h78q45 0 75 -28t30 -70q0 -41 -30 -69t-75 -28h-78v195zM1222 803q44 0 74 -29t29 -71q1 -41 -29 -71t-74 -30t-74 30t-30 72t30 70q30 29 74 29zM348 143h983l-360 351h233l230 -224v979h-983l364 -354h-233l-234 227v-979zM1577 1393v-1393
h-1372v1393h1372z" />
    <glyph glyph-name="zacute" unicode="&#x17a;" 
d="M528 647h29q25 1 40 17t15 38t-15 39q-15 16 -40 17h-29v-111zM1220 760q-24 0 -38 -16t-14 -41q0 -23 14 -39t38 -16t38 16t16 38q0 22 -15 40t-39 18zM924 606h-47v195h36l68 -105l70 105h34v-195h-47v99l-45 -68h-24l-45 68v-99zM838 801v-41h-99v-37h86v-41h-86v-35
h99v-41h-146v195h146zM479 801h78q45 0 75 -28t30 -70q0 -41 -30 -69t-75 -28h-78v195zM1222 803q44 0 74 -29t29 -71q1 -41 -29 -71t-74 -30t-74 30t-30 72t30 70q30 29 74 29zM348 143h983l-360 351h233l230 -224v979h-983l364 -354h-233l-234 227v-979zM1577 1393v-1393
h-1372v1393h1372z" />
    <glyph glyph-name="Zdotaccent" unicode="&#x17b;" 
d="M528 647h29q25 1 40 17t15 38t-15 39q-15 16 -40 17h-29v-111zM1220 760q-24 0 -38 -16t-14 -41q0 -23 14 -39t38 -16t38 16t16 38q0 22 -15 40t-39 18zM924 606h-47v195h36l68 -105l70 105h34v-195h-47v99l-45 -68h-24l-45 68v-99zM838 801v-41h-99v-37h86v-41h-86v-35
h99v-41h-146v195h146zM479 801h78q45 0 75 -28t30 -70q0 -41 -30 -69t-75 -28h-78v195zM1222 803q44 0 74 -29t29 -71q1 -41 -29 -71t-74 -30t-74 30t-30 72t30 70q30 29 74 29zM348 143h983l-360 351h233l230 -224v979h-983l364 -354h-233l-234 227v-979zM1577 1393v-1393
h-1372v1393h1372z" />
    <glyph glyph-name="zdotaccent" unicode="&#x17c;" 
d="M528 647h29q25 1 40 17t15 38t-15 39q-15 16 -40 17h-29v-111zM1220 760q-24 0 -38 -16t-14 -41q0 -23 14 -39t38 -16t38 16t16 38q0 22 -15 40t-39 18zM924 606h-47v195h36l68 -105l70 105h34v-195h-47v99l-45 -68h-24l-45 68v-99zM838 801v-41h-99v-37h86v-41h-86v-35
h99v-41h-146v195h146zM479 801h78q45 0 75 -28t30 -70q0 -41 -30 -69t-75 -28h-78v195zM1222 803q44 0 74 -29t29 -71q1 -41 -29 -71t-74 -30t-74 30t-30 72t30 70q30 29 74 29zM348 143h983l-360 351h233l230 -224v979h-983l364 -354h-233l-234 227v-979zM1577 1393v-1393
h-1372v1393h1372z" />
    <glyph glyph-name="Zcaron" unicode="&#x17d;" 
d="M528 647h29q25 1 40 17t15 38t-15 39q-15 16 -40 17h-29v-111zM1220 760q-24 0 -38 -16t-14 -41q0 -23 14 -39t38 -16t38 16t16 38q0 22 -15 40t-39 18zM924 606h-47v195h36l68 -105l70 105h34v-195h-47v99l-45 -68h-24l-45 68v-99zM838 801v-41h-99v-37h86v-41h-86v-35
h99v-41h-146v195h146zM479 801h78q45 0 75 -28t30 -70q0 -41 -30 -69t-75 -28h-78v195zM1222 803q44 0 74 -29t29 -71q1 -41 -29 -71t-74 -30t-74 30t-30 72t30 70q30 29 74 29zM348 143h983l-360 351h233l230 -224v979h-983l364 -354h-233l-234 227v-979zM1577 1393v-1393
h-1372v1393h1372z" />
    <glyph glyph-name="zcaron" unicode="&#x17e;" 
d="M528 647h29q25 1 40 17t15 38t-15 39q-15 16 -40 17h-29v-111zM1220 760q-24 0 -38 -16t-14 -41q0 -23 14 -39t38 -16t38 16t16 38q0 22 -15 40t-39 18zM924 606h-47v195h36l68 -105l70 105h34v-195h-47v99l-45 -68h-24l-45 68v-99zM838 801v-41h-99v-37h86v-41h-86v-35
h99v-41h-146v195h146zM479 801h78q45 0 75 -28t30 -70q0 -41 -30 -69t-75 -28h-78v195zM1222 803q44 0 74 -29t29 -71q1 -41 -29 -71t-74 -30t-74 30t-30 72t30 70q30 29 74 29zM348 143h983l-360 351h233l230 -224v979h-983l364 -354h-233l-234 227v-979zM1577 1393v-1393
h-1372v1393h1372z" />
    <glyph glyph-name="florin" unicode="&#x192;" 
d="M528 647h29q25 1 40 17t15 38t-15 39q-15 16 -40 17h-29v-111zM1220 760q-24 0 -38 -16t-14 -41q0 -23 14 -39t38 -16t38 16t16 38q0 22 -15 40t-39 18zM924 606h-47v195h36l68 -105l70 105h34v-195h-47v99l-45 -68h-24l-45 68v-99zM838 801v-41h-99v-37h86v-41h-86v-35
h99v-41h-146v195h146zM479 801h78q45 0 75 -28t30 -70q0 -41 -30 -69t-75 -28h-78v195zM1222 803q44 0 74 -29t29 -71q1 -41 -29 -71t-74 -30t-74 30t-30 72t30 70q30 29 74 29zM348 143h983l-360 351h233l230 -224v979h-983l364 -354h-233l-234 227v-979zM1577 1393v-1393
h-1372v1393h1372z" />
    <glyph glyph-name="Acaron" unicode="&#x1cd;" 
d="M528 647h29q25 1 40 17t15 38t-15 39q-15 16 -40 17h-29v-111zM1220 760q-24 0 -38 -16t-14 -41q0 -23 14 -39t38 -16t38 16t16 38q0 22 -15 40t-39 18zM924 606h-47v195h36l68 -105l70 105h34v-195h-47v99l-45 -68h-24l-45 68v-99zM838 801v-41h-99v-37h86v-41h-86v-35
h99v-41h-146v195h146zM479 801h78q45 0 75 -28t30 -70q0 -41 -30 -69t-75 -28h-78v195zM1222 803q44 0 74 -29t29 -71q1 -41 -29 -71t-74 -30t-74 30t-30 72t30 70q30 29 74 29zM348 143h983l-360 351h233l230 -224v979h-983l364 -354h-233l-234 227v-979zM1577 1393v-1393
h-1372v1393h1372z" />
    <glyph glyph-name="acaron" unicode="&#x1ce;" 
d="M528 647h29q25 1 40 17t15 38t-15 39q-15 16 -40 17h-29v-111zM1220 760q-24 0 -38 -16t-14 -41q0 -23 14 -39t38 -16t38 16t16 38q0 22 -15 40t-39 18zM924 606h-47v195h36l68 -105l70 105h34v-195h-47v99l-45 -68h-24l-45 68v-99zM838 801v-41h-99v-37h86v-41h-86v-35
h99v-41h-146v195h146zM479 801h78q45 0 75 -28t30 -70q0 -41 -30 -69t-75 -28h-78v195zM1222 803q44 0 74 -29t29 -71q1 -41 -29 -71t-74 -30t-74 30t-30 72t30 70q30 29 74 29zM348 143h983l-360 351h233l230 -224v979h-983l364 -354h-233l-234 227v-979zM1577 1393v-1393
h-1372v1393h1372z" />
    <glyph glyph-name="Scommaaccent" unicode="&#x218;" 
d="M528 647h29q25 1 40 17t15 38t-15 39q-15 16 -40 17h-29v-111zM1220 760q-24 0 -38 -16t-14 -41q0 -23 14 -39t38 -16t38 16t16 38q0 22 -15 40t-39 18zM924 606h-47v195h36l68 -105l70 105h34v-195h-47v99l-45 -68h-24l-45 68v-99zM838 801v-41h-99v-37h86v-41h-86v-35
h99v-41h-146v195h146zM479 801h78q45 0 75 -28t30 -70q0 -41 -30 -69t-75 -28h-78v195zM1222 803q44 0 74 -29t29 -71q1 -41 -29 -71t-74 -30t-74 30t-30 72t30 70q30 29 74 29zM348 143h983l-360 351h233l230 -224v979h-983l364 -354h-233l-234 227v-979zM1577 1393v-1393
h-1372v1393h1372z" />
    <glyph glyph-name="scommaaccent" unicode="&#x219;" 
d="M528 647h29q25 1 40 17t15 38t-15 39q-15 16 -40 17h-29v-111zM1220 760q-24 0 -38 -16t-14 -41q0 -23 14 -39t38 -16t38 16t16 38q0 22 -15 40t-39 18zM924 606h-47v195h36l68 -105l70 105h34v-195h-47v99l-45 -68h-24l-45 68v-99zM838 801v-41h-99v-37h86v-41h-86v-35
h99v-41h-146v195h146zM479 801h78q45 0 75 -28t30 -70q0 -41 -30 -69t-75 -28h-78v195zM1222 803q44 0 74 -29t29 -71q1 -41 -29 -71t-74 -30t-74 30t-30 72t30 70q30 29 74 29zM348 143h983l-360 351h233l230 -224v979h-983l364 -354h-233l-234 227v-979zM1577 1393v-1393
h-1372v1393h1372z" />
    <glyph glyph-name="uni021A" unicode="&#x21a;" 
d="M528 647h29q25 1 40 17t15 38t-15 39q-15 16 -40 17h-29v-111zM1220 760q-24 0 -38 -16t-14 -41q0 -23 14 -39t38 -16t38 16t16 38q0 22 -15 40t-39 18zM924 606h-47v195h36l68 -105l70 105h34v-195h-47v99l-45 -68h-24l-45 68v-99zM838 801v-41h-99v-37h86v-41h-86v-35
h99v-41h-146v195h146zM479 801h78q45 0 75 -28t30 -70q0 -41 -30 -69t-75 -28h-78v195zM1222 803q44 0 74 -29t29 -71q1 -41 -29 -71t-74 -30t-74 30t-30 72t30 70q30 29 74 29zM348 143h983l-360 351h233l230 -224v979h-983l364 -354h-233l-234 227v-979zM1577 1393v-1393
h-1372v1393h1372z" />
    <glyph glyph-name="uni021B" unicode="&#x21b;" 
d="M528 647h29q25 1 40 17t15 38t-15 39q-15 16 -40 17h-29v-111zM1220 760q-24 0 -38 -16t-14 -41q0 -23 14 -39t38 -16t38 16t16 38q0 22 -15 40t-39 18zM924 606h-47v195h36l68 -105l70 105h34v-195h-47v99l-45 -68h-24l-45 68v-99zM838 801v-41h-99v-37h86v-41h-86v-35
h99v-41h-146v195h146zM479 801h78q45 0 75 -28t30 -70q0 -41 -30 -69t-75 -28h-78v195zM1222 803q44 0 74 -29t29 -71q1 -41 -29 -71t-74 -30t-74 30t-30 72t30 70q30 29 74 29zM348 143h983l-360 351h233l230 -224v979h-983l364 -354h-233l-234 227v-979zM1577 1393v-1393
h-1372v1393h1372z" />
    <glyph glyph-name="circumflex" unicode="&#x2c6;" 
d="M528 647h29q25 1 40 17t15 38t-15 39q-15 16 -40 17h-29v-111zM1220 760q-24 0 -38 -16t-14 -41q0 -23 14 -39t38 -16t38 16t16 38q0 22 -15 40t-39 18zM924 606h-47v195h36l68 -105l70 105h34v-195h-47v99l-45 -68h-24l-45 68v-99zM838 801v-41h-99v-37h86v-41h-86v-35
h99v-41h-146v195h146zM479 801h78q45 0 75 -28t30 -70q0 -41 -30 -69t-75 -28h-78v195zM1222 803q44 0 74 -29t29 -71q1 -41 -29 -71t-74 -30t-74 30t-30 72t30 70q30 29 74 29zM348 143h983l-360 351h233l230 -224v979h-983l364 -354h-233l-234 227v-979zM1577 1393v-1393
h-1372v1393h1372z" />
    <glyph glyph-name="caron" unicode="&#x2c7;" 
d="M528 647h29q25 1 40 17t15 38t-15 39q-15 16 -40 17h-29v-111zM1220 760q-24 0 -38 -16t-14 -41q0 -23 14 -39t38 -16t38 16t16 38q0 22 -15 40t-39 18zM924 606h-47v195h36l68 -105l70 105h34v-195h-47v99l-45 -68h-24l-45 68v-99zM838 801v-41h-99v-37h86v-41h-86v-35
h99v-41h-146v195h146zM479 801h78q45 0 75 -28t30 -70q0 -41 -30 -69t-75 -28h-78v195zM1222 803q44 0 74 -29t29 -71q1 -41 -29 -71t-74 -30t-74 30t-30 72t30 70q30 29 74 29zM348 143h983l-360 351h233l230 -224v979h-983l364 -354h-233l-234 227v-979zM1577 1393v-1393
h-1372v1393h1372z" />
    <glyph glyph-name="breve" unicode="&#x2d8;" 
d="M528 647h29q25 1 40 17t15 38t-15 39q-15 16 -40 17h-29v-111zM1220 760q-24 0 -38 -16t-14 -41q0 -23 14 -39t38 -16t38 16t16 38q0 22 -15 40t-39 18zM924 606h-47v195h36l68 -105l70 105h34v-195h-47v99l-45 -68h-24l-45 68v-99zM838 801v-41h-99v-37h86v-41h-86v-35
h99v-41h-146v195h146zM479 801h78q45 0 75 -28t30 -70q0 -41 -30 -69t-75 -28h-78v195zM1222 803q44 0 74 -29t29 -71q1 -41 -29 -71t-74 -30t-74 30t-30 72t30 70q30 29 74 29zM348 143h983l-360 351h233l230 -224v979h-983l364 -354h-233l-234 227v-979zM1577 1393v-1393
h-1372v1393h1372z" />
    <glyph glyph-name="dotaccent" unicode="&#x2d9;" 
d="M528 647h29q25 1 40 17t15 38t-15 39q-15 16 -40 17h-29v-111zM1220 760q-24 0 -38 -16t-14 -41q0 -23 14 -39t38 -16t38 16t16 38q0 22 -15 40t-39 18zM924 606h-47v195h36l68 -105l70 105h34v-195h-47v99l-45 -68h-24l-45 68v-99zM838 801v-41h-99v-37h86v-41h-86v-35
h99v-41h-146v195h146zM479 801h78q45 0 75 -28t30 -70q0 -41 -30 -69t-75 -28h-78v195zM1222 803q44 0 74 -29t29 -71q1 -41 -29 -71t-74 -30t-74 30t-30 72t30 70q30 29 74 29zM348 143h983l-360 351h233l230 -224v979h-983l364 -354h-233l-234 227v-979zM1577 1393v-1393
h-1372v1393h1372z" />
    <glyph glyph-name="ring" unicode="&#x2da;" 
d="M528 647h29q25 1 40 17t15 38t-15 39q-15 16 -40 17h-29v-111zM1220 760q-24 0 -38 -16t-14 -41q0 -23 14 -39t38 -16t38 16t16 38q0 22 -15 40t-39 18zM924 606h-47v195h36l68 -105l70 105h34v-195h-47v99l-45 -68h-24l-45 68v-99zM838 801v-41h-99v-37h86v-41h-86v-35
h99v-41h-146v195h146zM479 801h78q45 0 75 -28t30 -70q0 -41 -30 -69t-75 -28h-78v195zM1222 803q44 0 74 -29t29 -71q1 -41 -29 -71t-74 -30t-74 30t-30 72t30 70q30 29 74 29zM348 143h983l-360 351h233l230 -224v979h-983l364 -354h-233l-234 227v-979zM1577 1393v-1393
h-1372v1393h1372z" />
    <glyph glyph-name="ogonek" unicode="&#x2db;" 
d="M528 647h29q25 1 40 17t15 38t-15 39q-15 16 -40 17h-29v-111zM1220 760q-24 0 -38 -16t-14 -41q0 -23 14 -39t38 -16t38 16t16 38q0 22 -15 40t-39 18zM924 606h-47v195h36l68 -105l70 105h34v-195h-47v99l-45 -68h-24l-45 68v-99zM838 801v-41h-99v-37h86v-41h-86v-35
h99v-41h-146v195h146zM479 801h78q45 0 75 -28t30 -70q0 -41 -30 -69t-75 -28h-78v195zM1222 803q44 0 74 -29t29 -71q1 -41 -29 -71t-74 -30t-74 30t-30 72t30 70q30 29 74 29zM348 143h983l-360 351h233l230 -224v979h-983l364 -354h-233l-234 227v-979zM1577 1393v-1393
h-1372v1393h1372z" />
    <glyph glyph-name="tilde" unicode="&#x2dc;" 
d="M528 647h29q25 1 40 17t15 38t-15 39q-15 16 -40 17h-29v-111zM1220 760q-24 0 -38 -16t-14 -41q0 -23 14 -39t38 -16t38 16t16 38q0 22 -15 40t-39 18zM924 606h-47v195h36l68 -105l70 105h34v-195h-47v99l-45 -68h-24l-45 68v-99zM838 801v-41h-99v-37h86v-41h-86v-35
h99v-41h-146v195h146zM479 801h78q45 0 75 -28t30 -70q0 -41 -30 -69t-75 -28h-78v195zM1222 803q44 0 74 -29t29 -71q1 -41 -29 -71t-74 -30t-74 30t-30 72t30 70q30 29 74 29zM348 143h983l-360 351h233l230 -224v979h-983l364 -354h-233l-234 227v-979zM1577 1393v-1393
h-1372v1393h1372z" />
    <glyph glyph-name="hungarumlaut" unicode="&#x2dd;" 
d="M528 647h29q25 1 40 17t15 38t-15 39q-15 16 -40 17h-29v-111zM1220 760q-24 0 -38 -16t-14 -41q0 -23 14 -39t38 -16t38 16t16 38q0 22 -15 40t-39 18zM924 606h-47v195h36l68 -105l70 105h34v-195h-47v99l-45 -68h-24l-45 68v-99zM838 801v-41h-99v-37h86v-41h-86v-35
h99v-41h-146v195h146zM479 801h78q45 0 75 -28t30 -70q0 -41 -30 -69t-75 -28h-78v195zM1222 803q44 0 74 -29t29 -71q1 -41 -29 -71t-74 -30t-74 30t-30 72t30 70q30 29 74 29zM348 143h983l-360 351h233l230 -224v979h-983l364 -354h-233l-234 227v-979zM1577 1393v-1393
h-1372v1393h1372z" />
    <glyph glyph-name="uni0326" unicode="&#x326;" horiz-adv-x="0" 
d="M528 647h29q25 1 40 17t15 38t-15 39q-15 16 -40 17h-29v-111zM1220 760q-24 0 -38 -16t-14 -41q0 -23 14 -39t38 -16t38 16t16 38q0 22 -15 40t-39 18zM924 606h-47v195h36l68 -105l70 105h34v-195h-47v99l-45 -68h-24l-45 68v-99zM838 801v-41h-99v-37h86v-41h-86v-35
h99v-41h-146v195h146zM479 801h78q45 0 75 -28t30 -70q0 -41 -30 -69t-75 -28h-78v195zM1222 803q44 0 74 -29t29 -71q1 -41 -29 -71t-74 -30t-74 30t-30 72t30 70q30 29 74 29zM348 143h983l-360 351h233l230 -224v979h-983l364 -354h-233l-234 227v-979zM1577 1393v-1393
h-1372v1393h1372z" />
    <glyph glyph-name="Wgrave" unicode="&#x1e80;" 
d="M528 647h29q25 1 40 17t15 38t-15 39q-15 16 -40 17h-29v-111zM1220 760q-24 0 -38 -16t-14 -41q0 -23 14 -39t38 -16t38 16t16 38q0 22 -15 40t-39 18zM924 606h-47v195h36l68 -105l70 105h34v-195h-47v99l-45 -68h-24l-45 68v-99zM838 801v-41h-99v-37h86v-41h-86v-35
h99v-41h-146v195h146zM479 801h78q45 0 75 -28t30 -70q0 -41 -30 -69t-75 -28h-78v195zM1222 803q44 0 74 -29t29 -71q1 -41 -29 -71t-74 -30t-74 30t-30 72t30 70q30 29 74 29zM348 143h983l-360 351h233l230 -224v979h-983l364 -354h-233l-234 227v-979zM1577 1393v-1393
h-1372v1393h1372z" />
    <glyph glyph-name="wgrave" unicode="&#x1e81;" 
d="M528 647h29q25 1 40 17t15 38t-15 39q-15 16 -40 17h-29v-111zM1220 760q-24 0 -38 -16t-14 -41q0 -23 14 -39t38 -16t38 16t16 38q0 22 -15 40t-39 18zM924 606h-47v195h36l68 -105l70 105h34v-195h-47v99l-45 -68h-24l-45 68v-99zM838 801v-41h-99v-37h86v-41h-86v-35
h99v-41h-146v195h146zM479 801h78q45 0 75 -28t30 -70q0 -41 -30 -69t-75 -28h-78v195zM1222 803q44 0 74 -29t29 -71q1 -41 -29 -71t-74 -30t-74 30t-30 72t30 70q30 29 74 29zM348 143h983l-360 351h233l230 -224v979h-983l364 -354h-233l-234 227v-979zM1577 1393v-1393
h-1372v1393h1372z" />
    <glyph glyph-name="Wacute" unicode="&#x1e82;" 
d="M528 647h29q25 1 40 17t15 38t-15 39q-15 16 -40 17h-29v-111zM1220 760q-24 0 -38 -16t-14 -41q0 -23 14 -39t38 -16t38 16t16 38q0 22 -15 40t-39 18zM924 606h-47v195h36l68 -105l70 105h34v-195h-47v99l-45 -68h-24l-45 68v-99zM838 801v-41h-99v-37h86v-41h-86v-35
h99v-41h-146v195h146zM479 801h78q45 0 75 -28t30 -70q0 -41 -30 -69t-75 -28h-78v195zM1222 803q44 0 74 -29t29 -71q1 -41 -29 -71t-74 -30t-74 30t-30 72t30 70q30 29 74 29zM348 143h983l-360 351h233l230 -224v979h-983l364 -354h-233l-234 227v-979zM1577 1393v-1393
h-1372v1393h1372z" />
    <glyph glyph-name="wacute" unicode="&#x1e83;" 
d="M528 647h29q25 1 40 17t15 38t-15 39q-15 16 -40 17h-29v-111zM1220 760q-24 0 -38 -16t-14 -41q0 -23 14 -39t38 -16t38 16t16 38q0 22 -15 40t-39 18zM924 606h-47v195h36l68 -105l70 105h34v-195h-47v99l-45 -68h-24l-45 68v-99zM838 801v-41h-99v-37h86v-41h-86v-35
h99v-41h-146v195h146zM479 801h78q45 0 75 -28t30 -70q0 -41 -30 -69t-75 -28h-78v195zM1222 803q44 0 74 -29t29 -71q1 -41 -29 -71t-74 -30t-74 30t-30 72t30 70q30 29 74 29zM348 143h983l-360 351h233l230 -224v979h-983l364 -354h-233l-234 227v-979zM1577 1393v-1393
h-1372v1393h1372z" />
    <glyph glyph-name="Wdieresis" unicode="&#x1e84;" 
d="M528 647h29q25 1 40 17t15 38t-15 39q-15 16 -40 17h-29v-111zM1220 760q-24 0 -38 -16t-14 -41q0 -23 14 -39t38 -16t38 16t16 38q0 22 -15 40t-39 18zM924 606h-47v195h36l68 -105l70 105h34v-195h-47v99l-45 -68h-24l-45 68v-99zM838 801v-41h-99v-37h86v-41h-86v-35
h99v-41h-146v195h146zM479 801h78q45 0 75 -28t30 -70q0 -41 -30 -69t-75 -28h-78v195zM1222 803q44 0 74 -29t29 -71q1 -41 -29 -71t-74 -30t-74 30t-30 72t30 70q30 29 74 29zM348 143h983l-360 351h233l230 -224v979h-983l364 -354h-233l-234 227v-979zM1577 1393v-1393
h-1372v1393h1372z" />
    <glyph glyph-name="wdieresis" unicode="&#x1e85;" 
d="M528 647h29q25 1 40 17t15 38t-15 39q-15 16 -40 17h-29v-111zM1220 760q-24 0 -38 -16t-14 -41q0 -23 14 -39t38 -16t38 16t16 38q0 22 -15 40t-39 18zM924 606h-47v195h36l68 -105l70 105h34v-195h-47v99l-45 -68h-24l-45 68v-99zM838 801v-41h-99v-37h86v-41h-86v-35
h99v-41h-146v195h146zM479 801h78q45 0 75 -28t30 -70q0 -41 -30 -69t-75 -28h-78v195zM1222 803q44 0 74 -29t29 -71q1 -41 -29 -71t-74 -30t-74 30t-30 72t30 70q30 29 74 29zM348 143h983l-360 351h233l230 -224v979h-983l364 -354h-233l-234 227v-979zM1577 1393v-1393
h-1372v1393h1372z" />
    <glyph glyph-name="Ygrave" unicode="&#x1ef2;" 
d="M528 647h29q25 1 40 17t15 38t-15 39q-15 16 -40 17h-29v-111zM1220 760q-24 0 -38 -16t-14 -41q0 -23 14 -39t38 -16t38 16t16 38q0 22 -15 40t-39 18zM924 606h-47v195h36l68 -105l70 105h34v-195h-47v99l-45 -68h-24l-45 68v-99zM838 801v-41h-99v-37h86v-41h-86v-35
h99v-41h-146v195h146zM479 801h78q45 0 75 -28t30 -70q0 -41 -30 -69t-75 -28h-78v195zM1222 803q44 0 74 -29t29 -71q1 -41 -29 -71t-74 -30t-74 30t-30 72t30 70q30 29 74 29zM348 143h983l-360 351h233l230 -224v979h-983l364 -354h-233l-234 227v-979zM1577 1393v-1393
h-1372v1393h1372z" />
    <glyph glyph-name="ygrave" unicode="&#x1ef3;" 
d="M528 647h29q25 1 40 17t15 38t-15 39q-15 16 -40 17h-29v-111zM1220 760q-24 0 -38 -16t-14 -41q0 -23 14 -39t38 -16t38 16t16 38q0 22 -15 40t-39 18zM924 606h-47v195h36l68 -105l70 105h34v-195h-47v99l-45 -68h-24l-45 68v-99zM838 801v-41h-99v-37h86v-41h-86v-35
h99v-41h-146v195h146zM479 801h78q45 0 75 -28t30 -70q0 -41 -30 -69t-75 -28h-78v195zM1222 803q44 0 74 -29t29 -71q1 -41 -29 -71t-74 -30t-74 30t-30 72t30 70q30 29 74 29zM348 143h983l-360 351h233l230 -224v979h-983l364 -354h-233l-234 227v-979zM1577 1393v-1393
h-1372v1393h1372z" />
    <glyph glyph-name="endash" unicode="&#x2013;" horiz-adv-x="1413" 
d="M1217 373h-1018v317h1018v-317z" />
    <glyph glyph-name="emdash" unicode="&#x2014;" horiz-adv-x="2189" 
d="M1993 373h-1794v317h1794v-317z" />
    <glyph glyph-name="quoteleft" unicode="&#x2018;" horiz-adv-x="479" 
d="M239 840q-77 0 -130 50q-108 102 8 296l123 205h184l-107 -228q106 -45 107 -149q0 -72 -54 -123t-131 -51z" />
    <glyph glyph-name="quoteright" unicode="&#x2019;" horiz-adv-x="479" 
d="M241 1415q77 0 130 -50t53 -121t-62 -175l-122 -205h-185l107 228q-106 45 -107 149q1 72 55 123t131 51z" />
    <glyph glyph-name="quotesinglbase" unicode="&#x201a;" horiz-adv-x="479" 
d="M241 319q77 0 130 -50t53 -121t-62 -175l-122 -204h-185l107 227q-106 45 -107 149q1 72 55 123t131 51z" />
    <glyph glyph-name="quotedblleft" unicode="&#x201c;" horiz-adv-x="903" 
d="M663 840q-77 0 -131 50q-53 50 -53 121t62 175l123 205h184l-107 -228q106 -45 107 -149q0 -72 -54 -123t-131 -51zM239 840q-77 0 -130 50q-108 102 8 296l123 205h184l-107 -228q106 -45 107 -149q0 -72 -54 -123t-131 -51z" />
    <glyph glyph-name="quotedblright" unicode="&#x201d;" horiz-adv-x="903" 
d="M665 1415q77 0 130 -50t53 -121t-62 -175l-122 -205h-185l107 228q-106 45 -107 149q1 72 55 123t131 51zM241 1415q77 0 130 -50t53 -121t-62 -175l-122 -205h-185l107 228q-106 45 -107 149q1 72 55 123t131 51z" />
    <glyph glyph-name="quotedblbase" unicode="&#x201e;" horiz-adv-x="907" 
d="M669 319q77 0 130 -50t53 -121t-61 -175l-123 -204h-185l107 227q-106 45 -107 149q1 72 55 123t131 51zM241 319q77 0 130 -50t53 -121t-62 -175l-122 -204h-185l107 227q-106 45 -107 149q1 72 55 123t131 51z" />
    <glyph glyph-name="dagger" unicode="&#x2020;" 
d="M528 647h29q25 1 40 17t15 38t-15 39q-15 16 -40 17h-29v-111zM1220 760q-24 0 -38 -16t-14 -41q0 -23 14 -39t38 -16t38 16t16 38q0 22 -15 40t-39 18zM924 606h-47v195h36l68 -105l70 105h34v-195h-47v99l-45 -68h-24l-45 68v-99zM838 801v-41h-99v-37h86v-41h-86v-35
h99v-41h-146v195h146zM479 801h78q45 0 75 -28t30 -70q0 -41 -30 -69t-75 -28h-78v195zM1222 803q44 0 74 -29t29 -71q1 -41 -29 -71t-74 -30t-74 30t-30 72t30 70q30 29 74 29zM348 143h983l-360 351h233l230 -224v979h-983l364 -354h-233l-234 227v-979zM1577 1393v-1393
h-1372v1393h1372z" />
    <glyph glyph-name="daggerdbl" unicode="&#x2021;" 
d="M528 647h29q25 1 40 17t15 38t-15 39q-15 16 -40 17h-29v-111zM1220 760q-24 0 -38 -16t-14 -41q0 -23 14 -39t38 -16t38 16t16 38q0 22 -15 40t-39 18zM924 606h-47v195h36l68 -105l70 105h34v-195h-47v99l-45 -68h-24l-45 68v-99zM838 801v-41h-99v-37h86v-41h-86v-35
h99v-41h-146v195h146zM479 801h78q45 0 75 -28t30 -70q0 -41 -30 -69t-75 -28h-78v195zM1222 803q44 0 74 -29t29 -71q1 -41 -29 -71t-74 -30t-74 30t-30 72t30 70q30 29 74 29zM348 143h983l-360 351h233l230 -224v979h-983l364 -354h-233l-234 227v-979zM1577 1393v-1393
h-1372v1393h1372z" />
    <glyph glyph-name="bullet" unicode="&#x2022;" 
d="M528 647h29q25 1 40 17t15 38t-15 39q-15 16 -40 17h-29v-111zM1220 760q-24 0 -38 -16t-14 -41q0 -23 14 -39t38 -16t38 16t16 38q0 22 -15 40t-39 18zM924 606h-47v195h36l68 -105l70 105h34v-195h-47v99l-45 -68h-24l-45 68v-99zM838 801v-41h-99v-37h86v-41h-86v-35
h99v-41h-146v195h146zM479 801h78q45 0 75 -28t30 -70q0 -41 -30 -69t-75 -28h-78v195zM1222 803q44 0 74 -29t29 -71q1 -41 -29 -71t-74 -30t-74 30t-30 72t30 70q30 29 74 29zM348 143h983l-360 351h233l230 -224v979h-983l364 -354h-233l-234 227v-979zM1577 1393v-1393
h-1372v1393h1372z" />
    <glyph glyph-name="ellipsis" unicode="&#x2026;" 
d="M528 647h29q25 1 40 17t15 38t-15 39q-15 16 -40 17h-29v-111zM1220 760q-24 0 -38 -16t-14 -41q0 -23 14 -39t38 -16t38 16t16 38q0 22 -15 40t-39 18zM924 606h-47v195h36l68 -105l70 105h34v-195h-47v99l-45 -68h-24l-45 68v-99zM838 801v-41h-99v-37h86v-41h-86v-35
h99v-41h-146v195h146zM479 801h78q45 0 75 -28t30 -70q0 -41 -30 -69t-75 -28h-78v195zM1222 803q44 0 74 -29t29 -71q1 -41 -29 -71t-74 -30t-74 30t-30 72t30 70q30 29 74 29zM348 143h983l-360 351h233l230 -224v979h-983l364 -354h-233l-234 227v-979zM1577 1393v-1393
h-1372v1393h1372z" />
    <glyph glyph-name="perthousand" unicode="&#x2030;" 
d="M528 647h29q25 1 40 17t15 38t-15 39q-15 16 -40 17h-29v-111zM1220 760q-24 0 -38 -16t-14 -41q0 -23 14 -39t38 -16t38 16t16 38q0 22 -15 40t-39 18zM924 606h-47v195h36l68 -105l70 105h34v-195h-47v99l-45 -68h-24l-45 68v-99zM838 801v-41h-99v-37h86v-41h-86v-35
h99v-41h-146v195h146zM479 801h78q45 0 75 -28t30 -70q0 -41 -30 -69t-75 -28h-78v195zM1222 803q44 0 74 -29t29 -71q1 -41 -29 -71t-74 -30t-74 30t-30 72t30 70q30 29 74 29zM348 143h983l-360 351h233l230 -224v979h-983l364 -354h-233l-234 227v-979zM1577 1393v-1393
h-1372v1393h1372z" />
    <glyph glyph-name="guilsinglleft" unicode="&#x2039;" horiz-adv-x="579" 
d="M535 846l-195 -330l195 -330h-295l-195 330l195 330h295z" />
    <glyph glyph-name="guilsinglright" unicode="&#x203a;" horiz-adv-x="585" 
d="M541 516l-195 -330h-295l195 330l-195 330h295z" />
    <glyph glyph-name="fraction" unicode="&#x2044;" 
d="M528 647h29q25 1 40 17t15 38t-15 39q-15 16 -40 17h-29v-111zM1220 760q-24 0 -38 -16t-14 -41q0 -23 14 -39t38 -16t38 16t16 38q0 22 -15 40t-39 18zM924 606h-47v195h36l68 -105l70 105h34v-195h-47v99l-45 -68h-24l-45 68v-99zM838 801v-41h-99v-37h86v-41h-86v-35
h99v-41h-146v195h146zM479 801h78q45 0 75 -28t30 -70q0 -41 -30 -69t-75 -28h-78v195zM1222 803q44 0 74 -29t29 -71q1 -41 -29 -71t-74 -30t-74 30t-30 72t30 70q30 29 74 29zM348 143h983l-360 351h233l230 -224v979h-983l364 -354h-233l-234 227v-979zM1577 1393v-1393
h-1372v1393h1372z" />
    <glyph glyph-name="zerosuperior" unicode="&#x2070;" 
d="M528 647h29q25 1 40 17t15 38t-15 39q-15 16 -40 17h-29v-111zM1220 760q-24 0 -38 -16t-14 -41q0 -23 14 -39t38 -16t38 16t16 38q0 22 -15 40t-39 18zM924 606h-47v195h36l68 -105l70 105h34v-195h-47v99l-45 -68h-24l-45 68v-99zM838 801v-41h-99v-37h86v-41h-86v-35
h99v-41h-146v195h146zM479 801h78q45 0 75 -28t30 -70q0 -41 -30 -69t-75 -28h-78v195zM1222 803q44 0 74 -29t29 -71q1 -41 -29 -71t-74 -30t-74 30t-30 72t30 70q30 29 74 29zM348 143h983l-360 351h233l230 -224v979h-983l364 -354h-233l-234 227v-979zM1577 1393v-1393
h-1372v1393h1372z" />
    <glyph glyph-name="foursuperior" unicode="&#x2074;" 
d="M528 647h29q25 1 40 17t15 38t-15 39q-15 16 -40 17h-29v-111zM1220 760q-24 0 -38 -16t-14 -41q0 -23 14 -39t38 -16t38 16t16 38q0 22 -15 40t-39 18zM924 606h-47v195h36l68 -105l70 105h34v-195h-47v99l-45 -68h-24l-45 68v-99zM838 801v-41h-99v-37h86v-41h-86v-35
h99v-41h-146v195h146zM479 801h78q45 0 75 -28t30 -70q0 -41 -30 -69t-75 -28h-78v195zM1222 803q44 0 74 -29t29 -71q1 -41 -29 -71t-74 -30t-74 30t-30 72t30 70q30 29 74 29zM348 143h983l-360 351h233l230 -224v979h-983l364 -354h-233l-234 227v-979zM1577 1393v-1393
h-1372v1393h1372z" />
    <glyph glyph-name="fivesuperior" unicode="&#x2075;" 
d="M528 647h29q25 1 40 17t15 38t-15 39q-15 16 -40 17h-29v-111zM1220 760q-24 0 -38 -16t-14 -41q0 -23 14 -39t38 -16t38 16t16 38q0 22 -15 40t-39 18zM924 606h-47v195h36l68 -105l70 105h34v-195h-47v99l-45 -68h-24l-45 68v-99zM838 801v-41h-99v-37h86v-41h-86v-35
h99v-41h-146v195h146zM479 801h78q45 0 75 -28t30 -70q0 -41 -30 -69t-75 -28h-78v195zM1222 803q44 0 74 -29t29 -71q1 -41 -29 -71t-74 -30t-74 30t-30 72t30 70q30 29 74 29zM348 143h983l-360 351h233l230 -224v979h-983l364 -354h-233l-234 227v-979zM1577 1393v-1393
h-1372v1393h1372z" />
    <glyph glyph-name="sixsuperior" unicode="&#x2076;" 
d="M528 647h29q25 1 40 17t15 38t-15 39q-15 16 -40 17h-29v-111zM1220 760q-24 0 -38 -16t-14 -41q0 -23 14 -39t38 -16t38 16t16 38q0 22 -15 40t-39 18zM924 606h-47v195h36l68 -105l70 105h34v-195h-47v99l-45 -68h-24l-45 68v-99zM838 801v-41h-99v-37h86v-41h-86v-35
h99v-41h-146v195h146zM479 801h78q45 0 75 -28t30 -70q0 -41 -30 -69t-75 -28h-78v195zM1222 803q44 0 74 -29t29 -71q1 -41 -29 -71t-74 -30t-74 30t-30 72t30 70q30 29 74 29zM348 143h983l-360 351h233l230 -224v979h-983l364 -354h-233l-234 227v-979zM1577 1393v-1393
h-1372v1393h1372z" />
    <glyph glyph-name="sevensuperior" unicode="&#x2077;" 
d="M528 647h29q25 1 40 17t15 38t-15 39q-15 16 -40 17h-29v-111zM1220 760q-24 0 -38 -16t-14 -41q0 -23 14 -39t38 -16t38 16t16 38q0 22 -15 40t-39 18zM924 606h-47v195h36l68 -105l70 105h34v-195h-47v99l-45 -68h-24l-45 68v-99zM838 801v-41h-99v-37h86v-41h-86v-35
h99v-41h-146v195h146zM479 801h78q45 0 75 -28t30 -70q0 -41 -30 -69t-75 -28h-78v195zM1222 803q44 0 74 -29t29 -71q1 -41 -29 -71t-74 -30t-74 30t-30 72t30 70q30 29 74 29zM348 143h983l-360 351h233l230 -224v979h-983l364 -354h-233l-234 227v-979zM1577 1393v-1393
h-1372v1393h1372z" />
    <glyph glyph-name="eightsuperior" unicode="&#x2078;" 
d="M528 647h29q25 1 40 17t15 38t-15 39q-15 16 -40 17h-29v-111zM1220 760q-24 0 -38 -16t-14 -41q0 -23 14 -39t38 -16t38 16t16 38q0 22 -15 40t-39 18zM924 606h-47v195h36l68 -105l70 105h34v-195h-47v99l-45 -68h-24l-45 68v-99zM838 801v-41h-99v-37h86v-41h-86v-35
h99v-41h-146v195h146zM479 801h78q45 0 75 -28t30 -70q0 -41 -30 -69t-75 -28h-78v195zM1222 803q44 0 74 -29t29 -71q1 -41 -29 -71t-74 -30t-74 30t-30 72t30 70q30 29 74 29zM348 143h983l-360 351h233l230 -224v979h-983l364 -354h-233l-234 227v-979zM1577 1393v-1393
h-1372v1393h1372z" />
    <glyph glyph-name="ninesuperior" unicode="&#x2079;" 
d="M528 647h29q25 1 40 17t15 38t-15 39q-15 16 -40 17h-29v-111zM1220 760q-24 0 -38 -16t-14 -41q0 -23 14 -39t38 -16t38 16t16 38q0 22 -15 40t-39 18zM924 606h-47v195h36l68 -105l70 105h34v-195h-47v99l-45 -68h-24l-45 68v-99zM838 801v-41h-99v-37h86v-41h-86v-35
h99v-41h-146v195h146zM479 801h78q45 0 75 -28t30 -70q0 -41 -30 -69t-75 -28h-78v195zM1222 803q44 0 74 -29t29 -71q1 -41 -29 -71t-74 -30t-74 30t-30 72t30 70q30 29 74 29zM348 143h983l-360 351h233l230 -224v979h-983l364 -354h-233l-234 227v-979zM1577 1393v-1393
h-1372v1393h1372z" />
    <glyph glyph-name="zeroinferior" unicode="&#x2080;" 
d="M528 647h29q25 1 40 17t15 38t-15 39q-15 16 -40 17h-29v-111zM1220 760q-24 0 -38 -16t-14 -41q0 -23 14 -39t38 -16t38 16t16 38q0 22 -15 40t-39 18zM924 606h-47v195h36l68 -105l70 105h34v-195h-47v99l-45 -68h-24l-45 68v-99zM838 801v-41h-99v-37h86v-41h-86v-35
h99v-41h-146v195h146zM479 801h78q45 0 75 -28t30 -70q0 -41 -30 -69t-75 -28h-78v195zM1222 803q44 0 74 -29t29 -71q1 -41 -29 -71t-74 -30t-74 30t-30 72t30 70q30 29 74 29zM348 143h983l-360 351h233l230 -224v979h-983l364 -354h-233l-234 227v-979zM1577 1393v-1393
h-1372v1393h1372z" />
    <glyph glyph-name="oneinferior" unicode="&#x2081;" 
d="M528 647h29q25 1 40 17t15 38t-15 39q-15 16 -40 17h-29v-111zM1220 760q-24 0 -38 -16t-14 -41q0 -23 14 -39t38 -16t38 16t16 38q0 22 -15 40t-39 18zM924 606h-47v195h36l68 -105l70 105h34v-195h-47v99l-45 -68h-24l-45 68v-99zM838 801v-41h-99v-37h86v-41h-86v-35
h99v-41h-146v195h146zM479 801h78q45 0 75 -28t30 -70q0 -41 -30 -69t-75 -28h-78v195zM1222 803q44 0 74 -29t29 -71q1 -41 -29 -71t-74 -30t-74 30t-30 72t30 70q30 29 74 29zM348 143h983l-360 351h233l230 -224v979h-983l364 -354h-233l-234 227v-979zM1577 1393v-1393
h-1372v1393h1372z" />
    <glyph glyph-name="twoinferior" unicode="&#x2082;" 
d="M528 647h29q25 1 40 17t15 38t-15 39q-15 16 -40 17h-29v-111zM1220 760q-24 0 -38 -16t-14 -41q0 -23 14 -39t38 -16t38 16t16 38q0 22 -15 40t-39 18zM924 606h-47v195h36l68 -105l70 105h34v-195h-47v99l-45 -68h-24l-45 68v-99zM838 801v-41h-99v-37h86v-41h-86v-35
h99v-41h-146v195h146zM479 801h78q45 0 75 -28t30 -70q0 -41 -30 -69t-75 -28h-78v195zM1222 803q44 0 74 -29t29 -71q1 -41 -29 -71t-74 -30t-74 30t-30 72t30 70q30 29 74 29zM348 143h983l-360 351h233l230 -224v979h-983l364 -354h-233l-234 227v-979zM1577 1393v-1393
h-1372v1393h1372z" />
    <glyph glyph-name="threeinferior" unicode="&#x2083;" 
d="M528 647h29q25 1 40 17t15 38t-15 39q-15 16 -40 17h-29v-111zM1220 760q-24 0 -38 -16t-14 -41q0 -23 14 -39t38 -16t38 16t16 38q0 22 -15 40t-39 18zM924 606h-47v195h36l68 -105l70 105h34v-195h-47v99l-45 -68h-24l-45 68v-99zM838 801v-41h-99v-37h86v-41h-86v-35
h99v-41h-146v195h146zM479 801h78q45 0 75 -28t30 -70q0 -41 -30 -69t-75 -28h-78v195zM1222 803q44 0 74 -29t29 -71q1 -41 -29 -71t-74 -30t-74 30t-30 72t30 70q30 29 74 29zM348 143h983l-360 351h233l230 -224v979h-983l364 -354h-233l-234 227v-979zM1577 1393v-1393
h-1372v1393h1372z" />
    <glyph glyph-name="fourinferior" unicode="&#x2084;" 
d="M528 647h29q25 1 40 17t15 38t-15 39q-15 16 -40 17h-29v-111zM1220 760q-24 0 -38 -16t-14 -41q0 -23 14 -39t38 -16t38 16t16 38q0 22 -15 40t-39 18zM924 606h-47v195h36l68 -105l70 105h34v-195h-47v99l-45 -68h-24l-45 68v-99zM838 801v-41h-99v-37h86v-41h-86v-35
h99v-41h-146v195h146zM479 801h78q45 0 75 -28t30 -70q0 -41 -30 -69t-75 -28h-78v195zM1222 803q44 0 74 -29t29 -71q1 -41 -29 -71t-74 -30t-74 30t-30 72t30 70q30 29 74 29zM348 143h983l-360 351h233l230 -224v979h-983l364 -354h-233l-234 227v-979zM1577 1393v-1393
h-1372v1393h1372z" />
    <glyph glyph-name="fiveinferior" unicode="&#x2085;" 
d="M528 647h29q25 1 40 17t15 38t-15 39q-15 16 -40 17h-29v-111zM1220 760q-24 0 -38 -16t-14 -41q0 -23 14 -39t38 -16t38 16t16 38q0 22 -15 40t-39 18zM924 606h-47v195h36l68 -105l70 105h34v-195h-47v99l-45 -68h-24l-45 68v-99zM838 801v-41h-99v-37h86v-41h-86v-35
h99v-41h-146v195h146zM479 801h78q45 0 75 -28t30 -70q0 -41 -30 -69t-75 -28h-78v195zM1222 803q44 0 74 -29t29 -71q1 -41 -29 -71t-74 -30t-74 30t-30 72t30 70q30 29 74 29zM348 143h983l-360 351h233l230 -224v979h-983l364 -354h-233l-234 227v-979zM1577 1393v-1393
h-1372v1393h1372z" />
    <glyph glyph-name="sixinferior" unicode="&#x2086;" 
d="M528 647h29q25 1 40 17t15 38t-15 39q-15 16 -40 17h-29v-111zM1220 760q-24 0 -38 -16t-14 -41q0 -23 14 -39t38 -16t38 16t16 38q0 22 -15 40t-39 18zM924 606h-47v195h36l68 -105l70 105h34v-195h-47v99l-45 -68h-24l-45 68v-99zM838 801v-41h-99v-37h86v-41h-86v-35
h99v-41h-146v195h146zM479 801h78q45 0 75 -28t30 -70q0 -41 -30 -69t-75 -28h-78v195zM1222 803q44 0 74 -29t29 -71q1 -41 -29 -71t-74 -30t-74 30t-30 72t30 70q30 29 74 29zM348 143h983l-360 351h233l230 -224v979h-983l364 -354h-233l-234 227v-979zM1577 1393v-1393
h-1372v1393h1372z" />
    <glyph glyph-name="seveninferior" unicode="&#x2087;" 
d="M528 647h29q25 1 40 17t15 38t-15 39q-15 16 -40 17h-29v-111zM1220 760q-24 0 -38 -16t-14 -41q0 -23 14 -39t38 -16t38 16t16 38q0 22 -15 40t-39 18zM924 606h-47v195h36l68 -105l70 105h34v-195h-47v99l-45 -68h-24l-45 68v-99zM838 801v-41h-99v-37h86v-41h-86v-35
h99v-41h-146v195h146zM479 801h78q45 0 75 -28t30 -70q0 -41 -30 -69t-75 -28h-78v195zM1222 803q44 0 74 -29t29 -71q1 -41 -29 -71t-74 -30t-74 30t-30 72t30 70q30 29 74 29zM348 143h983l-360 351h233l230 -224v979h-983l364 -354h-233l-234 227v-979zM1577 1393v-1393
h-1372v1393h1372z" />
    <glyph glyph-name="eightinferior" unicode="&#x2088;" 
d="M528 647h29q25 1 40 17t15 38t-15 39q-15 16 -40 17h-29v-111zM1220 760q-24 0 -38 -16t-14 -41q0 -23 14 -39t38 -16t38 16t16 38q0 22 -15 40t-39 18zM924 606h-47v195h36l68 -105l70 105h34v-195h-47v99l-45 -68h-24l-45 68v-99zM838 801v-41h-99v-37h86v-41h-86v-35
h99v-41h-146v195h146zM479 801h78q45 0 75 -28t30 -70q0 -41 -30 -69t-75 -28h-78v195zM1222 803q44 0 74 -29t29 -71q1 -41 -29 -71t-74 -30t-74 30t-30 72t30 70q30 29 74 29zM348 143h983l-360 351h233l230 -224v979h-983l364 -354h-233l-234 227v-979zM1577 1393v-1393
h-1372v1393h1372z" />
    <glyph glyph-name="nineinferior" unicode="&#x2089;" 
d="M528 647h29q25 1 40 17t15 38t-15 39q-15 16 -40 17h-29v-111zM1220 760q-24 0 -38 -16t-14 -41q0 -23 14 -39t38 -16t38 16t16 38q0 22 -15 40t-39 18zM924 606h-47v195h36l68 -105l70 105h34v-195h-47v99l-45 -68h-24l-45 68v-99zM838 801v-41h-99v-37h86v-41h-86v-35
h99v-41h-146v195h146zM479 801h78q45 0 75 -28t30 -70q0 -41 -30 -69t-75 -28h-78v195zM1222 803q44 0 74 -29t29 -71q1 -41 -29 -71t-74 -30t-74 30t-30 72t30 70q30 29 74 29zM348 143h983l-360 351h233l230 -224v979h-983l364 -354h-233l-234 227v-979zM1577 1393v-1393
h-1372v1393h1372z" />
    <glyph glyph-name="Euro" unicode="&#x20ac;" horiz-adv-x="1734" 
d="M944 295q137 0 227 75t119 208h355q-33 -272 -223 -440t-458 -167q-266 0 -453 129t-261 346h-178v183h139q-2 23 -2 67v37h-137v182h168q68 229 260 368q193 138 462 138t459 -167t224 -439h-355q-29 133 -119 208t-227 75q-223 0 -330 -183h469l-47 -182h-475l-2 -37
q0 -23 4 -67h449l-47 -183h-330q108 -151 309 -151z" />
    <glyph glyph-name="uni2116" unicode="&#x2116;" horiz-adv-x="2803" 
d="M1655 246h987v-244h-987v244zM2149 1120q-99 0 -161 -68t-62 -167q0 -100 62 -169t161 -69t162 69t63 169q0 99 -63 167t-162 68zM1059 1393h346v-1393h-268l-668 764v-764h-346v1393h264l672 -785v785zM2148 360q-233 0 -386 151q-152 151 -152 377t151 373
q151 146 387 146t388 -146q152 -147 151 -373q0 -226 -153 -377t-386 -151z" />
    <glyph glyph-name="uni2117" unicode="&#x2117;" 
d="M528 647h29q25 1 40 17t15 38t-15 39q-15 16 -40 17h-29v-111zM1220 760q-24 0 -38 -16t-14 -41q0 -23 14 -39t38 -16t38 16t16 38q0 22 -15 40t-39 18zM924 606h-47v195h36l68 -105l70 105h34v-195h-47v99l-45 -68h-24l-45 68v-99zM838 801v-41h-99v-37h86v-41h-86v-35
h99v-41h-146v195h146zM479 801h78q45 0 75 -28t30 -70q0 -41 -30 -69t-75 -28h-78v195zM1222 803q44 0 74 -29t29 -71q1 -41 -29 -71t-74 -30t-74 30t-30 72t30 70q30 29 74 29zM348 143h983l-360 351h233l230 -224v979h-983l364 -354h-233l-234 227v-979zM1577 1393v-1393
h-1372v1393h1372z" />
    <glyph glyph-name="trademark" unicode="&#x2122;" 
d="M528 647h29q25 1 40 17t15 38t-15 39q-15 16 -40 17h-29v-111zM1220 760q-24 0 -38 -16t-14 -41q0 -23 14 -39t38 -16t38 16t16 38q0 22 -15 40t-39 18zM924 606h-47v195h36l68 -105l70 105h34v-195h-47v99l-45 -68h-24l-45 68v-99zM838 801v-41h-99v-37h86v-41h-86v-35
h99v-41h-146v195h146zM479 801h78q45 0 75 -28t30 -70q0 -41 -30 -69t-75 -28h-78v195zM1222 803q44 0 74 -29t29 -71q1 -41 -29 -71t-74 -30t-74 30t-30 72t30 70q30 29 74 29zM348 143h983l-360 351h233l230 -224v979h-983l364 -354h-233l-234 227v-979zM1577 1393v-1393
h-1372v1393h1372z" />
    <glyph glyph-name="oneeighth" unicode="&#x215b;" 
d="M528 647h29q25 1 40 17t15 38t-15 39q-15 16 -40 17h-29v-111zM1220 760q-24 0 -38 -16t-14 -41q0 -23 14 -39t38 -16t38 16t16 38q0 22 -15 40t-39 18zM924 606h-47v195h36l68 -105l70 105h34v-195h-47v99l-45 -68h-24l-45 68v-99zM838 801v-41h-99v-37h86v-41h-86v-35
h99v-41h-146v195h146zM479 801h78q45 0 75 -28t30 -70q0 -41 -30 -69t-75 -28h-78v195zM1222 803q44 0 74 -29t29 -71q1 -41 -29 -71t-74 -30t-74 30t-30 72t30 70q30 29 74 29zM348 143h983l-360 351h233l230 -224v979h-983l364 -354h-233l-234 227v-979zM1577 1393v-1393
h-1372v1393h1372z" />
    <glyph glyph-name="threeeighths" unicode="&#x215c;" 
d="M528 647h29q25 1 40 17t15 38t-15 39q-15 16 -40 17h-29v-111zM1220 760q-24 0 -38 -16t-14 -41q0 -23 14 -39t38 -16t38 16t16 38q0 22 -15 40t-39 18zM924 606h-47v195h36l68 -105l70 105h34v-195h-47v99l-45 -68h-24l-45 68v-99zM838 801v-41h-99v-37h86v-41h-86v-35
h99v-41h-146v195h146zM479 801h78q45 0 75 -28t30 -70q0 -41 -30 -69t-75 -28h-78v195zM1222 803q44 0 74 -29t29 -71q1 -41 -29 -71t-74 -30t-74 30t-30 72t30 70q30 29 74 29zM348 143h983l-360 351h233l230 -224v979h-983l364 -354h-233l-234 227v-979zM1577 1393v-1393
h-1372v1393h1372z" />
    <glyph glyph-name="fiveeighths" unicode="&#x215d;" 
d="M528 647h29q25 1 40 17t15 38t-15 39q-15 16 -40 17h-29v-111zM1220 760q-24 0 -38 -16t-14 -41q0 -23 14 -39t38 -16t38 16t16 38q0 22 -15 40t-39 18zM924 606h-47v195h36l68 -105l70 105h34v-195h-47v99l-45 -68h-24l-45 68v-99zM838 801v-41h-99v-37h86v-41h-86v-35
h99v-41h-146v195h146zM479 801h78q45 0 75 -28t30 -70q0 -41 -30 -69t-75 -28h-78v195zM1222 803q44 0 74 -29t29 -71q1 -41 -29 -71t-74 -30t-74 30t-30 72t30 70q30 29 74 29zM348 143h983l-360 351h233l230 -224v979h-983l364 -354h-233l-234 227v-979zM1577 1393v-1393
h-1372v1393h1372z" />
    <glyph glyph-name="seveneighths" unicode="&#x215e;" 
d="M528 647h29q25 1 40 17t15 38t-15 39q-15 16 -40 17h-29v-111zM1220 760q-24 0 -38 -16t-14 -41q0 -23 14 -39t38 -16t38 16t16 38q0 22 -15 40t-39 18zM924 606h-47v195h36l68 -105l70 105h34v-195h-47v99l-45 -68h-24l-45 68v-99zM838 801v-41h-99v-37h86v-41h-86v-35
h99v-41h-146v195h146zM479 801h78q45 0 75 -28t30 -70q0 -41 -30 -69t-75 -28h-78v195zM1222 803q44 0 74 -29t29 -71q1 -41 -29 -71t-74 -30t-74 30t-30 72t30 70q30 29 74 29zM348 143h983l-360 351h233l230 -224v979h-983l364 -354h-233l-234 227v-979zM1577 1393v-1393
h-1372v1393h1372z" />
    <glyph glyph-name="arrowleft" unicode="&#x2190;" 
d="M528 647h29q25 1 40 17t15 38t-15 39q-15 16 -40 17h-29v-111zM1220 760q-24 0 -38 -16t-14 -41q0 -23 14 -39t38 -16t38 16t16 38q0 22 -15 40t-39 18zM924 606h-47v195h36l68 -105l70 105h34v-195h-47v99l-45 -68h-24l-45 68v-99zM838 801v-41h-99v-37h86v-41h-86v-35
h99v-41h-146v195h146zM479 801h78q45 0 75 -28t30 -70q0 -41 -30 -69t-75 -28h-78v195zM1222 803q44 0 74 -29t29 -71q1 -41 -29 -71t-74 -30t-74 30t-30 72t30 70q30 29 74 29zM348 143h983l-360 351h233l230 -224v979h-983l364 -354h-233l-234 227v-979zM1577 1393v-1393
h-1372v1393h1372z" />
    <glyph glyph-name="arrowup" unicode="&#x2191;" 
d="M528 647h29q25 1 40 17t15 38t-15 39q-15 16 -40 17h-29v-111zM1220 760q-24 0 -38 -16t-14 -41q0 -23 14 -39t38 -16t38 16t16 38q0 22 -15 40t-39 18zM924 606h-47v195h36l68 -105l70 105h34v-195h-47v99l-45 -68h-24l-45 68v-99zM838 801v-41h-99v-37h86v-41h-86v-35
h99v-41h-146v195h146zM479 801h78q45 0 75 -28t30 -70q0 -41 -30 -69t-75 -28h-78v195zM1222 803q44 0 74 -29t29 -71q1 -41 -29 -71t-74 -30t-74 30t-30 72t30 70q30 29 74 29zM348 143h983l-360 351h233l230 -224v979h-983l364 -354h-233l-234 227v-979zM1577 1393v-1393
h-1372v1393h1372z" />
    <glyph glyph-name="arrowright" unicode="&#x2192;" 
d="M528 647h29q25 1 40 17t15 38t-15 39q-15 16 -40 17h-29v-111zM1220 760q-24 0 -38 -16t-14 -41q0 -23 14 -39t38 -16t38 16t16 38q0 22 -15 40t-39 18zM924 606h-47v195h36l68 -105l70 105h34v-195h-47v99l-45 -68h-24l-45 68v-99zM838 801v-41h-99v-37h86v-41h-86v-35
h99v-41h-146v195h146zM479 801h78q45 0 75 -28t30 -70q0 -41 -30 -69t-75 -28h-78v195zM1222 803q44 0 74 -29t29 -71q1 -41 -29 -71t-74 -30t-74 30t-30 72t30 70q30 29 74 29zM348 143h983l-360 351h233l230 -224v979h-983l364 -354h-233l-234 227v-979zM1577 1393v-1393
h-1372v1393h1372z" />
    <glyph glyph-name="arrowdown" unicode="&#x2193;" 
d="M528 647h29q25 1 40 17t15 38t-15 39q-15 16 -40 17h-29v-111zM1220 760q-24 0 -38 -16t-14 -41q0 -23 14 -39t38 -16t38 16t16 38q0 22 -15 40t-39 18zM924 606h-47v195h36l68 -105l70 105h34v-195h-47v99l-45 -68h-24l-45 68v-99zM838 801v-41h-99v-37h86v-41h-86v-35
h99v-41h-146v195h146zM479 801h78q45 0 75 -28t30 -70q0 -41 -30 -69t-75 -28h-78v195zM1222 803q44 0 74 -29t29 -71q1 -41 -29 -71t-74 -30t-74 30t-30 72t30 70q30 29 74 29zM348 143h983l-360 351h233l230 -224v979h-983l364 -354h-233l-234 227v-979zM1577 1393v-1393
h-1372v1393h1372z" />
    <glyph glyph-name="arrowupleft" unicode="&#x2196;" 
d="M528 647h29q25 1 40 17t15 38t-15 39q-15 16 -40 17h-29v-111zM1220 760q-24 0 -38 -16t-14 -41q0 -23 14 -39t38 -16t38 16t16 38q0 22 -15 40t-39 18zM924 606h-47v195h36l68 -105l70 105h34v-195h-47v99l-45 -68h-24l-45 68v-99zM838 801v-41h-99v-37h86v-41h-86v-35
h99v-41h-146v195h146zM479 801h78q45 0 75 -28t30 -70q0 -41 -30 -69t-75 -28h-78v195zM1222 803q44 0 74 -29t29 -71q1 -41 -29 -71t-74 -30t-74 30t-30 72t30 70q30 29 74 29zM348 143h983l-360 351h233l230 -224v979h-983l364 -354h-233l-234 227v-979zM1577 1393v-1393
h-1372v1393h1372z" />
    <glyph glyph-name="arrowupright" unicode="&#x2197;" 
d="M528 647h29q25 1 40 17t15 38t-15 39q-15 16 -40 17h-29v-111zM1220 760q-24 0 -38 -16t-14 -41q0 -23 14 -39t38 -16t38 16t16 38q0 22 -15 40t-39 18zM924 606h-47v195h36l68 -105l70 105h34v-195h-47v99l-45 -68h-24l-45 68v-99zM838 801v-41h-99v-37h86v-41h-86v-35
h99v-41h-146v195h146zM479 801h78q45 0 75 -28t30 -70q0 -41 -30 -69t-75 -28h-78v195zM1222 803q44 0 74 -29t29 -71q1 -41 -29 -71t-74 -30t-74 30t-30 72t30 70q30 29 74 29zM348 143h983l-360 351h233l230 -224v979h-983l364 -354h-233l-234 227v-979zM1577 1393v-1393
h-1372v1393h1372z" />
    <glyph glyph-name="arrowdownright" unicode="&#x2198;" 
d="M528 647h29q25 1 40 17t15 38t-15 39q-15 16 -40 17h-29v-111zM1220 760q-24 0 -38 -16t-14 -41q0 -23 14 -39t38 -16t38 16t16 38q0 22 -15 40t-39 18zM924 606h-47v195h36l68 -105l70 105h34v-195h-47v99l-45 -68h-24l-45 68v-99zM838 801v-41h-99v-37h86v-41h-86v-35
h99v-41h-146v195h146zM479 801h78q45 0 75 -28t30 -70q0 -41 -30 -69t-75 -28h-78v195zM1222 803q44 0 74 -29t29 -71q1 -41 -29 -71t-74 -30t-74 30t-30 72t30 70q30 29 74 29zM348 143h983l-360 351h233l230 -224v979h-983l364 -354h-233l-234 227v-979zM1577 1393v-1393
h-1372v1393h1372z" />
    <glyph glyph-name="arrowdownleft" unicode="&#x2199;" 
d="M528 647h29q25 1 40 17t15 38t-15 39q-15 16 -40 17h-29v-111zM1220 760q-24 0 -38 -16t-14 -41q0 -23 14 -39t38 -16t38 16t16 38q0 22 -15 40t-39 18zM924 606h-47v195h36l68 -105l70 105h34v-195h-47v99l-45 -68h-24l-45 68v-99zM838 801v-41h-99v-37h86v-41h-86v-35
h99v-41h-146v195h146zM479 801h78q45 0 75 -28t30 -70q0 -41 -30 -69t-75 -28h-78v195zM1222 803q44 0 74 -29t29 -71q1 -41 -29 -71t-74 -30t-74 30t-30 72t30 70q30 29 74 29zM348 143h983l-360 351h233l230 -224v979h-983l364 -354h-233l-234 227v-979zM1577 1393v-1393
h-1372v1393h1372z" />
    <glyph glyph-name="minus" unicode="&#x2212;" 
d="M528 647h29q25 1 40 17t15 38t-15 39q-15 16 -40 17h-29v-111zM1220 760q-24 0 -38 -16t-14 -41q0 -23 14 -39t38 -16t38 16t16 38q0 22 -15 40t-39 18zM924 606h-47v195h36l68 -105l70 105h34v-195h-47v99l-45 -68h-24l-45 68v-99zM838 801v-41h-99v-37h86v-41h-86v-35
h99v-41h-146v195h146zM479 801h78q45 0 75 -28t30 -70q0 -41 -30 -69t-75 -28h-78v195zM1222 803q44 0 74 -29t29 -71q1 -41 -29 -71t-74 -30t-74 30t-30 72t30 70q30 29 74 29zM348 143h983l-360 351h233l230 -224v979h-983l364 -354h-233l-234 227v-979zM1577 1393v-1393
h-1372v1393h1372z" />
    <glyph glyph-name="R.ss02" horiz-adv-x="1435" 
d="M469 1087v-372h250q111 0 179 51t67 136q0 85 -68 135t-178 50h-250zM469 403v-403h-346v1393h602q270 0 427 -132t157 -358q-1 -172 -97 -297t-270 -174l459 -432h-451l-428 403h-53z" />
    <glyph glyph-name="Racute.ss02" 
d="M528 647h29q25 1 40 17t15 38t-15 39q-15 16 -40 17h-29v-111zM1220 760q-24 0 -38 -16t-14 -41q0 -23 14 -39t38 -16t38 16t16 38q0 22 -15 40t-39 18zM924 606h-47v195h36l68 -105l70 105h34v-195h-47v99l-45 -68h-24l-45 68v-99zM838 801v-41h-99v-37h86v-41h-86v-35
h99v-41h-146v195h146zM479 801h78q45 0 75 -28t30 -70q0 -41 -30 -69t-75 -28h-78v195zM1222 803q44 0 74 -29t29 -71q1 -41 -29 -71t-74 -30t-74 30t-30 72t30 70q30 29 74 29zM348 143h983l-360 351h233l230 -224v979h-983l364 -354h-233l-234 227v-979zM1577 1393v-1393
h-1372v1393h1372z" />
    <glyph glyph-name="Rcaron.ss02" 
d="M528 647h29q25 1 40 17t15 38t-15 39q-15 16 -40 17h-29v-111zM1220 760q-24 0 -38 -16t-14 -41q0 -23 14 -39t38 -16t38 16t16 38q0 22 -15 40t-39 18zM924 606h-47v195h36l68 -105l70 105h34v-195h-47v99l-45 -68h-24l-45 68v-99zM838 801v-41h-99v-37h86v-41h-86v-35
h99v-41h-146v195h146zM479 801h78q45 0 75 -28t30 -70q0 -41 -30 -69t-75 -28h-78v195zM1222 803q44 0 74 -29t29 -71q1 -41 -29 -71t-74 -30t-74 30t-30 72t30 70q30 29 74 29zM348 143h983l-360 351h233l230 -224v979h-983l364 -354h-233l-234 227v-979zM1577 1393v-1393
h-1372v1393h1372z" />
    <glyph glyph-name="Rcommaaccent.ss02" 
d="M528 647h29q25 1 40 17t15 38t-15 39q-15 16 -40 17h-29v-111zM1220 760q-24 0 -38 -16t-14 -41q0 -23 14 -39t38 -16t38 16t16 38q0 22 -15 40t-39 18zM924 606h-47v195h36l68 -105l70 105h34v-195h-47v99l-45 -68h-24l-45 68v-99zM838 801v-41h-99v-37h86v-41h-86v-35
h99v-41h-146v195h146zM479 801h78q45 0 75 -28t30 -70q0 -41 -30 -69t-75 -28h-78v195zM1222 803q44 0 74 -29t29 -71q1 -41 -29 -71t-74 -30t-74 30t-30 72t30 70q30 29 74 29zM348 143h983l-360 351h233l230 -224v979h-983l364 -354h-233l-234 227v-979zM1577 1393v-1393
h-1372v1393h1372z" />
    <glyph glyph-name="Q.ss03" horiz-adv-x="1654" 
d="M1485 -190l-35 -293q-330 39 -680 141l27 231zM827 293q166 0 277 118q110 117 110 285t-110 286q-111 118 -277 118q-167 0 -277 -118t-110 -286t110 -286t277 -117zM828 1421q314 0 526 -210t213 -515q0 -305 -212 -515q-213 -210 -527 -210t-526 210t-212 515t212 515
t526 210z" />
    <glyph glyph-name="i.loclTRK" 
d="M528 647h29q25 1 40 17t15 38t-15 39q-15 16 -40 17h-29v-111zM1220 760q-24 0 -38 -16t-14 -41q0 -23 14 -39t38 -16t38 16t16 38q0 22 -15 40t-39 18zM924 606h-47v195h36l68 -105l70 105h34v-195h-47v99l-45 -68h-24l-45 68v-99zM838 801v-41h-99v-37h86v-41h-86v-35
h99v-41h-146v195h146zM479 801h78q45 0 75 -28t30 -70q0 -41 -30 -69t-75 -28h-78v195zM1222 803q44 0 74 -29t29 -71q1 -41 -29 -71t-74 -30t-74 30t-30 72t30 70q30 29 74 29zM348 143h983l-360 351h233l230 -224v979h-983l364 -354h-233l-234 227v-979zM1577 1393v-1393
h-1372v1393h1372z" />
    <glyph glyph-name="germandbls.case" 
d="M528 647h29q25 1 40 17t15 38t-15 39q-15 16 -40 17h-29v-111zM1220 760q-24 0 -38 -16t-14 -41q0 -23 14 -39t38 -16t38 16t16 38q0 22 -15 40t-39 18zM924 606h-47v195h36l68 -105l70 105h34v-195h-47v99l-45 -68h-24l-45 68v-99zM838 801v-41h-99v-37h86v-41h-86v-35
h99v-41h-146v195h146zM479 801h78q45 0 75 -28t30 -70q0 -41 -30 -69t-75 -28h-78v195zM1222 803q44 0 74 -29t29 -71q1 -41 -29 -71t-74 -30t-74 30t-30 72t30 70q30 29 74 29zM348 143h983l-360 351h233l230 -224v979h-983l364 -354h-233l-234 227v-979zM1577 1393v-1393
h-1372v1393h1372z" />
    <glyph glyph-name="l.ss01" horiz-adv-x="782" 
d="M444 1454v-1071q0 -115 113 -115q53 0 139 21l37 -279q-143 -41 -250 -41q-176 -1 -273 99t-97 278v1108h331z" />
    <glyph glyph-name="lacute.ss01" 
d="M528 647h29q25 1 40 17t15 38t-15 39q-15 16 -40 17h-29v-111zM1220 760q-24 0 -38 -16t-14 -41q0 -23 14 -39t38 -16t38 16t16 38q0 22 -15 40t-39 18zM924 606h-47v195h36l68 -105l70 105h34v-195h-47v99l-45 -68h-24l-45 68v-99zM838 801v-41h-99v-37h86v-41h-86v-35
h99v-41h-146v195h146zM479 801h78q45 0 75 -28t30 -70q0 -41 -30 -69t-75 -28h-78v195zM1222 803q44 0 74 -29t29 -71q1 -41 -29 -71t-74 -30t-74 30t-30 72t30 70q30 29 74 29zM348 143h983l-360 351h233l230 -224v979h-983l364 -354h-233l-234 227v-979zM1577 1393v-1393
h-1372v1393h1372z" />
    <glyph glyph-name="lcaron.ss01" 
d="M528 647h29q25 1 40 17t15 38t-15 39q-15 16 -40 17h-29v-111zM1220 760q-24 0 -38 -16t-14 -41q0 -23 14 -39t38 -16t38 16t16 38q0 22 -15 40t-39 18zM924 606h-47v195h36l68 -105l70 105h34v-195h-47v99l-45 -68h-24l-45 68v-99zM838 801v-41h-99v-37h86v-41h-86v-35
h99v-41h-146v195h146zM479 801h78q45 0 75 -28t30 -70q0 -41 -30 -69t-75 -28h-78v195zM1222 803q44 0 74 -29t29 -71q1 -41 -29 -71t-74 -30t-74 30t-30 72t30 70q30 29 74 29zM348 143h983l-360 351h233l230 -224v979h-983l364 -354h-233l-234 227v-979zM1577 1393v-1393
h-1372v1393h1372z" />
    <glyph glyph-name="lcommaaccent.ss01" 
d="M528 647h29q25 1 40 17t15 38t-15 39q-15 16 -40 17h-29v-111zM1220 760q-24 0 -38 -16t-14 -41q0 -23 14 -39t38 -16t38 16t16 38q0 22 -15 40t-39 18zM924 606h-47v195h36l68 -105l70 105h34v-195h-47v99l-45 -68h-24l-45 68v-99zM838 801v-41h-99v-37h86v-41h-86v-35
h99v-41h-146v195h146zM479 801h78q45 0 75 -28t30 -70q0 -41 -30 -69t-75 -28h-78v195zM1222 803q44 0 74 -29t29 -71q1 -41 -29 -71t-74 -30t-74 30t-30 72t30 70q30 29 74 29zM348 143h983l-360 351h233l230 -224v979h-983l364 -354h-233l-234 227v-979zM1577 1393v-1393
h-1372v1393h1372z" />
    <glyph glyph-name="ldot.ss01" 
d="M528 647h29q25 1 40 17t15 38t-15 39q-15 16 -40 17h-29v-111zM1220 760q-24 0 -38 -16t-14 -41q0 -23 14 -39t38 -16t38 16t16 38q0 22 -15 40t-39 18zM924 606h-47v195h36l68 -105l70 105h34v-195h-47v99l-45 -68h-24l-45 68v-99zM838 801v-41h-99v-37h86v-41h-86v-35
h99v-41h-146v195h146zM479 801h78q45 0 75 -28t30 -70q0 -41 -30 -69t-75 -28h-78v195zM1222 803q44 0 74 -29t29 -71q1 -41 -29 -71t-74 -30t-74 30t-30 72t30 70q30 29 74 29zM348 143h983l-360 351h233l230 -224v979h-983l364 -354h-233l-234 227v-979zM1577 1393v-1393
h-1372v1393h1372z" />
    <glyph glyph-name="lslash.ss01" 
d="M528 647h29q25 1 40 17t15 38t-15 39q-15 16 -40 17h-29v-111zM1220 760q-24 0 -38 -16t-14 -41q0 -23 14 -39t38 -16t38 16t16 38q0 22 -15 40t-39 18zM924 606h-47v195h36l68 -105l70 105h34v-195h-47v99l-45 -68h-24l-45 68v-99zM838 801v-41h-99v-37h86v-41h-86v-35
h99v-41h-146v195h146zM479 801h78q45 0 75 -28t30 -70q0 -41 -30 -69t-75 -28h-78v195zM1222 803q44 0 74 -29t29 -71q1 -41 -29 -71t-74 -30t-74 30t-30 72t30 70q30 29 74 29zM348 143h983l-360 351h233l230 -224v979h-983l364 -354h-233l-234 227v-979zM1577 1393v-1393
h-1372v1393h1372z" />
    <glyph glyph-name="y.ss04" horiz-adv-x="1251" 
d="M1137 993v-977q1 -229 -143 -360t-376 -131t-378 118q-145 118 -158 312h328q10 -68 64 -109t139 -41q85 -1 139 53t53 152v123q-125 -96 -273 -96q-190 0 -307 123t-116 334v499h331v-446q0 -101 49 -155t139 -54t177 98v557h332z" />
    <glyph glyph-name="yacute.ss04" 
d="M528 647h29q25 1 40 17t15 38t-15 39q-15 16 -40 17h-29v-111zM1220 760q-24 0 -38 -16t-14 -41q0 -23 14 -39t38 -16t38 16t16 38q0 22 -15 40t-39 18zM924 606h-47v195h36l68 -105l70 105h34v-195h-47v99l-45 -68h-24l-45 68v-99zM838 801v-41h-99v-37h86v-41h-86v-35
h99v-41h-146v195h146zM479 801h78q45 0 75 -28t30 -70q0 -41 -30 -69t-75 -28h-78v195zM1222 803q44 0 74 -29t29 -71q1 -41 -29 -71t-74 -30t-74 30t-30 72t30 70q30 29 74 29zM348 143h983l-360 351h233l230 -224v979h-983l364 -354h-233l-234 227v-979zM1577 1393v-1393
h-1372v1393h1372z" />
    <glyph glyph-name="ycircumflex.ss04" 
d="M528 647h29q25 1 40 17t15 38t-15 39q-15 16 -40 17h-29v-111zM1220 760q-24 0 -38 -16t-14 -41q0 -23 14 -39t38 -16t38 16t16 38q0 22 -15 40t-39 18zM924 606h-47v195h36l68 -105l70 105h34v-195h-47v99l-45 -68h-24l-45 68v-99zM838 801v-41h-99v-37h86v-41h-86v-35
h99v-41h-146v195h146zM479 801h78q45 0 75 -28t30 -70q0 -41 -30 -69t-75 -28h-78v195zM1222 803q44 0 74 -29t29 -71q1 -41 -29 -71t-74 -30t-74 30t-30 72t30 70q30 29 74 29zM348 143h983l-360 351h233l230 -224v979h-983l364 -354h-233l-234 227v-979zM1577 1393v-1393
h-1372v1393h1372z" />
    <glyph glyph-name="ydieresis.ss04" 
d="M528 647h29q25 1 40 17t15 38t-15 39q-15 16 -40 17h-29v-111zM1220 760q-24 0 -38 -16t-14 -41q0 -23 14 -39t38 -16t38 16t16 38q0 22 -15 40t-39 18zM924 606h-47v195h36l68 -105l70 105h34v-195h-47v99l-45 -68h-24l-45 68v-99zM838 801v-41h-99v-37h86v-41h-86v-35
h99v-41h-146v195h146zM479 801h78q45 0 75 -28t30 -70q0 -41 -30 -69t-75 -28h-78v195zM1222 803q44 0 74 -29t29 -71q1 -41 -29 -71t-74 -30t-74 30t-30 72t30 70q30 29 74 29zM348 143h983l-360 351h233l230 -224v979h-983l364 -354h-233l-234 227v-979zM1577 1393v-1393
h-1372v1393h1372z" />
    <glyph glyph-name="ygrave.ss04" 
d="M528 647h29q25 1 40 17t15 38t-15 39q-15 16 -40 17h-29v-111zM1220 760q-24 0 -38 -16t-14 -41q0 -23 14 -39t38 -16t38 16t16 38q0 22 -15 40t-39 18zM924 606h-47v195h36l68 -105l70 105h34v-195h-47v99l-45 -68h-24l-45 68v-99zM838 801v-41h-99v-37h86v-41h-86v-35
h99v-41h-146v195h146zM479 801h78q45 0 75 -28t30 -70q0 -41 -30 -69t-75 -28h-78v195zM1222 803q44 0 74 -29t29 -71q1 -41 -29 -71t-74 -30t-74 30t-30 72t30 70q30 29 74 29zM348 143h983l-360 351h233l230 -224v979h-983l364 -354h-233l-234 227v-979zM1577 1393v-1393
h-1372v1393h1372z" />
    <glyph glyph-name="a.ss06" horiz-adv-x="1136" 
d="M369 326q0 -93 164 -93q91 0 192 62v104h-252q-104 0 -104 -73zM578 1024q204 0 330 -116t126 -314v-594h-309v43q-127 -61 -289 -61t-270 85q-109 85 -109 229q-1 144 105 221t293 77h270q0 74 -40 122q-41 48 -111 48t-112 -31t-50 -84h-316q8 183 143 279t339 96z" />
    <glyph glyph-name="aacute.ss06" 
d="M528 647h29q25 1 40 17t15 38t-15 39q-15 16 -40 17h-29v-111zM1220 760q-24 0 -38 -16t-14 -41q0 -23 14 -39t38 -16t38 16t16 38q0 22 -15 40t-39 18zM924 606h-47v195h36l68 -105l70 105h34v-195h-47v99l-45 -68h-24l-45 68v-99zM838 801v-41h-99v-37h86v-41h-86v-35
h99v-41h-146v195h146zM479 801h78q45 0 75 -28t30 -70q0 -41 -30 -69t-75 -28h-78v195zM1222 803q44 0 74 -29t29 -71q1 -41 -29 -71t-74 -30t-74 30t-30 72t30 70q30 29 74 29zM348 143h983l-360 351h233l230 -224v979h-983l364 -354h-233l-234 227v-979zM1577 1393v-1393
h-1372v1393h1372z" />
    <glyph glyph-name="abreve.ss06" 
d="M528 647h29q25 1 40 17t15 38t-15 39q-15 16 -40 17h-29v-111zM1220 760q-24 0 -38 -16t-14 -41q0 -23 14 -39t38 -16t38 16t16 38q0 22 -15 40t-39 18zM924 606h-47v195h36l68 -105l70 105h34v-195h-47v99l-45 -68h-24l-45 68v-99zM838 801v-41h-99v-37h86v-41h-86v-35
h99v-41h-146v195h146zM479 801h78q45 0 75 -28t30 -70q0 -41 -30 -69t-75 -28h-78v195zM1222 803q44 0 74 -29t29 -71q1 -41 -29 -71t-74 -30t-74 30t-30 72t30 70q30 29 74 29zM348 143h983l-360 351h233l230 -224v979h-983l364 -354h-233l-234 227v-979zM1577 1393v-1393
h-1372v1393h1372z" />
    <glyph glyph-name="acaron.ss06" 
d="M528 647h29q25 1 40 17t15 38t-15 39q-15 16 -40 17h-29v-111zM1220 760q-24 0 -38 -16t-14 -41q0 -23 14 -39t38 -16t38 16t16 38q0 22 -15 40t-39 18zM924 606h-47v195h36l68 -105l70 105h34v-195h-47v99l-45 -68h-24l-45 68v-99zM838 801v-41h-99v-37h86v-41h-86v-35
h99v-41h-146v195h146zM479 801h78q45 0 75 -28t30 -70q0 -41 -30 -69t-75 -28h-78v195zM1222 803q44 0 74 -29t29 -71q1 -41 -29 -71t-74 -30t-74 30t-30 72t30 70q30 29 74 29zM348 143h983l-360 351h233l230 -224v979h-983l364 -354h-233l-234 227v-979zM1577 1393v-1393
h-1372v1393h1372z" />
    <glyph glyph-name="acircumflex.ss06" 
d="M528 647h29q25 1 40 17t15 38t-15 39q-15 16 -40 17h-29v-111zM1220 760q-24 0 -38 -16t-14 -41q0 -23 14 -39t38 -16t38 16t16 38q0 22 -15 40t-39 18zM924 606h-47v195h36l68 -105l70 105h34v-195h-47v99l-45 -68h-24l-45 68v-99zM838 801v-41h-99v-37h86v-41h-86v-35
h99v-41h-146v195h146zM479 801h78q45 0 75 -28t30 -70q0 -41 -30 -69t-75 -28h-78v195zM1222 803q44 0 74 -29t29 -71q1 -41 -29 -71t-74 -30t-74 30t-30 72t30 70q30 29 74 29zM348 143h983l-360 351h233l230 -224v979h-983l364 -354h-233l-234 227v-979zM1577 1393v-1393
h-1372v1393h1372z" />
    <glyph glyph-name="adieresis.ss06" horiz-adv-x="1136" 
d="M369 326q0 -93 164 -93q91 0 192 62v104h-252q-104 0 -104 -73zM578 1024q204 0 330 -116t126 -314v-594h-309v43q-127 -61 -289 -61t-270 85q-109 85 -109 229q-1 144 105 221t293 77h270q0 74 -40 122q-41 48 -111 48t-112 -31t-50 -84h-316q8 183 143 279t339 96z
M809 1126q-78 0 -133 52t-55 129q0 76 55 128t133 52t132 -52t54 -128q0 -77 -54 -129t-132 -52zM340 1126q-78 0 -133 52t-55 129q0 76 55 128t133 52t132 -52t54 -128q0 -77 -54 -129t-132 -52z" />
    <glyph glyph-name="agrave.ss06" 
d="M528 647h29q25 1 40 17t15 38t-15 39q-15 16 -40 17h-29v-111zM1220 760q-24 0 -38 -16t-14 -41q0 -23 14 -39t38 -16t38 16t16 38q0 22 -15 40t-39 18zM924 606h-47v195h36l68 -105l70 105h34v-195h-47v99l-45 -68h-24l-45 68v-99zM838 801v-41h-99v-37h86v-41h-86v-35
h99v-41h-146v195h146zM479 801h78q45 0 75 -28t30 -70q0 -41 -30 -69t-75 -28h-78v195zM1222 803q44 0 74 -29t29 -71q1 -41 -29 -71t-74 -30t-74 30t-30 72t30 70q30 29 74 29zM348 143h983l-360 351h233l230 -224v979h-983l364 -354h-233l-234 227v-979zM1577 1393v-1393
h-1372v1393h1372z" />
    <glyph glyph-name="amacron.ss06" 
d="M528 647h29q25 1 40 17t15 38t-15 39q-15 16 -40 17h-29v-111zM1220 760q-24 0 -38 -16t-14 -41q0 -23 14 -39t38 -16t38 16t16 38q0 22 -15 40t-39 18zM924 606h-47v195h36l68 -105l70 105h34v-195h-47v99l-45 -68h-24l-45 68v-99zM838 801v-41h-99v-37h86v-41h-86v-35
h99v-41h-146v195h146zM479 801h78q45 0 75 -28t30 -70q0 -41 -30 -69t-75 -28h-78v195zM1222 803q44 0 74 -29t29 -71q1 -41 -29 -71t-74 -30t-74 30t-30 72t30 70q30 29 74 29zM348 143h983l-360 351h233l230 -224v979h-983l364 -354h-233l-234 227v-979zM1577 1393v-1393
h-1372v1393h1372z" />
    <glyph glyph-name="aogonek.ss06" 
d="M528 647h29q25 1 40 17t15 38t-15 39q-15 16 -40 17h-29v-111zM1220 760q-24 0 -38 -16t-14 -41q0 -23 14 -39t38 -16t38 16t16 38q0 22 -15 40t-39 18zM924 606h-47v195h36l68 -105l70 105h34v-195h-47v99l-45 -68h-24l-45 68v-99zM838 801v-41h-99v-37h86v-41h-86v-35
h99v-41h-146v195h146zM479 801h78q45 0 75 -28t30 -70q0 -41 -30 -69t-75 -28h-78v195zM1222 803q44 0 74 -29t29 -71q1 -41 -29 -71t-74 -30t-74 30t-30 72t30 70q30 29 74 29zM348 143h983l-360 351h233l230 -224v979h-983l364 -354h-233l-234 227v-979zM1577 1393v-1393
h-1372v1393h1372z" />
    <glyph glyph-name="aring.ss06" 
d="M528 647h29q25 1 40 17t15 38t-15 39q-15 16 -40 17h-29v-111zM1220 760q-24 0 -38 -16t-14 -41q0 -23 14 -39t38 -16t38 16t16 38q0 22 -15 40t-39 18zM924 606h-47v195h36l68 -105l70 105h34v-195h-47v99l-45 -68h-24l-45 68v-99zM838 801v-41h-99v-37h86v-41h-86v-35
h99v-41h-146v195h146zM479 801h78q45 0 75 -28t30 -70q0 -41 -30 -69t-75 -28h-78v195zM1222 803q44 0 74 -29t29 -71q1 -41 -29 -71t-74 -30t-74 30t-30 72t30 70q30 29 74 29zM348 143h983l-360 351h233l230 -224v979h-983l364 -354h-233l-234 227v-979zM1577 1393v-1393
h-1372v1393h1372z" />
    <glyph glyph-name="atilde.ss06" 
d="M528 647h29q25 1 40 17t15 38t-15 39q-15 16 -40 17h-29v-111zM1220 760q-24 0 -38 -16t-14 -41q0 -23 14 -39t38 -16t38 16t16 38q0 22 -15 40t-39 18zM924 606h-47v195h36l68 -105l70 105h34v-195h-47v99l-45 -68h-24l-45 68v-99zM838 801v-41h-99v-37h86v-41h-86v-35
h99v-41h-146v195h146zM479 801h78q45 0 75 -28t30 -70q0 -41 -30 -69t-75 -28h-78v195zM1222 803q44 0 74 -29t29 -71q1 -41 -29 -71t-74 -30t-74 30t-30 72t30 70q30 29 74 29zM348 143h983l-360 351h233l230 -224v979h-983l364 -354h-233l-234 227v-979zM1577 1393v-1393
h-1372v1393h1372z" />
    <glyph glyph-name="zero.osf" 
d="M528 647h29q25 1 40 17t15 38t-15 39q-15 16 -40 17h-29v-111zM1220 760q-24 0 -38 -16t-14 -41q0 -23 14 -39t38 -16t38 16t16 38q0 22 -15 40t-39 18zM924 606h-47v195h36l68 -105l70 105h34v-195h-47v99l-45 -68h-24l-45 68v-99zM838 801v-41h-99v-37h86v-41h-86v-35
h99v-41h-146v195h146zM479 801h78q45 0 75 -28t30 -70q0 -41 -30 -69t-75 -28h-78v195zM1222 803q44 0 74 -29t29 -71q1 -41 -29 -71t-74 -30t-74 30t-30 72t30 70q30 29 74 29zM348 143h983l-360 351h233l230 -224v979h-983l364 -354h-233l-234 227v-979zM1577 1393v-1393
h-1372v1393h1372z" />
    <glyph glyph-name="one.osf" 
d="M528 647h29q25 1 40 17t15 38t-15 39q-15 16 -40 17h-29v-111zM1220 760q-24 0 -38 -16t-14 -41q0 -23 14 -39t38 -16t38 16t16 38q0 22 -15 40t-39 18zM924 606h-47v195h36l68 -105l70 105h34v-195h-47v99l-45 -68h-24l-45 68v-99zM838 801v-41h-99v-37h86v-41h-86v-35
h99v-41h-146v195h146zM479 801h78q45 0 75 -28t30 -70q0 -41 -30 -69t-75 -28h-78v195zM1222 803q44 0 74 -29t29 -71q1 -41 -29 -71t-74 -30t-74 30t-30 72t30 70q30 29 74 29zM348 143h983l-360 351h233l230 -224v979h-983l364 -354h-233l-234 227v-979zM1577 1393v-1393
h-1372v1393h1372z" />
    <glyph glyph-name="two.osf" 
d="M528 647h29q25 1 40 17t15 38t-15 39q-15 16 -40 17h-29v-111zM1220 760q-24 0 -38 -16t-14 -41q0 -23 14 -39t38 -16t38 16t16 38q0 22 -15 40t-39 18zM924 606h-47v195h36l68 -105l70 105h34v-195h-47v99l-45 -68h-24l-45 68v-99zM838 801v-41h-99v-37h86v-41h-86v-35
h99v-41h-146v195h146zM479 801h78q45 0 75 -28t30 -70q0 -41 -30 -69t-75 -28h-78v195zM1222 803q44 0 74 -29t29 -71q1 -41 -29 -71t-74 -30t-74 30t-30 72t30 70q30 29 74 29zM348 143h983l-360 351h233l230 -224v979h-983l364 -354h-233l-234 227v-979zM1577 1393v-1393
h-1372v1393h1372z" />
    <glyph glyph-name="three.osf" 
d="M528 647h29q25 1 40 17t15 38t-15 39q-15 16 -40 17h-29v-111zM1220 760q-24 0 -38 -16t-14 -41q0 -23 14 -39t38 -16t38 16t16 38q0 22 -15 40t-39 18zM924 606h-47v195h36l68 -105l70 105h34v-195h-47v99l-45 -68h-24l-45 68v-99zM838 801v-41h-99v-37h86v-41h-86v-35
h99v-41h-146v195h146zM479 801h78q45 0 75 -28t30 -70q0 -41 -30 -69t-75 -28h-78v195zM1222 803q44 0 74 -29t29 -71q1 -41 -29 -71t-74 -30t-74 30t-30 72t30 70q30 29 74 29zM348 143h983l-360 351h233l230 -224v979h-983l364 -354h-233l-234 227v-979zM1577 1393v-1393
h-1372v1393h1372z" />
    <glyph glyph-name="four.osf" 
d="M528 647h29q25 1 40 17t15 38t-15 39q-15 16 -40 17h-29v-111zM1220 760q-24 0 -38 -16t-14 -41q0 -23 14 -39t38 -16t38 16t16 38q0 22 -15 40t-39 18zM924 606h-47v195h36l68 -105l70 105h34v-195h-47v99l-45 -68h-24l-45 68v-99zM838 801v-41h-99v-37h86v-41h-86v-35
h99v-41h-146v195h146zM479 801h78q45 0 75 -28t30 -70q0 -41 -30 -69t-75 -28h-78v195zM1222 803q44 0 74 -29t29 -71q1 -41 -29 -71t-74 -30t-74 30t-30 72t30 70q30 29 74 29zM348 143h983l-360 351h233l230 -224v979h-983l364 -354h-233l-234 227v-979zM1577 1393v-1393
h-1372v1393h1372z" />
    <glyph glyph-name="five.osf" 
d="M528 647h29q25 1 40 17t15 38t-15 39q-15 16 -40 17h-29v-111zM1220 760q-24 0 -38 -16t-14 -41q0 -23 14 -39t38 -16t38 16t16 38q0 22 -15 40t-39 18zM924 606h-47v195h36l68 -105l70 105h34v-195h-47v99l-45 -68h-24l-45 68v-99zM838 801v-41h-99v-37h86v-41h-86v-35
h99v-41h-146v195h146zM479 801h78q45 0 75 -28t30 -70q0 -41 -30 -69t-75 -28h-78v195zM1222 803q44 0 74 -29t29 -71q1 -41 -29 -71t-74 -30t-74 30t-30 72t30 70q30 29 74 29zM348 143h983l-360 351h233l230 -224v979h-983l364 -354h-233l-234 227v-979zM1577 1393v-1393
h-1372v1393h1372z" />
    <glyph glyph-name="six.osf" 
d="M528 647h29q25 1 40 17t15 38t-15 39q-15 16 -40 17h-29v-111zM1220 760q-24 0 -38 -16t-14 -41q0 -23 14 -39t38 -16t38 16t16 38q0 22 -15 40t-39 18zM924 606h-47v195h36l68 -105l70 105h34v-195h-47v99l-45 -68h-24l-45 68v-99zM838 801v-41h-99v-37h86v-41h-86v-35
h99v-41h-146v195h146zM479 801h78q45 0 75 -28t30 -70q0 -41 -30 -69t-75 -28h-78v195zM1222 803q44 0 74 -29t29 -71q1 -41 -29 -71t-74 -30t-74 30t-30 72t30 70q30 29 74 29zM348 143h983l-360 351h233l230 -224v979h-983l364 -354h-233l-234 227v-979zM1577 1393v-1393
h-1372v1393h1372z" />
    <glyph glyph-name="seven.osf" 
d="M528 647h29q25 1 40 17t15 38t-15 39q-15 16 -40 17h-29v-111zM1220 760q-24 0 -38 -16t-14 -41q0 -23 14 -39t38 -16t38 16t16 38q0 22 -15 40t-39 18zM924 606h-47v195h36l68 -105l70 105h34v-195h-47v99l-45 -68h-24l-45 68v-99zM838 801v-41h-99v-37h86v-41h-86v-35
h99v-41h-146v195h146zM479 801h78q45 0 75 -28t30 -70q0 -41 -30 -69t-75 -28h-78v195zM1222 803q44 0 74 -29t29 -71q1 -41 -29 -71t-74 -30t-74 30t-30 72t30 70q30 29 74 29zM348 143h983l-360 351h233l230 -224v979h-983l364 -354h-233l-234 227v-979zM1577 1393v-1393
h-1372v1393h1372z" />
    <glyph glyph-name="eight.osf" 
d="M528 647h29q25 1 40 17t15 38t-15 39q-15 16 -40 17h-29v-111zM1220 760q-24 0 -38 -16t-14 -41q0 -23 14 -39t38 -16t38 16t16 38q0 22 -15 40t-39 18zM924 606h-47v195h36l68 -105l70 105h34v-195h-47v99l-45 -68h-24l-45 68v-99zM838 801v-41h-99v-37h86v-41h-86v-35
h99v-41h-146v195h146zM479 801h78q45 0 75 -28t30 -70q0 -41 -30 -69t-75 -28h-78v195zM1222 803q44 0 74 -29t29 -71q1 -41 -29 -71t-74 -30t-74 30t-30 72t30 70q30 29 74 29zM348 143h983l-360 351h233l230 -224v979h-983l364 -354h-233l-234 227v-979zM1577 1393v-1393
h-1372v1393h1372z" />
    <glyph glyph-name="nine.osf" 
d="M528 647h29q25 1 40 17t15 38t-15 39q-15 16 -40 17h-29v-111zM1220 760q-24 0 -38 -16t-14 -41q0 -23 14 -39t38 -16t38 16t16 38q0 22 -15 40t-39 18zM924 606h-47v195h36l68 -105l70 105h34v-195h-47v99l-45 -68h-24l-45 68v-99zM838 801v-41h-99v-37h86v-41h-86v-35
h99v-41h-146v195h146zM479 801h78q45 0 75 -28t30 -70q0 -41 -30 -69t-75 -28h-78v195zM1222 803q44 0 74 -29t29 -71q1 -41 -29 -71t-74 -30t-74 30t-30 72t30 70q30 29 74 29zM348 143h983l-360 351h233l230 -224v979h-983l364 -354h-233l-234 227v-979zM1577 1393v-1393
h-1372v1393h1372z" />
    <glyph glyph-name="zero.tf" 
d="M528 647h29q25 1 40 17t15 38t-15 39q-15 16 -40 17h-29v-111zM1220 760q-24 0 -38 -16t-14 -41q0 -23 14 -39t38 -16t38 16t16 38q0 22 -15 40t-39 18zM924 606h-47v195h36l68 -105l70 105h34v-195h-47v99l-45 -68h-24l-45 68v-99zM838 801v-41h-99v-37h86v-41h-86v-35
h99v-41h-146v195h146zM479 801h78q45 0 75 -28t30 -70q0 -41 -30 -69t-75 -28h-78v195zM1222 803q44 0 74 -29t29 -71q1 -41 -29 -71t-74 -30t-74 30t-30 72t30 70q30 29 74 29zM348 143h983l-360 351h233l230 -224v979h-983l364 -354h-233l-234 227v-979zM1577 1393v-1393
h-1372v1393h1372z" />
    <glyph glyph-name="one.tf" 
d="M528 647h29q25 1 40 17t15 38t-15 39q-15 16 -40 17h-29v-111zM1220 760q-24 0 -38 -16t-14 -41q0 -23 14 -39t38 -16t38 16t16 38q0 22 -15 40t-39 18zM924 606h-47v195h36l68 -105l70 105h34v-195h-47v99l-45 -68h-24l-45 68v-99zM838 801v-41h-99v-37h86v-41h-86v-35
h99v-41h-146v195h146zM479 801h78q45 0 75 -28t30 -70q0 -41 -30 -69t-75 -28h-78v195zM1222 803q44 0 74 -29t29 -71q1 -41 -29 -71t-74 -30t-74 30t-30 72t30 70q30 29 74 29zM348 143h983l-360 351h233l230 -224v979h-983l364 -354h-233l-234 227v-979zM1577 1393v-1393
h-1372v1393h1372z" />
    <glyph glyph-name="two.tf" 
d="M528 647h29q25 1 40 17t15 38t-15 39q-15 16 -40 17h-29v-111zM1220 760q-24 0 -38 -16t-14 -41q0 -23 14 -39t38 -16t38 16t16 38q0 22 -15 40t-39 18zM924 606h-47v195h36l68 -105l70 105h34v-195h-47v99l-45 -68h-24l-45 68v-99zM838 801v-41h-99v-37h86v-41h-86v-35
h99v-41h-146v195h146zM479 801h78q45 0 75 -28t30 -70q0 -41 -30 -69t-75 -28h-78v195zM1222 803q44 0 74 -29t29 -71q1 -41 -29 -71t-74 -30t-74 30t-30 72t30 70q30 29 74 29zM348 143h983l-360 351h233l230 -224v979h-983l364 -354h-233l-234 227v-979zM1577 1393v-1393
h-1372v1393h1372z" />
    <glyph glyph-name="three.tf" 
d="M528 647h29q25 1 40 17t15 38t-15 39q-15 16 -40 17h-29v-111zM1220 760q-24 0 -38 -16t-14 -41q0 -23 14 -39t38 -16t38 16t16 38q0 22 -15 40t-39 18zM924 606h-47v195h36l68 -105l70 105h34v-195h-47v99l-45 -68h-24l-45 68v-99zM838 801v-41h-99v-37h86v-41h-86v-35
h99v-41h-146v195h146zM479 801h78q45 0 75 -28t30 -70q0 -41 -30 -69t-75 -28h-78v195zM1222 803q44 0 74 -29t29 -71q1 -41 -29 -71t-74 -30t-74 30t-30 72t30 70q30 29 74 29zM348 143h983l-360 351h233l230 -224v979h-983l364 -354h-233l-234 227v-979zM1577 1393v-1393
h-1372v1393h1372z" />
    <glyph glyph-name="four.tf" 
d="M528 647h29q25 1 40 17t15 38t-15 39q-15 16 -40 17h-29v-111zM1220 760q-24 0 -38 -16t-14 -41q0 -23 14 -39t38 -16t38 16t16 38q0 22 -15 40t-39 18zM924 606h-47v195h36l68 -105l70 105h34v-195h-47v99l-45 -68h-24l-45 68v-99zM838 801v-41h-99v-37h86v-41h-86v-35
h99v-41h-146v195h146zM479 801h78q45 0 75 -28t30 -70q0 -41 -30 -69t-75 -28h-78v195zM1222 803q44 0 74 -29t29 -71q1 -41 -29 -71t-74 -30t-74 30t-30 72t30 70q30 29 74 29zM348 143h983l-360 351h233l230 -224v979h-983l364 -354h-233l-234 227v-979zM1577 1393v-1393
h-1372v1393h1372z" />
    <glyph glyph-name="five.tf" 
d="M528 647h29q25 1 40 17t15 38t-15 39q-15 16 -40 17h-29v-111zM1220 760q-24 0 -38 -16t-14 -41q0 -23 14 -39t38 -16t38 16t16 38q0 22 -15 40t-39 18zM924 606h-47v195h36l68 -105l70 105h34v-195h-47v99l-45 -68h-24l-45 68v-99zM838 801v-41h-99v-37h86v-41h-86v-35
h99v-41h-146v195h146zM479 801h78q45 0 75 -28t30 -70q0 -41 -30 -69t-75 -28h-78v195zM1222 803q44 0 74 -29t29 -71q1 -41 -29 -71t-74 -30t-74 30t-30 72t30 70q30 29 74 29zM348 143h983l-360 351h233l230 -224v979h-983l364 -354h-233l-234 227v-979zM1577 1393v-1393
h-1372v1393h1372z" />
    <glyph glyph-name="six.tf" 
d="M528 647h29q25 1 40 17t15 38t-15 39q-15 16 -40 17h-29v-111zM1220 760q-24 0 -38 -16t-14 -41q0 -23 14 -39t38 -16t38 16t16 38q0 22 -15 40t-39 18zM924 606h-47v195h36l68 -105l70 105h34v-195h-47v99l-45 -68h-24l-45 68v-99zM838 801v-41h-99v-37h86v-41h-86v-35
h99v-41h-146v195h146zM479 801h78q45 0 75 -28t30 -70q0 -41 -30 -69t-75 -28h-78v195zM1222 803q44 0 74 -29t29 -71q1 -41 -29 -71t-74 -30t-74 30t-30 72t30 70q30 29 74 29zM348 143h983l-360 351h233l230 -224v979h-983l364 -354h-233l-234 227v-979zM1577 1393v-1393
h-1372v1393h1372z" />
    <glyph glyph-name="seven.tf" 
d="M528 647h29q25 1 40 17t15 38t-15 39q-15 16 -40 17h-29v-111zM1220 760q-24 0 -38 -16t-14 -41q0 -23 14 -39t38 -16t38 16t16 38q0 22 -15 40t-39 18zM924 606h-47v195h36l68 -105l70 105h34v-195h-47v99l-45 -68h-24l-45 68v-99zM838 801v-41h-99v-37h86v-41h-86v-35
h99v-41h-146v195h146zM479 801h78q45 0 75 -28t30 -70q0 -41 -30 -69t-75 -28h-78v195zM1222 803q44 0 74 -29t29 -71q1 -41 -29 -71t-74 -30t-74 30t-30 72t30 70q30 29 74 29zM348 143h983l-360 351h233l230 -224v979h-983l364 -354h-233l-234 227v-979zM1577 1393v-1393
h-1372v1393h1372z" />
    <glyph glyph-name="eight.tf" 
d="M528 647h29q25 1 40 17t15 38t-15 39q-15 16 -40 17h-29v-111zM1220 760q-24 0 -38 -16t-14 -41q0 -23 14 -39t38 -16t38 16t16 38q0 22 -15 40t-39 18zM924 606h-47v195h36l68 -105l70 105h34v-195h-47v99l-45 -68h-24l-45 68v-99zM838 801v-41h-99v-37h86v-41h-86v-35
h99v-41h-146v195h146zM479 801h78q45 0 75 -28t30 -70q0 -41 -30 -69t-75 -28h-78v195zM1222 803q44 0 74 -29t29 -71q1 -41 -29 -71t-74 -30t-74 30t-30 72t30 70q30 29 74 29zM348 143h983l-360 351h233l230 -224v979h-983l364 -354h-233l-234 227v-979zM1577 1393v-1393
h-1372v1393h1372z" />
    <glyph glyph-name="nine.tf" 
d="M528 647h29q25 1 40 17t15 38t-15 39q-15 16 -40 17h-29v-111zM1220 760q-24 0 -38 -16t-14 -41q0 -23 14 -39t38 -16t38 16t16 38q0 22 -15 40t-39 18zM924 606h-47v195h36l68 -105l70 105h34v-195h-47v99l-45 -68h-24l-45 68v-99zM838 801v-41h-99v-37h86v-41h-86v-35
h99v-41h-146v195h146zM479 801h78q45 0 75 -28t30 -70q0 -41 -30 -69t-75 -28h-78v195zM1222 803q44 0 74 -29t29 -71q1 -41 -29 -71t-74 -30t-74 30t-30 72t30 70q30 29 74 29zM348 143h983l-360 351h233l230 -224v979h-983l364 -354h-233l-234 227v-979zM1577 1393v-1393
h-1372v1393h1372z" />
    <glyph glyph-name="zero.zero" 
d="M528 647h29q25 1 40 17t15 38t-15 39q-15 16 -40 17h-29v-111zM1220 760q-24 0 -38 -16t-14 -41q0 -23 14 -39t38 -16t38 16t16 38q0 22 -15 40t-39 18zM924 606h-47v195h36l68 -105l70 105h34v-195h-47v99l-45 -68h-24l-45 68v-99zM838 801v-41h-99v-37h86v-41h-86v-35
h99v-41h-146v195h146zM479 801h78q45 0 75 -28t30 -70q0 -41 -30 -69t-75 -28h-78v195zM1222 803q44 0 74 -29t29 -71q1 -41 -29 -71t-74 -30t-74 30t-30 72t30 70q30 29 74 29zM348 143h983l-360 351h233l230 -224v979h-983l364 -354h-233l-234 227v-979zM1577 1393v-1393
h-1372v1393h1372z" />
    <glyph glyph-name="zero.osf.zero" 
d="M528 647h29q25 1 40 17t15 38t-15 39q-15 16 -40 17h-29v-111zM1220 760q-24 0 -38 -16t-14 -41q0 -23 14 -39t38 -16t38 16t16 38q0 22 -15 40t-39 18zM924 606h-47v195h36l68 -105l70 105h34v-195h-47v99l-45 -68h-24l-45 68v-99zM838 801v-41h-99v-37h86v-41h-86v-35
h99v-41h-146v195h146zM479 801h78q45 0 75 -28t30 -70q0 -41 -30 -69t-75 -28h-78v195zM1222 803q44 0 74 -29t29 -71q1 -41 -29 -71t-74 -30t-74 30t-30 72t30 70q30 29 74 29zM348 143h983l-360 351h233l230 -224v979h-983l364 -354h-233l-234 227v-979zM1577 1393v-1393
h-1372v1393h1372z" />
    </font>
</defs>
</svg>
