<?xml version="1.0" standalone="no"?>
<!DOCTYPE svg PUBLIC "-//W3C//DTD SVG 1.1//EN" "http://www.w3.org/Graphics/SVG/1.1/DTD/svg11.dtd" >
<svg xmlns="http://www.w3.org/2000/svg">
<metadata></metadata>
<defs>
<font id="YRFlauntBook" horiz-adv-x="1740" >
<font-face units-per-em="2048" ascent="1638" descent="-410" />
<missing-glyph horiz-adv-x="614" />
<glyph unicode="&#xfb01;" horiz-adv-x="1361" d="M37 -195q37 -6 78 -6q56 0 88.5 35.5t32.5 106.5v979h-146v137h146v438h786v-139h-631v-301h709v-799q0 -71 33 -106t90 -35q39 0 77 6v-129q-44 -10 -98 -10q-123 0 -190.5 68t-67.5 204v666h-551v-981q0 -136 -67.5 -204.5t-190.5 -68.5q-54 0 -98 10v129z" />
<glyph unicode="&#xfb02;" horiz-adv-x="1361" d="M37 -195q37 -6 78 -6q56 0 88.5 35.5t32.5 106.5v979h-146v137h146v438h864v-1239q0 -71 33 -106t90 -35q39 0 77 6v-129q-44 -10 -98 -10q-123 0 -190.5 68t-67.5 204v1102h-553v-301h336v-135h-334v-981q0 -136 -67.5 -204.5t-190.5 -68.5q-54 0 -98 10v129z" />
<glyph unicode="&#xfb03;" horiz-adv-x="2115" d="M37 -195q37 -6 78 -6q56 0 88.5 35.5t32.5 106.5v979h-146v137h146v438h493v-139h-338v-301h598v440h785v-139h-629v-301h708v-799q0 -71 32.5 -106t88.5 -35q40 0 78 6v-129q-44 -10 -98 -10q-123 0 -190.5 68t-67.5 204v666h-551v-981q0 -137 -66.5 -205t-189.5 -68 q-54 0 -98 10v129q37 -6 77 -6q56 0 88.5 35.5t32.5 106.5v979h-596v-981q0 -136 -67.5 -204.5t-190.5 -68.5q-54 0 -98 10v129z" />
<glyph unicode="&#xfb04;" horiz-adv-x="2115" d="M37 -195q37 -6 78 -6q56 0 88.5 35.5t32.5 106.5v979h-146v137h146v438h493v-139h-338v-301h598v440h864v-1239q0 -71 32.5 -106t88.5 -35q40 0 78 6v-129q-44 -10 -98 -10q-123 0 -190.5 68t-67.5 204v1102h-551v-301h334v-135h-334v-981q0 -137 -66.5 -205t-189.5 -68 q-54 0 -98 10v129q37 -6 77 -6q56 0 88.5 35.5t32.5 106.5v979h-596v-981q0 -136 -67.5 -204.5t-190.5 -68.5q-54 0 -98 10v129z" />
<glyph horiz-adv-x="0" />
<glyph horiz-adv-x="2048" />
<glyph unicode=" "  horiz-adv-x="614" />
<glyph unicode="&#x09;" horiz-adv-x="614" />
<glyph unicode="&#xa0;" horiz-adv-x="614" />
<glyph unicode="!" horiz-adv-x="555" d="M184 0v215h189v-215h-189zM186 1317v117h185v-117l-49 -911h-89z" />
<glyph unicode="&#x22;" horiz-adv-x="901" d="M133 877l62 557h190v-11l-166 -546h-86zM532 877l64 557h188v-11l-166 -546h-86z" />
<glyph unicode="#" horiz-adv-x="1433" d="M92 362v142h248l76 434h-244v141h266l62 355h143l-59 -355h389l61 355h144l-60 -355h221v-141h-245l-76 -434h242v-142h-265l-63 -362h-144l62 362h-389l-64 -362h-143l61 362h-223zM485 504h389l74 434h-389z" />
<glyph unicode="$" horiz-adv-x="1302" d="M115 215l92 123q97 -87 191.5 -135t205.5 -60v512q-230 55 -333 147.5t-103 250.5v4q0 158 120.5 263t309.5 114v118h131v-122q203 -18 391 -164l-88 -123q-139 119 -309 147v-504q233 -54 337.5 -148t104.5 -249v-4q0 -163 -120.5 -268t-315.5 -117v-201h-131v205 q-265 23 -483 211zM326 1063q0 -61 22 -103.5t84 -79.5t172 -65v481q-127 -4 -202.5 -68.5t-75.5 -160.5v-4zM723 137q130 6 207.5 71.5t77.5 166.5v4q0 95 -60.5 151.5t-224.5 96.5v-490z" />
<glyph unicode="%" horiz-adv-x="1708" d="M106 1079v4q0 151 92 259t236 108q141 0 231.5 -107t90.5 -256v-4q0 -98 -40 -181t-115.5 -134t-170.5 -51q-142 0 -233 106.5t-91 255.5zM244 1083q0 -107 55 -179.5t135 -72.5q82 0 134.5 71.5t52.5 176.5v4q0 106 -56 179t-135 73q-83 0 -134.5 -72t-51.5 -176v-4z M254 0l1053 1434h145l-1051 -1434h-147zM952 346v4q0 98 40 181.5t115.5 134.5t170.5 51q142 0 231.5 -106.5t89.5 -256.5v-4q0 -151 -90.5 -258.5t-234.5 -107.5q-141 0 -231.5 106.5t-90.5 255.5zM1087 350q0 -107 55.5 -179.5t135.5 -72.5q83 0 134.5 71.5t51.5 176.5v4 q0 107 -55 179.5t-135 72.5q-82 0 -134.5 -72.5t-52.5 -175.5v-4z" />
<glyph unicode="&#x26;" horiz-adv-x="1425" d="M92 381v4q0 140 89.5 244t256.5 168q67 26 133 45l-454 592h979v-146h-674l625 -813q78 128 137 268l133 -61q-94 -208 -180 -326l223 -290l-121 -95l-201 260q-84 -112 -217.5 -181.5t-277.5 -69.5q-196 0 -323.5 111.5t-127.5 289.5zM256 387q0 -116 84 -193t215 -77 q60 0 115.5 17.5t106.5 53.5t88 70t87 86l-305 399q-107 -42 -117 -45q-137 -49 -205.5 -130.5t-68.5 -176.5v-4z" />
<glyph unicode="'" horiz-adv-x="501" d="M133 877l62 557h192v-11l-166 -546h-88z" />
<glyph unicode="(" horiz-adv-x="888" d="M139 588q0 279 145.5 499.5t422.5 376.5l67 -104q-237 -152 -356 -341t-119 -431t119 -431t356 -341l-67 -105q-277 156 -422.5 377t-145.5 500z" />
<glyph unicode=")" horiz-adv-x="888" d="M115 -184q237 152 356 341t119 431t-119 431t-356 341l67 104q277 -156 422.5 -376.5t145.5 -499.5t-145.5 -500t-422.5 -377z" />
<glyph unicode="*" horiz-adv-x="880" d="M141 1016l238 108l-238 111l56 94l211 -147l-21 256h107l-21 -256l211 147l55 -94l-237 -111l237 -108l-55 -96l-211 149l21 -256h-107l21 256l-211 -149z" />
<glyph unicode="+" horiz-adv-x="1310" d="M154 647v148h426v422h151v-422h426v-148h-426v-422h-151v422h-426z" />
<glyph unicode="," horiz-adv-x="501" d="M94 -178q77 28 110 70t27 108h-73v215h188v-184q0 -123 -54 -188.5t-173 -92.5z" />
<glyph unicode="-" horiz-adv-x="835" d="M133 532v166h569v-166h-569z" />
<glyph unicode="." horiz-adv-x="501" d="M158 0v215h188v-215h-188z" />
<glyph unicode="/" horiz-adv-x="1040" d="M-43 -262l950 1896h146l-951 -1896h-145z" />
<glyph unicode="0" horiz-adv-x="1464" d="M127 713v4q0 201 74 369t214.5 270t319.5 102t318 -101t211.5 -268t72.5 -368v-4q0 -201 -73.5 -369.5t-213.5 -270.5t-319 -102q-136 0 -250.5 59t-191 159.5t-119.5 235t-43 284.5zM295 717q0 -117 31.5 -224.5t87.5 -189.5t139.5 -131t181.5 -49t180.5 48t137.5 129.5 t85.5 188.5t30.5 224v4q0 158 -53 292.5t-154.5 218t-230.5 83.5q-98 0 -181 -48t-138 -129t-86 -188t-31 -225v-4z" />
<glyph unicode="1" horiz-adv-x="733" d="M57 1323l469 160v-1483h-159v1274l-265 -90z" />
<glyph unicode="2" horiz-adv-x="1226" d="M49 0l690 696q97 99 138 175.5t41 162.5q0 123 -84 199t-205 76q-118 0 -206 -59.5t-179 -186.5l-119 86q69 103 136 166.5t162.5 101t217.5 37.5q193 0 318.5 -115t125.5 -292v-3q0 -114 -44.5 -206t-145.5 -193l-494 -498h699v-147h-1051z" />
<glyph unicode="3" horiz-adv-x="1255" d="M102 231l117 105q175 -213 420 -213q133 0 223 77t90 201v5q0 131 -110 203.5t-291 72.5h-92l-33 96l412 510h-660v146h965l-500 -619q97 -8 180 -35.5t150 -75t105 -122.5t38 -170v-4q0 -189 -138 -311t-341 -122q-173 0 -308 68t-227 188z" />
<glyph unicode="4" horiz-adv-x="1396" d="M39 340l811 1094h190l-710 -959h778v254h156v-729h-156v340h-1069z" />
<glyph unicode="5" horiz-adv-x="1253" d="M109 203l106 116q202 -196 408 -196q153 0 249.5 89.5t96.5 227.5v4q0 133 -100 217t-257 84q-150 0 -301 -81l-108 71l41 699h825v-150h-684l-31 -459q145 64 283 64q140 0 252 -52t178 -152.5t66 -233.5v-5q0 -210 -143.5 -340.5t-368.5 -130.5q-146 0 -277 62 t-235 166z" />
<glyph unicode="6" horiz-adv-x="1325" d="M125 676v4q0 164 41 305.5t116 247t188.5 165.5t250.5 60q123 0 223.5 -41.5t200.5 -122.5l-94 -125q-84 71 -164 106.5t-174 35.5q-193 0 -307.5 -176t-112.5 -457q149 219 407 219q134 0 246 -53t181 -155t69 -232v-4q0 -206 -147.5 -342t-366.5 -136q-231 0 -377 146 q-92 92 -136 218.5t-44 336.5zM322 440q0 -137 102.5 -229t259.5 -92q155 0 250.5 93.5t95.5 233.5v5q0 133 -98 220t-252 87q-156 0 -257 -94.5t-101 -219.5v-4z" />
<glyph unicode="7" horiz-adv-x="1220" d="M139 1286v148h1022l-708 -1434h-172l637 1286h-779z" />
<glyph unicode="8" horiz-adv-x="1290" d="M106 385v4q0 123 80 213.5t215 138.5q-245 112 -245 330v4q0 108 67.5 195.5t179 135.5t242.5 48t242.5 -48t179.5 -135.5t68 -195.5v-4q0 -217 -246 -330q135 -50 215 -139t80 -211v-4q0 -120 -71 -213t-193.5 -143.5t-274.5 -50.5q-231 0 -385 113.5t-154 291.5z M270 389q0 -113 102 -190.5t273 -77.5t273 77.5t102 190.5v4q0 119 -108 196t-267 77t-267 -77t-108 -196v-4zM317 1061q0 -115 94.5 -188.5t233.5 -73.5t233.5 73.5t94.5 188.5v4q0 106 -94 177t-234 71t-234 -70.5t-94 -177.5v-4z" />
<glyph unicode="9" horiz-adv-x="1325" d="M129 967v4q0 135 64.5 246t183.5 176t268 65q230 0 377 -147q87 -87 132.5 -218.5t45.5 -336.5v-4q0 -225 -74.5 -402t-210.5 -276t-311 -99q-130 0 -235 46.5t-207 130.5l94 124q90 -78 174 -115.5t178 -37.5q127 0 225.5 80.5t151 223.5t49.5 325q-144 -230 -405 -230 q-220 0 -360 125.5t-140 319.5zM295 975q0 -137 98 -225t254 -88q158 0 257.5 97t99.5 226v4q0 138 -103 232t-262 94q-156 0 -250 -98.5t-94 -237.5v-4z" />
<glyph unicode=":" horiz-adv-x="522" d="M168 0v215h188v-215h-188zM168 844v215h188v-215h-188z" />
<glyph unicode=";" horiz-adv-x="522" d="M104 -178q77 28 110.5 70.5t27.5 107.5h-74v215h188v-184q0 -123 -54 -188.5t-173 -92.5zM168 844v215h188v-215h-188z" />
<glyph unicode="&#x3c;" horiz-adv-x="1310" d="M147 721l961 545v-158l-682 -387l682 -387v-158z" />
<glyph unicode="=" horiz-adv-x="1310" d="M184 406v151h942v-151h-942zM184 885v151h942v-151h-942z" />
<glyph unicode="&#x3e;" horiz-adv-x="1310" d="M203 176v158l682 387l-682 387v158l960 -545z" />
<glyph unicode="?" horiz-adv-x="1099" d="M61 1214q95 114 211 176t271 62q205 0 331.5 -114t126.5 -291v-5q0 -93 -33.5 -167.5t-93 -124t-134.5 -80t-165 -43.5l-20 -221h-104l-31 331l10 11q197 4 302.5 80.5t105.5 207.5v4q0 113 -82 190t-217 77q-207 0 -373 -193zM408 0v215h188v-215h-188z" />
<glyph unicode="@" horiz-adv-x="2007" d="M109 561q0 181 70 346t189.5 286t286 193t351.5 72q184 0 350.5 -67t284.5 -178t187.5 -259.5t69.5 -306.5q0 -125 -33 -224t-88 -158t-121.5 -89.5t-139.5 -30.5q-109 0 -183 46.5t-104 125.5q-146 -172 -338 -172q-154 0 -260.5 104t-106.5 269q0 106 41.5 202 t108.5 162.5t152 106t171 39.5q202 0 299 -170l27 141l137 -18l-82 -465q-14 -80 -14 -125q0 -78 45.5 -122t128.5 -44q119 0 203 108.5t84 313.5q0 140 -63 274.5t-170 238t-261 166.5t-325 63q-173 0 -327 -66t-262.5 -177t-171.5 -264t-63 -321q0 -136 39.5 -261 t114.5 -226.5t177 -177t233 -117t276 -41.5q149 0 268 33.5t242 105.5l33 -55q-253 -154 -543 -154q-129 0 -249.5 32.5t-220.5 90.5t-183 140.5t-140 180.5t-88.5 213t-31.5 236zM672 528q0 -119 69.5 -187.5t180.5 -68.5q132 0 233.5 112t101.5 257q0 112 -71 186t-178 74 q-132 0 -234 -109t-102 -264z" />
<glyph unicode="A" horiz-adv-x="1523" d="M33 0l729 1483l729 -1483h-170l-559 1135l-557 -1135h-172z" />
<glyph unicode="B" horiz-adv-x="1480" d="M203 0v1434h1186l-482 -643q208 -14 330.5 -117t122.5 -271v-12q0 -183 -141.5 -287t-378.5 -104h-637zM362 145h482q163 0 257.5 68t94.5 188v5q0 118 -97.5 181.5t-283.5 63.5h-453v-506zM362 795h365l371 493h-736v-493z" />
<glyph unicode="C" horiz-adv-x="1511" d="M139 713v4q0 151 54.5 287t149 236t230.5 159t291 59q182 0 311.5 -57.5t247.5 -169.5l-110 -119q-100 95 -207 146t-244 51q-117 0 -220 -46t-176.5 -124t-116 -187t-42.5 -231v-4q0 -164 72.5 -299.5t200 -214t282.5 -78.5q140 0 246.5 51t216.5 156l107 -105 q-123 -124 -256.5 -188t-317.5 -64q-152 0 -286.5 57.5t-229 156.5t-149 235t-54.5 289z" />
<glyph unicode="D" horiz-adv-x="1601" d="M203 0v1434h497q166 0 309 -55t242 -150t155 -226.5t56 -281.5v-4q0 -150 -56 -282t-155 -228t-242 -151.5t-309 -55.5h-497zM365 150h335q133 0 245 43.5t188 119t118.5 179t42.5 221.5v4q0 118 -42.5 222t-118.5 180.5t-188 120.5t-245 44h-335v-1134z" />
<glyph unicode="E" horiz-adv-x="1372" d="M203 0v1434h1036v-148h-874v-489h782v-148h-782v-502h884v-147h-1046z" />
<glyph unicode="F" horiz-adv-x="1343" d="M203 0v1434h1030v-150h-868v-512h776v-147h-776v-625h-162z" />
<glyph unicode="G" horiz-adv-x="1605" d="M139 717q0 147 52.5 281.5t145 236.5t228.5 162.5t293 60.5q173 0 297 -47t238 -143l-105 -123q-93 80 -193.5 122t-242.5 42q-155 0 -280.5 -80.5t-195 -214.5t-69.5 -293q0 -259 154 -417.5t413 -158.5h414v476h-436v145h592v-766h-576q-221 0 -388 94t-254 256 t-87 367z" />
<glyph unicode="H" horiz-adv-x="1556" d="M203 0v1434h162v-637h827v637h162v-1434h-162v645h-827v-645h-162z" />
<glyph unicode="I" horiz-adv-x="595" d="M217 0v1434h162v-1434h-162z" />
<glyph unicode="J" horiz-adv-x="1132" d="M63 233l117 101q70 -105 145 -155t183 -50q126 0 203 89.5t77 254.5v961h164v-959q0 -246 -131 -377q-121 -118 -315 -118q-288 0 -443 253z" />
<glyph unicode="K" horiz-adv-x="1472" d="M203 -49v1483h162v-1039l835 1039h197l-559 -697l585 -737h-202l-486 610z" />
<glyph unicode="L" horiz-adv-x="1267" d="M203 0v1434h162v-1284h806v-150h-968z" />
<glyph unicode="M" horiz-adv-x="1777" d="M203 0v1483l686 -846l686 846v-1483h-162v1038l-524 -645l-524 645v-1038h-162z" />
<glyph unicode="N" horiz-adv-x="1617" d="M203 0v1483l1054 -1137v1088h158v-1483l-1055 1134v-1085h-157z" />
<glyph unicode="O" d="M139 717q0 147 54 282t148.5 236.5t233 162t297.5 60.5q150 0 285.5 -58.5t233 -158t154.5 -236.5t57 -288q0 -118 -34 -229t-99 -203.5t-153.5 -162t-204 -108.5t-243.5 -39q-159 0 -297 60t-231.5 161.5t-147 236.5t-53.5 284zM307 717q0 -162 72 -297t202 -215 t291 -80t290 79t200.5 214t71.5 299q0 162 -72.5 297t-202.5 215t-291 80t-290 -79t-200 -214t-71 -299z" />
<glyph unicode="P" horiz-adv-x="1419" d="M203 0v1434h1073v-459q0 -113 -45 -203.5t-122.5 -147.5t-178.5 -87.5t-217 -30.5h-348v-506h-162zM365 653h354q178 0 285.5 87t107.5 229v315h-747v-631z" />
<glyph unicode="Q" d="M139 717q0 147 54 282t148.5 236.5t233 162t297.5 60.5q150 0 285.5 -58.5t233 -158t154.5 -236.5t57 -288q0 -118 -34 -229t-99 -203.5t-153.5 -162t-204 -108.5t-243.5 -39q-159 0 -297 60t-231.5 161.5t-147 236.5t-53.5 284zM307 717q0 -162 72 -297t202 -215 t291 -80q202 0 353 125l-410 412l109 108l403 -403q107 154 107 350q0 162 -72.5 297t-202.5 215t-291 80t-290 -79t-200 -214t-71 -299z" />
<glyph unicode="R" horiz-adv-x="1480" d="M203 0v1434h616q264 0 408 -144q110 -110 110 -282v-4q0 -172 -106 -279t-283 -139l441 -586h-199l-416 557h-4h-405v-557h-162zM365 702h440q164 0 266.5 79.5t102.5 215.5v4q0 132 -97 207.5t-270 75.5h-442v-582z" />
<glyph unicode="S" horiz-adv-x="1310" d="M109 209l100 119q116 -105 231 -154t260 -49q143 0 231.5 68.5t88.5 175.5v4q0 70 -30 116.5t-112.5 85.5t-230.5 70q-255 56 -368 149t-113 265v4q0 169 133.5 280t337.5 111q153 0 272.5 -43t231.5 -133l-94 -125q-190 156 -414 156q-137 0 -221 -66.5t-84 -165.5v-4 q0 -71 31 -118t116.5 -86.5t241.5 -73.5q243 -53 355 -148.5t112 -257.5v-4q0 -183 -137 -294t-353 -111q-329 0 -585 229z" />
<glyph unicode="T" horiz-adv-x="1327" d="M100 1284v150h1127v-150h-482v-512h240v-147h-242v-625h-161v625h-238v147h238v512h-482z" />
<glyph unicode="U" horiz-adv-x="1554" d="M180 600v834h162v-824q0 -231 115.5 -357t322.5 -126q202 0 317 121.5t115 351.5v834h162v-822q0 -307 -161.5 -471t-436.5 -164q-272 0 -434 162.5t-162 460.5z" />
<glyph unicode="V" horiz-adv-x="1441" d="M33 1434h170l518 -1119l520 1119h168l-688 -1483z" />
<glyph unicode="W" horiz-adv-x="2170" d="M43 1434h166l428 -1072l448 1121l449 -1121l428 1072h166l-594 -1483l-449 1118l-448 -1118z" />
<glyph unicode="X" horiz-adv-x="1484" d="M94 0l551 731l-530 703h190l440 -586l437 586h188l-530 -701l551 -733h-193l-459 616l-458 -616h-187z" />
<glyph unicode="Y" horiz-adv-x="1466" d="M55 1434h197l483 -717l488 717h188l-596 -865v-569h-164v567z" />
<glyph unicode="Z" horiz-adv-x="1419" d="M88 0l950 1288h-870v146h1167l-950 -1289h901v-145h-1198z" />
<glyph unicode="[" horiz-adv-x="899" d="M193 -266v1700h585v-123h-436v-1454h436v-123h-585z" />
<glyph unicode="\" horiz-adv-x="1040" d="M-12 1634h145l950 -1896h-145z" />
<glyph unicode="]" horiz-adv-x="899" d="M121 -143h438v1454h-438v123h586v-1700h-586v123z" />
<glyph unicode="^" horiz-adv-x="1024" d="M133 1010l318 428h122l318 -428h-139l-242 315l-242 -315h-135z" />
<glyph unicode="_" horiz-adv-x="1228" d="M-4 -199h1237v-129h-1237v129z" />
<glyph unicode="`" horiz-adv-x="1024" d="M295 1440l164 76l194 -297h-127z" />
<glyph unicode="a" horiz-adv-x="1185" d="M96 307v4q0 166 123.5 256t329.5 90q166 0 323 -45v308h-659v139h815v-1059h-156v158q-142 -181 -380 -181q-103 0 -191 36t-146.5 113t-58.5 181zM256 315q0 -96 77 -153.5t189 -57.5q148 0 250 80.5t102 204.5v98q-153 45 -309 45q-145 0 -227 -58t-82 -155v-4z" />
<glyph unicode="b" horiz-adv-x="1359" d="M176 0v1495h158v-649q159 235 405 235q77 0 150.5 -23.5t137.5 -70t113 -111.5t77 -154t28 -190v-4q0 -126 -43 -231.5t-114 -174.5t-161.5 -107t-187.5 -38q-249 0 -405 226v-203h-158zM328 528q0 -90 32 -167.5t85.5 -129.5t122.5 -82t143 -30q159 0 265.5 110 t106.5 297v4q0 183 -108.5 296.5t-263.5 113.5q-153 0 -268 -116t-115 -292v-4z" />
<glyph unicode="c" horiz-adv-x="1169" d="M111 524v4q0 148 70.5 275t195.5 202.5t276 75.5q140 0 240.5 -50t183.5 -138l-104 -111q-73 76 -148 118t-174 42q-160 0 -269.5 -119.5t-109.5 -290.5v-4q0 -172 112.5 -291.5t277.5 -119.5q176 0 323 157l100 -94q-88 -99 -190 -152t-242 -53q-151 0 -276 75 t-195.5 201t-70.5 273z" />
<glyph unicode="d" horiz-adv-x="1359" d="M115 526v4q0 125 43 231t114.5 175t162 107t186.5 38q250 0 405 -225v639h158v-1495h-158v213q-160 -236 -405 -236q-77 0 -150.5 23.5t-137.5 70t-113 111.5t-77 154t-28 190zM276 528q0 -182 108.5 -295.5t264.5 -113.5q153 0 268 116t115 293v4q0 177 -115 292.5 t-268 115.5q-159 0 -266 -110.5t-107 -297.5v-4z" />
<glyph unicode="e" horiz-adv-x="1212" d="M111 528q0 152 65 278.5t181.5 200.5t260.5 74q152 0 266 -76t171 -202t57 -283q0 -30 -2 -55h-840q17 -162 123 -257t250 -95q192 0 334 149l98 -88q-86 -97 -190 -148t-246 -51q-145 0 -265 68.5t-191.5 196t-71.5 288.5zM270 592h682q-14 154 -101.5 255t-236.5 101 q-135 0 -231 -100.5t-113 -255.5z" />
<glyph unicode="f" horiz-adv-x="751" d="M37 -195q37 -6 78 -6q56 0 88.5 35.5t32.5 106.5v979h-146v137h146v438h493v-139h-338v-301h336v-135h-334v-981q0 -136 -67.5 -204.5t-190.5 -68.5q-54 0 -98 10v129z" />
<glyph unicode="g" horiz-adv-x="1359" d="M115 578v4q0 112 42 207.5t112 158.5t159 98t184 35q255 0 414 -213v191h158v-1387h-967v140h811v493q-167 -223 -416 -223q-96 0 -185 35t-158.5 98t-111.5 157.5t-42 205.5zM276 582q0 -156 108 -258.5t259 -102.5q156 0 272.5 102t116.5 257v4q0 157 -116 257.5 t-273 100.5q-155 0 -261 -98.5t-106 -257.5v-4z" />
<glyph unicode="h" horiz-adv-x="1261" d="M176 0v1495h158v-436h768v-1059h-158v920h-610v-920h-158z" />
<glyph unicode="i" horiz-adv-x="651" d="M84 920v139h305v-803q0 -71 32.5 -106t88.5 -35q40 0 78 6v-129q-44 -10 -99 -10q-123 0 -190.5 68t-67.5 204v666h-147zM221 1290v174h180v-174h-180z" />
<glyph unicode="j" horiz-adv-x="538" d="M180 1290v174h180v-174h-180zM190 -377v1436h158v-1278z" />
<glyph unicode="k" horiz-adv-x="1165" d="M176 -49v1544h158v-1124l575 688h193l-414 -496l428 -563h-188l-340 444z" />
<glyph unicode="l" horiz-adv-x="610" d="M190 254v1241h158v-1239q0 -71 32.5 -106t88.5 -35q40 0 78 6v-129q-44 -10 -98 -10q-123 0 -191 68t-68 204z" />
<glyph unicode="m" horiz-adv-x="1947" d="M176 0v1108l803 -363l803 363v-1108h-158v885l-565 -256v-629h-158v629l-567 256v-885h-158z" />
<glyph unicode="n" horiz-adv-x="1261" d="M176 0v1059h926v-1059h-158v920h-610v-920h-158z" />
<glyph unicode="o" horiz-adv-x="1323" d="M111 524v4q0 149 71 275.5t198.5 202t283.5 75.5q116 0 219 -44t175 -118t114 -175t42 -212v-4q0 -148 -71.5 -275t-199.5 -202.5t-284 -75.5q-116 0 -219 44t-174.5 118t-113 175t-41.5 212zM272 528q0 -171 113 -291t279 -120q169 0 279 118.5t110 288.5v4 q0 172 -114 293t-280 121q-112 0 -201 -56t-137.5 -149.5t-48.5 -204.5v-4z" />
<glyph unicode="p" horiz-adv-x="1359" d="M176 -328v1387h158v-213q159 235 405 235q77 0 150.5 -23.5t137.5 -70t113 -111.5t77 -154t28 -190v-4q0 -126 -43 -231.5t-114 -174.5t-161.5 -107t-187.5 -38q-249 0 -405 226v-531h-158zM328 528q0 -90 32 -167.5t85.5 -129.5t122.5 -82t143 -30q159 0 265.5 110 t106.5 297v4q0 183 -108.5 296.5t-263.5 113.5q-153 0 -268 -116t-115 -292v-4z" />
<glyph unicode="q" horiz-adv-x="1359" d="M115 526q0 125 43 228.5t115 168.5t161.5 100.5t186.5 35.5h563v-1387h-158v541q-160 -236 -405 -236q-77 0 -150.5 23.5t-137.5 70t-113 111.5t-77 154t-28 190zM276 528q0 -182 108.5 -295.5t264.5 -113.5q153 0 268 116t115 293v390h-383q-161 0 -267 -102.5 t-106 -287.5z" />
<glyph unicode="r" horiz-adv-x="829" d="M176 0v1059h158v-277q61 138 174 220q105 76 238 75h20v-170h-12q-182 0 -301 -127.5t-119 -357.5v-422h-158z" />
<glyph unicode="s" horiz-adv-x="1019" d="M88 135l80 113q181 -135 367 -135q96 0 157.5 46t61.5 122v4q0 31 -15 56.5t-37 43t-60.5 34.5t-70.5 27.5t-82 24.5q-45 13 -72.5 21.5t-68.5 24t-67 30.5t-56 38t-46.5 48.5t-28 60.5t-11.5 76v4q0 135 101.5 219t259.5 84q96 0 197.5 -31t183.5 -85l-72 -119 q-159 102 -313 102q-93 0 -149 -43t-56 -110v-5q0 -24 9 -44.5t31.5 -38t41.5 -29.5t58 -26.5t61.5 -21.5t70.5 -22q60 -18 100 -32.5t89.5 -40.5t79 -55.5t50.5 -74.5t21 -100v-4q0 -147 -107 -232t-270 -85q-114 0 -231.5 41.5t-206.5 113.5z" />
<glyph unicode="t" horiz-adv-x="784" d="M72 920v139h241v319h158v-319h242v-139h-242v-920h-158v920h-241z" />
<glyph unicode="u" horiz-adv-x="1261" d="M160 401v658h157v-619q0 -149 77 -234t216 -85q137 0 227.5 92.5t90.5 239.5v606h155v-1059h-155v184q-130 -207 -363 -207q-189 0 -297 116t-108 308z" />
<glyph unicode="v" horiz-adv-x="1173" d="M57 1059h164l365 -764l364 764h166l-530 -1108z" />
<glyph unicode="w" horiz-adv-x="1734" d="M72 1059h161l308 -727l325 776l328 -776l307 727h162l-469 -1108l-328 776l-325 -776z" />
<glyph unicode="x" horiz-adv-x="1175" d="M80 0l416 539l-400 520h180l314 -410l313 410h176l-401 -516l418 -543h-183l-327 432l-330 -432h-176z" />
<glyph unicode="y" horiz-adv-x="1210" d="M70 1059h174l385 -883l340 883h168l-445 -1094q-67 -162 -148.5 -230.5t-203.5 -68.5q-116 0 -225 53l53 125q74 -39 166 -39q72 0 121.5 44t95.5 155z" />
<glyph unicode="z" horiz-adv-x="1138" d="M66 0l722 926h-649v133h942l-723 -926h674v-133h-966z" />
<glyph unicode="{" horiz-adv-x="989" d="M115 526v123h53q133 0 187.5 60.5t54.5 185.5v539h442v-123h-295v-434q0 -123 -53 -189.5t-158 -99.5q109 -36 161 -101t52 -188q0 -22 -1 -78t-1 -76q0 -60 6 -98.5t24 -75t53.5 -61.5t92.5 -48.5t144 -45.5l-25 -105q-109 20 -187.5 49t-128 64t-78.5 83t-39.5 99 t-10.5 119q0 15 1 76.5t1 79.5q0 125 -54.5 185t-187.5 60h-53z" />
<glyph unicode="|" horiz-adv-x="620" d="M244 -262v1896h133v-1896h-133z" />
<glyph unicode="}" horiz-adv-x="989" d="M111 1360l26 104q109 -20 188 -49t128.5 -64t78 -82.5t39.5 -98.5t11 -119q0 -15 -1 -76.5t-1 -79.5q0 -126 53 -186t186 -60h53v-123h-53q-133 0 -186 -59.5t-53 -185.5v-539h-443v123h295v434q0 123 53 189.5t158 99.5q-109 36 -161 101t-52 188q0 22 1 77.5t1 75.5 q0 76 -9.5 120t-43 85t-97 69t-171.5 56z" />
<glyph unicode="~" horiz-adv-x="968" d="M150 512q31 117 75.5 167t118.5 50q47 0 143.5 -42t130.5 -42q39 0 61 22t46 81l94 -27q-31 -117 -75 -167t-117 -50q-49 0 -146 42t-129 42q-39 0 -60.5 -22t-45.5 -81z" />
<glyph unicode="&#xa1;" horiz-adv-x="555" d="M184 1219v215h189v-215h-189zM186 0v117l47 911h89l49 -911v-117h-185z" />
<glyph unicode="&#xa2;" horiz-adv-x="1189" d="M119 723v4q0 148 71 275t196.5 202.5t275.5 75.5h26l31 166h133l-37 -184q144 -39 270 -172l-102 -107q-103 106 -201 137l-157 -803q14 -2 43 -2q178 0 325 158l99 -92q-87 -99 -190.5 -153t-242.5 -54q-37 0 -55 2l-37 -188h-133l45 217q-161 57 -260.5 199t-99.5 319z M279 727q0 -128 64 -230.5t169 -150.5l154 793h-9q-159 0 -268.5 -118.5t-109.5 -289.5v-4z" />
<glyph unicode="&#xa3;" horiz-adv-x="1318" d="M137 0v94l172 43v467h-172v141h172v222q0 235 129 364q123 123 324 123q151 0 254 -58t184 -163l-125 -98q-67 84 -138.5 127t-176.5 43q-122 0 -201 -76q-88 -91 -88 -262v-222h571v-141h-571v-461h727v-143h-1061z" />
<glyph unicode="&#xa4;" horiz-adv-x="1474" d="M115 485v129h166q-5 41 -5 99v4q0 67 9 119h-170v127h192q60 221 211 358t352 137q170 0 287 -73t207 -207l-123 -88q-82 115 -167.5 169t-209.5 54q-134 0 -238.5 -96t-152.5 -254h526v-127h-553q-8 -44 -8 -115v-4q0 -37 4 -103h557v-129h-530q46 -167 157 -265.5 t261 -98.5q115 0 199.5 59t164.5 176l117 -82q-94 -142 -209.5 -220.5t-277.5 -78.5q-215 0 -370 139.5t-210 370.5h-186z" />
<glyph unicode="&#xa5;" horiz-adv-x="1404" d="M55 1434h193l457 -701l460 701h185l-523 -762h373v-127h-420v-180h420v-127h-420v-238h-155v238h-420v127h420v180h-420v127h370z" />
<glyph unicode="&#xa7;" horiz-adv-x="1294" d="M127 733v4q0 91 73 152t197 82q-71 36 -111 89.5t-40 117.5v4q0 123 103 197.5t274 74.5q139 0 259.5 -51.5t209.5 -142.5l-103 -99q-161 158 -371 158q-103 0 -156.5 -37t-53.5 -98v-4q0 -59 73 -101.5t260 -87.5q234 -56 330 -121t96 -170v-4q0 -90 -73.5 -151 t-196.5 -82q71 -35 111.5 -88.5t40.5 -118.5v-4q0 -123 -103 -197.5t-274 -74.5q-139 0 -259.5 51.5t-209.5 142.5l102 98q160 -157 371 -157q103 0 157 37.5t54 97.5v4q0 58 -74.5 101.5t-259.5 86.5q-233 56 -329.5 121.5t-96.5 169.5zM279 750q0 -54 64.5 -97t225.5 -82 q125 -32 224 -32q98 0 160.5 41.5t62.5 99.5v4q0 54 -65 96.5t-226 81.5q-132 33 -223 33q-98 0 -160.5 -41.5t-62.5 -99.5v-4z" />
<glyph unicode="&#xa8;" horiz-adv-x="1024" d="M240 1219v194h184v-194h-184zM600 1219v194h184v-194h-184z" />
<glyph unicode="&#xa9;" horiz-adv-x="1699" d="M109 713v4q0 149 58 285.5t157 236.5t237 159.5t291 59.5t290.5 -59t235.5 -158t155.5 -235t57.5 -285v-4q0 -149 -58 -285.5t-157 -237t-237 -160t-291 -59.5t-290.5 59t-235.5 158.5t-155.5 235.5t-57.5 285zM176 713q0 -184 87.5 -338.5t242 -245t342.5 -90.5 q141 0 267.5 54t215.5 145.5t141 216.5t52 262v4q0 184 -87.5 338.5t-242 245t-342.5 90.5q-141 0 -267.5 -54t-215.5 -145.5t-141 -216.5t-52 -262v-4zM477 725v4q0 162 110.5 276.5t274.5 114.5q96 0 163.5 -31.5t131.5 -91.5l-76 -82q-107 103 -221 103t-191 -84 t-77 -203v-4q0 -119 78.5 -204t191.5 -85q67 0 117.5 25.5t107.5 77.5l74 -72q-65 -67 -135.5 -101t-167.5 -34q-161 0 -271 114t-110 277z" />
<glyph unicode="&#xaa;" horiz-adv-x="798" d="M119 592v96h532v-96h-532zM125 1020v4q0 90 69.5 140t182.5 50q81 0 164 -22v149h-351v93h451v-586h-100v78q-74 -90 -197 -90q-89 0 -154 48.5t-65 135.5zM231 1024q0 -48 37.5 -75t93.5 -27q74 0 126.5 40t52.5 103v49q-79 23 -156 23q-71 0 -112.5 -30.5t-41.5 -78.5 v-4z" />
<glyph unicode="&#xab;" horiz-adv-x="1126" d="M74 528l356 447l107 -86l-289 -361l289 -358l-107 -86zM530 528l357 447l106 -86l-288 -361l288 -358l-106 -86z" />
<glyph unicode="&#xad;" horiz-adv-x="835" d="M133 532v166h569v-166h-569z" />
<glyph unicode="&#xae;" horiz-adv-x="1699" d="M109 713v4q0 149 58 285.5t157 236.5t237 159.5t291 59.5t290.5 -59t235.5 -158t155.5 -235t57.5 -285v-4q0 -149 -58 -285.5t-157 -237t-237 -160t-291 -59.5t-290.5 59t-235.5 158.5t-155.5 235.5t-57.5 285zM176 713q0 -184 87.5 -338.5t242 -245t342.5 -90.5 q141 0 267.5 54t215.5 145.5t141 216.5t52 262v4q0 184 -87.5 338.5t-242 245t-342.5 90.5q-141 0 -267.5 -54t-215.5 -145.5t-141 -216.5t-52 -262v-4zM559 358v760h627v-231q0 -89 -53.5 -145.5t-143.5 -77.5l236 -306h-140l-219 287h-194v-287h-113zM672 745h217 q81 0 130.5 36.5t49.5 99.5v135h-397v-271z" />
<glyph unicode="&#xaf;" horiz-adv-x="1024" d="M188 1229v137h648v-137h-648z" />
<glyph unicode="&#xb0;" horiz-adv-x="937" d="M147 1130v5q0 125 97.5 218t224.5 93t224.5 -93t97.5 -218v-5q0 -124 -97.5 -217.5t-224.5 -93.5t-224.5 93.5t-97.5 217.5zM266 1130q0 -82 58.5 -143t144.5 -61t144.5 61t58.5 143v5q0 82 -58.5 143t-144.5 61t-144.5 -61t-58.5 -143v-5z" />
<glyph unicode="&#xb1;" horiz-adv-x="1236" d="M88 233l119 103q169 -213 424 -213q143 0 233 73t90 193v4q0 122 -101 191t-282 69h-147v140h151q150 0 245 71.5t95 192.5v4q0 109 -84.5 179.5t-222.5 70.5q-116 0 -204.5 -51.5t-165.5 -153.5l-119 86q91 129 210.5 197.5t282.5 68.5q205 0 336 -108.5t131 -274.5v-4 q0 -130 -70.5 -212t-179.5 -124q132 -43 210.5 -128t78.5 -214v-4q0 -175 -137 -294.5t-354 -119.5q-167 0 -306 70t-233 188z" />
<glyph unicode="&#xb4;" horiz-adv-x="1024" d="M371 1219l194 297l164 -76l-231 -221h-127z" />
<glyph unicode="&#xb5;" d="M139 713v4q0 147 54 282t148.5 236.5t233 162t297.5 60.5t297 -59.5t232 -160.5t147.5 -235.5t53.5 -281.5q2 -2 0 -4q0 -169 -69.5 -321.5t-195.5 -254.5l353 -336v-12h-238l-270 252q-143 -70 -314 -70q-159 0 -297 60t-231.5 161t-147 235.5t-53.5 281.5zM307 717 q0 -162 72 -297t202 -215t291 -80t290 79t200.5 213t71.5 296v4q0 162 -72.5 297t-202.5 215t-291 80t-290 -79t-200 -213t-71 -296v-4z" />
<glyph unicode="&#xb6;" horiz-adv-x="1044" d="M98 985v4q0 206 149.5 325.5t391.5 119.5h217v-1434h-164v541h-22q-164 0 -292 50.5t-204 152t-76 241.5z" />
<glyph unicode="&#xb7;" horiz-adv-x="501" d="M158 508v215h188v-215h-188z" />
<glyph unicode="&#xb8;" horiz-adv-x="1024" d="M307 -248l185 268h124l-155 -337z" />
<glyph unicode="&#xba;" horiz-adv-x="798" d="M98 1135v4q0 126 87 215.5t216 89.5q127 0 213 -88t86 -213v-4q0 -126 -87 -215.5t-216 -89.5q-127 0 -213 88t-86 213zM104 592v96h590v-96h-590zM209 1139q0 -86 55 -146.5t137 -60.5q83 0 136 59t53 144v4q0 87 -55 147t-138 60t-135.5 -59t-52.5 -144v-4z" />
<glyph unicode="&#xbb;" horiz-adv-x="1126" d="M133 170l289 360l-289 359l107 86l356 -445l-356 -446zM590 170l289 360l-289 359l106 86l357 -445l-357 -446z" />
<glyph unicode="&#xbf;" horiz-adv-x="1099" d="M98 387v4q0 93 33.5 168t93 124.5t134.5 80t165 43.5l19 221h104l33 -332l-10 -10q-197 -4 -302.5 -81t-105.5 -208v-4q0 -113 82 -189.5t217 -76.5q209 0 371 192l104 -100q-95 -114 -209.5 -175.5t-269.5 -61.5q-207 0 -333 114t-126 291zM504 1219v215h188v-215h-188z " />
<glyph unicode="&#xc0;" horiz-adv-x="1605" d="M74 0l729 1483l729 -1483h-170l-559 1135l-557 -1135h-172zM506 1782l164 76l194 -297h-127z" />
<glyph unicode="&#xc1;" horiz-adv-x="1605" d="M74 0l729 1483l729 -1483h-170l-559 1135l-557 -1135h-172zM741 1561l195 297l164 -76l-232 -221h-127z" />
<glyph unicode="&#xc2;" horiz-adv-x="1605" d="M74 0l729 1483l729 -1483h-170l-559 1135l-557 -1135h-172zM516 1554l217 269h139l218 -269h-136l-153 138l-154 -138h-131z" />
<glyph unicode="&#xc3;" horiz-adv-x="1605" d="M74 0l729 1483l729 -1483h-170l-559 1135l-557 -1135h-172zM467 1569q31 115 76 165t119 50q49 0 145.5 -41t128.5 -41q39 0 60.5 21.5t45.5 78.5l97 -26q-31 -115 -76 -165t-119 -50q-49 0 -145.5 40.5t-128.5 40.5q-39 0 -61 -21.5t-46 -78.5z" />
<glyph unicode="&#xc4;" horiz-adv-x="1605" d="M74 0l729 1483l729 -1483h-170l-559 1135l-557 -1135h-172zM530 1561v194h185v-194h-185zM891 1561v194h184v-194h-184z" />
<glyph unicode="&#xc5;" horiz-adv-x="1605" d="M74 0l676 1374q-68 18 -114 72.5t-46 122.5v4q0 83 64 143t149 60t149 -60t64 -143v-4q0 -68 -46 -122.5t-114 -72.5l676 -1374h-170l-559 1135l-557 -1135h-172zM676 1569q0 -51 38 -88t89 -37t89 37t38 88v4q0 51 -37.5 88t-89.5 37t-89.5 -37t-37.5 -88v-4z" />
<glyph unicode="&#xc6;" horiz-adv-x="2125" d="M20 0l971 1434h1002v-148h-838v-489h746v-148h-746v-502h848v-147h-1983zM307 147h684v1012z" />
<glyph unicode="&#xc7;" horiz-adv-x="1511" d="M139 713v4q0 151 54.5 287t149 236t230.5 159t291 59q182 0 311.5 -57.5t247.5 -169.5l-110 -119q-100 95 -207 146t-244 51q-117 0 -220 -46t-176.5 -124t-116 -187t-42.5 -231v-4q0 -164 72.5 -299.5t200 -214t282.5 -78.5q140 0 246.5 51t216.5 156l107 -105 q-116 -118 -243 -181.5t-298 -70.5l-135 -292l-154 69l158 230q-179 23 -320.5 124.5t-221 260.5t-79.5 346z" />
<glyph unicode="&#xc8;" horiz-adv-x="1372" d="M203 0v1434h1036v-148h-874v-489h782v-148h-782v-502h884v-147h-1046zM465 1782l164 76l194 -297h-127z" />
<glyph unicode="&#xc9;" horiz-adv-x="1372" d="M203 0v1434h1036v-148h-874v-489h782v-148h-782v-502h884v-147h-1046zM608 1561l195 297l164 -76l-232 -221h-127z" />
<glyph unicode="&#xca;" horiz-adv-x="1372" d="M203 0v1434h1036v-148h-874v-489h782v-148h-782v-502h884v-147h-1046zM426 1561l217 268h139l217 -268h-135l-153 137l-154 -137h-131z" />
<glyph unicode="&#xcb;" horiz-adv-x="1372" d="M203 0v1434h1036v-148h-874v-489h782v-148h-782v-502h884v-147h-1046zM440 1561v194h185v-194h-185zM801 1561v194h184v-194h-184z" />
<glyph unicode="&#xcc;" horiz-adv-x="595" d="M4 1782l164 76l194 -297h-126zM217 0v1434h162v-1434h-162z" />
<glyph unicode="&#xcd;" horiz-adv-x="595" d="M217 0v1434h162v-1434h-162zM233 1561l195 297l164 -76l-232 -221h-127z" />
<glyph unicode="&#xce;" horiz-adv-x="595" d="M12 1561l217 268h140l217 -268h-135l-154 137l-154 -137h-131zM217 0v1434h162v-1434h-162z" />
<glyph unicode="&#xcf;" horiz-adv-x="595" d="M27 1561v194h184v-194h-184zM217 0v1434h162v-1434h-162zM387 1561v194h184v-194h-184z" />
<glyph unicode="&#xd0;" horiz-adv-x="1662" d="M111 647v148h153v639h498q166 0 309 -55t242 -150t155 -226.5t56 -281.5v-4q0 -150 -56 -282t-155 -228t-242 -151.5t-309 -55.5h-498v647h-153zM426 150h336q133 0 245 43.5t188 119t118.5 179t42.5 221.5v4q0 118 -42.5 222t-118.5 180.5t-188 120.5t-245 44h-336v-489 h430v-148h-430v-497z" />
<glyph unicode="&#xd1;" horiz-adv-x="1617" d="M203 0v1483l1054 -1137v1088h158v-1483l-1055 1134v-1085h-157zM473 1569q31 115 76 165t119 50q49 0 145.5 -41t128.5 -41q39 0 61 21.5t46 78.5l96 -26q-31 -115 -76 -165t-119 -50q-49 0 -145.5 40.5t-128.5 40.5q-39 0 -61 -21.5t-46 -78.5z" />
<glyph unicode="&#xd2;" d="M139 713v4q0 147 54 282t148.5 236.5t233 162t297.5 60.5t297 -59.5t232 -160.5t147.5 -235.5t53.5 -281.5q2 -2 0 -4q0 -118 -34 -229t-99 -203.5t-153.5 -162t-204 -108.5t-243.5 -39q-159 0 -297 60t-231.5 161t-147 235.5t-53.5 281.5zM307 717q0 -162 72 -297 t202 -215t291 -80t290 79t200.5 213t71.5 296v4q0 162 -72.5 297t-202.5 215t-291 80t-290 -79t-200 -213t-71 -296v-4zM565 1782l164 76l195 -297h-127z" />
<glyph unicode="&#xd3;" d="M139 713v4q0 147 54 282t148.5 236.5t233 162t297.5 60.5t297 -59.5t232 -160.5t147.5 -235.5t53.5 -281.5q2 -2 0 -4q0 -118 -34 -229t-99 -203.5t-153.5 -162t-204 -108.5t-243.5 -39q-159 0 -297 60t-231.5 161t-147 235.5t-53.5 281.5zM307 717q0 -162 72 -297 t202 -215t291 -80t290 79t200.5 213t71.5 296v4q0 162 -72.5 297t-202.5 215t-291 80t-290 -79t-200 -213t-71 -296v-4zM817 1561l195 297l164 -76l-232 -221h-127z" />
<glyph unicode="&#xd4;" d="M139 713v4q0 147 54 282t148.5 236.5t233 162t297.5 60.5t297 -59.5t232 -160.5t147.5 -235.5t53.5 -281.5q2 -2 0 -4q0 -118 -34 -229t-99 -203.5t-153.5 -162t-204 -108.5t-243.5 -39q-159 0 -297 60t-231.5 161t-147 235.5t-53.5 281.5zM307 717q0 -162 72 -297 t202 -215t291 -80t290 79t200.5 213t71.5 296v4q0 162 -72.5 297t-202.5 215t-291 80t-290 -79t-200 -213t-71 -296v-4zM584 1561l217 268h139l217 -268h-135l-154 137l-153 -137h-131z" />
<glyph unicode="&#xd5;" d="M139 713v4q0 147 54 282t148.5 236.5t233 162t297.5 60.5t297 -59.5t232 -160.5t147.5 -235.5t53.5 -281.5q2 -2 0 -4q0 -118 -34 -229t-99 -203.5t-153.5 -162t-204 -108.5t-243.5 -39q-159 0 -297 60t-231.5 161t-147 235.5t-53.5 281.5zM307 717q0 -162 72 -297 t202 -215t291 -80t290 79t200.5 213t71.5 296v4q0 162 -72.5 297t-202.5 215t-291 80t-290 -79t-200 -213t-71 -296v-4zM535 1569q31 116 76 165.5t118 49.5q49 0 146 -41t129 -41q39 0 60.5 21.5t45.5 78.5l96 -26q-31 -116 -76 -165.5t-118 -49.5q-49 0 -146 40.5 t-129 40.5q-39 0 -60.5 -21.5t-45.5 -78.5z" />
<glyph unicode="&#xd6;" d="M139 713v4q0 147 54 282t148.5 236.5t233 162t297.5 60.5t297 -59.5t232 -160.5t147.5 -235.5t53.5 -281.5q2 -2 0 -4q0 -118 -34 -229t-99 -203.5t-153.5 -162t-204 -108.5t-243.5 -39q-159 0 -297 60t-231.5 161t-147 235.5t-53.5 281.5zM307 717q0 -162 72 -297 t202 -215t291 -80t290 79t200.5 213t71.5 296v4q0 162 -72.5 297t-202.5 215t-291 80t-290 -79t-200 -213t-71 -296v-4zM598 1561v194h184v-194h-184zM958 1561v194h185v-194h-185z" />
<glyph unicode="&#xd8;" d="M139 717q0 147 54 282t148.5 236.5t233 162t297.5 60.5q150 0 285.5 -58.5t233 -158t154.5 -236.5t57 -288q0 -118 -34 -229t-99 -203.5t-153.5 -162t-204 -108.5t-243.5 -39q-159 0 -297 60t-231.5 161.5t-147 236.5t-53.5 284zM307 717q0 -219 129 -383l781 852 q-147 125 -349 125q-160 0 -289.5 -79.5t-200.5 -214t-71 -296.5v-4zM524 248q147 -125 348 -125q161 0 290 79.5t200.5 214t71.5 296.5v4q0 219 -129 383z" />
<glyph unicode="&#xd9;" horiz-adv-x="1554" d="M180 600v834h162v-824q0 -231 115.5 -357t322.5 -126q202 0 317 121.5t115 351.5v834h162v-822q0 -307 -161.5 -471t-436.5 -164q-272 0 -434 162.5t-162 460.5zM494 1772l163 75l195 -297h-127z" />
<glyph unicode="&#xda;" horiz-adv-x="1554" d="M180 600v834h162v-824q0 -231 115.5 -357t322.5 -126q202 0 317 121.5t115 351.5v834h162v-822q0 -307 -161.5 -471t-436.5 -164q-272 0 -434 162.5t-162 460.5zM702 1550l195 297l164 -75l-232 -222h-127z" />
<glyph unicode="&#xdb;" horiz-adv-x="1554" d="M180 600v834h162v-824q0 -231 115.5 -357t322.5 -126q202 0 317 121.5t115 351.5v834h162v-822q0 -307 -161.5 -471t-436.5 -164q-272 0 -434 162.5t-162 460.5zM489 1554l218 269h139l217 -269h-135l-154 138l-153 -138h-132z" />
<glyph unicode="&#xdc;" horiz-adv-x="1554" d="M180 600v834h162v-824q0 -231 115.5 -357t322.5 -126q202 0 317 121.5t115 351.5v834h162v-822q0 -307 -161.5 -471t-436.5 -164q-272 0 -434 162.5t-162 460.5zM504 1554v195h184v-195h-184zM864 1554v195h185v-195h-185z" />
<glyph unicode="&#xdd;" horiz-adv-x="1466" d="M55 1434h197l483 -717l488 717h188l-596 -865v-569h-164v567zM674 1550l194 297l164 -75l-231 -222h-127z" />
<glyph unicode="&#xde;" horiz-adv-x="1378" d="M203 0v1434h162v-246h374q244 0 390.5 -122.5t146.5 -332.5v-4q0 -113 -45 -203.5t-122.5 -148.5t-178.5 -88.5t-217 -30.5h-348v-258h-162zM365 406h354q178 0 285.5 87.5t107.5 229.5v4q0 150 -104 230.5t-281 80.5h-362v-632z" />
<glyph unicode="&#xdf;" horiz-adv-x="1267" d="M-23 -195q37 -6 78 -6q56 0 88.5 35.5t32.5 106.5v1554h1000l-431 -727q74 -13 140 -38.5t128.5 -68t100 -110.5t37.5 -154v-4q0 -189 -148.5 -294.5t-404.5 -102.5v127q185 5 288 74t103 196v4q0 120 -103.5 191t-287.5 90v117l334 561h-598v-1417q0 -136 -67.5 -204.5 t-190.5 -68.5q-55 0 -99 10v129z" />
<glyph unicode="&#xe0;" horiz-adv-x="1185" d="M96 307v4q0 166 123.5 256t329.5 90q166 0 323 -45v308h-659v139h815v-1059h-156v158q-142 -181 -380 -181q-103 0 -191 36t-146.5 113t-58.5 181zM256 315q0 -96 77 -153.5t189 -57.5q148 0 250 80.5t102 204.5v98q-153 45 -309 45q-145 0 -227 -58t-82 -155v-4z M303 1440l164 76l195 -297h-127z" />
<glyph unicode="&#xe1;" horiz-adv-x="1185" d="M96 307v4q0 166 123.5 256t329.5 90q166 0 323 -45v308h-659v139h815v-1059h-156v158q-142 -181 -380 -181q-103 0 -191 36t-146.5 113t-58.5 181zM256 315q0 -96 77 -153.5t189 -57.5q148 0 250 80.5t102 204.5v98q-153 45 -309 45q-145 0 -227 -58t-82 -155v-4z M508 1219l194 297l164 -76l-231 -221h-127z" />
<glyph unicode="&#xe2;" horiz-adv-x="1185" d="M96 307v4q0 166 123.5 256t329.5 90q166 0 323 -45v308h-659v139h815v-1059h-156v158q-142 -181 -380 -181q-103 0 -191 36t-146.5 113t-58.5 181zM256 315q0 -96 77 -153.5t189 -57.5q148 0 250 80.5t102 204.5v98q-153 45 -309 45q-145 0 -227 -58t-82 -155v-4z M309 1219l217 268h140l217 -268h-135l-154 137l-154 -137h-131z" />
<glyph unicode="&#xe3;" horiz-adv-x="1185" d="M96 307v4q0 166 123.5 256t329.5 90q166 0 323 -45v308h-659v139h815v-1059h-156v158q-142 -181 -380 -181q-103 0 -191 36t-146.5 113t-58.5 181zM256 315q0 -96 77 -153.5t189 -57.5q148 0 250 80.5t102 204.5v98q-153 45 -309 45q-145 0 -227 -58t-82 -155v-4z M262 1227q31 115 76 165t119 50q49 0 145.5 -41t128.5 -41q39 0 61 21.5t46 78.5l96 -26q-31 -115 -76 -165t-119 -50q-49 0 -145.5 40.5t-128.5 40.5q-39 0 -61 -21.5t-46 -78.5z" />
<glyph unicode="&#xe4;" horiz-adv-x="1185" d="M96 307v4q0 166 123.5 256t329.5 90q166 0 323 -45v308h-659v139h815v-1059h-156v158q-142 -181 -380 -181q-103 0 -191 36t-146.5 113t-58.5 181zM256 315q0 -96 77 -153.5t189 -57.5q148 0 250 80.5t102 204.5v98q-153 45 -309 45q-145 0 -227 -58t-82 -155v-4z M324 1219v194h184v-194h-184zM684 1219v194h184v-194h-184z" />
<glyph unicode="&#xe5;" horiz-adv-x="1185" d="M96 307v4q0 166 123.5 256t329.5 90q166 0 323 -45v308h-659v139h815v-1059h-156v158q-142 -181 -380 -181q-103 0 -191 36t-146.5 113t-58.5 181zM256 315q0 -96 77 -153.5t189 -57.5q148 0 250 80.5t102 204.5v98q-153 45 -309 45q-145 0 -227 -58t-82 -155v-4z M383 1417v4q0 83 64 143t149 60t149 -60t64 -143v-4q0 -83 -64 -143t-149 -60t-149 60t-64 143zM469 1417q0 -51 38 -88t89 -37t89 37t38 88v4q0 51 -37.5 88t-89.5 37t-89.5 -37t-37.5 -88v-4z" />
<glyph unicode="&#xe6;" horiz-adv-x="1951" d="M96 307v4q0 166 122.5 256t322.5 90q140 0 313 -45v308h-641v139h797v-137q66 75 156 117t194 42q151 0 264 -76t170 -202t57 -283q0 -30 -2 -55h-839q17 -162 122.5 -257t249.5 -95q192 0 334 149l99 -88q-86 -96 -190 -147.5t-247 -51.5q-127 0 -238 56.5t-182 156.5 q-88 -91 -217.5 -151t-257.5 -60q-72 0 -140 21.5t-123.5 61.5t-89.5 104.5t-34 142.5zM256 315q0 -96 77 -153.5t189 -57.5q148 0 250 80.5t102 204.5v98q-153 45 -309 45q-145 0 -227 -58t-82 -155v-4zM1010 592h682q-14 154 -101.5 255t-236.5 101q-135 0 -231 -100.5 t-113 -255.5z" />
<glyph unicode="&#xe7;" horiz-adv-x="1169" d="M111 524v4q0 148 70.5 275t195.5 202.5t276 75.5q140 0 240.5 -50t183.5 -138l-104 -111q-73 76 -148 118t-174 42q-160 0 -269.5 -119.5t-109.5 -290.5v-4q0 -172 112.5 -291.5t277.5 -119.5q176 0 323 157l100 -94q-84 -93 -178.5 -145.5t-222.5 -59.5l-135 -292 l-154 69l160 234q-193 34 -318.5 186t-125.5 352z" />
<glyph unicode="&#xe8;" horiz-adv-x="1212" d="M111 528q0 152 65 278.5t181.5 200.5t260.5 74q152 0 266 -76t171 -202t57 -283q0 -30 -2 -55h-840q17 -162 123 -257t250 -95q192 0 334 149l98 -88q-86 -97 -190 -148t-246 -51q-145 0 -265 68.5t-191.5 196t-71.5 288.5zM270 592h682q-14 154 -101.5 255t-236.5 101 q-135 0 -231 -100.5t-113 -255.5zM334 1440l164 76l194 -297h-127z" />
<glyph unicode="&#xe9;" horiz-adv-x="1212" d="M111 528q0 152 65 278.5t181.5 200.5t260.5 74q152 0 266 -76t171 -202t57 -283q0 -30 -2 -55h-840q17 -162 123 -257t250 -95q192 0 334 149l98 -88q-86 -97 -190 -148t-246 -51q-145 0 -265 68.5t-191.5 196t-71.5 288.5zM270 592h682q-14 154 -101.5 255t-236.5 101 q-135 0 -231 -100.5t-113 -255.5zM520 1219l195 297l164 -76l-232 -221h-127z" />
<glyph unicode="&#xea;" horiz-adv-x="1212" d="M111 528q0 152 65 278.5t181.5 200.5t260.5 74q152 0 266 -76t171 -202t57 -283q0 -30 -2 -55h-840q17 -162 123 -257t250 -95q192 0 334 149l98 -88q-86 -97 -190 -148t-246 -51q-145 0 -265 68.5t-191.5 196t-71.5 288.5zM270 592h682q-14 154 -101.5 255t-236.5 101 q-135 0 -231 -100.5t-113 -255.5zM326 1219l217 268h139l217 -268h-135l-154 137l-153 -137h-131z" />
<glyph unicode="&#xeb;" horiz-adv-x="1212" d="M111 528q0 152 65 278.5t181.5 200.5t260.5 74q152 0 266 -76t171 -202t57 -283q0 -30 -2 -55h-840q17 -162 123 -257t250 -95q192 0 334 149l98 -88q-86 -97 -190 -148t-246 -51q-145 0 -265 68.5t-191.5 196t-71.5 288.5zM270 592h682q-14 154 -101.5 255t-236.5 101 q-135 0 -231 -100.5t-113 -255.5zM340 1219v194h184v-194h-184zM700 1219v194h185v-194h-185z" />
<glyph unicode="&#xec;" horiz-adv-x="651" d="M18 1440l164 76l195 -297h-127zM84 920v139h305v-803q0 -71 32.5 -106t88.5 -35q40 0 78 6v-129q-44 -10 -99 -10q-123 0 -190.5 68t-67.5 204v666h-147z" />
<glyph unicode="&#xed;" horiz-adv-x="651" d="M84 920v139h305v-803q0 -71 32.5 -106t88.5 -35q40 0 78 6v-129q-44 -10 -99 -10q-123 0 -190.5 68t-67.5 204v666h-147zM246 1219l194 297l164 -76l-231 -221h-127z" />
<glyph unicode="&#xee;" horiz-adv-x="651" d="M23 1219l217 268h139l217 -268h-135l-154 137l-153 -137h-131zM84 920v139h305v-803q0 -71 32.5 -106t88.5 -35q40 0 78 6v-129q-44 -10 -99 -10q-123 0 -190.5 68t-67.5 204v666h-147z" />
<glyph unicode="&#xef;" horiz-adv-x="651" d="M37 1219v194h184v-194h-184zM84 920v139h305v-803q0 -71 32.5 -106t88.5 -35q40 0 78 6v-129q-44 -10 -99 -10q-123 0 -190.5 68t-67.5 204v666h-147zM397 1219v194h185v-194h-185z" />
<glyph unicode="&#xf0;" horiz-adv-x="1296" d="M111 502v4q0 107 39 199.5t105 155.5t154.5 98.5t186.5 35.5q100 0 177.5 -29t154.5 -83l-269 377l-262 -130l-73 97l268 125l-103 143h189l53 -80l203 98l72 -96l-209 -96l207 -305q90 -130 135 -246.5t45 -251.5v-4q0 -108 -38.5 -205.5t-108 -171.5t-173 -118 t-225.5 -44q-112 0 -211 42t-168 113.5t-109 168.5t-40 203zM270 496q0 -99 48 -186t136 -141t195 -54q163 0 268 112.5t105 270.5v4q0 152 -112 260t-277 108q-164 0 -263.5 -105t-99.5 -265v-4z" />
<glyph unicode="&#xf1;" horiz-adv-x="1261" d="M176 0v1059h926v-1059h-158v920h-610v-920h-158zM303 1227q31 115 76 165t119 50q49 0 145.5 -41t128.5 -41q39 0 61 21.5t46 78.5l96 -26q-31 -115 -76 -165t-119 -50q-49 0 -145.5 40.5t-128.5 40.5q-39 0 -61 -21.5t-46 -78.5z" />
<glyph unicode="&#xf2;" horiz-adv-x="1323" d="M111 524v4q0 149 71 275.5t198.5 202t283.5 75.5q116 0 219 -44t175 -118t114 -175t42 -212v-4q0 -148 -71.5 -275t-199.5 -202.5t-284 -75.5q-116 0 -219 44t-174.5 118t-113 175t-41.5 212zM272 528q0 -171 113 -291t279 -120q169 0 279 118.5t110 288.5v4 q0 172 -114 293t-280 121q-112 0 -201 -56t-137.5 -149.5t-48.5 -204.5v-4zM367 1440l163 76l195 -297h-127z" />
<glyph unicode="&#xf3;" horiz-adv-x="1323" d="M111 524v4q0 149 71 275.5t198.5 202t283.5 75.5q116 0 219 -44t175 -118t114 -175t42 -212v-4q0 -148 -71.5 -275t-199.5 -202.5t-284 -75.5q-116 0 -219 44t-174.5 118t-113 175t-41.5 212zM272 528q0 -171 113 -291t279 -120q169 0 279 118.5t110 288.5v4 q0 172 -114 293t-280 121q-112 0 -201 -56t-137.5 -149.5t-48.5 -204.5v-4zM600 1219l195 297l163 -76l-231 -221h-127z" />
<glyph unicode="&#xf4;" horiz-adv-x="1323" d="M111 524v4q0 149 71 275.5t198.5 202t283.5 75.5q116 0 219 -44t175 -118t114 -175t42 -212v-4q0 -148 -71.5 -275t-199.5 -202.5t-284 -75.5q-116 0 -219 44t-174.5 118t-113 175t-41.5 212zM272 528q0 -171 113 -291t279 -120q169 0 279 118.5t110 288.5v4 q0 172 -114 293t-280 121q-112 0 -201 -56t-137.5 -149.5t-48.5 -204.5v-4zM375 1219l217 268h139l217 -268h-135l-154 137l-153 -137h-131z" />
<glyph unicode="&#xf5;" horiz-adv-x="1323" d="M111 524v4q0 149 71 275.5t198.5 202t283.5 75.5q116 0 219 -44t175 -118t114 -175t42 -212v-4q0 -148 -71.5 -275t-199.5 -202.5t-284 -75.5q-116 0 -219 44t-174.5 118t-113 175t-41.5 212zM272 528q0 -171 113 -291t279 -120q169 0 279 118.5t110 288.5v4 q0 172 -114 293t-280 121q-112 0 -201 -56t-137.5 -149.5t-48.5 -204.5v-4zM326 1227q31 116 76 165.5t118 49.5q49 0 146 -41t129 -41q39 0 60.5 21.5t45.5 78.5l96 -26q-31 -116 -76 -165.5t-118 -49.5q-49 0 -146 40.5t-129 40.5q-39 0 -60.5 -21.5t-45.5 -78.5z" />
<glyph unicode="&#xf6;" horiz-adv-x="1323" d="M111 524v4q0 149 71 275.5t198.5 202t283.5 75.5q116 0 219 -44t175 -118t114 -175t42 -212v-4q0 -148 -71.5 -275t-199.5 -202.5t-284 -75.5q-116 0 -219 44t-174.5 118t-113 175t-41.5 212zM272 528q0 -171 113 -291t279 -120q169 0 279 118.5t110 288.5v4 q0 172 -114 293t-280 121q-112 0 -201 -56t-137.5 -149.5t-48.5 -204.5v-4zM389 1219v194h184v-194h-184zM750 1219v194h184v-194h-184z" />
<glyph unicode="&#xf8;" horiz-adv-x="1323" d="M111 524v4q0 149 71 275.5t198.5 202t283.5 75.5q116 0 219 -44t175 -118t114 -175t42 -212v-4q0 -148 -71.5 -275t-199.5 -202.5t-284 -75.5q-116 0 -219 44t-174.5 118t-113 175t-41.5 212zM270 528q0 -134 78 -249l549 579q-107 86 -238 86q-169 0 -279 -120 t-110 -292v-4zM428 199q100 -84 236 -84q170 0 280.5 119t110.5 290v4q0 139 -80 250z" />
<glyph unicode="&#xf9;" horiz-adv-x="1261" d="M160 401v658h157v-619q0 -149 77 -234t216 -85q137 0 227.5 92.5t90.5 239.5v606h155v-1059h-155v184q-130 -207 -363 -207q-189 0 -297 116t-108 308zM350 1432l164 75l195 -297h-127z" />
<glyph unicode="&#xfa;" horiz-adv-x="1261" d="M160 401v658h157v-619q0 -149 77 -234t216 -85q137 0 227.5 92.5t90.5 239.5v606h155v-1059h-155v184q-130 -207 -363 -207q-189 0 -297 116t-108 308zM545 1210l194 297l164 -75l-231 -222h-127z" />
<glyph unicode="&#xfb;" horiz-adv-x="1261" d="M160 401v658h157v-619q0 -149 77 -234t216 -85q137 0 227.5 92.5t90.5 239.5v606h155v-1059h-155v184q-130 -207 -363 -207q-189 0 -297 116t-108 308zM346 1219l217 268h139l218 -268h-136l-153 137l-154 -137h-131z" />
<glyph unicode="&#xfc;" horiz-adv-x="1261" d="M160 401v658h157v-619q0 -149 77 -234t216 -85q137 0 227.5 92.5t90.5 239.5v606h155v-1059h-155v184q-130 -207 -363 -207q-189 0 -297 116t-108 308zM360 1219v194h185v-194h-185zM721 1219v194h184v-194h-184z" />
<glyph unicode="&#xfd;" horiz-adv-x="1210" d="M70 1059h174l385 -883l340 883h168l-445 -1094q-67 -162 -148.5 -230.5t-203.5 -68.5q-116 0 -225 53l53 125q74 -39 166 -39q72 0 121.5 44t95.5 155zM547 1210l194 297l164 -75l-231 -222h-127z" />
<glyph unicode="&#xfe;" horiz-adv-x="1359" d="M176 -328v1823h158v-649q159 235 405 235q77 0 150.5 -23.5t137.5 -70t113 -111.5t77 -154t28 -190v-4q0 -126 -43 -231.5t-114 -174.5t-161.5 -107t-187.5 -38q-249 0 -405 226v-531h-158zM328 528q0 -90 32 -167.5t85.5 -129.5t122.5 -82t143 -30q159 0 265.5 110 t106.5 297v4q0 183 -108.5 296.5t-263.5 113.5q-153 0 -268 -116t-115 -292v-4z" />
<glyph unicode="&#xff;" horiz-adv-x="1210" d="M70 1059h174l385 -883l340 883h168l-445 -1094q-67 -162 -148.5 -230.5t-203.5 -68.5q-116 0 -225 53l53 125q74 -39 166 -39q72 0 121.5 44t95.5 155zM334 1219v194h184v-194h-184zM694 1219v194h185v-194h-185z" />
<glyph unicode="&#x152;" horiz-adv-x="2316" d="M139 713v4q0 150 56 282t155 228t242 151.5t309 55.5h1282v-148h-837v-489h745v-148h-745v-502h847v-147h-1292q-166 0 -309 55t-242 150t-155 226.5t-56 281.5zM307 717q0 -118 42.5 -222t118.5 -180.5t188 -120.5t245 -44h283v1134h-283q-133 0 -245 -43.5t-188 -119 t-118.5 -179t-42.5 -221.5v-4z" />
<glyph unicode="&#x153;" horiz-adv-x="2148" d="M111 524v4q0 148 71.5 275t198 202.5t278.5 75.5t274.5 -76t188.5 -204q61 129 175.5 204.5t258.5 75.5q151 0 264.5 -76t170.5 -202t57 -283q0 -30 -2 -55h-840q17 -162 123 -257t250 -95q192 0 334 149l98 -88q-84 -96 -188.5 -147.5t-245.5 -51.5q-148 0 -270 76.5 t-187 208.5q-66 -128 -190 -206.5t-277 -78.5q-113 0 -214 44t-172.5 118t-113.5 175t-42 212zM272 528q0 -171 112.5 -291t277.5 -120q167 0 276 118.5t109 288.5v4q0 112 -51 207t-141 151t-198 56q-167 0 -276 -119.5t-109 -290.5v-4zM1206 592h682q-14 154 -101.5 255 t-236.5 101q-135 0 -231 -100.5t-113 -255.5z" />
<glyph unicode="&#x178;" horiz-adv-x="1466" d="M55 1434h197l483 -717l488 717h188l-596 -865v-569h-164v567zM461 1554v195h184v-195h-184zM821 1554v195h185v-195h-185z" />
<glyph unicode="&#x2c6;" horiz-adv-x="1024" d="M225 1219l217 268h140l217 -268h-135l-154 137l-154 -137h-131z" />
<glyph unicode="&#x2dc;" horiz-adv-x="1024" d="M176 1227q31 115 76 165t119 50q49 0 145.5 -41t128.5 -41q39 0 61 21.5t46 78.5l96 -26q-31 -115 -76 -165t-119 -50q-49 0 -145.5 40.5t-128.5 40.5q-39 0 -61 -21.5t-46 -78.5z" />
<glyph unicode="&#x2000;" horiz-adv-x="929" />
<glyph unicode="&#x2001;" horiz-adv-x="1858" />
<glyph unicode="&#x2002;" horiz-adv-x="929" />
<glyph unicode="&#x2003;" horiz-adv-x="1858" />
<glyph unicode="&#x2004;" horiz-adv-x="619" />
<glyph unicode="&#x2005;" horiz-adv-x="464" />
<glyph unicode="&#x2006;" horiz-adv-x="309" />
<glyph unicode="&#x2007;" horiz-adv-x="309" />
<glyph unicode="&#x2008;" horiz-adv-x="232" />
<glyph unicode="&#x2009;" horiz-adv-x="371" />
<glyph unicode="&#x200a;" horiz-adv-x="103" />
<glyph unicode="&#x2010;" horiz-adv-x="835" d="M133 532v166h569v-166h-569z" />
<glyph unicode="&#x2011;" horiz-adv-x="835" d="M133 532v166h569v-166h-569z" />
<glyph unicode="&#x2012;" horiz-adv-x="835" d="M133 532v166h569v-166h-569z" />
<glyph unicode="&#x2013;" horiz-adv-x="1081" d="M133 537v157h815v-157h-815z" />
<glyph unicode="&#x2014;" horiz-adv-x="1839" d="M133 537v157h1573v-157h-1573z" />
<glyph unicode="&#x2018;" horiz-adv-x="501" d="M147 979v184q0 123 54 188.5t172 92.5l24 -72q-77 -28 -109 -70t-28 -108h76v-215h-189z" />
<glyph unicode="&#x2019;" horiz-adv-x="501" d="M104 1040q77 28 110.5 71t27.5 108h-74v215h188v-185q0 -123 -54 -188t-173 -92z" />
<glyph unicode="&#x201a;" horiz-adv-x="501" d="M94 -178q77 28 110 70t27 108h-73v215h188v-184q0 -123 -54 -188.5t-173 -92.5z" />
<glyph unicode="&#x201c;" horiz-adv-x="911" d="M147 979v184q0 123 54 188.5t172 92.5l24 -72q-77 -28 -109 -70t-28 -108h76v-215h-189zM557 979v184q0 123 53.5 188.5t171.5 92.5l25 -72q-77 -28 -109 -70t-28 -108h73v-215h-186z" />
<glyph unicode="&#x201d;" horiz-adv-x="911" d="M104 1040q77 28 110.5 71t27.5 108h-74v215h188v-185q0 -123 -54 -188t-173 -92zM514 1040q77 28 110 70.5t27 108.5h-73v215h186v-185q0 -123 -53.5 -188t-171.5 -92z" />
<glyph unicode="&#x201e;" horiz-adv-x="911" d="M94 -178q77 28 110 70t27 108h-73v215h188v-184q0 -123 -54 -188.5t-173 -92.5zM504 -178q77 28 110 70t27 108h-74v215h187v-184q0 -123 -54 -188.5t-172 -92.5z" />
<glyph unicode="&#x2022;" horiz-adv-x="978" d="M221 719v4q0 109 80 187.5t188 78.5q107 0 188 -78.5t81 -187.5v-4q0 -110 -79 -188t-190 -78q-110 0 -189 78t-79 188z" />
<glyph unicode="&#x2026;" horiz-adv-x="1480" d="M158 0v211h182v-211h-182zM649 0v211h182v-211h-182zM1141 0v211h184v-211h-184z" />
<glyph unicode="&#x202f;" horiz-adv-x="371" />
<glyph unicode="&#x2039;" horiz-adv-x="671" d="M74 528l356 447l107 -86l-289 -361l289 -358l-107 -86z" />
<glyph unicode="&#x203a;" horiz-adv-x="671" d="M133 170l289 360l-289 359l107 86l356 -445l-356 -446z" />
<glyph unicode="&#x205f;" horiz-adv-x="464" />
<glyph unicode="&#x2122;" horiz-adv-x="1413" d="M53 1348v86h496v-86h-203v-187h96v-86h-96v-272h-90v272h-96v86h96v187h-203zM688 803v655l320 -375l319 375v-655h-90v411l-229 -270l-230 270v-411h-90z" />
<glyph unicode="&#xe000;" horiz-adv-x="1054" d="M0 0v1055h1055v-1055h-1055z" />
</font>
</defs>
</svg>
