<svg version="1.1"
    class="navigation-svg"
    xmlns="http://www.w3.org/2000/svg" xmlns:xlink="http://www.w3.org/1999/xlink"
    x="0px" y="0px"
    width="144px" height="60px"
    viewBox="0 6 144 60"
    xml:space="preserve">

    <style>
        .navigation-svg .fbtn-move {
            -webkit-transition: transform .3s ease-out;
                    transition: transform .3s ease-out;
        }
        .navigation-svg              .fbtn-move { transform: translate(0, 0); }
        .navigation-svg.hovered                 { cursor: pointer; }
        .navigation-svg.hovered      .fbtn-move { transform: translate(-18px, 18px); }
        .navigation-svg.active       .fbtn-move { transform: translate(-18px, 18px); }
    </style>

    <defs>
        <mask id="fbtn-mask" ><rect x="23.5" y="-1.5" fill="#FFFFFF" width="122" height="62"/></mask>
    </defs>

    <g mask="url(#fbtn-mask)">
        <g class="fbtn-t2">
            <polygon fill="#CCCCCC" stroke="#000000" stroke-width="2" stroke-linecap="round" stroke-linejoin="round" stroke-miterlimit="10"
                points="84,36 12,36 24,24 96,24"/>
            <g>
                <line fill="#CCCCCC" stroke="#000000" stroke-width="2" stroke-linecap="round" stroke-linejoin="round" stroke-miterlimit="10" x1="16" y1="36" x2="28" y2="24"/>
                <line fill="#CCCCCC" stroke="#000000" stroke-width="2" stroke-linecap="round" stroke-linejoin="round" stroke-miterlimit="10" x1="20" y1="36" x2="32" y2="24"/>
                <line fill="#CCCCCC" stroke="#000000" stroke-width="2" stroke-linecap="round" stroke-linejoin="round" stroke-miterlimit="10" x1="24" y1="36" x2="36" y2="24"/>
                <line fill="#CCCCCC" stroke="#000000" stroke-width="2" stroke-linecap="round" stroke-linejoin="round" stroke-miterlimit="10" x1="28" y1="36" x2="40" y2="24"/>
                <line fill="#CCCCCC" stroke="#000000" stroke-width="2" stroke-linecap="round" stroke-linejoin="round" stroke-miterlimit="10" x1="32" y1="36" x2="44" y2="24"/>
                <line fill="#CCCCCC" stroke="#000000" stroke-width="2" stroke-linecap="round" stroke-linejoin="round" stroke-miterlimit="10" x1="36" y1="36" x2="48" y2="24"/>
                <line fill="#CCCCCC" stroke="#000000" stroke-width="2" stroke-linecap="round" stroke-linejoin="round" stroke-miterlimit="10" x1="40" y1="36" x2="52" y2="24"/>
                <line fill="#CCCCCC" stroke="#000000" stroke-width="2" stroke-linecap="round" stroke-linejoin="round" stroke-miterlimit="10" x1="44" y1="36" x2="56" y2="24"/>
                <line fill="#CCCCCC" stroke="#000000" stroke-width="2" stroke-linecap="round" stroke-linejoin="round" stroke-miterlimit="10" x1="48" y1="36" x2="60" y2="24"/>
                <line fill="#CCCCCC" stroke="#000000" stroke-width="2" stroke-linecap="round" stroke-linejoin="round" stroke-miterlimit="10" x1="52" y1="36" x2="64" y2="24"/>
                <line fill="#CCCCCC" stroke="#000000" stroke-width="2" stroke-linecap="round" stroke-linejoin="round" stroke-miterlimit="10" x1="56" y1="36" x2="68" y2="24"/>
                <line fill="#CCCCCC" stroke="#000000" stroke-width="2" stroke-linecap="round" stroke-linejoin="round" stroke-miterlimit="10" x1="60" y1="36" x2="72" y2="24"/>
                <line fill="#CCCCCC" stroke="#000000" stroke-width="2" stroke-linecap="round" stroke-linejoin="round" stroke-miterlimit="10" x1="64" y1="36" x2="76" y2="24"/>
                <line fill="#CCCCCC" stroke="#000000" stroke-width="2" stroke-linecap="round" stroke-linejoin="round" stroke-miterlimit="10" x1="68" y1="36" x2="80" y2="24"/>
                <line fill="#CCCCCC" stroke="#000000" stroke-width="2" stroke-linecap="round" stroke-linejoin="round" stroke-miterlimit="10" x1="72" y1="36" x2="84" y2="24"/>
                <line fill="#CCCCCC" stroke="#000000" stroke-width="2" stroke-linecap="round" stroke-linejoin="round" stroke-miterlimit="10" x1="76" y1="36" x2="88" y2="24"/>
                <line fill="#CCCCCC" stroke="#000000" stroke-width="2" stroke-linecap="round" stroke-linejoin="round" stroke-miterlimit="10" x1="80" y1="36" x2="92" y2="24"/>
            </g>
        </g>
        
        <polygon class="fbtn-l2" fill="#FFFFFF" stroke="#000000" stroke-width="2" stroke-linecap="round" stroke-linejoin="round" stroke-miterlimit="10"
            points="96,60 84,72 84,36 96,24"/>
        
        <g class="fbtn-move">
            <g class="fbtn-cf">
                <rect class="fbtn-f"
                    x="36" y="12"
                    fill="#FFFFFF" stroke="#000000"
                    stroke-width="2" stroke-linecap="round" stroke-linejoin="round" stroke-miterlimit="10"
                    width="72" height="36"/>
                <g class="fbtn-txt">
                    <path d="M43.121,23.735h3.547l2.989,6.014l3.241-6.518l3.259,6.518l2.989-6.014h3.547l-6.536,13.107l-3.259-6.518l-3.241,6.518L43.121,23.735z"/>
                    <path d="M64.073,23.735H74.21v2.971h-6.68v1.909h6.05v2.754h-6.05v1.999h6.77v2.971H64.073V23.735z"/>
                    <path d="M76.079,23.735h5.96c1.926,0,3.259,0.504,4.104,1.368c0.738,0.72,1.117,1.692,1.117,2.935v0.036c0,1.927-1.026,3.205-2.593,3.871l3.007,4.394h-4.033l-2.539-3.817h-0.036h-1.494v3.817h-3.493V23.735z M81.877,29.785c1.188,0,1.872-0.576,1.872-1.495v-0.036c0-0.99-0.72-1.495-1.891-1.495h-2.286v3.025H81.877z"/>
                    <path d="M89.021,23.735h3.493v4.483l4.088-4.483h4.393l-4.843,5.312l5.005,7.292h-4.195l-3.187-4.699l-4.754,5.203V23.735z"/>
                </g>
            </g>
            <g class="fbtn-b">
                <polygon fill="#CCCCCC" stroke="#000000" stroke-width="2" stroke-linecap="round" stroke-linejoin="round" stroke-miterlimit="10"
                    points="96,60 24,60 36,48 108,48"/>
                <g>
                    <line fill="#CCCCCC" stroke="#000000" stroke-width="2" stroke-linecap="round" stroke-linejoin="round" stroke-miterlimit="10" x1="28" y1="60" x2="40" y2="48"/>
                    <line fill="#CCCCCC" stroke="#000000" stroke-width="2" stroke-linecap="round" stroke-linejoin="round" stroke-miterlimit="10" x1="32" y1="60" x2="44" y2="48"/>
                    <line fill="#CCCCCC" stroke="#000000" stroke-width="2" stroke-linecap="round" stroke-linejoin="round" stroke-miterlimit="10" x1="36" y1="60" x2="48" y2="48"/>
                    <line fill="#CCCCCC" stroke="#000000" stroke-width="2" stroke-linecap="round" stroke-linejoin="round" stroke-miterlimit="10" x1="40" y1="60" x2="52" y2="48"/>
                    <line fill="#CCCCCC" stroke="#000000" stroke-width="2" stroke-linecap="round" stroke-linejoin="round" stroke-miterlimit="10" x1="44" y1="60" x2="56" y2="48"/>
                    <line fill="#CCCCCC" stroke="#000000" stroke-width="2" stroke-linecap="round" stroke-linejoin="round" stroke-miterlimit="10" x1="48" y1="60" x2="60" y2="48"/>
                    <line fill="#CCCCCC" stroke="#000000" stroke-width="2" stroke-linecap="round" stroke-linejoin="round" stroke-miterlimit="10" x1="52" y1="60" x2="64" y2="48"/>
                    <line fill="#CCCCCC" stroke="#000000" stroke-width="2" stroke-linecap="round" stroke-linejoin="round" stroke-miterlimit="10" x1="56" y1="60" x2="68" y2="48"/>
                    <line fill="#CCCCCC" stroke="#000000" stroke-width="2" stroke-linecap="round" stroke-linejoin="round" stroke-miterlimit="10" x1="60" y1="60" x2="72" y2="48"/>
                    <line fill="#CCCCCC" stroke="#000000" stroke-width="2" stroke-linecap="round" stroke-linejoin="round" stroke-miterlimit="10" x1="64" y1="60" x2="76" y2="48"/>
                    <line fill="#CCCCCC" stroke="#000000" stroke-width="2" stroke-linecap="round" stroke-linejoin="round" stroke-miterlimit="10" x1="68" y1="60" x2="80" y2="48"/>
                    <line fill="#CCCCCC" stroke="#000000" stroke-width="2" stroke-linecap="round" stroke-linejoin="round" stroke-miterlimit="10" x1="72" y1="60" x2="84" y2="48"/>
                    <line fill="#CCCCCC" stroke="#000000" stroke-width="2" stroke-linecap="round" stroke-linejoin="round" stroke-miterlimit="10" x1="76" y1="60" x2="88" y2="48"/>
                    <line fill="#CCCCCC" stroke="#000000" stroke-width="2" stroke-linecap="round" stroke-linejoin="round" stroke-miterlimit="10" x1="80" y1="60" x2="92" y2="48"/>
                    <line fill="#CCCCCC" stroke="#000000" stroke-width="2" stroke-linecap="round" stroke-linejoin="round" stroke-miterlimit="10" x1="84" y1="60" x2="96" y2="48"/>
                    <line fill="#CCCCCC" stroke="#000000" stroke-width="2" stroke-linecap="round" stroke-linejoin="round" stroke-miterlimit="10" x1="88" y1="60" x2="100" y2="48"/>
                    <line fill="#CCCCCC" stroke="#000000" stroke-width="2" stroke-linecap="round" stroke-linejoin="round" stroke-miterlimit="10" x1="92" y1="60" x2="104" y2="48"/>
                </g>
            </g>
            <polygon class="fbtn-l" fill="#FFFFFF" stroke="#000000" stroke-width="2" stroke-linecap="round" stroke-linejoin="round" stroke-miterlimit="10" points="36,48 24,60 24,24 36,12"/>
        </g>
    </g>

    <polyline class="fbtn-fxline-f" fill="none" stroke="#000000" stroke-width="2" stroke-linecap="round" stroke-linejoin="round" stroke-miterlimit="10" points="24,24 24,60 96,60"/>
</svg>
