<svg version="1.1"
    class="navigation-svg"
    xmlns="http://www.w3.org/2000/svg" xmlns:xlink="http://www.w3.org/1999/xlink"
    x="0px" y="0px"
    width="144px" height="72px"
    viewBox="0 0 144 72"
    xml:space="preserve">

    <style>
        .navigation-svg .fbtn-move {
            -webkit-transition: transform .3s ease-out;
                    transition: transform .3s ease-out;
        }
        .navigation-svg              .fbtn-move { transform: translate(0, 0); }
        .navigation-svg:hover                   { cursor: pointer; }
        .navigation-svg:hover        .fbtn-move { transform: translate(-18px, 18px); }
        .navigation-svg.active       .fbtn-move { transform: translate(-36px, 36px); }
        .navigation-svg.active:hover .fbtn-move { transform: translate(-18px, 18px); }
    </style>

    <defs>
        <mask id="fbtn-mask" ><rect x="23.5" y="-1.5" fill="#FFFFFF" width="122" height="62"/></mask>
    </defs>

    <g mask="url(#fbtn-mask)">
        <g class="fbtn-t2">
            <polygon fill="#CCCCCC" stroke="#000000" stroke-width="2" stroke-linecap="round" stroke-linejoin="round" stroke-miterlimit="10" points="108,36 12,36 24,24 120,24"/>
            <g>
                <line fill="#CCCCCC" stroke="#000000" stroke-width="2" stroke-linecap="round" stroke-linejoin="round" stroke-miterlimit="10" x1="16" y1="36" x2="28" y2="24"/>
                <line fill="#CCCCCC" stroke="#000000" stroke-width="2" stroke-linecap="round" stroke-linejoin="round" stroke-miterlimit="10" x1="20" y1="36" x2="32" y2="24"/>
                <line fill="#CCCCCC" stroke="#000000" stroke-width="2" stroke-linecap="round" stroke-linejoin="round" stroke-miterlimit="10" x1="24" y1="36" x2="36" y2="24"/>
                <line fill="#CCCCCC" stroke="#000000" stroke-width="2" stroke-linecap="round" stroke-linejoin="round" stroke-miterlimit="10" x1="28" y1="36" x2="40" y2="24"/>
                <line fill="#CCCCCC" stroke="#000000" stroke-width="2" stroke-linecap="round" stroke-linejoin="round" stroke-miterlimit="10" x1="32" y1="36" x2="44" y2="24"/>
                <line fill="#CCCCCC" stroke="#000000" stroke-width="2" stroke-linecap="round" stroke-linejoin="round" stroke-miterlimit="10" x1="36" y1="36" x2="48" y2="24"/>
                <line fill="#CCCCCC" stroke="#000000" stroke-width="2" stroke-linecap="round" stroke-linejoin="round" stroke-miterlimit="10" x1="40" y1="36" x2="52" y2="24"/>
                <line fill="#CCCCCC" stroke="#000000" stroke-width="2" stroke-linecap="round" stroke-linejoin="round" stroke-miterlimit="10" x1="44" y1="36" x2="56" y2="24"/>
                <line fill="#CCCCCC" stroke="#000000" stroke-width="2" stroke-linecap="round" stroke-linejoin="round" stroke-miterlimit="10" x1="48" y1="36" x2="60" y2="24"/>
                <line fill="#CCCCCC" stroke="#000000" stroke-width="2" stroke-linecap="round" stroke-linejoin="round" stroke-miterlimit="10" x1="52" y1="36" x2="64" y2="24"/>
                <line fill="#CCCCCC" stroke="#000000" stroke-width="2" stroke-linecap="round" stroke-linejoin="round" stroke-miterlimit="10" x1="56" y1="36" x2="68" y2="24"/>
                <line fill="#CCCCCC" stroke="#000000" stroke-width="2" stroke-linecap="round" stroke-linejoin="round" stroke-miterlimit="10" x1="60" y1="36" x2="72" y2="24"/>
                <line fill="#CCCCCC" stroke="#000000" stroke-width="2" stroke-linecap="round" stroke-linejoin="round" stroke-miterlimit="10" x1="64" y1="36" x2="76" y2="24"/>
                <line fill="#CCCCCC" stroke="#000000" stroke-width="2" stroke-linecap="round" stroke-linejoin="round" stroke-miterlimit="10" x1="68" y1="36" x2="80" y2="24"/>
                <line fill="#CCCCCC" stroke="#000000" stroke-width="2" stroke-linecap="round" stroke-linejoin="round" stroke-miterlimit="10" x1="72" y1="36" x2="84" y2="24"/>
                <line fill="#CCCCCC" stroke="#000000" stroke-width="2" stroke-linecap="round" stroke-linejoin="round" stroke-miterlimit="10" x1="76" y1="36" x2="88" y2="24"/>
                <line fill="#CCCCCC" stroke="#000000" stroke-width="2" stroke-linecap="round" stroke-linejoin="round" stroke-miterlimit="10" x1="80" y1="36" x2="92" y2="24"/>
                <line fill="#CCCCCC" stroke="#000000" stroke-width="2" stroke-linecap="round" stroke-linejoin="round" stroke-miterlimit="10" x1="84" y1="36" x2="96" y2="24"/>
                <line fill="#CCCCCC" stroke="#000000" stroke-width="2" stroke-linecap="round" stroke-linejoin="round" stroke-miterlimit="10" x1="88" y1="36" x2="100" y2="24"/>
                <line fill="#CCCCCC" stroke="#000000" stroke-width="2" stroke-linecap="round" stroke-linejoin="round" stroke-miterlimit="10" x1="92" y1="36" x2="104" y2="24"/>
                <line fill="#CCCCCC" stroke="#000000" stroke-width="2" stroke-linecap="round" stroke-linejoin="round" stroke-miterlimit="10" x1="96" y1="36" x2="108" y2="24"/>
                <line fill="#CCCCCC" stroke="#000000" stroke-width="2" stroke-linecap="round" stroke-linejoin="round" stroke-miterlimit="10" x1="100" y1="36" x2="112" y2="24"/>
                <line fill="#CCCCCC" stroke="#000000" stroke-width="2" stroke-linecap="round" stroke-linejoin="round" stroke-miterlimit="10" x1="104" y1="36" x2="116" y2="24"/>
            </g>
        </g>
        
        <polygon class="fbtn-l2" fill="#FFFFFF" stroke="#000000" stroke-width="2" stroke-linecap="round" stroke-linejoin="round" stroke-miterlimit="10" points="120,60 108,72 108,36 120,24"/>
        
        <g class="fbtn-move">
            <g class="fbtn-cf">
                <rect class="fbtn-f" x="36" y="12" fill="#FFFFFF" stroke="#000000" stroke-width="2" stroke-linecap="round" stroke-linejoin="round" stroke-miterlimit="10" width="96" height="36"/>
                <g class="fbtn-c">
                    <path fill="#19181B" d="M47.939,22.34h4.312l3.633,7.311l3.94-7.924l3.961,7.924l3.635-7.311h4.312l-7.946,15.934l-3.961-7.923l-3.94,7.923L47.939,22.34z"/>
                    <path fill="#19181B" d="M72.574,22.34h12.301v3.611h-8.12v2.32h7.354v3.349h-7.354v2.43h8.229v3.611h-12.41L72.574,22.34z"/>
                    <path fill="#19181B" d="M88.255,22.34H95.5c1.182,0,2.181,0.146,2.998,0.438s1.481,0.7,1.992,1.226c0.904,0.876,1.357,2.065,1.357,3.568v0.044c0,1.182-0.285,2.16-0.854,2.933c-0.568,0.774-1.335,1.364-2.298,1.773l3.655,5.341h-4.903l-3.086-4.641h-0.043h-1.817v4.641h-4.246L88.255,22.34z M95.302,29.694c0.729,0,1.291-0.164,1.686-0.493c0.394-0.328,0.591-0.769,0.591-1.324v-0.043c0-0.613-0.204-1.069-0.613-1.368c-0.408-0.299-0.971-0.449-1.685-0.449h-2.78v3.678L95.302,29.694L95.302,29.694z"/>
                    <path fill="#19181B" d="M105.308,22.34h4.247v5.45l4.968-5.45h5.342l-5.889,6.457l6.085,8.864h-5.1l-3.874-5.713l-5.778,6.326V22.34H105.308z"/>
                </g>
            </g>
            <g class="fbtn-b">
                <polygon fill="#CCCCCC" stroke="#000000" stroke-width="2" stroke-linecap="round" stroke-linejoin="round" stroke-miterlimit="10" points="120,60 24,60 36,48 132,48"/>
                <g>
                    <line fill="#CCCCCC" stroke="#000000" stroke-width="2" stroke-linecap="round" stroke-linejoin="round" stroke-miterlimit="10" x1="28" y1="60" x2="40" y2="48"/>
                    <line fill="#CCCCCC" stroke="#000000" stroke-width="2" stroke-linecap="round" stroke-linejoin="round" stroke-miterlimit="10" x1="32" y1="60" x2="44" y2="48"/>
                    <line fill="#CCCCCC" stroke="#000000" stroke-width="2" stroke-linecap="round" stroke-linejoin="round" stroke-miterlimit="10" x1="36" y1="60" x2="48" y2="48"/>
                    <line fill="#CCCCCC" stroke="#000000" stroke-width="2" stroke-linecap="round" stroke-linejoin="round" stroke-miterlimit="10" x1="40" y1="60" x2="52" y2="48"/>
                    <line fill="#CCCCCC" stroke="#000000" stroke-width="2" stroke-linecap="round" stroke-linejoin="round" stroke-miterlimit="10" x1="44" y1="60" x2="56" y2="48"/>
                    <line fill="#CCCCCC" stroke="#000000" stroke-width="2" stroke-linecap="round" stroke-linejoin="round" stroke-miterlimit="10" x1="48" y1="60" x2="60" y2="48"/>
                    <line fill="#CCCCCC" stroke="#000000" stroke-width="2" stroke-linecap="round" stroke-linejoin="round" stroke-miterlimit="10" x1="52" y1="60" x2="64" y2="48"/>
                    <line fill="#CCCCCC" stroke="#000000" stroke-width="2" stroke-linecap="round" stroke-linejoin="round" stroke-miterlimit="10" x1="56" y1="60" x2="68" y2="48"/>
                    <line fill="#CCCCCC" stroke="#000000" stroke-width="2" stroke-linecap="round" stroke-linejoin="round" stroke-miterlimit="10" x1="60" y1="60" x2="72" y2="48"/>
                    <line fill="#CCCCCC" stroke="#000000" stroke-width="2" stroke-linecap="round" stroke-linejoin="round" stroke-miterlimit="10" x1="64" y1="60" x2="76" y2="48"/>
                    <line fill="#CCCCCC" stroke="#000000" stroke-width="2" stroke-linecap="round" stroke-linejoin="round" stroke-miterlimit="10" x1="68" y1="60" x2="80" y2="48"/>
                    <line fill="#CCCCCC" stroke="#000000" stroke-width="2" stroke-linecap="round" stroke-linejoin="round" stroke-miterlimit="10" x1="72" y1="60" x2="84" y2="48"/>
                    <line fill="#CCCCCC" stroke="#000000" stroke-width="2" stroke-linecap="round" stroke-linejoin="round" stroke-miterlimit="10" x1="76" y1="60" x2="88" y2="48"/>
                    <line fill="#CCCCCC" stroke="#000000" stroke-width="2" stroke-linecap="round" stroke-linejoin="round" stroke-miterlimit="10" x1="80" y1="60" x2="92" y2="48"/>
                    <line fill="#CCCCCC" stroke="#000000" stroke-width="2" stroke-linecap="round" stroke-linejoin="round" stroke-miterlimit="10" x1="84" y1="60" x2="96" y2="48"/>
                    <line fill="#CCCCCC" stroke="#000000" stroke-width="2" stroke-linecap="round" stroke-linejoin="round" stroke-miterlimit="10" x1="88" y1="60" x2="100" y2="48"/>
                    <line fill="#CCCCCC" stroke="#000000" stroke-width="2" stroke-linecap="round" stroke-linejoin="round" stroke-miterlimit="10" x1="92" y1="60" x2="104" y2="48"/>
                    <line fill="#CCCCCC" stroke="#000000" stroke-width="2" stroke-linecap="round" stroke-linejoin="round" stroke-miterlimit="10" x1="96" y1="60" x2="108" y2="48"/>
                    <line fill="#CCCCCC" stroke="#000000" stroke-width="2" stroke-linecap="round" stroke-linejoin="round" stroke-miterlimit="10" x1="100" y1="60" x2="112" y2="48"/>
                    <line fill="#CCCCCC" stroke="#000000" stroke-width="2" stroke-linecap="round" stroke-linejoin="round" stroke-miterlimit="10" x1="104" y1="60" x2="116" y2="48"/>
                    <line fill="#CCCCCC" stroke="#000000" stroke-width="2" stroke-linecap="round" stroke-linejoin="round" stroke-miterlimit="10" x1="108" y1="60" x2="120" y2="48"/>
                    <line fill="#CCCCCC" stroke="#000000" stroke-width="2" stroke-linecap="round" stroke-linejoin="round" stroke-miterlimit="10" x1="112" y1="60" x2="124" y2="48"/>
                    <line fill="#CCCCCC" stroke="#000000" stroke-width="2" stroke-linecap="round" stroke-linejoin="round" stroke-miterlimit="10" x1="116" y1="60" x2="128" y2="48"/>
                </g>
            </g>
            <polygon class="fbtn-l" fill="#FFFFFF" stroke="#000000" stroke-width="2" stroke-linecap="round" stroke-linejoin="round" stroke-miterlimit="10" points="36,48 24,60 24,24 36,12"/>
        </g>
    </g>

    <polyline class="fbtn-fxline-f" fill="none" stroke="#000000" stroke-width="2" stroke-linecap="round" stroke-linejoin="round" stroke-miterlimit="10" points="24,24 24,60 120,60"/>
</svg>
