<?xml version="1.0" encoding="utf-8"?>
<!-- Generator: Adobe Illustrator 17.0.0, SVG Export Plug-In . SVG Version: 6.00 Build 0)  -->
<!DOCTYPE svg PUBLIC "-//W3C//DTD SVG 1.1//EN" "http://www.w3.org/Graphics/SVG/1.1/DTD/svg11.dtd">
<svg version="1.1" id="Layer_1" xmlns="http://www.w3.org/2000/svg" xmlns:xlink="http://www.w3.org/1999/xlink" x="0px" y="0px"
	 width="96px" height="144px" viewBox="0 0 96 144" style="enable-background:new 0 0 96 144;" xml:space="preserve">
<g>
	<g id="T">
		<path id="yy" d="M14.4,112.6l-4.9-8.1h4.1l2.7,4.7l2.7-4.7h4l-4.9,8.1v4.9h-3.6V112.6z"/>
		<path id="ya" d="M26.8,104.4h3.5l5.5,13.1H32l-0.9-2.3h-5l-0.9,2.3h-3.8L26.8,104.4z M30,112.4l-1.5-3.7l-1.5,3.7H30z"/>
		<path id="ys2" d="M36.2,115.6l2-2.4c1.3,1,2.7,1.6,4.2,1.6c1,0,1.5-0.3,1.5-0.9v0c0-0.5-0.4-0.8-2.2-1.2c-2.8-0.6-4.9-1.4-4.9-4.1
			v0c0-2.4,1.9-4.2,5-4.2c2.2,0,3.9,0.6,5.4,1.7l-1.8,2.5c-1.2-0.8-2.5-1.3-3.6-1.3c-0.9,0-1.3,0.4-1.3,0.8v0c0,0.6,0.4,0.9,2.3,1.3
			c3,0.7,4.9,1.6,4.9,4.1v0c0,2.7-2.1,4.2-5.3,4.2C40,117.7,37.8,117,36.2,115.6z"/>
		<path id="ys1" d="M48.5,115.6l2-2.4c1.3,1,2.7,1.6,4.2,1.6c1,0,1.5-0.3,1.5-0.9v0c0-0.5-0.4-0.8-2.2-1.2c-2.8-0.6-4.9-1.4-4.9-4.1
			v0c0-2.4,1.9-4.2,5-4.2c2.2,0,3.9,0.6,5.4,1.7l-1.8,2.5c-1.2-0.8-2.5-1.3-3.6-1.3c-0.9,0-1.3,0.4-1.3,0.8v0c0,0.6,0.4,0.9,2.3,1.3
			c3,0.7,4.9,1.6,4.9,4.1v0c0,2.7-2.1,4.2-5.3,4.2C52.3,117.7,50.1,117,48.5,115.6z"/>
		<path id="ye" d="M61.9,104.5h10.5v3.1h-6.9v2h6.3v2.8h-6.3v2.1h7v3.1H61.9V104.5z"/>
		<path id="yr2" d="M74.7,104.5h6.2c2,0,3.4,0.5,4.2,1.4c0.8,0.7,1.2,1.7,1.2,3v0c0,2-1.1,3.3-2.7,4l3.1,4.5h-4.2l-2.6-3.9h0h-1.5
			v3.9h-3.6V104.5z M80.7,110.7c1.2,0,1.9-0.6,1.9-1.5v0c0-1-0.7-1.5-2-1.5h-2.4v3.1H80.7z"/>
		<path id="yr1" d="M10.6,124.7h6.2c2,0,3.4,0.5,4.2,1.4c0.8,0.7,1.2,1.7,1.2,3v0c0,2-1.1,3.3-2.7,4l3.1,4.5h-4.2l-2.6-3.9h0h-1.5
			v3.9h-3.6V124.7z M16.6,131c1.2,0,1.9-0.6,1.9-1.5v0c0-1-0.7-1.5-2-1.5h-2.4v3.1H16.6z"/>
		<path id="ti" d="M25,124.7h3.6v13H25V124.7z"/>
		<path id="tz" d="M31.5,135.1l6.5-7.3h-6.3v-3.1H43v2.6l-6.5,7.3H43v3.1H31.5V135.1z"/>
		<path id="tk" d="M45.8,124.7h3.6v5.3l4.5-5.3h4.3l-4.9,5.6l5.1,7.4H54l-3.3-4.8l-1.3,1.5v3.4h-3.6V124.7z"/>
		<path id="ty" d="M63.5,132.8l-4.9-8.1h4.1l2.7,4.7l2.7-4.7h4l-4.9,8.1v4.9h-3.6V132.8z"/>
	</g>
	<rect id="H" x="10.5" y="85.7" width="75.1" height="11.6"/>
	<g id="Y">
		<path d="M36,52.9L8.9,6.3H36l12,24.1L60,6.3h27.1L60,52.9v25.6H36V52.9z"/>
	</g>
</g>
<g>
</g>
<g>
</g>
<g>
</g>
<g>
</g>
<g>
</g>
<g>
</g>
<g>
</g>
<g>
</g>
<g>
</g>
<g>
</g>
<g>
</g>
<g>
</g>
<g>
</g>
<g>
</g>
<g>
</g>
</svg>
